%TF.GenerationSoftware,KiCad,Pcbnew,7.0.9*%
%TF.CreationDate,2024-04-08T13:50:44+02:00*%
%TF.ProjectId,Test_1,54657374-5f31-42e6-9b69-6361645f7063,rev?*%
%TF.SameCoordinates,Original*%
%TF.FileFunction,Copper,L4,Bot*%
%TF.FilePolarity,Positive*%
%FSLAX46Y46*%
G04 Gerber Fmt 4.6, Leading zero omitted, Abs format (unit mm)*
G04 Created by KiCad (PCBNEW 7.0.9) date 2024-04-08 13:50:44*
%MOMM*%
%LPD*%
G01*
G04 APERTURE LIST*
G04 Aperture macros list*
%AMRoundRect*
0 Rectangle with rounded corners*
0 $1 Rounding radius*
0 $2 $3 $4 $5 $6 $7 $8 $9 X,Y pos of 4 corners*
0 Add a 4 corners polygon primitive as box body*
4,1,4,$2,$3,$4,$5,$6,$7,$8,$9,$2,$3,0*
0 Add four circle primitives for the rounded corners*
1,1,$1+$1,$2,$3*
1,1,$1+$1,$4,$5*
1,1,$1+$1,$6,$7*
1,1,$1+$1,$8,$9*
0 Add four rect primitives between the rounded corners*
20,1,$1+$1,$2,$3,$4,$5,0*
20,1,$1+$1,$4,$5,$6,$7,0*
20,1,$1+$1,$6,$7,$8,$9,0*
20,1,$1+$1,$8,$9,$2,$3,0*%
G04 Aperture macros list end*
%TA.AperFunction,ComponentPad*%
%ADD10R,1.700000X1.700000*%
%TD*%
%TA.AperFunction,ComponentPad*%
%ADD11O,1.700000X1.700000*%
%TD*%
%TA.AperFunction,ComponentPad*%
%ADD12R,1.600000X1.600000*%
%TD*%
%TA.AperFunction,ComponentPad*%
%ADD13C,1.600000*%
%TD*%
%TA.AperFunction,SMDPad,CuDef*%
%ADD14RoundRect,0.250000X-0.325000X-0.650000X0.325000X-0.650000X0.325000X0.650000X-0.325000X0.650000X0*%
%TD*%
%TA.AperFunction,ViaPad*%
%ADD15C,0.500000*%
%TD*%
%TA.AperFunction,ViaPad*%
%ADD16C,0.410000*%
%TD*%
%TA.AperFunction,Conductor*%
%ADD17C,0.500000*%
%TD*%
G04 APERTURE END LIST*
D10*
%TO.P,JP1,1,A*%
%TO.N,Net-(J6-Pin_1)*%
X113200000Y-121200000D03*
D11*
%TO.P,JP1,2,C*%
%TO.N,GND*%
X115740000Y-121200000D03*
%TO.P,JP1,3,B*%
X118280000Y-121200000D03*
%TD*%
D10*
%TO.P,JP2,1,A*%
%TO.N,Net-(J5-Pin_1)*%
X102100000Y-121200000D03*
D11*
%TO.P,JP2,2,C*%
%TO.N,Net-(D1-A1)*%
X99560000Y-121200000D03*
%TO.P,JP2,3,B*%
%TO.N,Net-(J1-Pin_4)*%
X97020000Y-121200000D03*
%TD*%
D10*
%TO.P,J6,1,Pin_1*%
%TO.N,Net-(J6-Pin_1)*%
X109500000Y-121200000D03*
%TD*%
%TO.P,JP3,1,A*%
%TO.N,GND*%
X78740000Y-131200000D03*
D11*
%TO.P,JP3,2,C*%
%TO.N,Net-(JP3-C)*%
X78740000Y-133740000D03*
%TO.P,JP3,3,B*%
%TO.N,/3.3V*%
X78740000Y-136280000D03*
%TD*%
D10*
%TO.P,J5,1,Pin_1*%
%TO.N,Net-(J5-Pin_1)*%
X105800000Y-121200000D03*
%TD*%
%TO.P,J2,1,Pin_1*%
%TO.N,Net-(J2-Pin_1)*%
X95700000Y-148125000D03*
D11*
%TO.P,J2,2,Pin_2*%
%TO.N,/OUT+*%
X95700000Y-150665000D03*
%TD*%
D10*
%TO.P,J3,1,Pin_1*%
%TO.N,Net-(J3-Pin_1)*%
X90760000Y-121200000D03*
D11*
%TO.P,J3,2,Pin_2*%
%TO.N,/3.3V*%
X93300000Y-121200000D03*
%TD*%
D12*
%TO.P,U2,1,PA02_A0_D0*%
%TO.N,Net-(Q4-E)*%
X119720000Y-129280000D03*
D13*
%TO.P,U2,2,PA4_A1_D1*%
%TO.N,Net-(U2-PA4_A1_D1)*%
X117180000Y-129280000D03*
%TO.P,U2,3,PA10_A2_D2*%
%TO.N,unconnected-(U2-PA10_A2_D2-Pad3)*%
X114640000Y-129280000D03*
%TO.P,U2,4,PA11_A3_D3*%
%TO.N,unconnected-(U2-PA11_A3_D3-Pad4)*%
X112100000Y-129280000D03*
%TO.P,U2,5,PA8_A4_D4_SDA*%
%TO.N,unconnected-(U2-PA8_A4_D4_SDA-Pad5)*%
X109560000Y-129280000D03*
%TO.P,U2,6,PA9_A5_D5_SCL*%
%TO.N,unconnected-(U2-PA9_A5_D5_SCL-Pad6)*%
X107020000Y-129280000D03*
%TO.P,U2,7,PB08_A6_D6_TX*%
%TO.N,unconnected-(U2-PB08_A6_D6_TX-Pad7)*%
X104480000Y-129280000D03*
%TO.P,U2,8,PB09_A7_D7_RX*%
%TO.N,Net-(U1-NCS)*%
X104480000Y-144520000D03*
%TO.P,U2,9,PA7_A8_D8_SCK*%
%TO.N,Net-(U1-SCK)*%
X107020000Y-144520000D03*
%TO.P,U2,10,PA5_A9_D9_MISO*%
%TO.N,Net-(U1-SDO)*%
X109560000Y-144520000D03*
%TO.P,U2,11,PA6_A10_D10_MOSI*%
%TO.N,Net-(U1-SDI)*%
X112100000Y-144520000D03*
%TO.P,U2,12,3V3*%
%TO.N,unconnected-(U2-3V3-Pad12)*%
X114640000Y-144520000D03*
%TO.P,U2,13,GND*%
%TO.N,GND*%
X117180000Y-144520000D03*
%TO.P,U2,14,5V*%
%TO.N,/3.3V*%
X119720000Y-144520000D03*
%TD*%
D14*
%TO.P,C6,1*%
%TO.N,Net-(U1-INT)*%
X95925000Y-133200000D03*
%TO.P,C6,2*%
%TO.N,GND*%
X98875000Y-133200000D03*
%TD*%
D10*
%TO.P,J1,1,Pin_1*%
%TO.N,unconnected-(J1-Pin_1-Pad1)*%
X78740000Y-121158000D03*
D11*
%TO.P,J1,2,Pin_2*%
%TO.N,unconnected-(J1-Pin_2-Pad2)*%
X81280000Y-121158000D03*
%TO.P,J1,3,Pin_3*%
%TO.N,GND*%
X83820000Y-121158000D03*
%TO.P,J1,4,Pin_4*%
%TO.N,Net-(J1-Pin_4)*%
X86360000Y-121158000D03*
%TD*%
D10*
%TO.P,J106,1,Pin_1*%
%TO.N,GND*%
X99060000Y-141478000D03*
D11*
%TO.P,J106,2,Pin_2*%
%TO.N,unconnected-(J106-Pin_2-Pad2)*%
X99060000Y-144018000D03*
%TO.P,J106,3,Pin_3*%
%TO.N,unconnected-(J106-Pin_3-Pad3)*%
X99060000Y-146558000D03*
%TO.P,J106,4,Pin_4*%
%TO.N,unconnected-(J106-Pin_4-Pad4)*%
X99060000Y-149098000D03*
%TO.P,J106,5,Pin_5*%
%TO.N,unconnected-(J106-Pin_5-Pad5)*%
X99060000Y-151638000D03*
%TO.P,J106,6,Pin_6*%
%TO.N,GND*%
X99060000Y-154178000D03*
%TD*%
D10*
%TO.P,J4,1,Pin_1*%
%TO.N,/3.3V*%
X117790000Y-124790000D03*
%TD*%
%TO.P,J105,1,Pin_1*%
%TO.N,Net-(J105-Pin_1)*%
X78740000Y-141478000D03*
D11*
%TO.P,J105,2,Pin_2*%
%TO.N,unconnected-(J105-Pin_2-Pad2)*%
X78740000Y-144018000D03*
%TO.P,J105,3,Pin_3*%
%TO.N,unconnected-(J105-Pin_3-Pad3)*%
X78740000Y-146558000D03*
%TO.P,J105,4,Pin_4*%
%TO.N,unconnected-(J105-Pin_4-Pad4)*%
X78740000Y-149098000D03*
%TO.P,J105,5,Pin_5*%
%TO.N,unconnected-(J105-Pin_5-Pad5)*%
X78740000Y-151638000D03*
%TO.P,J105,6,Pin_6*%
%TO.N,Net-(J105-Pin_6)*%
X78740000Y-154178000D03*
%TD*%
D15*
%TO.N,Net-(Q3-G)*%
X86000000Y-138500000D03*
%TO.N,Net-(U1-SDO)*%
X108900000Y-142800000D03*
X85850000Y-143250000D03*
D16*
%TO.N,GND*%
X87850000Y-131650000D03*
X92000000Y-132300000D03*
X88850000Y-131650000D03*
X89350000Y-133650000D03*
X90450000Y-135150000D03*
X88850000Y-132300000D03*
X91000000Y-132300000D03*
X89350000Y-135150000D03*
X87850000Y-135150000D03*
X87350000Y-136350000D03*
X89350000Y-132950000D03*
X88350000Y-135750000D03*
X90450000Y-132950000D03*
X92000000Y-133650000D03*
X88350000Y-135150000D03*
X90450000Y-133650000D03*
X92000000Y-136350000D03*
X87350000Y-131650000D03*
D15*
X78550000Y-125850000D03*
D16*
X92000000Y-131650000D03*
D15*
X81200000Y-129300000D03*
D16*
X87850000Y-135750000D03*
X91000000Y-132950000D03*
X91500000Y-136350000D03*
X88350000Y-136350000D03*
X91500000Y-135150000D03*
X88350000Y-132950000D03*
D15*
X98700000Y-139000000D03*
D16*
X89900000Y-136350000D03*
X87850000Y-133650000D03*
D15*
X83150000Y-148900000D03*
D16*
X92000000Y-135150000D03*
X87850000Y-136350000D03*
X89350000Y-135750000D03*
X91500000Y-132950000D03*
X88850000Y-135150000D03*
X90450000Y-131650000D03*
X87350000Y-135750000D03*
X88850000Y-132950000D03*
X87350000Y-132300000D03*
X91000000Y-135750000D03*
X88850000Y-135750000D03*
X90450000Y-136350000D03*
X90450000Y-132300000D03*
X89900000Y-133650000D03*
X91500000Y-135750000D03*
X91000000Y-133650000D03*
X92000000Y-135750000D03*
D15*
X82900000Y-138500000D03*
X95900000Y-124200000D03*
D16*
X87850000Y-132300000D03*
X88850000Y-133650000D03*
X88850000Y-136350000D03*
X87850000Y-132950000D03*
X87350000Y-132950000D03*
X91000000Y-135150000D03*
X89900000Y-135750000D03*
X90450000Y-135750000D03*
X91500000Y-132300000D03*
X91500000Y-133650000D03*
X89900000Y-132950000D03*
X88350000Y-131650000D03*
X89350000Y-131650000D03*
X89900000Y-132300000D03*
X88350000Y-133650000D03*
X89900000Y-135150000D03*
X89900000Y-131650000D03*
X91500000Y-131650000D03*
X87350000Y-135150000D03*
X89350000Y-136350000D03*
X91000000Y-136350000D03*
X89350000Y-132300000D03*
X87350000Y-133650000D03*
X91000000Y-131650000D03*
X92000000Y-132950000D03*
X88350000Y-132300000D03*
D15*
%TO.N,Net-(Q3-G)*%
X101050000Y-129900000D03*
%TO.N,Net-(Q4-B)*%
X100900000Y-126650000D03*
X105600000Y-126650000D03*
D16*
%TO.N,Net-(U1-INT)*%
X97200000Y-133400000D03*
D15*
%TO.N,Net-(U1-SW0)*%
X90200000Y-129500000D03*
X89700000Y-124700000D03*
D16*
%TO.N,Net-(JP3-C)*%
X92400000Y-129650000D03*
D15*
X84950000Y-130650000D03*
%TO.N,Net-(J2-Pin_1)*%
X91800000Y-142450000D03*
X96800000Y-130450000D03*
%TO.N,Net-(D1-A1)*%
X85000000Y-134400000D03*
D16*
X94700000Y-134450000D03*
D15*
X100700000Y-123300000D03*
D16*
%TO.N,/OUT+*%
X94850000Y-141196000D03*
X94200000Y-137500000D03*
D15*
X78550000Y-128550000D03*
X84100000Y-125800000D03*
D16*
%TO.N,Net-(J3-Pin_1)*%
X91437198Y-129660558D03*
D15*
X91300000Y-123200000D03*
%TD*%
D17*
%TO.N,Net-(U1-INT)*%
X97000000Y-133200000D02*
X97200000Y-133400000D01*
X95925000Y-133200000D02*
X97000000Y-133200000D01*
%TD*%
%TA.AperFunction,Conductor*%
%TO.N,GND*%
G36*
X117820507Y-120990156D02*
G01*
X117780000Y-121128111D01*
X117780000Y-121271889D01*
X117820507Y-121409844D01*
X117846314Y-121450000D01*
X116173686Y-121450000D01*
X116199493Y-121409844D01*
X116240000Y-121271889D01*
X116240000Y-121128111D01*
X116199493Y-120990156D01*
X116173686Y-120950000D01*
X117846314Y-120950000D01*
X117820507Y-120990156D01*
G37*
%TD.AperFunction*%
%TA.AperFunction,Conductor*%
G36*
X122732539Y-119119685D02*
G01*
X122778294Y-119172489D01*
X122789500Y-119224000D01*
X122789500Y-155475500D01*
X122769815Y-155542539D01*
X122717011Y-155588294D01*
X122665500Y-155599500D01*
X99765283Y-155599500D01*
X99698244Y-155579815D01*
X99652489Y-155527011D01*
X99642545Y-155457853D01*
X99671570Y-155394297D01*
X99712878Y-155363118D01*
X99737578Y-155351600D01*
X99931082Y-155216105D01*
X100098105Y-155049082D01*
X100233600Y-154855578D01*
X100333429Y-154641492D01*
X100333432Y-154641486D01*
X100390636Y-154428000D01*
X99493686Y-154428000D01*
X99519493Y-154387844D01*
X99560000Y-154249889D01*
X99560000Y-154106111D01*
X99519493Y-153968156D01*
X99493686Y-153928000D01*
X100390636Y-153928000D01*
X100390635Y-153927999D01*
X100333432Y-153714513D01*
X100333429Y-153714507D01*
X100233600Y-153500422D01*
X100233599Y-153500420D01*
X100098113Y-153306926D01*
X100098108Y-153306920D01*
X99931082Y-153139894D01*
X99737578Y-153004399D01*
X99523492Y-152904570D01*
X99523477Y-152904564D01*
X99484414Y-152894097D01*
X99424754Y-152857732D01*
X99394226Y-152794885D01*
X99402521Y-152725509D01*
X99447007Y-152671632D01*
X99471710Y-152658698D01*
X99552637Y-152627348D01*
X99726041Y-152519981D01*
X99876764Y-152382579D01*
X99999673Y-152219821D01*
X100090582Y-152037250D01*
X100146397Y-151841083D01*
X100165215Y-151638000D01*
X100146397Y-151434917D01*
X100090582Y-151238750D01*
X99999673Y-151056179D01*
X99876764Y-150893421D01*
X99876762Y-150893418D01*
X99726041Y-150756019D01*
X99726039Y-150756017D01*
X99552642Y-150648655D01*
X99552635Y-150648651D01*
X99457546Y-150611814D01*
X99362456Y-150574976D01*
X99161976Y-150537500D01*
X98958024Y-150537500D01*
X98757544Y-150574976D01*
X98757541Y-150574976D01*
X98757541Y-150574977D01*
X98567364Y-150648651D01*
X98567357Y-150648655D01*
X98393960Y-150756017D01*
X98393958Y-150756019D01*
X98243237Y-150893418D01*
X98120327Y-151056178D01*
X98029422Y-151238739D01*
X98029417Y-151238752D01*
X97973602Y-151434917D01*
X97954785Y-151637999D01*
X97954785Y-151638000D01*
X97973602Y-151841082D01*
X98029417Y-152037247D01*
X98029422Y-152037260D01*
X98120327Y-152219821D01*
X98243237Y-152382581D01*
X98393958Y-152519980D01*
X98393960Y-152519982D01*
X98493141Y-152581392D01*
X98567363Y-152627348D01*
X98648283Y-152658696D01*
X98703685Y-152701269D01*
X98727276Y-152767035D01*
X98711565Y-152835116D01*
X98661542Y-152883895D01*
X98635586Y-152894097D01*
X98596519Y-152904565D01*
X98596507Y-152904570D01*
X98382422Y-153004399D01*
X98382420Y-153004400D01*
X98188926Y-153139886D01*
X98188920Y-153139891D01*
X98021891Y-153306920D01*
X98021886Y-153306926D01*
X97886400Y-153500420D01*
X97886399Y-153500422D01*
X97786570Y-153714507D01*
X97786567Y-153714513D01*
X97729364Y-153927999D01*
X97729364Y-153928000D01*
X98626314Y-153928000D01*
X98600507Y-153968156D01*
X98560000Y-154106111D01*
X98560000Y-154249889D01*
X98600507Y-154387844D01*
X98626314Y-154428000D01*
X97729364Y-154428000D01*
X97786567Y-154641486D01*
X97786570Y-154641492D01*
X97886399Y-154855578D01*
X98021894Y-155049082D01*
X98188917Y-155216105D01*
X98382421Y-155351600D01*
X98407122Y-155363118D01*
X98459561Y-155409290D01*
X98478713Y-155476484D01*
X98458497Y-155543365D01*
X98405332Y-155588700D01*
X98354717Y-155599500D01*
X76934500Y-155599500D01*
X76867461Y-155579815D01*
X76821706Y-155527011D01*
X76810500Y-155475500D01*
X76810500Y-154178000D01*
X77634785Y-154178000D01*
X77653602Y-154381082D01*
X77709417Y-154577247D01*
X77709422Y-154577260D01*
X77800327Y-154759821D01*
X77923237Y-154922581D01*
X78073958Y-155059980D01*
X78073960Y-155059982D01*
X78173141Y-155121392D01*
X78247363Y-155167348D01*
X78437544Y-155241024D01*
X78638024Y-155278500D01*
X78638026Y-155278500D01*
X78841974Y-155278500D01*
X78841976Y-155278500D01*
X79042456Y-155241024D01*
X79232637Y-155167348D01*
X79406041Y-155059981D01*
X79556764Y-154922579D01*
X79679673Y-154759821D01*
X79770582Y-154577250D01*
X79826397Y-154381083D01*
X79845215Y-154178000D01*
X79826397Y-153974917D01*
X79770582Y-153778750D01*
X79679673Y-153596179D01*
X79556764Y-153433421D01*
X79556762Y-153433418D01*
X79406041Y-153296019D01*
X79406039Y-153296017D01*
X79232642Y-153188655D01*
X79232635Y-153188651D01*
X79106769Y-153139891D01*
X79042456Y-153114976D01*
X78841976Y-153077500D01*
X78638024Y-153077500D01*
X78437544Y-153114976D01*
X78437541Y-153114976D01*
X78437541Y-153114977D01*
X78247364Y-153188651D01*
X78247357Y-153188655D01*
X78073960Y-153296017D01*
X78073958Y-153296019D01*
X77923237Y-153433418D01*
X77800327Y-153596178D01*
X77709422Y-153778739D01*
X77709417Y-153778752D01*
X77653602Y-153974917D01*
X77634785Y-154177999D01*
X77634785Y-154178000D01*
X76810500Y-154178000D01*
X76810500Y-151638000D01*
X77634785Y-151638000D01*
X77653602Y-151841082D01*
X77709417Y-152037247D01*
X77709422Y-152037260D01*
X77800327Y-152219821D01*
X77923237Y-152382581D01*
X78073958Y-152519980D01*
X78073960Y-152519982D01*
X78173141Y-152581392D01*
X78247363Y-152627348D01*
X78437544Y-152701024D01*
X78638024Y-152738500D01*
X78638026Y-152738500D01*
X78841974Y-152738500D01*
X78841976Y-152738500D01*
X79042456Y-152701024D01*
X79232637Y-152627348D01*
X79406041Y-152519981D01*
X79556764Y-152382579D01*
X79679673Y-152219821D01*
X79770582Y-152037250D01*
X79826397Y-151841083D01*
X79845215Y-151638000D01*
X79826397Y-151434917D01*
X79770582Y-151238750D01*
X79679673Y-151056179D01*
X79556764Y-150893421D01*
X79556762Y-150893418D01*
X79406041Y-150756019D01*
X79406039Y-150756017D01*
X79259040Y-150665000D01*
X94594785Y-150665000D01*
X94613602Y-150868082D01*
X94669417Y-151064247D01*
X94669422Y-151064260D01*
X94760327Y-151246821D01*
X94883237Y-151409581D01*
X95033958Y-151546980D01*
X95033960Y-151546982D01*
X95133141Y-151608392D01*
X95207363Y-151654348D01*
X95397544Y-151728024D01*
X95598024Y-151765500D01*
X95598026Y-151765500D01*
X95801974Y-151765500D01*
X95801976Y-151765500D01*
X96002456Y-151728024D01*
X96192637Y-151654348D01*
X96366041Y-151546981D01*
X96516764Y-151409579D01*
X96639673Y-151246821D01*
X96730582Y-151064250D01*
X96786397Y-150868083D01*
X96805215Y-150665000D01*
X96803700Y-150648655D01*
X96786397Y-150461917D01*
X96730582Y-150265750D01*
X96639673Y-150083179D01*
X96516764Y-149920421D01*
X96516762Y-149920418D01*
X96366041Y-149783019D01*
X96366039Y-149783017D01*
X96192642Y-149675655D01*
X96192635Y-149675651D01*
X96097546Y-149638814D01*
X96002456Y-149601976D01*
X95801976Y-149564500D01*
X95598024Y-149564500D01*
X95397544Y-149601976D01*
X95397541Y-149601976D01*
X95397541Y-149601977D01*
X95207364Y-149675651D01*
X95207357Y-149675655D01*
X95033960Y-149783017D01*
X95033958Y-149783019D01*
X94883237Y-149920418D01*
X94760327Y-150083178D01*
X94669422Y-150265739D01*
X94669417Y-150265752D01*
X94613602Y-150461917D01*
X94594785Y-150664999D01*
X94594785Y-150665000D01*
X79259040Y-150665000D01*
X79232642Y-150648655D01*
X79232635Y-150648651D01*
X79137546Y-150611814D01*
X79042456Y-150574976D01*
X78841976Y-150537500D01*
X78638024Y-150537500D01*
X78437544Y-150574976D01*
X78437541Y-150574976D01*
X78437541Y-150574977D01*
X78247364Y-150648651D01*
X78247357Y-150648655D01*
X78073960Y-150756017D01*
X78073958Y-150756019D01*
X77923237Y-150893418D01*
X77800327Y-151056178D01*
X77709422Y-151238739D01*
X77709417Y-151238752D01*
X77653602Y-151434917D01*
X77634785Y-151637999D01*
X77634785Y-151638000D01*
X76810500Y-151638000D01*
X76810500Y-149098000D01*
X77634785Y-149098000D01*
X77653602Y-149301082D01*
X77709417Y-149497247D01*
X77709422Y-149497260D01*
X77800327Y-149679821D01*
X77923237Y-149842581D01*
X78073958Y-149979980D01*
X78073960Y-149979982D01*
X78173141Y-150041392D01*
X78247363Y-150087348D01*
X78437544Y-150161024D01*
X78638024Y-150198500D01*
X78638026Y-150198500D01*
X78841974Y-150198500D01*
X78841976Y-150198500D01*
X79042456Y-150161024D01*
X79232637Y-150087348D01*
X79406041Y-149979981D01*
X79556764Y-149842579D01*
X79679673Y-149679821D01*
X79770582Y-149497250D01*
X79826397Y-149301083D01*
X79845215Y-149098000D01*
X79836104Y-148999678D01*
X94599500Y-148999678D01*
X94614032Y-149072735D01*
X94614033Y-149072739D01*
X94614034Y-149072740D01*
X94669399Y-149155601D01*
X94752260Y-149210966D01*
X94752264Y-149210967D01*
X94825321Y-149225499D01*
X94825324Y-149225500D01*
X94825326Y-149225500D01*
X96574676Y-149225500D01*
X96574677Y-149225499D01*
X96647740Y-149210966D01*
X96730601Y-149155601D01*
X96769088Y-149098000D01*
X97954785Y-149098000D01*
X97973602Y-149301082D01*
X98029417Y-149497247D01*
X98029422Y-149497260D01*
X98120327Y-149679821D01*
X98243237Y-149842581D01*
X98393958Y-149979980D01*
X98393960Y-149979982D01*
X98493141Y-150041392D01*
X98567363Y-150087348D01*
X98757544Y-150161024D01*
X98958024Y-150198500D01*
X98958026Y-150198500D01*
X99161974Y-150198500D01*
X99161976Y-150198500D01*
X99362456Y-150161024D01*
X99552637Y-150087348D01*
X99726041Y-149979981D01*
X99876764Y-149842579D01*
X99999673Y-149679821D01*
X100090582Y-149497250D01*
X100146397Y-149301083D01*
X100165215Y-149098000D01*
X100146397Y-148894917D01*
X100090582Y-148698750D01*
X99999673Y-148516179D01*
X99876764Y-148353421D01*
X99876762Y-148353418D01*
X99726041Y-148216019D01*
X99726039Y-148216017D01*
X99552642Y-148108655D01*
X99552635Y-148108651D01*
X99457546Y-148071814D01*
X99362456Y-148034976D01*
X99161976Y-147997500D01*
X98958024Y-147997500D01*
X98757544Y-148034976D01*
X98757541Y-148034976D01*
X98757541Y-148034977D01*
X98567364Y-148108651D01*
X98567357Y-148108655D01*
X98393960Y-148216017D01*
X98393958Y-148216019D01*
X98243237Y-148353418D01*
X98120327Y-148516178D01*
X98029422Y-148698739D01*
X98029417Y-148698752D01*
X97973602Y-148894917D01*
X97954785Y-149097999D01*
X97954785Y-149098000D01*
X96769088Y-149098000D01*
X96785966Y-149072740D01*
X96800500Y-148999674D01*
X96800500Y-147250326D01*
X96800500Y-147250323D01*
X96800499Y-147250321D01*
X96785967Y-147177264D01*
X96785966Y-147177260D01*
X96760950Y-147139821D01*
X96730601Y-147094399D01*
X96647740Y-147039034D01*
X96647739Y-147039033D01*
X96647735Y-147039032D01*
X96574677Y-147024500D01*
X96574674Y-147024500D01*
X94825326Y-147024500D01*
X94825323Y-147024500D01*
X94752264Y-147039032D01*
X94752260Y-147039033D01*
X94669399Y-147094399D01*
X94614033Y-147177260D01*
X94614032Y-147177264D01*
X94599500Y-147250321D01*
X94599500Y-148999678D01*
X79836104Y-148999678D01*
X79826397Y-148894917D01*
X79770582Y-148698750D01*
X79679673Y-148516179D01*
X79556764Y-148353421D01*
X79556762Y-148353418D01*
X79406041Y-148216019D01*
X79406039Y-148216017D01*
X79232642Y-148108655D01*
X79232635Y-148108651D01*
X79137546Y-148071814D01*
X79042456Y-148034976D01*
X78841976Y-147997500D01*
X78638024Y-147997500D01*
X78437544Y-148034976D01*
X78437541Y-148034976D01*
X78437541Y-148034977D01*
X78247364Y-148108651D01*
X78247357Y-148108655D01*
X78073960Y-148216017D01*
X78073958Y-148216019D01*
X77923237Y-148353418D01*
X77800327Y-148516178D01*
X77709422Y-148698739D01*
X77709417Y-148698752D01*
X77653602Y-148894917D01*
X77634785Y-149097999D01*
X77634785Y-149098000D01*
X76810500Y-149098000D01*
X76810500Y-146558000D01*
X77634785Y-146558000D01*
X77653602Y-146761082D01*
X77709417Y-146957247D01*
X77709422Y-146957260D01*
X77800327Y-147139821D01*
X77923237Y-147302581D01*
X78073958Y-147439980D01*
X78073960Y-147439982D01*
X78173141Y-147501392D01*
X78247363Y-147547348D01*
X78437544Y-147621024D01*
X78638024Y-147658500D01*
X78638026Y-147658500D01*
X78841974Y-147658500D01*
X78841976Y-147658500D01*
X79042456Y-147621024D01*
X79232637Y-147547348D01*
X79406041Y-147439981D01*
X79556764Y-147302579D01*
X79679673Y-147139821D01*
X79770582Y-146957250D01*
X79826397Y-146761083D01*
X79845215Y-146558000D01*
X97954785Y-146558000D01*
X97973602Y-146761082D01*
X98029417Y-146957247D01*
X98029422Y-146957260D01*
X98120327Y-147139821D01*
X98243237Y-147302581D01*
X98393958Y-147439980D01*
X98393960Y-147439982D01*
X98493141Y-147501392D01*
X98567363Y-147547348D01*
X98757544Y-147621024D01*
X98958024Y-147658500D01*
X98958026Y-147658500D01*
X99161974Y-147658500D01*
X99161976Y-147658500D01*
X99362456Y-147621024D01*
X99552637Y-147547348D01*
X99726041Y-147439981D01*
X99876764Y-147302579D01*
X99999673Y-147139821D01*
X100090582Y-146957250D01*
X100146397Y-146761083D01*
X100165215Y-146558000D01*
X100146397Y-146354917D01*
X100090582Y-146158750D01*
X99999673Y-145976179D01*
X99940704Y-145898091D01*
X99876762Y-145813418D01*
X99726041Y-145676019D01*
X99726039Y-145676017D01*
X99552642Y-145568655D01*
X99552635Y-145568651D01*
X99457546Y-145531814D01*
X99362456Y-145494976D01*
X99161976Y-145457500D01*
X98958024Y-145457500D01*
X98757544Y-145494976D01*
X98757541Y-145494976D01*
X98757541Y-145494977D01*
X98567364Y-145568651D01*
X98567357Y-145568655D01*
X98393960Y-145676017D01*
X98393958Y-145676019D01*
X98243237Y-145813418D01*
X98120327Y-145976178D01*
X98029422Y-146158739D01*
X98029417Y-146158752D01*
X97973602Y-146354917D01*
X97954785Y-146557999D01*
X97954785Y-146558000D01*
X79845215Y-146558000D01*
X79826397Y-146354917D01*
X79770582Y-146158750D01*
X79679673Y-145976179D01*
X79620704Y-145898091D01*
X79556762Y-145813418D01*
X79406041Y-145676019D01*
X79406039Y-145676017D01*
X79232642Y-145568655D01*
X79232635Y-145568651D01*
X79137546Y-145531814D01*
X79042456Y-145494976D01*
X78841976Y-145457500D01*
X78638024Y-145457500D01*
X78437544Y-145494976D01*
X78437541Y-145494976D01*
X78437541Y-145494977D01*
X78247364Y-145568651D01*
X78247357Y-145568655D01*
X78073960Y-145676017D01*
X78073958Y-145676019D01*
X77923237Y-145813418D01*
X77800327Y-145976178D01*
X77709422Y-146158739D01*
X77709417Y-146158752D01*
X77653602Y-146354917D01*
X77634785Y-146557999D01*
X77634785Y-146558000D01*
X76810500Y-146558000D01*
X76810500Y-144018000D01*
X77634785Y-144018000D01*
X77653602Y-144221082D01*
X77709417Y-144417247D01*
X77709422Y-144417260D01*
X77800327Y-144599821D01*
X77923237Y-144762581D01*
X78073958Y-144899980D01*
X78073960Y-144899982D01*
X78112678Y-144923955D01*
X78247363Y-145007348D01*
X78437544Y-145081024D01*
X78638024Y-145118500D01*
X78638026Y-145118500D01*
X78841974Y-145118500D01*
X78841976Y-145118500D01*
X79042456Y-145081024D01*
X79232637Y-145007348D01*
X79406041Y-144899981D01*
X79556764Y-144762579D01*
X79679673Y-144599821D01*
X79770582Y-144417250D01*
X79826397Y-144221083D01*
X79845215Y-144018000D01*
X79837389Y-143933547D01*
X79826397Y-143814917D01*
X79814638Y-143773589D01*
X79770582Y-143618750D01*
X79679673Y-143436179D01*
X79577213Y-143300500D01*
X79556762Y-143273418D01*
X79531073Y-143250000D01*
X85344353Y-143250000D01*
X85364834Y-143392456D01*
X85386992Y-143440974D01*
X85424623Y-143523373D01*
X85518872Y-143632143D01*
X85639947Y-143709953D01*
X85639950Y-143709954D01*
X85639949Y-143709954D01*
X85778036Y-143750499D01*
X85778038Y-143750500D01*
X85778039Y-143750500D01*
X85921962Y-143750500D01*
X85921962Y-143750499D01*
X86060053Y-143709953D01*
X86181128Y-143632143D01*
X86275377Y-143523373D01*
X86335165Y-143392457D01*
X86355647Y-143250000D01*
X86335165Y-143107543D01*
X86275377Y-142976627D01*
X86181128Y-142867857D01*
X86060053Y-142790047D01*
X86060051Y-142790046D01*
X86060049Y-142790045D01*
X86060050Y-142790045D01*
X85921963Y-142749500D01*
X85921961Y-142749500D01*
X85778039Y-142749500D01*
X85778036Y-142749500D01*
X85639949Y-142790045D01*
X85518873Y-142867856D01*
X85424623Y-142976626D01*
X85424622Y-142976628D01*
X85364834Y-143107543D01*
X85344353Y-143250000D01*
X79531073Y-143250000D01*
X79406041Y-143136019D01*
X79406039Y-143136017D01*
X79232642Y-143028655D01*
X79232635Y-143028651D01*
X79137546Y-142991814D01*
X79042456Y-142954976D01*
X78841976Y-142917500D01*
X78638024Y-142917500D01*
X78437544Y-142954976D01*
X78437541Y-142954976D01*
X78437541Y-142954977D01*
X78247364Y-143028651D01*
X78247357Y-143028655D01*
X78073960Y-143136017D01*
X78073958Y-143136019D01*
X77923237Y-143273418D01*
X77800327Y-143436178D01*
X77709422Y-143618739D01*
X77709417Y-143618752D01*
X77653602Y-143814917D01*
X77634785Y-144017999D01*
X77634785Y-144018000D01*
X76810500Y-144018000D01*
X76810500Y-142352678D01*
X77639500Y-142352678D01*
X77654032Y-142425735D01*
X77654033Y-142425739D01*
X77654034Y-142425740D01*
X77709399Y-142508601D01*
X77792260Y-142563966D01*
X77792264Y-142563967D01*
X77865321Y-142578499D01*
X77865324Y-142578500D01*
X77865326Y-142578500D01*
X79614676Y-142578500D01*
X79614677Y-142578499D01*
X79687740Y-142563966D01*
X79770601Y-142508601D01*
X79809756Y-142450000D01*
X91294353Y-142450000D01*
X91314834Y-142592456D01*
X91344559Y-142657543D01*
X91374623Y-142723373D01*
X91468872Y-142832143D01*
X91589947Y-142909953D01*
X91589950Y-142909954D01*
X91589949Y-142909954D01*
X91728036Y-142950499D01*
X91728038Y-142950500D01*
X91728039Y-142950500D01*
X91871962Y-142950500D01*
X91871962Y-142950499D01*
X92010053Y-142909953D01*
X92131128Y-142832143D01*
X92225377Y-142723373D01*
X92285165Y-142592457D01*
X92305647Y-142450000D01*
X92294985Y-142375844D01*
X97710000Y-142375844D01*
X97716401Y-142435372D01*
X97716403Y-142435379D01*
X97766645Y-142570086D01*
X97766649Y-142570093D01*
X97852809Y-142685187D01*
X97852812Y-142685190D01*
X97967906Y-142771350D01*
X97967913Y-142771354D01*
X98102620Y-142821596D01*
X98102627Y-142821598D01*
X98162155Y-142827999D01*
X98162172Y-142828000D01*
X98455612Y-142828000D01*
X98522651Y-142847685D01*
X98568406Y-142900489D01*
X98578350Y-142969647D01*
X98549325Y-143033203D01*
X98520889Y-143057427D01*
X98393960Y-143136017D01*
X98393958Y-143136019D01*
X98243237Y-143273418D01*
X98120327Y-143436178D01*
X98029422Y-143618739D01*
X98029417Y-143618752D01*
X97973602Y-143814917D01*
X97954785Y-144017999D01*
X97954785Y-144018000D01*
X97973602Y-144221082D01*
X98029417Y-144417247D01*
X98029422Y-144417260D01*
X98120327Y-144599821D01*
X98243237Y-144762581D01*
X98393958Y-144899980D01*
X98393960Y-144899982D01*
X98432678Y-144923955D01*
X98567363Y-145007348D01*
X98757544Y-145081024D01*
X98958024Y-145118500D01*
X98958026Y-145118500D01*
X99161974Y-145118500D01*
X99161976Y-145118500D01*
X99362456Y-145081024D01*
X99552637Y-145007348D01*
X99726041Y-144899981D01*
X99876764Y-144762579D01*
X99999673Y-144599821D01*
X100039419Y-144520000D01*
X103424417Y-144520000D01*
X103444699Y-144725932D01*
X103474734Y-144824944D01*
X103504768Y-144923954D01*
X103602315Y-145106450D01*
X103602317Y-145106452D01*
X103733589Y-145266410D01*
X103830209Y-145345702D01*
X103893550Y-145397685D01*
X104076046Y-145495232D01*
X104274066Y-145555300D01*
X104274065Y-145555300D01*
X104292529Y-145557118D01*
X104480000Y-145575583D01*
X104685934Y-145555300D01*
X104883954Y-145495232D01*
X105066450Y-145397685D01*
X105226410Y-145266410D01*
X105357685Y-145106450D01*
X105455232Y-144923954D01*
X105515300Y-144725934D01*
X105535583Y-144520000D01*
X105964417Y-144520000D01*
X105984699Y-144725932D01*
X106014734Y-144824944D01*
X106044768Y-144923954D01*
X106142315Y-145106450D01*
X106142317Y-145106452D01*
X106273589Y-145266410D01*
X106370209Y-145345702D01*
X106433550Y-145397685D01*
X106616046Y-145495232D01*
X106814066Y-145555300D01*
X106814065Y-145555300D01*
X106832529Y-145557118D01*
X107020000Y-145575583D01*
X107225934Y-145555300D01*
X107423954Y-145495232D01*
X107606450Y-145397685D01*
X107766410Y-145266410D01*
X107897685Y-145106450D01*
X107995232Y-144923954D01*
X108055300Y-144725934D01*
X108075583Y-144520000D01*
X108504417Y-144520000D01*
X108524699Y-144725932D01*
X108554734Y-144824944D01*
X108584768Y-144923954D01*
X108682315Y-145106450D01*
X108682317Y-145106452D01*
X108813589Y-145266410D01*
X108910209Y-145345702D01*
X108973550Y-145397685D01*
X109156046Y-145495232D01*
X109354066Y-145555300D01*
X109354065Y-145555300D01*
X109372529Y-145557118D01*
X109560000Y-145575583D01*
X109765934Y-145555300D01*
X109963954Y-145495232D01*
X110146450Y-145397685D01*
X110306410Y-145266410D01*
X110437685Y-145106450D01*
X110535232Y-144923954D01*
X110595300Y-144725934D01*
X110615583Y-144520000D01*
X111044417Y-144520000D01*
X111064699Y-144725932D01*
X111094734Y-144824944D01*
X111124768Y-144923954D01*
X111222315Y-145106450D01*
X111222317Y-145106452D01*
X111353589Y-145266410D01*
X111450209Y-145345702D01*
X111513550Y-145397685D01*
X111696046Y-145495232D01*
X111894066Y-145555300D01*
X111894065Y-145555300D01*
X111912529Y-145557118D01*
X112100000Y-145575583D01*
X112305934Y-145555300D01*
X112503954Y-145495232D01*
X112686450Y-145397685D01*
X112846410Y-145266410D01*
X112977685Y-145106450D01*
X113075232Y-144923954D01*
X113135300Y-144725934D01*
X113155583Y-144520000D01*
X113584417Y-144520000D01*
X113604699Y-144725932D01*
X113634734Y-144824944D01*
X113664768Y-144923954D01*
X113762315Y-145106450D01*
X113762317Y-145106452D01*
X113893589Y-145266410D01*
X113990209Y-145345702D01*
X114053550Y-145397685D01*
X114236046Y-145495232D01*
X114434066Y-145555300D01*
X114434065Y-145555300D01*
X114452529Y-145557118D01*
X114640000Y-145575583D01*
X114845934Y-145555300D01*
X115043954Y-145495232D01*
X115226450Y-145397685D01*
X115386410Y-145266410D01*
X115517685Y-145106450D01*
X115615232Y-144923954D01*
X115662891Y-144766839D01*
X115701187Y-144708403D01*
X115764999Y-144679946D01*
X115834066Y-144690505D01*
X115886460Y-144736729D01*
X115901326Y-144770742D01*
X115953731Y-144966319D01*
X115953734Y-144966326D01*
X116049865Y-145172481D01*
X116049866Y-145172483D01*
X116100973Y-145245471D01*
X116100974Y-145245472D01*
X116696922Y-144649523D01*
X116720507Y-144729844D01*
X116798239Y-144850798D01*
X116906900Y-144944952D01*
X117037685Y-145004680D01*
X117047466Y-145006086D01*
X116454526Y-145599025D01*
X116454526Y-145599026D01*
X116527512Y-145650131D01*
X116527516Y-145650133D01*
X116733673Y-145746265D01*
X116733682Y-145746269D01*
X116953389Y-145805139D01*
X116953400Y-145805141D01*
X117179998Y-145824966D01*
X117180002Y-145824966D01*
X117406599Y-145805141D01*
X117406610Y-145805139D01*
X117626317Y-145746269D01*
X117626331Y-145746264D01*
X117832478Y-145650136D01*
X117905472Y-145599025D01*
X117312534Y-145006086D01*
X117322315Y-145004680D01*
X117453100Y-144944952D01*
X117561761Y-144850798D01*
X117639493Y-144729844D01*
X117663076Y-144649523D01*
X118259025Y-145245472D01*
X118310136Y-145172478D01*
X118406264Y-144966331D01*
X118406269Y-144966317D01*
X118458673Y-144770743D01*
X118495038Y-144711082D01*
X118557885Y-144680553D01*
X118627260Y-144688848D01*
X118681138Y-144733333D01*
X118697108Y-144766840D01*
X118744768Y-144923954D01*
X118842315Y-145106450D01*
X118842317Y-145106452D01*
X118973589Y-145266410D01*
X119070209Y-145345702D01*
X119133550Y-145397685D01*
X119316046Y-145495232D01*
X119514066Y-145555300D01*
X119514065Y-145555300D01*
X119532529Y-145557118D01*
X119720000Y-145575583D01*
X119925934Y-145555300D01*
X120123954Y-145495232D01*
X120306450Y-145397685D01*
X120466410Y-145266410D01*
X120597685Y-145106450D01*
X120695232Y-144923954D01*
X120755300Y-144725934D01*
X120775583Y-144520000D01*
X120755300Y-144314066D01*
X120695232Y-144116046D01*
X120597685Y-143933550D01*
X120500326Y-143814917D01*
X120466410Y-143773589D01*
X120306452Y-143642317D01*
X120306453Y-143642317D01*
X120306450Y-143642315D01*
X120123954Y-143544768D01*
X119925934Y-143484700D01*
X119925932Y-143484699D01*
X119925934Y-143484699D01*
X119720000Y-143464417D01*
X119514067Y-143484699D01*
X119316043Y-143544769D01*
X119205898Y-143603643D01*
X119133550Y-143642315D01*
X119133548Y-143642316D01*
X119133547Y-143642317D01*
X118973589Y-143773589D01*
X118842317Y-143933547D01*
X118744769Y-144116043D01*
X118697109Y-144273158D01*
X118658811Y-144331597D01*
X118594999Y-144360053D01*
X118525932Y-144349493D01*
X118473538Y-144303269D01*
X118458673Y-144269256D01*
X118406269Y-144073682D01*
X118406265Y-144073673D01*
X118310133Y-143867516D01*
X118310131Y-143867512D01*
X118259026Y-143794526D01*
X118259025Y-143794526D01*
X117663076Y-144390475D01*
X117639493Y-144310156D01*
X117561761Y-144189202D01*
X117453100Y-144095048D01*
X117322315Y-144035320D01*
X117312533Y-144033913D01*
X117905472Y-143440974D01*
X117905471Y-143440973D01*
X117832483Y-143389866D01*
X117832481Y-143389865D01*
X117626326Y-143293734D01*
X117626317Y-143293730D01*
X117406610Y-143234860D01*
X117406599Y-143234858D01*
X117180002Y-143215034D01*
X117179998Y-143215034D01*
X116953400Y-143234858D01*
X116953389Y-143234860D01*
X116733682Y-143293730D01*
X116733673Y-143293734D01*
X116527513Y-143389868D01*
X116454527Y-143440972D01*
X116454526Y-143440973D01*
X117047467Y-144033913D01*
X117037685Y-144035320D01*
X116906900Y-144095048D01*
X116798239Y-144189202D01*
X116720507Y-144310156D01*
X116696923Y-144390476D01*
X116100973Y-143794526D01*
X116100972Y-143794527D01*
X116049868Y-143867513D01*
X115953734Y-144073673D01*
X115953731Y-144073680D01*
X115901326Y-144269257D01*
X115864961Y-144328917D01*
X115802113Y-144359446D01*
X115732738Y-144351151D01*
X115678860Y-144306666D01*
X115662892Y-144273162D01*
X115615232Y-144116046D01*
X115517685Y-143933550D01*
X115420326Y-143814917D01*
X115386410Y-143773589D01*
X115226452Y-143642317D01*
X115226453Y-143642317D01*
X115226450Y-143642315D01*
X115043954Y-143544768D01*
X114845934Y-143484700D01*
X114845932Y-143484699D01*
X114845934Y-143484699D01*
X114640000Y-143464417D01*
X114434067Y-143484699D01*
X114236043Y-143544769D01*
X114125898Y-143603643D01*
X114053550Y-143642315D01*
X114053548Y-143642316D01*
X114053547Y-143642317D01*
X113893589Y-143773589D01*
X113762317Y-143933547D01*
X113664769Y-144116043D01*
X113604699Y-144314067D01*
X113584417Y-144520000D01*
X113155583Y-144520000D01*
X113135300Y-144314066D01*
X113075232Y-144116046D01*
X112977685Y-143933550D01*
X112880326Y-143814917D01*
X112846410Y-143773589D01*
X112686452Y-143642317D01*
X112686453Y-143642317D01*
X112686450Y-143642315D01*
X112503954Y-143544768D01*
X112305934Y-143484700D01*
X112305932Y-143484699D01*
X112305934Y-143484699D01*
X112100000Y-143464417D01*
X111894067Y-143484699D01*
X111696043Y-143544769D01*
X111585898Y-143603643D01*
X111513550Y-143642315D01*
X111513548Y-143642316D01*
X111513547Y-143642317D01*
X111353589Y-143773589D01*
X111222317Y-143933547D01*
X111124769Y-144116043D01*
X111064699Y-144314067D01*
X111044417Y-144520000D01*
X110615583Y-144520000D01*
X110595300Y-144314066D01*
X110535232Y-144116046D01*
X110437685Y-143933550D01*
X110340326Y-143814917D01*
X110306410Y-143773589D01*
X110146452Y-143642317D01*
X110146453Y-143642317D01*
X110146450Y-143642315D01*
X109963954Y-143544768D01*
X109765934Y-143484700D01*
X109765932Y-143484699D01*
X109765934Y-143484699D01*
X109560000Y-143464417D01*
X109354067Y-143484699D01*
X109156043Y-143544769D01*
X109045898Y-143603643D01*
X108973550Y-143642315D01*
X108973548Y-143642316D01*
X108973547Y-143642317D01*
X108813589Y-143773589D01*
X108682317Y-143933547D01*
X108584769Y-144116043D01*
X108524699Y-144314067D01*
X108504417Y-144520000D01*
X108075583Y-144520000D01*
X108055300Y-144314066D01*
X107995232Y-144116046D01*
X107897685Y-143933550D01*
X107800326Y-143814917D01*
X107766410Y-143773589D01*
X107606452Y-143642317D01*
X107606453Y-143642317D01*
X107606450Y-143642315D01*
X107423954Y-143544768D01*
X107225934Y-143484700D01*
X107225932Y-143484699D01*
X107225934Y-143484699D01*
X107020000Y-143464417D01*
X106814067Y-143484699D01*
X106616043Y-143544769D01*
X106505898Y-143603643D01*
X106433550Y-143642315D01*
X106433548Y-143642316D01*
X106433547Y-143642317D01*
X106273589Y-143773589D01*
X106142317Y-143933547D01*
X106044769Y-144116043D01*
X105984699Y-144314067D01*
X105964417Y-144520000D01*
X105535583Y-144520000D01*
X105515300Y-144314066D01*
X105455232Y-144116046D01*
X105357685Y-143933550D01*
X105260326Y-143814917D01*
X105226410Y-143773589D01*
X105066452Y-143642317D01*
X105066453Y-143642317D01*
X105066450Y-143642315D01*
X104883954Y-143544768D01*
X104685934Y-143484700D01*
X104685932Y-143484699D01*
X104685934Y-143484699D01*
X104480000Y-143464417D01*
X104274067Y-143484699D01*
X104076043Y-143544769D01*
X103965898Y-143603643D01*
X103893550Y-143642315D01*
X103893548Y-143642316D01*
X103893547Y-143642317D01*
X103733589Y-143773589D01*
X103602317Y-143933547D01*
X103504769Y-144116043D01*
X103444699Y-144314067D01*
X103424417Y-144520000D01*
X100039419Y-144520000D01*
X100090582Y-144417250D01*
X100146397Y-144221083D01*
X100165215Y-144018000D01*
X100157389Y-143933547D01*
X100146397Y-143814917D01*
X100134638Y-143773589D01*
X100090582Y-143618750D01*
X99999673Y-143436179D01*
X99897213Y-143300500D01*
X99876762Y-143273418D01*
X99726041Y-143136019D01*
X99726039Y-143136017D01*
X99599111Y-143057427D01*
X99552475Y-143005399D01*
X99541371Y-142936417D01*
X99569324Y-142872383D01*
X99627459Y-142833627D01*
X99664388Y-142828000D01*
X99957828Y-142828000D01*
X99957844Y-142827999D01*
X100017372Y-142821598D01*
X100017379Y-142821596D01*
X100075281Y-142800000D01*
X108394353Y-142800000D01*
X108414834Y-142942456D01*
X108474622Y-143073371D01*
X108474623Y-143073373D01*
X108568872Y-143182143D01*
X108689947Y-143259953D01*
X108689950Y-143259954D01*
X108689949Y-143259954D01*
X108828036Y-143300499D01*
X108828038Y-143300500D01*
X108828039Y-143300500D01*
X108971962Y-143300500D01*
X108971962Y-143300499D01*
X109110053Y-143259953D01*
X109231128Y-143182143D01*
X109325377Y-143073373D01*
X109385165Y-142942457D01*
X109405647Y-142800000D01*
X109385165Y-142657543D01*
X109325377Y-142526627D01*
X109231128Y-142417857D01*
X109110053Y-142340047D01*
X109110051Y-142340046D01*
X109110049Y-142340045D01*
X109110050Y-142340045D01*
X108971963Y-142299500D01*
X108971961Y-142299500D01*
X108828039Y-142299500D01*
X108828036Y-142299500D01*
X108689949Y-142340045D01*
X108568873Y-142417856D01*
X108474623Y-142526626D01*
X108474622Y-142526628D01*
X108414834Y-142657543D01*
X108394353Y-142800000D01*
X100075281Y-142800000D01*
X100152086Y-142771354D01*
X100152093Y-142771350D01*
X100267187Y-142685190D01*
X100267190Y-142685187D01*
X100353350Y-142570093D01*
X100353354Y-142570086D01*
X100403596Y-142435379D01*
X100403598Y-142435372D01*
X100409999Y-142375844D01*
X100410000Y-142375827D01*
X100410000Y-141728000D01*
X99493686Y-141728000D01*
X99519493Y-141687844D01*
X99560000Y-141549889D01*
X99560000Y-141406111D01*
X99519493Y-141268156D01*
X99493686Y-141228000D01*
X100410000Y-141228000D01*
X100410000Y-140580172D01*
X100409999Y-140580155D01*
X100403598Y-140520627D01*
X100403596Y-140520620D01*
X100353354Y-140385913D01*
X100353350Y-140385906D01*
X100267190Y-140270812D01*
X100267187Y-140270809D01*
X100152093Y-140184649D01*
X100152086Y-140184645D01*
X100017379Y-140134403D01*
X100017372Y-140134401D01*
X99957844Y-140128000D01*
X99310000Y-140128000D01*
X99310000Y-141042498D01*
X99202315Y-140993320D01*
X99095763Y-140978000D01*
X99024237Y-140978000D01*
X98917685Y-140993320D01*
X98810000Y-141042498D01*
X98810000Y-140128000D01*
X98162155Y-140128000D01*
X98102627Y-140134401D01*
X98102620Y-140134403D01*
X97967913Y-140184645D01*
X97967906Y-140184649D01*
X97852812Y-140270809D01*
X97852809Y-140270812D01*
X97766649Y-140385906D01*
X97766645Y-140385913D01*
X97716403Y-140520620D01*
X97716401Y-140520627D01*
X97710000Y-140580155D01*
X97710000Y-141228000D01*
X98626314Y-141228000D01*
X98600507Y-141268156D01*
X98560000Y-141406111D01*
X98560000Y-141549889D01*
X98600507Y-141687844D01*
X98626314Y-141728000D01*
X97710000Y-141728000D01*
X97710000Y-142375844D01*
X92294985Y-142375844D01*
X92285165Y-142307543D01*
X92225377Y-142176627D01*
X92131128Y-142067857D01*
X92010053Y-141990047D01*
X92010051Y-141990046D01*
X92010049Y-141990045D01*
X92010050Y-141990045D01*
X91871963Y-141949500D01*
X91871961Y-141949500D01*
X91728039Y-141949500D01*
X91728036Y-141949500D01*
X91589949Y-141990045D01*
X91468873Y-142067856D01*
X91374623Y-142176626D01*
X91374622Y-142176628D01*
X91314834Y-142307543D01*
X91294353Y-142450000D01*
X79809756Y-142450000D01*
X79825966Y-142425740D01*
X79840500Y-142352674D01*
X79840500Y-141196000D01*
X94389816Y-141196000D01*
X94408456Y-141325647D01*
X94408457Y-141325648D01*
X94462866Y-141444790D01*
X94462868Y-141444792D01*
X94462869Y-141444794D01*
X94548644Y-141543784D01*
X94658833Y-141614598D01*
X94762881Y-141645149D01*
X94784508Y-141651500D01*
X94784509Y-141651500D01*
X94915492Y-141651500D01*
X94933943Y-141646081D01*
X95041167Y-141614598D01*
X95151356Y-141543784D01*
X95237131Y-141444794D01*
X95291543Y-141325649D01*
X95310184Y-141196000D01*
X95291543Y-141066351D01*
X95251194Y-140978000D01*
X95237133Y-140947209D01*
X95237131Y-140947207D01*
X95237131Y-140947206D01*
X95151356Y-140848216D01*
X95041167Y-140777402D01*
X94952394Y-140751335D01*
X94915492Y-140740500D01*
X94915491Y-140740500D01*
X94784509Y-140740500D01*
X94784508Y-140740500D01*
X94732265Y-140755840D01*
X94658833Y-140777402D01*
X94658831Y-140777402D01*
X94658831Y-140777403D01*
X94548645Y-140848215D01*
X94462869Y-140947206D01*
X94462866Y-140947209D01*
X94408457Y-141066351D01*
X94408456Y-141066352D01*
X94389816Y-141196000D01*
X79840500Y-141196000D01*
X79840500Y-140603326D01*
X79840500Y-140603323D01*
X79840499Y-140603321D01*
X79825967Y-140530264D01*
X79825966Y-140530260D01*
X79770601Y-140447399D01*
X79687740Y-140392034D01*
X79687739Y-140392033D01*
X79687735Y-140392032D01*
X79614677Y-140377500D01*
X79614674Y-140377500D01*
X77865326Y-140377500D01*
X77865323Y-140377500D01*
X77792264Y-140392032D01*
X77792260Y-140392033D01*
X77709399Y-140447399D01*
X77654033Y-140530260D01*
X77654032Y-140530264D01*
X77639500Y-140603321D01*
X77639500Y-142352678D01*
X76810500Y-142352678D01*
X76810500Y-138500000D01*
X85494353Y-138500000D01*
X85514834Y-138642456D01*
X85574622Y-138773371D01*
X85574623Y-138773373D01*
X85668872Y-138882143D01*
X85789947Y-138959953D01*
X85789950Y-138959954D01*
X85789949Y-138959954D01*
X85928036Y-139000499D01*
X85928038Y-139000500D01*
X85928039Y-139000500D01*
X86071962Y-139000500D01*
X86071962Y-139000499D01*
X86210053Y-138959953D01*
X86331128Y-138882143D01*
X86425377Y-138773373D01*
X86485165Y-138642457D01*
X86505647Y-138500000D01*
X86485165Y-138357543D01*
X86425377Y-138226627D01*
X86331128Y-138117857D01*
X86210053Y-138040047D01*
X86210051Y-138040046D01*
X86210049Y-138040045D01*
X86210050Y-138040045D01*
X86071963Y-137999500D01*
X86071961Y-137999500D01*
X85928039Y-137999500D01*
X85928036Y-137999500D01*
X85789949Y-138040045D01*
X85668873Y-138117856D01*
X85574623Y-138226626D01*
X85574622Y-138226628D01*
X85514834Y-138357543D01*
X85494353Y-138500000D01*
X76810500Y-138500000D01*
X76810500Y-137500000D01*
X93739816Y-137500000D01*
X93758456Y-137629647D01*
X93758457Y-137629648D01*
X93812866Y-137748790D01*
X93812868Y-137748792D01*
X93812869Y-137748794D01*
X93898644Y-137847784D01*
X94008833Y-137918598D01*
X94112881Y-137949149D01*
X94134508Y-137955500D01*
X94134509Y-137955500D01*
X94265492Y-137955500D01*
X94283943Y-137950081D01*
X94391167Y-137918598D01*
X94501356Y-137847784D01*
X94587131Y-137748794D01*
X94641543Y-137629649D01*
X94660184Y-137500000D01*
X94641543Y-137370351D01*
X94608160Y-137297254D01*
X94587133Y-137251209D01*
X94587131Y-137251207D01*
X94587131Y-137251206D01*
X94501356Y-137152216D01*
X94391167Y-137081402D01*
X94302394Y-137055335D01*
X94265492Y-137044500D01*
X94265491Y-137044500D01*
X94134509Y-137044500D01*
X94134508Y-137044500D01*
X94082265Y-137059840D01*
X94008833Y-137081402D01*
X94008831Y-137081402D01*
X94008831Y-137081403D01*
X93898645Y-137152215D01*
X93898644Y-137152215D01*
X93898644Y-137152216D01*
X93890183Y-137161981D01*
X93812869Y-137251206D01*
X93812866Y-137251209D01*
X93758457Y-137370351D01*
X93758456Y-137370352D01*
X93739816Y-137500000D01*
X76810500Y-137500000D01*
X76810500Y-136280000D01*
X77634785Y-136280000D01*
X77653602Y-136483082D01*
X77709417Y-136679247D01*
X77709422Y-136679260D01*
X77800327Y-136861821D01*
X77923237Y-137024581D01*
X78073958Y-137161980D01*
X78073960Y-137161982D01*
X78173141Y-137223392D01*
X78247363Y-137269348D01*
X78437544Y-137343024D01*
X78638024Y-137380500D01*
X78638026Y-137380500D01*
X78841974Y-137380500D01*
X78841976Y-137380500D01*
X79042456Y-137343024D01*
X79232637Y-137269348D01*
X79406041Y-137161981D01*
X79556764Y-137024579D01*
X79679673Y-136861821D01*
X79770582Y-136679250D01*
X79826397Y-136483083D01*
X79845215Y-136280000D01*
X79826397Y-136076917D01*
X79770582Y-135880750D01*
X79679673Y-135698179D01*
X79556764Y-135535421D01*
X79556762Y-135535418D01*
X79406041Y-135398019D01*
X79406039Y-135398017D01*
X79232642Y-135290655D01*
X79232635Y-135290651D01*
X79137546Y-135253814D01*
X79042456Y-135216976D01*
X78841976Y-135179500D01*
X78638024Y-135179500D01*
X78437544Y-135216976D01*
X78437541Y-135216976D01*
X78437541Y-135216977D01*
X78247364Y-135290651D01*
X78247357Y-135290655D01*
X78073960Y-135398017D01*
X78073958Y-135398019D01*
X77923237Y-135535418D01*
X77800327Y-135698178D01*
X77709422Y-135880739D01*
X77709417Y-135880752D01*
X77653602Y-136076917D01*
X77634785Y-136279999D01*
X77634785Y-136280000D01*
X76810500Y-136280000D01*
X76810500Y-132097844D01*
X77390000Y-132097844D01*
X77396401Y-132157372D01*
X77396403Y-132157379D01*
X77446645Y-132292086D01*
X77446649Y-132292093D01*
X77532809Y-132407187D01*
X77532812Y-132407190D01*
X77647906Y-132493350D01*
X77647913Y-132493354D01*
X77782620Y-132543596D01*
X77782627Y-132543598D01*
X77842155Y-132549999D01*
X77842172Y-132550000D01*
X78135612Y-132550000D01*
X78202651Y-132569685D01*
X78248406Y-132622489D01*
X78258350Y-132691647D01*
X78229325Y-132755203D01*
X78200889Y-132779427D01*
X78073960Y-132858017D01*
X78073958Y-132858019D01*
X77923237Y-132995418D01*
X77800327Y-133158178D01*
X77709422Y-133340739D01*
X77709417Y-133340752D01*
X77653602Y-133536917D01*
X77634785Y-133739999D01*
X77634785Y-133740000D01*
X77653602Y-133943082D01*
X77709417Y-134139247D01*
X77709422Y-134139260D01*
X77800327Y-134321821D01*
X77923237Y-134484581D01*
X78073958Y-134621980D01*
X78073960Y-134621982D01*
X78156957Y-134673371D01*
X78247363Y-134729348D01*
X78437544Y-134803024D01*
X78638024Y-134840500D01*
X78638026Y-134840500D01*
X78841974Y-134840500D01*
X78841976Y-134840500D01*
X79042456Y-134803024D01*
X79232637Y-134729348D01*
X79406041Y-134621981D01*
X79556764Y-134484579D01*
X79620635Y-134400000D01*
X84494353Y-134400000D01*
X84514834Y-134542456D01*
X84541113Y-134599998D01*
X84574623Y-134673373D01*
X84668872Y-134782143D01*
X84789947Y-134859953D01*
X84789950Y-134859954D01*
X84789949Y-134859954D01*
X84928036Y-134900499D01*
X84928038Y-134900500D01*
X84928039Y-134900500D01*
X85071962Y-134900500D01*
X85071962Y-134900499D01*
X85179121Y-134869035D01*
X85210050Y-134859954D01*
X85210050Y-134859953D01*
X85210053Y-134859953D01*
X85331128Y-134782143D01*
X85425377Y-134673373D01*
X85485165Y-134542457D01*
X85498458Y-134450000D01*
X94239816Y-134450000D01*
X94258456Y-134579647D01*
X94258457Y-134579648D01*
X94312866Y-134698790D01*
X94312868Y-134698792D01*
X94312869Y-134698794D01*
X94398644Y-134797784D01*
X94508833Y-134868598D01*
X94612881Y-134899149D01*
X94634508Y-134905500D01*
X94634509Y-134905500D01*
X94765492Y-134905500D01*
X94783943Y-134900081D01*
X94891167Y-134868598D01*
X95001356Y-134797784D01*
X95087131Y-134698794D01*
X95141543Y-134579649D01*
X95160184Y-134450000D01*
X95153800Y-134405602D01*
X95163743Y-134336448D01*
X95209497Y-134283644D01*
X95276536Y-134263958D01*
X95343576Y-134283641D01*
X95350847Y-134288690D01*
X95357665Y-134293793D01*
X95357671Y-134293797D01*
X95402618Y-134310561D01*
X95492517Y-134344091D01*
X95552127Y-134350500D01*
X96297872Y-134350499D01*
X96357483Y-134344091D01*
X96492331Y-134293796D01*
X96607546Y-134207546D01*
X96693796Y-134092331D01*
X96744091Y-133957483D01*
X96748035Y-133920795D01*
X96774772Y-133856248D01*
X96832164Y-133816400D01*
X96901990Y-133813906D01*
X96945636Y-133834788D01*
X96957668Y-133843795D01*
X96957671Y-133843797D01*
X97002618Y-133860561D01*
X97092517Y-133894091D01*
X97236073Y-133904359D01*
X97376706Y-133873766D01*
X97503023Y-133804791D01*
X97588322Y-133719491D01*
X97649641Y-133686009D01*
X97719333Y-133690993D01*
X97775267Y-133732864D01*
X97799684Y-133798328D01*
X97800000Y-133807174D01*
X97800000Y-133899970D01*
X97800001Y-133899987D01*
X97810494Y-134002697D01*
X97865641Y-134169119D01*
X97865643Y-134169124D01*
X97957684Y-134318345D01*
X98081654Y-134442315D01*
X98230875Y-134534356D01*
X98230880Y-134534358D01*
X98397302Y-134589505D01*
X98397309Y-134589506D01*
X98500019Y-134599999D01*
X98624999Y-134599999D01*
X98625000Y-134599998D01*
X98625000Y-133450000D01*
X99125000Y-133450000D01*
X99125000Y-134599999D01*
X99249972Y-134599999D01*
X99249986Y-134599998D01*
X99352697Y-134589505D01*
X99519119Y-134534358D01*
X99519124Y-134534356D01*
X99668345Y-134442315D01*
X99792315Y-134318345D01*
X99884356Y-134169124D01*
X99884358Y-134169119D01*
X99939506Y-134002695D01*
X99939506Y-134002690D01*
X99949999Y-133899986D01*
X99950000Y-133899973D01*
X99950000Y-133450000D01*
X99125000Y-133450000D01*
X98625000Y-133450000D01*
X98625000Y-131800000D01*
X99125000Y-131800000D01*
X99125000Y-132950000D01*
X99949999Y-132950000D01*
X99949999Y-132500028D01*
X99949998Y-132500013D01*
X99939505Y-132397302D01*
X99884358Y-132230880D01*
X99884356Y-132230875D01*
X99792315Y-132081654D01*
X99668345Y-131957684D01*
X99519124Y-131865643D01*
X99519119Y-131865641D01*
X99352697Y-131810494D01*
X99352690Y-131810493D01*
X99249986Y-131800000D01*
X99125000Y-131800000D01*
X98625000Y-131800000D01*
X98500027Y-131800000D01*
X98500012Y-131800001D01*
X98397302Y-131810494D01*
X98230880Y-131865641D01*
X98230875Y-131865643D01*
X98081654Y-131957684D01*
X97957684Y-132081654D01*
X97865643Y-132230875D01*
X97865641Y-132230880D01*
X97810494Y-132397302D01*
X97810493Y-132397309D01*
X97800000Y-132500013D01*
X97800000Y-132993773D01*
X97780315Y-133060812D01*
X97727511Y-133106567D01*
X97658353Y-133116511D01*
X97594797Y-133087486D01*
X97582576Y-133074353D01*
X97582118Y-133074751D01*
X97579211Y-133071396D01*
X97401385Y-132893571D01*
X97384750Y-132872928D01*
X97382145Y-132868874D01*
X97382142Y-132868871D01*
X97369618Y-132858019D01*
X97342932Y-132834896D01*
X97339700Y-132831886D01*
X97328596Y-132820782D01*
X97328588Y-132820775D01*
X97316013Y-132811362D01*
X97312583Y-132808598D01*
X97273373Y-132774623D01*
X97273371Y-132774622D01*
X97273367Y-132774619D01*
X97268983Y-132772617D01*
X97246194Y-132759096D01*
X97242331Y-132756204D01*
X97242329Y-132756203D01*
X97193716Y-132738071D01*
X97189642Y-132736383D01*
X97142457Y-132714835D01*
X97142455Y-132714834D01*
X97137682Y-132714148D01*
X97112000Y-132707593D01*
X97107485Y-132705909D01*
X97055740Y-132702207D01*
X97051343Y-132701734D01*
X97035799Y-132699500D01*
X97020094Y-132699500D01*
X97015671Y-132699342D01*
X96998083Y-132698084D01*
X96963929Y-132695641D01*
X96963925Y-132695641D01*
X96959215Y-132696666D01*
X96932857Y-132699500D01*
X96874499Y-132699500D01*
X96807460Y-132679815D01*
X96761705Y-132627011D01*
X96750499Y-132575500D01*
X96750499Y-132502129D01*
X96750498Y-132502123D01*
X96750497Y-132502116D01*
X96744091Y-132442517D01*
X96693796Y-132307669D01*
X96693795Y-132307668D01*
X96693793Y-132307664D01*
X96607547Y-132192455D01*
X96607544Y-132192452D01*
X96492335Y-132106206D01*
X96492328Y-132106202D01*
X96357486Y-132055910D01*
X96357485Y-132055909D01*
X96357483Y-132055909D01*
X96297873Y-132049500D01*
X96297863Y-132049500D01*
X95552129Y-132049500D01*
X95552123Y-132049501D01*
X95492516Y-132055908D01*
X95357671Y-132106202D01*
X95357664Y-132106206D01*
X95242455Y-132192452D01*
X95242452Y-132192455D01*
X95156206Y-132307664D01*
X95156202Y-132307671D01*
X95105908Y-132442517D01*
X95099501Y-132502116D01*
X95099501Y-132502123D01*
X95099500Y-132502135D01*
X95099500Y-133897870D01*
X95099501Y-133897876D01*
X95102680Y-133927447D01*
X95090273Y-133996206D01*
X95042662Y-134047343D01*
X94974962Y-134064621D01*
X94912352Y-134045016D01*
X94891171Y-134031404D01*
X94891169Y-134031403D01*
X94891168Y-134031402D01*
X94891167Y-134031402D01*
X94817734Y-134009840D01*
X94765492Y-133994500D01*
X94765491Y-133994500D01*
X94634509Y-133994500D01*
X94634508Y-133994500D01*
X94582265Y-134009840D01*
X94508833Y-134031402D01*
X94508831Y-134031402D01*
X94508831Y-134031403D01*
X94398645Y-134102215D01*
X94312869Y-134201206D01*
X94312866Y-134201209D01*
X94258457Y-134320351D01*
X94258456Y-134320352D01*
X94239816Y-134450000D01*
X85498458Y-134450000D01*
X85505647Y-134400000D01*
X85485165Y-134257543D01*
X85425377Y-134126627D01*
X85331128Y-134017857D01*
X85210053Y-133940047D01*
X85210051Y-133940046D01*
X85210049Y-133940045D01*
X85210050Y-133940045D01*
X85071963Y-133899500D01*
X85071961Y-133899500D01*
X84928039Y-133899500D01*
X84928036Y-133899500D01*
X84789949Y-133940045D01*
X84668873Y-134017856D01*
X84574623Y-134126626D01*
X84574622Y-134126628D01*
X84514834Y-134257543D01*
X84494353Y-134400000D01*
X79620635Y-134400000D01*
X79679673Y-134321821D01*
X79770582Y-134139250D01*
X79826397Y-133943083D01*
X79845215Y-133740000D01*
X79826397Y-133536917D01*
X79770582Y-133340750D01*
X79679673Y-133158179D01*
X79556764Y-132995421D01*
X79556762Y-132995418D01*
X79406041Y-132858019D01*
X79406039Y-132858017D01*
X79279111Y-132779427D01*
X79232475Y-132727399D01*
X79221371Y-132658417D01*
X79249324Y-132594383D01*
X79307459Y-132555627D01*
X79344388Y-132550000D01*
X79637828Y-132550000D01*
X79637844Y-132549999D01*
X79697372Y-132543598D01*
X79697379Y-132543596D01*
X79832086Y-132493354D01*
X79832093Y-132493350D01*
X79947187Y-132407190D01*
X79947190Y-132407187D01*
X80033350Y-132292093D01*
X80033354Y-132292086D01*
X80083596Y-132157379D01*
X80083598Y-132157372D01*
X80089999Y-132097844D01*
X80090000Y-132097827D01*
X80090000Y-131450000D01*
X79173686Y-131450000D01*
X79199493Y-131409844D01*
X79240000Y-131271889D01*
X79240000Y-131128111D01*
X79199493Y-130990156D01*
X79173686Y-130950000D01*
X80090000Y-130950000D01*
X80090000Y-130650000D01*
X84444353Y-130650000D01*
X84464834Y-130792456D01*
X84518494Y-130909953D01*
X84524623Y-130923373D01*
X84618872Y-131032143D01*
X84739947Y-131109953D01*
X84739950Y-131109954D01*
X84739949Y-131109954D01*
X84878036Y-131150499D01*
X84878038Y-131150500D01*
X84878039Y-131150500D01*
X85021962Y-131150500D01*
X85021962Y-131150499D01*
X85160053Y-131109953D01*
X85281128Y-131032143D01*
X85375377Y-130923373D01*
X85435165Y-130792457D01*
X85455647Y-130650000D01*
X85435165Y-130507543D01*
X85408886Y-130450000D01*
X96294353Y-130450000D01*
X96314834Y-130592456D01*
X96341114Y-130650000D01*
X96374623Y-130723373D01*
X96468872Y-130832143D01*
X96589947Y-130909953D01*
X96589950Y-130909954D01*
X96589949Y-130909954D01*
X96697107Y-130941417D01*
X96726336Y-130950000D01*
X96728036Y-130950499D01*
X96728038Y-130950500D01*
X96728039Y-130950500D01*
X96871962Y-130950500D01*
X96871962Y-130950499D01*
X97010053Y-130909953D01*
X97131128Y-130832143D01*
X97225377Y-130723373D01*
X97285165Y-130592457D01*
X97305647Y-130450000D01*
X97285165Y-130307543D01*
X97225377Y-130176627D01*
X97131128Y-130067857D01*
X97010053Y-129990047D01*
X97010051Y-129990046D01*
X97010049Y-129990045D01*
X97010050Y-129990045D01*
X96871963Y-129949500D01*
X96871961Y-129949500D01*
X96728039Y-129949500D01*
X96728036Y-129949500D01*
X96589949Y-129990045D01*
X96468873Y-130067856D01*
X96374623Y-130176626D01*
X96374622Y-130176628D01*
X96314834Y-130307543D01*
X96294353Y-130450000D01*
X85408886Y-130450000D01*
X85375377Y-130376627D01*
X85281128Y-130267857D01*
X85160053Y-130190047D01*
X85160051Y-130190046D01*
X85160049Y-130190045D01*
X85160050Y-130190045D01*
X85021963Y-130149500D01*
X85021961Y-130149500D01*
X84878039Y-130149500D01*
X84878036Y-130149500D01*
X84739949Y-130190045D01*
X84618873Y-130267856D01*
X84524623Y-130376626D01*
X84524622Y-130376628D01*
X84464834Y-130507543D01*
X84444353Y-130650000D01*
X80090000Y-130650000D01*
X80090000Y-130302172D01*
X80089999Y-130302155D01*
X80083598Y-130242627D01*
X80083596Y-130242620D01*
X80033354Y-130107913D01*
X80033350Y-130107906D01*
X79947190Y-129992812D01*
X79947187Y-129992809D01*
X79832093Y-129906649D01*
X79832086Y-129906645D01*
X79697379Y-129856403D01*
X79697372Y-129856401D01*
X79637844Y-129850000D01*
X78990000Y-129850000D01*
X78990000Y-130764498D01*
X78882315Y-130715320D01*
X78775763Y-130700000D01*
X78704237Y-130700000D01*
X78597685Y-130715320D01*
X78490000Y-130764498D01*
X78490000Y-129850000D01*
X77842155Y-129850000D01*
X77782627Y-129856401D01*
X77782620Y-129856403D01*
X77647913Y-129906645D01*
X77647906Y-129906649D01*
X77532812Y-129992809D01*
X77532809Y-129992812D01*
X77446649Y-130107906D01*
X77446645Y-130107913D01*
X77396403Y-130242620D01*
X77396401Y-130242627D01*
X77390000Y-130302155D01*
X77390000Y-130950000D01*
X78306314Y-130950000D01*
X78280507Y-130990156D01*
X78240000Y-131128111D01*
X78240000Y-131271889D01*
X78280507Y-131409844D01*
X78306314Y-131450000D01*
X77390000Y-131450000D01*
X77390000Y-132097844D01*
X76810500Y-132097844D01*
X76810500Y-129500000D01*
X89694353Y-129500000D01*
X89714834Y-129642456D01*
X89774622Y-129773371D01*
X89774623Y-129773373D01*
X89868872Y-129882143D01*
X89989947Y-129959953D01*
X89989950Y-129959954D01*
X89989949Y-129959954D01*
X90128036Y-130000499D01*
X90128038Y-130000500D01*
X90128039Y-130000500D01*
X90271962Y-130000500D01*
X90271962Y-130000499D01*
X90410053Y-129959953D01*
X90531128Y-129882143D01*
X90625377Y-129773373D01*
X90676898Y-129660558D01*
X90977014Y-129660558D01*
X90995654Y-129790205D01*
X90995655Y-129790206D01*
X91050064Y-129909348D01*
X91050066Y-129909350D01*
X91050067Y-129909352D01*
X91135842Y-130008342D01*
X91246031Y-130079156D01*
X91343944Y-130107906D01*
X91371706Y-130116058D01*
X91371707Y-130116058D01*
X91502690Y-130116058D01*
X91530452Y-130107906D01*
X91628365Y-130079156D01*
X91738554Y-130008342D01*
X91824329Y-129909352D01*
X91824329Y-129909350D01*
X91829460Y-129903430D01*
X91888238Y-129865655D01*
X91958107Y-129865655D01*
X92016884Y-129903427D01*
X92098644Y-129997784D01*
X92208833Y-130068598D01*
X92312881Y-130099149D01*
X92334508Y-130105500D01*
X92334509Y-130105500D01*
X92465492Y-130105500D01*
X92483943Y-130100081D01*
X92591167Y-130068598D01*
X92701356Y-129997784D01*
X92786086Y-129900000D01*
X100544353Y-129900000D01*
X100564834Y-130042456D01*
X100593626Y-130105500D01*
X100624623Y-130173373D01*
X100718872Y-130282143D01*
X100839947Y-130359953D01*
X100839950Y-130359954D01*
X100839949Y-130359954D01*
X100978036Y-130400499D01*
X100978038Y-130400500D01*
X100978039Y-130400500D01*
X101121962Y-130400500D01*
X101121962Y-130400499D01*
X101260053Y-130359953D01*
X101381128Y-130282143D01*
X101475377Y-130173373D01*
X101535165Y-130042457D01*
X101555647Y-129900000D01*
X101535165Y-129757543D01*
X101475377Y-129626627D01*
X101381128Y-129517857D01*
X101260053Y-129440047D01*
X101260051Y-129440046D01*
X101260049Y-129440045D01*
X101260050Y-129440045D01*
X101121963Y-129399500D01*
X101121961Y-129399500D01*
X100978039Y-129399500D01*
X100978036Y-129399500D01*
X100839949Y-129440045D01*
X100718873Y-129517856D01*
X100624623Y-129626626D01*
X100624622Y-129626628D01*
X100564834Y-129757543D01*
X100544353Y-129900000D01*
X92786086Y-129900000D01*
X92787131Y-129898794D01*
X92841543Y-129779649D01*
X92860184Y-129650000D01*
X92841543Y-129520351D01*
X92804868Y-129440045D01*
X92787133Y-129401209D01*
X92787131Y-129401207D01*
X92787131Y-129401206D01*
X92701356Y-129302216D01*
X92666787Y-129280000D01*
X103424417Y-129280000D01*
X103444699Y-129485932D01*
X103455140Y-129520351D01*
X103504768Y-129683954D01*
X103602315Y-129866450D01*
X103602317Y-129866452D01*
X103733589Y-130026410D01*
X103828956Y-130104674D01*
X103893550Y-130157685D01*
X104076046Y-130255232D01*
X104274066Y-130315300D01*
X104274065Y-130315300D01*
X104292529Y-130317118D01*
X104480000Y-130335583D01*
X104685934Y-130315300D01*
X104883954Y-130255232D01*
X105066450Y-130157685D01*
X105226410Y-130026410D01*
X105357685Y-129866450D01*
X105455232Y-129683954D01*
X105515300Y-129485934D01*
X105535583Y-129280000D01*
X105964417Y-129280000D01*
X105984699Y-129485932D01*
X105995140Y-129520351D01*
X106044768Y-129683954D01*
X106142315Y-129866450D01*
X106142317Y-129866452D01*
X106273589Y-130026410D01*
X106368956Y-130104674D01*
X106433550Y-130157685D01*
X106616046Y-130255232D01*
X106814066Y-130315300D01*
X106814065Y-130315300D01*
X106832529Y-130317118D01*
X107020000Y-130335583D01*
X107225934Y-130315300D01*
X107423954Y-130255232D01*
X107606450Y-130157685D01*
X107766410Y-130026410D01*
X107897685Y-129866450D01*
X107995232Y-129683954D01*
X108055300Y-129485934D01*
X108075583Y-129280000D01*
X108504417Y-129280000D01*
X108524699Y-129485932D01*
X108535140Y-129520351D01*
X108584768Y-129683954D01*
X108682315Y-129866450D01*
X108682317Y-129866452D01*
X108813589Y-130026410D01*
X108908956Y-130104674D01*
X108973550Y-130157685D01*
X109156046Y-130255232D01*
X109354066Y-130315300D01*
X109354065Y-130315300D01*
X109372529Y-130317118D01*
X109560000Y-130335583D01*
X109765934Y-130315300D01*
X109963954Y-130255232D01*
X110146450Y-130157685D01*
X110306410Y-130026410D01*
X110437685Y-129866450D01*
X110535232Y-129683954D01*
X110595300Y-129485934D01*
X110615583Y-129280000D01*
X111044417Y-129280000D01*
X111064699Y-129485932D01*
X111075140Y-129520351D01*
X111124768Y-129683954D01*
X111222315Y-129866450D01*
X111222317Y-129866452D01*
X111353589Y-130026410D01*
X111448956Y-130104674D01*
X111513550Y-130157685D01*
X111696046Y-130255232D01*
X111894066Y-130315300D01*
X111894065Y-130315300D01*
X111912529Y-130317118D01*
X112100000Y-130335583D01*
X112305934Y-130315300D01*
X112503954Y-130255232D01*
X112686450Y-130157685D01*
X112846410Y-130026410D01*
X112977685Y-129866450D01*
X113075232Y-129683954D01*
X113135300Y-129485934D01*
X113155583Y-129280000D01*
X113584417Y-129280000D01*
X113604699Y-129485932D01*
X113615140Y-129520351D01*
X113664768Y-129683954D01*
X113762315Y-129866450D01*
X113762317Y-129866452D01*
X113893589Y-130026410D01*
X113988956Y-130104674D01*
X114053550Y-130157685D01*
X114236046Y-130255232D01*
X114434066Y-130315300D01*
X114434065Y-130315300D01*
X114452529Y-130317118D01*
X114640000Y-130335583D01*
X114845934Y-130315300D01*
X115043954Y-130255232D01*
X115226450Y-130157685D01*
X115386410Y-130026410D01*
X115517685Y-129866450D01*
X115615232Y-129683954D01*
X115675300Y-129485934D01*
X115695583Y-129280000D01*
X116124417Y-129280000D01*
X116144699Y-129485932D01*
X116155140Y-129520351D01*
X116204768Y-129683954D01*
X116302315Y-129866450D01*
X116302317Y-129866452D01*
X116433589Y-130026410D01*
X116528956Y-130104674D01*
X116593550Y-130157685D01*
X116776046Y-130255232D01*
X116974066Y-130315300D01*
X116974065Y-130315300D01*
X116992529Y-130317118D01*
X117180000Y-130335583D01*
X117385934Y-130315300D01*
X117583954Y-130255232D01*
X117766450Y-130157685D01*
X117831040Y-130104678D01*
X118669500Y-130104678D01*
X118684032Y-130177735D01*
X118684033Y-130177739D01*
X118684034Y-130177740D01*
X118739399Y-130260601D01*
X118809654Y-130307543D01*
X118822260Y-130315966D01*
X118822264Y-130315967D01*
X118895321Y-130330499D01*
X118895324Y-130330500D01*
X118895326Y-130330500D01*
X120544676Y-130330500D01*
X120544677Y-130330499D01*
X120617740Y-130315966D01*
X120700601Y-130260601D01*
X120755966Y-130177740D01*
X120770500Y-130104674D01*
X120770500Y-128455326D01*
X120770500Y-128455323D01*
X120770499Y-128455321D01*
X120755967Y-128382264D01*
X120755966Y-128382260D01*
X120700601Y-128299399D01*
X120618737Y-128244700D01*
X120617739Y-128244033D01*
X120617735Y-128244032D01*
X120544677Y-128229500D01*
X120544674Y-128229500D01*
X118895326Y-128229500D01*
X118895323Y-128229500D01*
X118822264Y-128244032D01*
X118822260Y-128244033D01*
X118739399Y-128299399D01*
X118684033Y-128382260D01*
X118684032Y-128382264D01*
X118669500Y-128455321D01*
X118669500Y-130104678D01*
X117831040Y-130104678D01*
X117926410Y-130026410D01*
X118057685Y-129866450D01*
X118155232Y-129683954D01*
X118215300Y-129485934D01*
X118235583Y-129280000D01*
X118215300Y-129074066D01*
X118155232Y-128876046D01*
X118057685Y-128693550D01*
X118005702Y-128630209D01*
X117926410Y-128533589D01*
X117766452Y-128402317D01*
X117766453Y-128402317D01*
X117766450Y-128402315D01*
X117583954Y-128304768D01*
X117385934Y-128244700D01*
X117385932Y-128244699D01*
X117385934Y-128244699D01*
X117180000Y-128224417D01*
X116974067Y-128244699D01*
X116776043Y-128304769D01*
X116665898Y-128363643D01*
X116593550Y-128402315D01*
X116593548Y-128402316D01*
X116593547Y-128402317D01*
X116433589Y-128533589D01*
X116302317Y-128693547D01*
X116204769Y-128876043D01*
X116144699Y-129074067D01*
X116124417Y-129280000D01*
X115695583Y-129280000D01*
X115675300Y-129074066D01*
X115615232Y-128876046D01*
X115517685Y-128693550D01*
X115465702Y-128630209D01*
X115386410Y-128533589D01*
X115226452Y-128402317D01*
X115226453Y-128402317D01*
X115226450Y-128402315D01*
X115043954Y-128304768D01*
X114845934Y-128244700D01*
X114845932Y-128244699D01*
X114845934Y-128244699D01*
X114640000Y-128224417D01*
X114434067Y-128244699D01*
X114236043Y-128304769D01*
X114125898Y-128363643D01*
X114053550Y-128402315D01*
X114053548Y-128402316D01*
X114053547Y-128402317D01*
X113893589Y-128533589D01*
X113762317Y-128693547D01*
X113664769Y-128876043D01*
X113604699Y-129074067D01*
X113584417Y-129280000D01*
X113155583Y-129280000D01*
X113135300Y-129074066D01*
X113075232Y-128876046D01*
X112977685Y-128693550D01*
X112925702Y-128630209D01*
X112846410Y-128533589D01*
X112686452Y-128402317D01*
X112686453Y-128402317D01*
X112686450Y-128402315D01*
X112503954Y-128304768D01*
X112305934Y-128244700D01*
X112305932Y-128244699D01*
X112305934Y-128244699D01*
X112100000Y-128224417D01*
X111894067Y-128244699D01*
X111696043Y-128304769D01*
X111585898Y-128363643D01*
X111513550Y-128402315D01*
X111513548Y-128402316D01*
X111513547Y-128402317D01*
X111353589Y-128533589D01*
X111222317Y-128693547D01*
X111124769Y-128876043D01*
X111064699Y-129074067D01*
X111044417Y-129280000D01*
X110615583Y-129280000D01*
X110595300Y-129074066D01*
X110535232Y-128876046D01*
X110437685Y-128693550D01*
X110385702Y-128630209D01*
X110306410Y-128533589D01*
X110146452Y-128402317D01*
X110146453Y-128402317D01*
X110146450Y-128402315D01*
X109963954Y-128304768D01*
X109765934Y-128244700D01*
X109765932Y-128244699D01*
X109765934Y-128244699D01*
X109560000Y-128224417D01*
X109354067Y-128244699D01*
X109156043Y-128304769D01*
X109045898Y-128363643D01*
X108973550Y-128402315D01*
X108973548Y-128402316D01*
X108973547Y-128402317D01*
X108813589Y-128533589D01*
X108682317Y-128693547D01*
X108584769Y-128876043D01*
X108524699Y-129074067D01*
X108504417Y-129280000D01*
X108075583Y-129280000D01*
X108055300Y-129074066D01*
X107995232Y-128876046D01*
X107897685Y-128693550D01*
X107845702Y-128630209D01*
X107766410Y-128533589D01*
X107606452Y-128402317D01*
X107606453Y-128402317D01*
X107606450Y-128402315D01*
X107423954Y-128304768D01*
X107225934Y-128244700D01*
X107225932Y-128244699D01*
X107225934Y-128244699D01*
X107020000Y-128224417D01*
X106814067Y-128244699D01*
X106616043Y-128304769D01*
X106505898Y-128363643D01*
X106433550Y-128402315D01*
X106433548Y-128402316D01*
X106433547Y-128402317D01*
X106273589Y-128533589D01*
X106142317Y-128693547D01*
X106044769Y-128876043D01*
X105984699Y-129074067D01*
X105964417Y-129280000D01*
X105535583Y-129280000D01*
X105515300Y-129074066D01*
X105455232Y-128876046D01*
X105357685Y-128693550D01*
X105305702Y-128630209D01*
X105226410Y-128533589D01*
X105066452Y-128402317D01*
X105066453Y-128402317D01*
X105066450Y-128402315D01*
X104883954Y-128304768D01*
X104685934Y-128244700D01*
X104685932Y-128244699D01*
X104685934Y-128244699D01*
X104480000Y-128224417D01*
X104274067Y-128244699D01*
X104076043Y-128304769D01*
X103965898Y-128363643D01*
X103893550Y-128402315D01*
X103893548Y-128402316D01*
X103893547Y-128402317D01*
X103733589Y-128533589D01*
X103602317Y-128693547D01*
X103504769Y-128876043D01*
X103444699Y-129074067D01*
X103424417Y-129280000D01*
X92666787Y-129280000D01*
X92591167Y-129231402D01*
X92501448Y-129205058D01*
X92465492Y-129194500D01*
X92465491Y-129194500D01*
X92334509Y-129194500D01*
X92334508Y-129194500D01*
X92298552Y-129205058D01*
X92208833Y-129231402D01*
X92208831Y-129231402D01*
X92208831Y-129231403D01*
X92098645Y-129302215D01*
X92098644Y-129302215D01*
X92098644Y-129302216D01*
X92089495Y-129312775D01*
X92007737Y-129407128D01*
X91948958Y-129444902D01*
X91879089Y-129444902D01*
X91820311Y-129407127D01*
X91738555Y-129312775D01*
X91738554Y-129312774D01*
X91628365Y-129241960D01*
X91539592Y-129215893D01*
X91502690Y-129205058D01*
X91502689Y-129205058D01*
X91371707Y-129205058D01*
X91371706Y-129205058D01*
X91319463Y-129220398D01*
X91246031Y-129241960D01*
X91246029Y-129241960D01*
X91246029Y-129241961D01*
X91135843Y-129312773D01*
X91050067Y-129411764D01*
X91050064Y-129411767D01*
X90995655Y-129530909D01*
X90995654Y-129530910D01*
X90977014Y-129660558D01*
X90676898Y-129660558D01*
X90685165Y-129642457D01*
X90705647Y-129500000D01*
X90685165Y-129357543D01*
X90625377Y-129226627D01*
X90531128Y-129117857D01*
X90410053Y-129040047D01*
X90410051Y-129040046D01*
X90410049Y-129040045D01*
X90410050Y-129040045D01*
X90271963Y-128999500D01*
X90271961Y-128999500D01*
X90128039Y-128999500D01*
X90128036Y-128999500D01*
X89989949Y-129040045D01*
X89868873Y-129117856D01*
X89774623Y-129226626D01*
X89774622Y-129226628D01*
X89714834Y-129357543D01*
X89694353Y-129500000D01*
X76810500Y-129500000D01*
X76810500Y-128550000D01*
X78044353Y-128550000D01*
X78064834Y-128692456D01*
X78065334Y-128693550D01*
X78124623Y-128823373D01*
X78218872Y-128932143D01*
X78339947Y-129009953D01*
X78339950Y-129009954D01*
X78339949Y-129009954D01*
X78478036Y-129050499D01*
X78478038Y-129050500D01*
X78478039Y-129050500D01*
X78621962Y-129050500D01*
X78621962Y-129050499D01*
X78760053Y-129009953D01*
X78881128Y-128932143D01*
X78975377Y-128823373D01*
X79035165Y-128692457D01*
X79055647Y-128550000D01*
X79035165Y-128407543D01*
X78975377Y-128276627D01*
X78881128Y-128167857D01*
X78760053Y-128090047D01*
X78760051Y-128090046D01*
X78760049Y-128090045D01*
X78760050Y-128090045D01*
X78621963Y-128049500D01*
X78621961Y-128049500D01*
X78478039Y-128049500D01*
X78478036Y-128049500D01*
X78339949Y-128090045D01*
X78218873Y-128167856D01*
X78124623Y-128276626D01*
X78124622Y-128276628D01*
X78064834Y-128407543D01*
X78044353Y-128550000D01*
X76810500Y-128550000D01*
X76810500Y-126650000D01*
X100394353Y-126650000D01*
X100414834Y-126792456D01*
X100474622Y-126923371D01*
X100474623Y-126923373D01*
X100568872Y-127032143D01*
X100689947Y-127109953D01*
X100689950Y-127109954D01*
X100689949Y-127109954D01*
X100828036Y-127150499D01*
X100828038Y-127150500D01*
X100828039Y-127150500D01*
X100971962Y-127150500D01*
X100971962Y-127150499D01*
X101110053Y-127109953D01*
X101231128Y-127032143D01*
X101325377Y-126923373D01*
X101385165Y-126792457D01*
X101405647Y-126650000D01*
X105094353Y-126650000D01*
X105114834Y-126792456D01*
X105174622Y-126923371D01*
X105174623Y-126923373D01*
X105268872Y-127032143D01*
X105389947Y-127109953D01*
X105389950Y-127109954D01*
X105389949Y-127109954D01*
X105528036Y-127150499D01*
X105528038Y-127150500D01*
X105528039Y-127150500D01*
X105671962Y-127150500D01*
X105671962Y-127150499D01*
X105810053Y-127109953D01*
X105931128Y-127032143D01*
X106025377Y-126923373D01*
X106085165Y-126792457D01*
X106105647Y-126650000D01*
X106085165Y-126507543D01*
X106025377Y-126376627D01*
X105931128Y-126267857D01*
X105810053Y-126190047D01*
X105810051Y-126190046D01*
X105810049Y-126190045D01*
X105810050Y-126190045D01*
X105671963Y-126149500D01*
X105671961Y-126149500D01*
X105528039Y-126149500D01*
X105528036Y-126149500D01*
X105389949Y-126190045D01*
X105268873Y-126267856D01*
X105174623Y-126376626D01*
X105174622Y-126376628D01*
X105114834Y-126507543D01*
X105094353Y-126650000D01*
X101405647Y-126650000D01*
X101385165Y-126507543D01*
X101325377Y-126376627D01*
X101231128Y-126267857D01*
X101110053Y-126190047D01*
X101110051Y-126190046D01*
X101110049Y-126190045D01*
X101110050Y-126190045D01*
X100971963Y-126149500D01*
X100971961Y-126149500D01*
X100828039Y-126149500D01*
X100828036Y-126149500D01*
X100689949Y-126190045D01*
X100568873Y-126267856D01*
X100474623Y-126376626D01*
X100474622Y-126376628D01*
X100414834Y-126507543D01*
X100394353Y-126650000D01*
X76810500Y-126650000D01*
X76810500Y-125800000D01*
X83594353Y-125800000D01*
X83614834Y-125942456D01*
X83674622Y-126073371D01*
X83674623Y-126073373D01*
X83768872Y-126182143D01*
X83889947Y-126259953D01*
X83889950Y-126259954D01*
X83889949Y-126259954D01*
X84028036Y-126300499D01*
X84028038Y-126300500D01*
X84028039Y-126300500D01*
X84171962Y-126300500D01*
X84171962Y-126300499D01*
X84310053Y-126259953D01*
X84431128Y-126182143D01*
X84525377Y-126073373D01*
X84585165Y-125942457D01*
X84605647Y-125800000D01*
X84586191Y-125664678D01*
X116689500Y-125664678D01*
X116704032Y-125737735D01*
X116704033Y-125737739D01*
X116704034Y-125737740D01*
X116759399Y-125820601D01*
X116842260Y-125875966D01*
X116842264Y-125875967D01*
X116915321Y-125890499D01*
X116915324Y-125890500D01*
X116915326Y-125890500D01*
X118664676Y-125890500D01*
X118664677Y-125890499D01*
X118737740Y-125875966D01*
X118820601Y-125820601D01*
X118875966Y-125737740D01*
X118890500Y-125664674D01*
X118890500Y-123915326D01*
X118890500Y-123915323D01*
X118890499Y-123915321D01*
X118875967Y-123842264D01*
X118875966Y-123842260D01*
X118848063Y-123800500D01*
X118820601Y-123759399D01*
X118737740Y-123704034D01*
X118737739Y-123704033D01*
X118737735Y-123704032D01*
X118664677Y-123689500D01*
X118664674Y-123689500D01*
X116915326Y-123689500D01*
X116915323Y-123689500D01*
X116842264Y-123704032D01*
X116842260Y-123704033D01*
X116759399Y-123759399D01*
X116704033Y-123842260D01*
X116704032Y-123842264D01*
X116689500Y-123915321D01*
X116689500Y-125664678D01*
X84586191Y-125664678D01*
X84585165Y-125657543D01*
X84525377Y-125526627D01*
X84431128Y-125417857D01*
X84310053Y-125340047D01*
X84310051Y-125340046D01*
X84310049Y-125340045D01*
X84310050Y-125340045D01*
X84171963Y-125299500D01*
X84171961Y-125299500D01*
X84028039Y-125299500D01*
X84028036Y-125299500D01*
X83889949Y-125340045D01*
X83768873Y-125417856D01*
X83674623Y-125526626D01*
X83674622Y-125526628D01*
X83614834Y-125657543D01*
X83594353Y-125800000D01*
X76810500Y-125800000D01*
X76810500Y-124700000D01*
X89194353Y-124700000D01*
X89214834Y-124842456D01*
X89274622Y-124973371D01*
X89274623Y-124973373D01*
X89368872Y-125082143D01*
X89489947Y-125159953D01*
X89489950Y-125159954D01*
X89489949Y-125159954D01*
X89628036Y-125200499D01*
X89628038Y-125200500D01*
X89628039Y-125200500D01*
X89771962Y-125200500D01*
X89771962Y-125200499D01*
X89910053Y-125159953D01*
X90031128Y-125082143D01*
X90125377Y-124973373D01*
X90185165Y-124842457D01*
X90205647Y-124700000D01*
X90185165Y-124557543D01*
X90125377Y-124426627D01*
X90031128Y-124317857D01*
X89910053Y-124240047D01*
X89910051Y-124240046D01*
X89910049Y-124240045D01*
X89910050Y-124240045D01*
X89771963Y-124199500D01*
X89771961Y-124199500D01*
X89628039Y-124199500D01*
X89628036Y-124199500D01*
X89489949Y-124240045D01*
X89368873Y-124317856D01*
X89274623Y-124426626D01*
X89274622Y-124426628D01*
X89214834Y-124557543D01*
X89194353Y-124700000D01*
X76810500Y-124700000D01*
X76810500Y-123200000D01*
X90794353Y-123200000D01*
X90814834Y-123342456D01*
X90860504Y-123442457D01*
X90874623Y-123473373D01*
X90968872Y-123582143D01*
X91089947Y-123659953D01*
X91089950Y-123659954D01*
X91089949Y-123659954D01*
X91228036Y-123700499D01*
X91228038Y-123700500D01*
X91228039Y-123700500D01*
X91371962Y-123700500D01*
X91371962Y-123700499D01*
X91510053Y-123659953D01*
X91631128Y-123582143D01*
X91725377Y-123473373D01*
X91785165Y-123342457D01*
X91791269Y-123300000D01*
X100194353Y-123300000D01*
X100214834Y-123442456D01*
X100228953Y-123473371D01*
X100274623Y-123573373D01*
X100368872Y-123682143D01*
X100489947Y-123759953D01*
X100489950Y-123759954D01*
X100489949Y-123759954D01*
X100628036Y-123800499D01*
X100628038Y-123800500D01*
X100628039Y-123800500D01*
X100771962Y-123800500D01*
X100771962Y-123800499D01*
X100910053Y-123759953D01*
X101031128Y-123682143D01*
X101125377Y-123573373D01*
X101185165Y-123442457D01*
X101205647Y-123300000D01*
X101185165Y-123157543D01*
X101125377Y-123026627D01*
X101031128Y-122917857D01*
X100910053Y-122840047D01*
X100910051Y-122840046D01*
X100910049Y-122840045D01*
X100910050Y-122840045D01*
X100771963Y-122799500D01*
X100771961Y-122799500D01*
X100628039Y-122799500D01*
X100628036Y-122799500D01*
X100489949Y-122840045D01*
X100368873Y-122917856D01*
X100274623Y-123026626D01*
X100274622Y-123026628D01*
X100214834Y-123157543D01*
X100194353Y-123300000D01*
X91791269Y-123300000D01*
X91805647Y-123200000D01*
X91785165Y-123057543D01*
X91725377Y-122926627D01*
X91631128Y-122817857D01*
X91510053Y-122740047D01*
X91510051Y-122740046D01*
X91510049Y-122740045D01*
X91510050Y-122740045D01*
X91371963Y-122699500D01*
X91371961Y-122699500D01*
X91228039Y-122699500D01*
X91228036Y-122699500D01*
X91089949Y-122740045D01*
X90968873Y-122817856D01*
X90874623Y-122926626D01*
X90874622Y-122926628D01*
X90814834Y-123057543D01*
X90794353Y-123200000D01*
X76810500Y-123200000D01*
X76810500Y-122032678D01*
X77639500Y-122032678D01*
X77654032Y-122105735D01*
X77654033Y-122105739D01*
X77654034Y-122105740D01*
X77709399Y-122188601D01*
X77772256Y-122230600D01*
X77792260Y-122243966D01*
X77792264Y-122243967D01*
X77865321Y-122258499D01*
X77865324Y-122258500D01*
X77865326Y-122258500D01*
X79614676Y-122258500D01*
X79614677Y-122258499D01*
X79687740Y-122243966D01*
X79770601Y-122188601D01*
X79825966Y-122105740D01*
X79840500Y-122032674D01*
X79840500Y-121158000D01*
X80174785Y-121158000D01*
X80193602Y-121361082D01*
X80249417Y-121557247D01*
X80249422Y-121557260D01*
X80340327Y-121739821D01*
X80463237Y-121902581D01*
X80613958Y-122039980D01*
X80613960Y-122039982D01*
X80681790Y-122081980D01*
X80787363Y-122147348D01*
X80977544Y-122221024D01*
X81178024Y-122258500D01*
X81178026Y-122258500D01*
X81381974Y-122258500D01*
X81381976Y-122258500D01*
X81582456Y-122221024D01*
X81772637Y-122147348D01*
X81946041Y-122039981D01*
X82096764Y-121902579D01*
X82219673Y-121739821D01*
X82289670Y-121599247D01*
X82306817Y-121564812D01*
X82354319Y-121513575D01*
X82421982Y-121496153D01*
X82488323Y-121518078D01*
X82532278Y-121572389D01*
X82537592Y-121587989D01*
X82546567Y-121621485D01*
X82546570Y-121621492D01*
X82646399Y-121835578D01*
X82781894Y-122029082D01*
X82948917Y-122196105D01*
X83142421Y-122331600D01*
X83356507Y-122431429D01*
X83356516Y-122431433D01*
X83570000Y-122488634D01*
X83570000Y-121593501D01*
X83677685Y-121642680D01*
X83784237Y-121658000D01*
X83855763Y-121658000D01*
X83962315Y-121642680D01*
X84070000Y-121593501D01*
X84070000Y-122488633D01*
X84283483Y-122431433D01*
X84283492Y-122431429D01*
X84497578Y-122331600D01*
X84691082Y-122196105D01*
X84858105Y-122029082D01*
X84993600Y-121835578D01*
X85093429Y-121621492D01*
X85093431Y-121621489D01*
X85102406Y-121587992D01*
X85138770Y-121528331D01*
X85201616Y-121497800D01*
X85270992Y-121506094D01*
X85324871Y-121550578D01*
X85333182Y-121564811D01*
X85420327Y-121739821D01*
X85543237Y-121902581D01*
X85693958Y-122039980D01*
X85693960Y-122039982D01*
X85761790Y-122081980D01*
X85867363Y-122147348D01*
X86057544Y-122221024D01*
X86258024Y-122258500D01*
X86258026Y-122258500D01*
X86461974Y-122258500D01*
X86461976Y-122258500D01*
X86662456Y-122221024D01*
X86852637Y-122147348D01*
X86970003Y-122074678D01*
X89659500Y-122074678D01*
X89674032Y-122147735D01*
X89674033Y-122147739D01*
X89674034Y-122147740D01*
X89729399Y-122230601D01*
X89812260Y-122285966D01*
X89812264Y-122285967D01*
X89885321Y-122300499D01*
X89885324Y-122300500D01*
X89885326Y-122300500D01*
X91634676Y-122300500D01*
X91634677Y-122300499D01*
X91707740Y-122285966D01*
X91790601Y-122230601D01*
X91845966Y-122147740D01*
X91860500Y-122074674D01*
X91860500Y-121200000D01*
X92194785Y-121200000D01*
X92213602Y-121403082D01*
X92269417Y-121599247D01*
X92269422Y-121599260D01*
X92360327Y-121781821D01*
X92483237Y-121944581D01*
X92633958Y-122081980D01*
X92633960Y-122081982D01*
X92672331Y-122105740D01*
X92807363Y-122189348D01*
X92997544Y-122263024D01*
X93198024Y-122300500D01*
X93198026Y-122300500D01*
X93401974Y-122300500D01*
X93401976Y-122300500D01*
X93602456Y-122263024D01*
X93792637Y-122189348D01*
X93966041Y-122081981D01*
X94116764Y-121944579D01*
X94239673Y-121781821D01*
X94330582Y-121599250D01*
X94386397Y-121403083D01*
X94405215Y-121200000D01*
X95914785Y-121200000D01*
X95933602Y-121403082D01*
X95989417Y-121599247D01*
X95989422Y-121599260D01*
X96080327Y-121781821D01*
X96203237Y-121944581D01*
X96353958Y-122081980D01*
X96353960Y-122081982D01*
X96392331Y-122105740D01*
X96527363Y-122189348D01*
X96717544Y-122263024D01*
X96918024Y-122300500D01*
X96918026Y-122300500D01*
X97121974Y-122300500D01*
X97121976Y-122300500D01*
X97322456Y-122263024D01*
X97512637Y-122189348D01*
X97686041Y-122081981D01*
X97836764Y-121944579D01*
X97959673Y-121781821D01*
X98050582Y-121599250D01*
X98106397Y-121403083D01*
X98125215Y-121200000D01*
X98454785Y-121200000D01*
X98473602Y-121403082D01*
X98529417Y-121599247D01*
X98529422Y-121599260D01*
X98620327Y-121781821D01*
X98743237Y-121944581D01*
X98893958Y-122081980D01*
X98893960Y-122081982D01*
X98932331Y-122105740D01*
X99067363Y-122189348D01*
X99257544Y-122263024D01*
X99458024Y-122300500D01*
X99458026Y-122300500D01*
X99661974Y-122300500D01*
X99661976Y-122300500D01*
X99862456Y-122263024D01*
X100052637Y-122189348D01*
X100226041Y-122081981D01*
X100234052Y-122074678D01*
X100999500Y-122074678D01*
X101014032Y-122147735D01*
X101014033Y-122147739D01*
X101014034Y-122147740D01*
X101069399Y-122230601D01*
X101152260Y-122285966D01*
X101152264Y-122285967D01*
X101225321Y-122300499D01*
X101225324Y-122300500D01*
X101225326Y-122300500D01*
X102974676Y-122300500D01*
X102974677Y-122300499D01*
X103047740Y-122285966D01*
X103130601Y-122230601D01*
X103185966Y-122147740D01*
X103200499Y-122074678D01*
X104699500Y-122074678D01*
X104714032Y-122147735D01*
X104714033Y-122147739D01*
X104714034Y-122147740D01*
X104769399Y-122230601D01*
X104852260Y-122285966D01*
X104852264Y-122285967D01*
X104925321Y-122300499D01*
X104925324Y-122300500D01*
X104925326Y-122300500D01*
X106674676Y-122300500D01*
X106674677Y-122300499D01*
X106747740Y-122285966D01*
X106830601Y-122230601D01*
X106885966Y-122147740D01*
X106900499Y-122074678D01*
X108399500Y-122074678D01*
X108414032Y-122147735D01*
X108414033Y-122147739D01*
X108414034Y-122147740D01*
X108469399Y-122230601D01*
X108552260Y-122285966D01*
X108552264Y-122285967D01*
X108625321Y-122300499D01*
X108625324Y-122300500D01*
X108625326Y-122300500D01*
X110374676Y-122300500D01*
X110374677Y-122300499D01*
X110447740Y-122285966D01*
X110530601Y-122230601D01*
X110585966Y-122147740D01*
X110600499Y-122074678D01*
X112099500Y-122074678D01*
X112114032Y-122147735D01*
X112114033Y-122147739D01*
X112114034Y-122147740D01*
X112169399Y-122230601D01*
X112252260Y-122285966D01*
X112252264Y-122285967D01*
X112325321Y-122300499D01*
X112325324Y-122300500D01*
X112325326Y-122300500D01*
X114074676Y-122300500D01*
X114074677Y-122300499D01*
X114147740Y-122285966D01*
X114230601Y-122230601D01*
X114285966Y-122147740D01*
X114300500Y-122074674D01*
X114300500Y-121866681D01*
X114320185Y-121799642D01*
X114372989Y-121753887D01*
X114442147Y-121743943D01*
X114505703Y-121772968D01*
X114536882Y-121814277D01*
X114566398Y-121877575D01*
X114566399Y-121877577D01*
X114701894Y-122071082D01*
X114868917Y-122238105D01*
X115062421Y-122373600D01*
X115276507Y-122473429D01*
X115276516Y-122473433D01*
X115490000Y-122530634D01*
X115490000Y-121635501D01*
X115597685Y-121684680D01*
X115704237Y-121700000D01*
X115775763Y-121700000D01*
X115882315Y-121684680D01*
X115990000Y-121635501D01*
X115990000Y-122530633D01*
X116203483Y-122473433D01*
X116203492Y-122473429D01*
X116417578Y-122373600D01*
X116611082Y-122238105D01*
X116778105Y-122071082D01*
X116908425Y-121884968D01*
X116963002Y-121841344D01*
X117032501Y-121834151D01*
X117094855Y-121865673D01*
X117111575Y-121884968D01*
X117241894Y-122071082D01*
X117408917Y-122238105D01*
X117602421Y-122373600D01*
X117816507Y-122473429D01*
X117816516Y-122473433D01*
X118030000Y-122530634D01*
X118030000Y-121635501D01*
X118137685Y-121684680D01*
X118244237Y-121700000D01*
X118315763Y-121700000D01*
X118422315Y-121684680D01*
X118530000Y-121635501D01*
X118530000Y-122530633D01*
X118743483Y-122473433D01*
X118743492Y-122473429D01*
X118957578Y-122373600D01*
X119151082Y-122238105D01*
X119318105Y-122071082D01*
X119453600Y-121877578D01*
X119553429Y-121663492D01*
X119553432Y-121663486D01*
X119610636Y-121450000D01*
X118713686Y-121450000D01*
X118739493Y-121409844D01*
X118780000Y-121271889D01*
X118780000Y-121128111D01*
X118739493Y-120990156D01*
X118713686Y-120950000D01*
X119610636Y-120950000D01*
X119610635Y-120949999D01*
X119553432Y-120736513D01*
X119553429Y-120736507D01*
X119453600Y-120522422D01*
X119453599Y-120522420D01*
X119318113Y-120328926D01*
X119318108Y-120328920D01*
X119151082Y-120161894D01*
X118957578Y-120026399D01*
X118743492Y-119926570D01*
X118743486Y-119926567D01*
X118530000Y-119869364D01*
X118530000Y-120764498D01*
X118422315Y-120715320D01*
X118315763Y-120700000D01*
X118244237Y-120700000D01*
X118137685Y-120715320D01*
X118030000Y-120764498D01*
X118030000Y-119869364D01*
X118029999Y-119869364D01*
X117816513Y-119926567D01*
X117816507Y-119926570D01*
X117602422Y-120026399D01*
X117602420Y-120026400D01*
X117408926Y-120161886D01*
X117408920Y-120161891D01*
X117241891Y-120328920D01*
X117241890Y-120328922D01*
X117111575Y-120515031D01*
X117056998Y-120558655D01*
X116987499Y-120565848D01*
X116925145Y-120534326D01*
X116908425Y-120515031D01*
X116778109Y-120328922D01*
X116778108Y-120328920D01*
X116611082Y-120161894D01*
X116417578Y-120026399D01*
X116203492Y-119926570D01*
X116203486Y-119926567D01*
X115990000Y-119869364D01*
X115990000Y-120764498D01*
X115882315Y-120715320D01*
X115775763Y-120700000D01*
X115704237Y-120700000D01*
X115597685Y-120715320D01*
X115490000Y-120764498D01*
X115490000Y-119869364D01*
X115489999Y-119869364D01*
X115276513Y-119926567D01*
X115276507Y-119926570D01*
X115062422Y-120026399D01*
X115062420Y-120026400D01*
X114868926Y-120161886D01*
X114868920Y-120161891D01*
X114701891Y-120328920D01*
X114701886Y-120328926D01*
X114566400Y-120522420D01*
X114566399Y-120522422D01*
X114536882Y-120585723D01*
X114490710Y-120638162D01*
X114423516Y-120657314D01*
X114356635Y-120637098D01*
X114311300Y-120583933D01*
X114300500Y-120533318D01*
X114300500Y-120325323D01*
X114300499Y-120325321D01*
X114285967Y-120252264D01*
X114285966Y-120252260D01*
X114230601Y-120169399D01*
X114175235Y-120132405D01*
X114147739Y-120114033D01*
X114147735Y-120114032D01*
X114074677Y-120099500D01*
X114074674Y-120099500D01*
X112325326Y-120099500D01*
X112325323Y-120099500D01*
X112252264Y-120114032D01*
X112252260Y-120114033D01*
X112169399Y-120169399D01*
X112114033Y-120252260D01*
X112114032Y-120252264D01*
X112099500Y-120325321D01*
X112099500Y-122074678D01*
X110600499Y-122074678D01*
X110600500Y-122074674D01*
X110600500Y-120325326D01*
X110600500Y-120325323D01*
X110600499Y-120325321D01*
X110585967Y-120252264D01*
X110585966Y-120252260D01*
X110530601Y-120169399D01*
X110475235Y-120132405D01*
X110447739Y-120114033D01*
X110447735Y-120114032D01*
X110374677Y-120099500D01*
X110374674Y-120099500D01*
X108625326Y-120099500D01*
X108625323Y-120099500D01*
X108552264Y-120114032D01*
X108552260Y-120114033D01*
X108469399Y-120169399D01*
X108414033Y-120252260D01*
X108414032Y-120252264D01*
X108399500Y-120325321D01*
X108399500Y-122074678D01*
X106900499Y-122074678D01*
X106900500Y-122074674D01*
X106900500Y-120325326D01*
X106900500Y-120325323D01*
X106900499Y-120325321D01*
X106885967Y-120252264D01*
X106885966Y-120252260D01*
X106830601Y-120169399D01*
X106775235Y-120132405D01*
X106747739Y-120114033D01*
X106747735Y-120114032D01*
X106674677Y-120099500D01*
X106674674Y-120099500D01*
X104925326Y-120099500D01*
X104925323Y-120099500D01*
X104852264Y-120114032D01*
X104852260Y-120114033D01*
X104769399Y-120169399D01*
X104714033Y-120252260D01*
X104714032Y-120252264D01*
X104699500Y-120325321D01*
X104699500Y-122074678D01*
X103200499Y-122074678D01*
X103200500Y-122074674D01*
X103200500Y-120325326D01*
X103200500Y-120325323D01*
X103200499Y-120325321D01*
X103185967Y-120252264D01*
X103185966Y-120252260D01*
X103130601Y-120169399D01*
X103075235Y-120132405D01*
X103047739Y-120114033D01*
X103047735Y-120114032D01*
X102974677Y-120099500D01*
X102974674Y-120099500D01*
X101225326Y-120099500D01*
X101225323Y-120099500D01*
X101152264Y-120114032D01*
X101152260Y-120114033D01*
X101069399Y-120169399D01*
X101014033Y-120252260D01*
X101014032Y-120252264D01*
X100999500Y-120325321D01*
X100999500Y-122074678D01*
X100234052Y-122074678D01*
X100376764Y-121944579D01*
X100499673Y-121781821D01*
X100590582Y-121599250D01*
X100646397Y-121403083D01*
X100665215Y-121200000D01*
X100646397Y-120996917D01*
X100590582Y-120800750D01*
X100584069Y-120787671D01*
X100537685Y-120694518D01*
X100499673Y-120618179D01*
X100395644Y-120480422D01*
X100376762Y-120455418D01*
X100226041Y-120318019D01*
X100226039Y-120318017D01*
X100052642Y-120210655D01*
X100052635Y-120210651D01*
X99926769Y-120161891D01*
X99862456Y-120136976D01*
X99661976Y-120099500D01*
X99458024Y-120099500D01*
X99257544Y-120136976D01*
X99257541Y-120136976D01*
X99257541Y-120136977D01*
X99067364Y-120210651D01*
X99067357Y-120210655D01*
X98893960Y-120318017D01*
X98893958Y-120318019D01*
X98743237Y-120455418D01*
X98620327Y-120618178D01*
X98529422Y-120800739D01*
X98529417Y-120800752D01*
X98473602Y-120996917D01*
X98454785Y-121199999D01*
X98454785Y-121200000D01*
X98125215Y-121200000D01*
X98106397Y-120996917D01*
X98050582Y-120800750D01*
X98044069Y-120787671D01*
X97997685Y-120694518D01*
X97959673Y-120618179D01*
X97855644Y-120480422D01*
X97836762Y-120455418D01*
X97686041Y-120318019D01*
X97686039Y-120318017D01*
X97512642Y-120210655D01*
X97512635Y-120210651D01*
X97386769Y-120161891D01*
X97322456Y-120136976D01*
X97121976Y-120099500D01*
X96918024Y-120099500D01*
X96717544Y-120136976D01*
X96717541Y-120136976D01*
X96717541Y-120136977D01*
X96527364Y-120210651D01*
X96527357Y-120210655D01*
X96353960Y-120318017D01*
X96353958Y-120318019D01*
X96203237Y-120455418D01*
X96080327Y-120618178D01*
X95989422Y-120800739D01*
X95989417Y-120800752D01*
X95933602Y-120996917D01*
X95914785Y-121199999D01*
X95914785Y-121200000D01*
X94405215Y-121200000D01*
X94386397Y-120996917D01*
X94330582Y-120800750D01*
X94324069Y-120787671D01*
X94277685Y-120694518D01*
X94239673Y-120618179D01*
X94135644Y-120480422D01*
X94116762Y-120455418D01*
X93966041Y-120318019D01*
X93966039Y-120318017D01*
X93792642Y-120210655D01*
X93792635Y-120210651D01*
X93666769Y-120161891D01*
X93602456Y-120136976D01*
X93401976Y-120099500D01*
X93198024Y-120099500D01*
X92997544Y-120136976D01*
X92997541Y-120136976D01*
X92997541Y-120136977D01*
X92807364Y-120210651D01*
X92807357Y-120210655D01*
X92633960Y-120318017D01*
X92633958Y-120318019D01*
X92483237Y-120455418D01*
X92360327Y-120618178D01*
X92269422Y-120800739D01*
X92269417Y-120800752D01*
X92213602Y-120996917D01*
X92194785Y-121199999D01*
X92194785Y-121200000D01*
X91860500Y-121200000D01*
X91860500Y-120325326D01*
X91860500Y-120325323D01*
X91860499Y-120325321D01*
X91845967Y-120252264D01*
X91845966Y-120252260D01*
X91790601Y-120169399D01*
X91735235Y-120132405D01*
X91707739Y-120114033D01*
X91707735Y-120114032D01*
X91634677Y-120099500D01*
X91634674Y-120099500D01*
X89885326Y-120099500D01*
X89885323Y-120099500D01*
X89812264Y-120114032D01*
X89812260Y-120114033D01*
X89729399Y-120169399D01*
X89674033Y-120252260D01*
X89674032Y-120252264D01*
X89659500Y-120325321D01*
X89659500Y-122074678D01*
X86970003Y-122074678D01*
X87026041Y-122039981D01*
X87176764Y-121902579D01*
X87299673Y-121739821D01*
X87390582Y-121557250D01*
X87446397Y-121361083D01*
X87465215Y-121158000D01*
X87462445Y-121128111D01*
X87446397Y-120954917D01*
X87444473Y-120948156D01*
X87390582Y-120758750D01*
X87379509Y-120736513D01*
X87303534Y-120583933D01*
X87299673Y-120576179D01*
X87176764Y-120413421D01*
X87176762Y-120413418D01*
X87026041Y-120276019D01*
X87026039Y-120276017D01*
X86852642Y-120168655D01*
X86852635Y-120168651D01*
X86726769Y-120119891D01*
X86662456Y-120094976D01*
X86461976Y-120057500D01*
X86258024Y-120057500D01*
X86057544Y-120094976D01*
X86057541Y-120094976D01*
X86057541Y-120094977D01*
X85867364Y-120168651D01*
X85867357Y-120168655D01*
X85693960Y-120276017D01*
X85693958Y-120276019D01*
X85543237Y-120413418D01*
X85420327Y-120576178D01*
X85333182Y-120751188D01*
X85285679Y-120802425D01*
X85218016Y-120819846D01*
X85151676Y-120797920D01*
X85107721Y-120743609D01*
X85102407Y-120728008D01*
X85093434Y-120694518D01*
X85093429Y-120694507D01*
X84993600Y-120480422D01*
X84993599Y-120480420D01*
X84858113Y-120286926D01*
X84858108Y-120286920D01*
X84691082Y-120119894D01*
X84497578Y-119984399D01*
X84283492Y-119884570D01*
X84283486Y-119884567D01*
X84070000Y-119827364D01*
X84070000Y-120722498D01*
X83962315Y-120673320D01*
X83855763Y-120658000D01*
X83784237Y-120658000D01*
X83677685Y-120673320D01*
X83570000Y-120722498D01*
X83570000Y-119827364D01*
X83569999Y-119827364D01*
X83356513Y-119884567D01*
X83356507Y-119884570D01*
X83142422Y-119984399D01*
X83142420Y-119984400D01*
X82948926Y-120119886D01*
X82948920Y-120119891D01*
X82781891Y-120286920D01*
X82781886Y-120286926D01*
X82646400Y-120480420D01*
X82646399Y-120480422D01*
X82546570Y-120694507D01*
X82546568Y-120694511D01*
X82537592Y-120728011D01*
X82501226Y-120787671D01*
X82438379Y-120818199D01*
X82369003Y-120809904D01*
X82315126Y-120765418D01*
X82306817Y-120751188D01*
X82260073Y-120657314D01*
X82219673Y-120576179D01*
X82096764Y-120413421D01*
X82096762Y-120413418D01*
X81946041Y-120276019D01*
X81946039Y-120276017D01*
X81772642Y-120168655D01*
X81772635Y-120168651D01*
X81646769Y-120119891D01*
X81582456Y-120094976D01*
X81381976Y-120057500D01*
X81178024Y-120057500D01*
X80977544Y-120094976D01*
X80977541Y-120094976D01*
X80977541Y-120094977D01*
X80787364Y-120168651D01*
X80787357Y-120168655D01*
X80613960Y-120276017D01*
X80613958Y-120276019D01*
X80463237Y-120413418D01*
X80340327Y-120576178D01*
X80249422Y-120758739D01*
X80249417Y-120758752D01*
X80193602Y-120954917D01*
X80174785Y-121157999D01*
X80174785Y-121158000D01*
X79840500Y-121158000D01*
X79840500Y-120283326D01*
X79840500Y-120283323D01*
X79840499Y-120283321D01*
X79825967Y-120210264D01*
X79825966Y-120210260D01*
X79798664Y-120169399D01*
X79770601Y-120127399D01*
X79687740Y-120072034D01*
X79687739Y-120072033D01*
X79687735Y-120072032D01*
X79614677Y-120057500D01*
X79614674Y-120057500D01*
X77865326Y-120057500D01*
X77865323Y-120057500D01*
X77792264Y-120072032D01*
X77792260Y-120072033D01*
X77709399Y-120127399D01*
X77654033Y-120210260D01*
X77654032Y-120210264D01*
X77639500Y-120283321D01*
X77639500Y-122032678D01*
X76810500Y-122032678D01*
X76810500Y-119224000D01*
X76830185Y-119156961D01*
X76882989Y-119111206D01*
X76934500Y-119100000D01*
X122665500Y-119100000D01*
X122732539Y-119119685D01*
G37*
%TD.AperFunction*%
%TD*%
M02*
