%TF.GenerationSoftware,KiCad,Pcbnew,7.0.9*%
%TF.CreationDate,2024-04-08T13:50:44+02:00*%
%TF.ProjectId,Test_1,54657374-5f31-42e6-9b69-6361645f7063,rev?*%
%TF.SameCoordinates,Original*%
%TF.FileFunction,Legend,Top*%
%TF.FilePolarity,Positive*%
%FSLAX46Y46*%
G04 Gerber Fmt 4.6, Leading zero omitted, Abs format (unit mm)*
G04 Created by KiCad (PCBNEW 7.0.9) date 2024-04-08 13:50:44*
%MOMM*%
%LPD*%
G01*
G04 APERTURE LIST*
%ADD10C,0.150000*%
%ADD11C,0.120000*%
%ADD12C,0.152400*%
G04 APERTURE END LIST*
D10*
X85954819Y-127366666D02*
X85478628Y-127699999D01*
X85954819Y-127938094D02*
X84954819Y-127938094D01*
X84954819Y-127938094D02*
X84954819Y-127557142D01*
X84954819Y-127557142D02*
X85002438Y-127461904D01*
X85002438Y-127461904D02*
X85050057Y-127414285D01*
X85050057Y-127414285D02*
X85145295Y-127366666D01*
X85145295Y-127366666D02*
X85288152Y-127366666D01*
X85288152Y-127366666D02*
X85383390Y-127414285D01*
X85383390Y-127414285D02*
X85431009Y-127461904D01*
X85431009Y-127461904D02*
X85478628Y-127557142D01*
X85478628Y-127557142D02*
X85478628Y-127938094D01*
X84954819Y-127033332D02*
X84954819Y-126414285D01*
X84954819Y-126414285D02*
X85335771Y-126747618D01*
X85335771Y-126747618D02*
X85335771Y-126604761D01*
X85335771Y-126604761D02*
X85383390Y-126509523D01*
X85383390Y-126509523D02*
X85431009Y-126461904D01*
X85431009Y-126461904D02*
X85526247Y-126414285D01*
X85526247Y-126414285D02*
X85764342Y-126414285D01*
X85764342Y-126414285D02*
X85859580Y-126461904D01*
X85859580Y-126461904D02*
X85907200Y-126509523D01*
X85907200Y-126509523D02*
X85954819Y-126604761D01*
X85954819Y-126604761D02*
X85954819Y-126890475D01*
X85954819Y-126890475D02*
X85907200Y-126985713D01*
X85907200Y-126985713D02*
X85859580Y-127033332D01*
X87833333Y-150154719D02*
X87357143Y-150154719D01*
X87357143Y-150154719D02*
X87357143Y-149154719D01*
X88690476Y-150154719D02*
X88119048Y-150154719D01*
X88404762Y-150154719D02*
X88404762Y-149154719D01*
X88404762Y-149154719D02*
X88309524Y-149297576D01*
X88309524Y-149297576D02*
X88214286Y-149392814D01*
X88214286Y-149392814D02*
X88119048Y-149440433D01*
X95533333Y-130259580D02*
X95485714Y-130307200D01*
X95485714Y-130307200D02*
X95342857Y-130354819D01*
X95342857Y-130354819D02*
X95247619Y-130354819D01*
X95247619Y-130354819D02*
X95104762Y-130307200D01*
X95104762Y-130307200D02*
X95009524Y-130211961D01*
X95009524Y-130211961D02*
X94961905Y-130116723D01*
X94961905Y-130116723D02*
X94914286Y-129926247D01*
X94914286Y-129926247D02*
X94914286Y-129783390D01*
X94914286Y-129783390D02*
X94961905Y-129592914D01*
X94961905Y-129592914D02*
X95009524Y-129497676D01*
X95009524Y-129497676D02*
X95104762Y-129402438D01*
X95104762Y-129402438D02*
X95247619Y-129354819D01*
X95247619Y-129354819D02*
X95342857Y-129354819D01*
X95342857Y-129354819D02*
X95485714Y-129402438D01*
X95485714Y-129402438D02*
X95533333Y-129450057D01*
X95866667Y-129354819D02*
X96533333Y-129354819D01*
X96533333Y-129354819D02*
X96104762Y-130354819D01*
X114133333Y-123262295D02*
X114133333Y-123833723D01*
X114133333Y-123833723D02*
X114095238Y-123948009D01*
X114095238Y-123948009D02*
X114019047Y-124024200D01*
X114019047Y-124024200D02*
X113904762Y-124062295D01*
X113904762Y-124062295D02*
X113828571Y-124062295D01*
X114514286Y-124062295D02*
X114514286Y-123262295D01*
X114514286Y-123262295D02*
X114819048Y-123262295D01*
X114819048Y-123262295D02*
X114895238Y-123300390D01*
X114895238Y-123300390D02*
X114933333Y-123338485D01*
X114933333Y-123338485D02*
X114971429Y-123414676D01*
X114971429Y-123414676D02*
X114971429Y-123528961D01*
X114971429Y-123528961D02*
X114933333Y-123605152D01*
X114933333Y-123605152D02*
X114895238Y-123643247D01*
X114895238Y-123643247D02*
X114819048Y-123681342D01*
X114819048Y-123681342D02*
X114514286Y-123681342D01*
X115733333Y-124062295D02*
X115276190Y-124062295D01*
X115504762Y-124062295D02*
X115504762Y-123262295D01*
X115504762Y-123262295D02*
X115428571Y-123376580D01*
X115428571Y-123376580D02*
X115352381Y-123452771D01*
X115352381Y-123452771D02*
X115276190Y-123490866D01*
X87604761Y-143650057D02*
X87509523Y-143602438D01*
X87509523Y-143602438D02*
X87414285Y-143507200D01*
X87414285Y-143507200D02*
X87271428Y-143364342D01*
X87271428Y-143364342D02*
X87176190Y-143316723D01*
X87176190Y-143316723D02*
X87080952Y-143316723D01*
X87128571Y-143554819D02*
X87033333Y-143507200D01*
X87033333Y-143507200D02*
X86938095Y-143411961D01*
X86938095Y-143411961D02*
X86890476Y-143221485D01*
X86890476Y-143221485D02*
X86890476Y-142888152D01*
X86890476Y-142888152D02*
X86938095Y-142697676D01*
X86938095Y-142697676D02*
X87033333Y-142602438D01*
X87033333Y-142602438D02*
X87128571Y-142554819D01*
X87128571Y-142554819D02*
X87319047Y-142554819D01*
X87319047Y-142554819D02*
X87414285Y-142602438D01*
X87414285Y-142602438D02*
X87509523Y-142697676D01*
X87509523Y-142697676D02*
X87557142Y-142888152D01*
X87557142Y-142888152D02*
X87557142Y-143221485D01*
X87557142Y-143221485D02*
X87509523Y-143411961D01*
X87509523Y-143411961D02*
X87414285Y-143507200D01*
X87414285Y-143507200D02*
X87319047Y-143554819D01*
X87319047Y-143554819D02*
X87128571Y-143554819D01*
X87890476Y-142554819D02*
X88509523Y-142554819D01*
X88509523Y-142554819D02*
X88176190Y-142935771D01*
X88176190Y-142935771D02*
X88319047Y-142935771D01*
X88319047Y-142935771D02*
X88414285Y-142983390D01*
X88414285Y-142983390D02*
X88461904Y-143031009D01*
X88461904Y-143031009D02*
X88509523Y-143126247D01*
X88509523Y-143126247D02*
X88509523Y-143364342D01*
X88509523Y-143364342D02*
X88461904Y-143459580D01*
X88461904Y-143459580D02*
X88414285Y-143507200D01*
X88414285Y-143507200D02*
X88319047Y-143554819D01*
X88319047Y-143554819D02*
X88033333Y-143554819D01*
X88033333Y-143554819D02*
X87938095Y-143507200D01*
X87938095Y-143507200D02*
X87890476Y-143459580D01*
X91366667Y-124562295D02*
X91100000Y-124181342D01*
X90909524Y-124562295D02*
X90909524Y-123762295D01*
X90909524Y-123762295D02*
X91214286Y-123762295D01*
X91214286Y-123762295D02*
X91290476Y-123800390D01*
X91290476Y-123800390D02*
X91328571Y-123838485D01*
X91328571Y-123838485D02*
X91366667Y-123914676D01*
X91366667Y-123914676D02*
X91366667Y-124028961D01*
X91366667Y-124028961D02*
X91328571Y-124105152D01*
X91328571Y-124105152D02*
X91290476Y-124143247D01*
X91290476Y-124143247D02*
X91214286Y-124181342D01*
X91214286Y-124181342D02*
X90909524Y-124181342D01*
X92052381Y-123762295D02*
X91900000Y-123762295D01*
X91900000Y-123762295D02*
X91823809Y-123800390D01*
X91823809Y-123800390D02*
X91785714Y-123838485D01*
X91785714Y-123838485D02*
X91709524Y-123952771D01*
X91709524Y-123952771D02*
X91671428Y-124105152D01*
X91671428Y-124105152D02*
X91671428Y-124409914D01*
X91671428Y-124409914D02*
X91709524Y-124486104D01*
X91709524Y-124486104D02*
X91747619Y-124524200D01*
X91747619Y-124524200D02*
X91823809Y-124562295D01*
X91823809Y-124562295D02*
X91976190Y-124562295D01*
X91976190Y-124562295D02*
X92052381Y-124524200D01*
X92052381Y-124524200D02*
X92090476Y-124486104D01*
X92090476Y-124486104D02*
X92128571Y-124409914D01*
X92128571Y-124409914D02*
X92128571Y-124219438D01*
X92128571Y-124219438D02*
X92090476Y-124143247D01*
X92090476Y-124143247D02*
X92052381Y-124105152D01*
X92052381Y-124105152D02*
X91976190Y-124067057D01*
X91976190Y-124067057D02*
X91823809Y-124067057D01*
X91823809Y-124067057D02*
X91747619Y-124105152D01*
X91747619Y-124105152D02*
X91709524Y-124143247D01*
X91709524Y-124143247D02*
X91671428Y-124219438D01*
X83207142Y-145404819D02*
X82873809Y-144928628D01*
X82635714Y-145404819D02*
X82635714Y-144404819D01*
X82635714Y-144404819D02*
X83016666Y-144404819D01*
X83016666Y-144404819D02*
X83111904Y-144452438D01*
X83111904Y-144452438D02*
X83159523Y-144500057D01*
X83159523Y-144500057D02*
X83207142Y-144595295D01*
X83207142Y-144595295D02*
X83207142Y-144738152D01*
X83207142Y-144738152D02*
X83159523Y-144833390D01*
X83159523Y-144833390D02*
X83111904Y-144881009D01*
X83111904Y-144881009D02*
X83016666Y-144928628D01*
X83016666Y-144928628D02*
X82635714Y-144928628D01*
X84159523Y-145404819D02*
X83588095Y-145404819D01*
X83873809Y-145404819D02*
X83873809Y-144404819D01*
X83873809Y-144404819D02*
X83778571Y-144547676D01*
X83778571Y-144547676D02*
X83683333Y-144642914D01*
X83683333Y-144642914D02*
X83588095Y-144690533D01*
X85111904Y-145404819D02*
X84540476Y-145404819D01*
X84826190Y-145404819D02*
X84826190Y-144404819D01*
X84826190Y-144404819D02*
X84730952Y-144547676D01*
X84730952Y-144547676D02*
X84635714Y-144642914D01*
X84635714Y-144642914D02*
X84540476Y-144690533D01*
X98433333Y-126454819D02*
X98100000Y-125978628D01*
X97861905Y-126454819D02*
X97861905Y-125454819D01*
X97861905Y-125454819D02*
X98242857Y-125454819D01*
X98242857Y-125454819D02*
X98338095Y-125502438D01*
X98338095Y-125502438D02*
X98385714Y-125550057D01*
X98385714Y-125550057D02*
X98433333Y-125645295D01*
X98433333Y-125645295D02*
X98433333Y-125788152D01*
X98433333Y-125788152D02*
X98385714Y-125883390D01*
X98385714Y-125883390D02*
X98338095Y-125931009D01*
X98338095Y-125931009D02*
X98242857Y-125978628D01*
X98242857Y-125978628D02*
X97861905Y-125978628D01*
X99290476Y-125788152D02*
X99290476Y-126454819D01*
X99052381Y-125407200D02*
X98814286Y-126121485D01*
X98814286Y-126121485D02*
X99433333Y-126121485D01*
X80361905Y-139254819D02*
X80361905Y-138254819D01*
X80361905Y-138254819D02*
X80600000Y-138254819D01*
X80600000Y-138254819D02*
X80742857Y-138302438D01*
X80742857Y-138302438D02*
X80838095Y-138397676D01*
X80838095Y-138397676D02*
X80885714Y-138492914D01*
X80885714Y-138492914D02*
X80933333Y-138683390D01*
X80933333Y-138683390D02*
X80933333Y-138826247D01*
X80933333Y-138826247D02*
X80885714Y-139016723D01*
X80885714Y-139016723D02*
X80838095Y-139111961D01*
X80838095Y-139111961D02*
X80742857Y-139207200D01*
X80742857Y-139207200D02*
X80600000Y-139254819D01*
X80600000Y-139254819D02*
X80361905Y-139254819D01*
X81885714Y-139254819D02*
X81314286Y-139254819D01*
X81600000Y-139254819D02*
X81600000Y-138254819D01*
X81600000Y-138254819D02*
X81504762Y-138397676D01*
X81504762Y-138397676D02*
X81409524Y-138492914D01*
X81409524Y-138492914D02*
X81314286Y-138540533D01*
X98754819Y-136866666D02*
X98278628Y-137199999D01*
X98754819Y-137438094D02*
X97754819Y-137438094D01*
X97754819Y-137438094D02*
X97754819Y-137057142D01*
X97754819Y-137057142D02*
X97802438Y-136961904D01*
X97802438Y-136961904D02*
X97850057Y-136914285D01*
X97850057Y-136914285D02*
X97945295Y-136866666D01*
X97945295Y-136866666D02*
X98088152Y-136866666D01*
X98088152Y-136866666D02*
X98183390Y-136914285D01*
X98183390Y-136914285D02*
X98231009Y-136961904D01*
X98231009Y-136961904D02*
X98278628Y-137057142D01*
X98278628Y-137057142D02*
X98278628Y-137438094D01*
X98754819Y-135914285D02*
X98754819Y-136485713D01*
X98754819Y-136199999D02*
X97754819Y-136199999D01*
X97754819Y-136199999D02*
X97897676Y-136295237D01*
X97897676Y-136295237D02*
X97992914Y-136390475D01*
X97992914Y-136390475D02*
X98040533Y-136485713D01*
X86533333Y-129559580D02*
X86485714Y-129607200D01*
X86485714Y-129607200D02*
X86342857Y-129654819D01*
X86342857Y-129654819D02*
X86247619Y-129654819D01*
X86247619Y-129654819D02*
X86104762Y-129607200D01*
X86104762Y-129607200D02*
X86009524Y-129511961D01*
X86009524Y-129511961D02*
X85961905Y-129416723D01*
X85961905Y-129416723D02*
X85914286Y-129226247D01*
X85914286Y-129226247D02*
X85914286Y-129083390D01*
X85914286Y-129083390D02*
X85961905Y-128892914D01*
X85961905Y-128892914D02*
X86009524Y-128797676D01*
X86009524Y-128797676D02*
X86104762Y-128702438D01*
X86104762Y-128702438D02*
X86247619Y-128654819D01*
X86247619Y-128654819D02*
X86342857Y-128654819D01*
X86342857Y-128654819D02*
X86485714Y-128702438D01*
X86485714Y-128702438D02*
X86533333Y-128750057D01*
X87438095Y-128654819D02*
X86961905Y-128654819D01*
X86961905Y-128654819D02*
X86914286Y-129131009D01*
X86914286Y-129131009D02*
X86961905Y-129083390D01*
X86961905Y-129083390D02*
X87057143Y-129035771D01*
X87057143Y-129035771D02*
X87295238Y-129035771D01*
X87295238Y-129035771D02*
X87390476Y-129083390D01*
X87390476Y-129083390D02*
X87438095Y-129131009D01*
X87438095Y-129131009D02*
X87485714Y-129226247D01*
X87485714Y-129226247D02*
X87485714Y-129464342D01*
X87485714Y-129464342D02*
X87438095Y-129559580D01*
X87438095Y-129559580D02*
X87390476Y-129607200D01*
X87390476Y-129607200D02*
X87295238Y-129654819D01*
X87295238Y-129654819D02*
X87057143Y-129654819D01*
X87057143Y-129654819D02*
X86961905Y-129607200D01*
X86961905Y-129607200D02*
X86914286Y-129559580D01*
X101733333Y-122912295D02*
X101733333Y-123483723D01*
X101733333Y-123483723D02*
X101695238Y-123598009D01*
X101695238Y-123598009D02*
X101619047Y-123674200D01*
X101619047Y-123674200D02*
X101504762Y-123712295D01*
X101504762Y-123712295D02*
X101428571Y-123712295D01*
X102114286Y-123712295D02*
X102114286Y-122912295D01*
X102114286Y-122912295D02*
X102419048Y-122912295D01*
X102419048Y-122912295D02*
X102495238Y-122950390D01*
X102495238Y-122950390D02*
X102533333Y-122988485D01*
X102533333Y-122988485D02*
X102571429Y-123064676D01*
X102571429Y-123064676D02*
X102571429Y-123178961D01*
X102571429Y-123178961D02*
X102533333Y-123255152D01*
X102533333Y-123255152D02*
X102495238Y-123293247D01*
X102495238Y-123293247D02*
X102419048Y-123331342D01*
X102419048Y-123331342D02*
X102114286Y-123331342D01*
X102876190Y-122988485D02*
X102914286Y-122950390D01*
X102914286Y-122950390D02*
X102990476Y-122912295D01*
X102990476Y-122912295D02*
X103180952Y-122912295D01*
X103180952Y-122912295D02*
X103257143Y-122950390D01*
X103257143Y-122950390D02*
X103295238Y-122988485D01*
X103295238Y-122988485D02*
X103333333Y-123064676D01*
X103333333Y-123064676D02*
X103333333Y-123140866D01*
X103333333Y-123140866D02*
X103295238Y-123255152D01*
X103295238Y-123255152D02*
X102838095Y-123712295D01*
X102838095Y-123712295D02*
X103333333Y-123712295D01*
X77686104Y-127333332D02*
X77724200Y-127371428D01*
X77724200Y-127371428D02*
X77762295Y-127485713D01*
X77762295Y-127485713D02*
X77762295Y-127561904D01*
X77762295Y-127561904D02*
X77724200Y-127676190D01*
X77724200Y-127676190D02*
X77648009Y-127752380D01*
X77648009Y-127752380D02*
X77571819Y-127790475D01*
X77571819Y-127790475D02*
X77419438Y-127828571D01*
X77419438Y-127828571D02*
X77305152Y-127828571D01*
X77305152Y-127828571D02*
X77152771Y-127790475D01*
X77152771Y-127790475D02*
X77076580Y-127752380D01*
X77076580Y-127752380D02*
X77000390Y-127676190D01*
X77000390Y-127676190D02*
X76962295Y-127561904D01*
X76962295Y-127561904D02*
X76962295Y-127485713D01*
X76962295Y-127485713D02*
X77000390Y-127371428D01*
X77000390Y-127371428D02*
X77038485Y-127333332D01*
X77228961Y-126647618D02*
X77762295Y-126647618D01*
X76924200Y-126838094D02*
X77495628Y-127028571D01*
X77495628Y-127028571D02*
X77495628Y-126533332D01*
X79333333Y-123554819D02*
X79000000Y-123078628D01*
X78761905Y-123554819D02*
X78761905Y-122554819D01*
X78761905Y-122554819D02*
X79142857Y-122554819D01*
X79142857Y-122554819D02*
X79238095Y-122602438D01*
X79238095Y-122602438D02*
X79285714Y-122650057D01*
X79285714Y-122650057D02*
X79333333Y-122745295D01*
X79333333Y-122745295D02*
X79333333Y-122888152D01*
X79333333Y-122888152D02*
X79285714Y-122983390D01*
X79285714Y-122983390D02*
X79238095Y-123031009D01*
X79238095Y-123031009D02*
X79142857Y-123078628D01*
X79142857Y-123078628D02*
X78761905Y-123078628D01*
X79714286Y-122650057D02*
X79761905Y-122602438D01*
X79761905Y-122602438D02*
X79857143Y-122554819D01*
X79857143Y-122554819D02*
X80095238Y-122554819D01*
X80095238Y-122554819D02*
X80190476Y-122602438D01*
X80190476Y-122602438D02*
X80238095Y-122650057D01*
X80238095Y-122650057D02*
X80285714Y-122745295D01*
X80285714Y-122745295D02*
X80285714Y-122840533D01*
X80285714Y-122840533D02*
X80238095Y-122983390D01*
X80238095Y-122983390D02*
X79666667Y-123554819D01*
X79666667Y-123554819D02*
X80285714Y-123554819D01*
X82983333Y-123459580D02*
X82935714Y-123507200D01*
X82935714Y-123507200D02*
X82792857Y-123554819D01*
X82792857Y-123554819D02*
X82697619Y-123554819D01*
X82697619Y-123554819D02*
X82554762Y-123507200D01*
X82554762Y-123507200D02*
X82459524Y-123411961D01*
X82459524Y-123411961D02*
X82411905Y-123316723D01*
X82411905Y-123316723D02*
X82364286Y-123126247D01*
X82364286Y-123126247D02*
X82364286Y-122983390D01*
X82364286Y-122983390D02*
X82411905Y-122792914D01*
X82411905Y-122792914D02*
X82459524Y-122697676D01*
X82459524Y-122697676D02*
X82554762Y-122602438D01*
X82554762Y-122602438D02*
X82697619Y-122554819D01*
X82697619Y-122554819D02*
X82792857Y-122554819D01*
X82792857Y-122554819D02*
X82935714Y-122602438D01*
X82935714Y-122602438D02*
X82983333Y-122650057D01*
X83316667Y-122554819D02*
X83935714Y-122554819D01*
X83935714Y-122554819D02*
X83602381Y-122935771D01*
X83602381Y-122935771D02*
X83745238Y-122935771D01*
X83745238Y-122935771D02*
X83840476Y-122983390D01*
X83840476Y-122983390D02*
X83888095Y-123031009D01*
X83888095Y-123031009D02*
X83935714Y-123126247D01*
X83935714Y-123126247D02*
X83935714Y-123364342D01*
X83935714Y-123364342D02*
X83888095Y-123459580D01*
X83888095Y-123459580D02*
X83840476Y-123507200D01*
X83840476Y-123507200D02*
X83745238Y-123554819D01*
X83745238Y-123554819D02*
X83459524Y-123554819D01*
X83459524Y-123554819D02*
X83364286Y-123507200D01*
X83364286Y-123507200D02*
X83316667Y-123459580D01*
X91317261Y-127550057D02*
X91222023Y-127502438D01*
X91222023Y-127502438D02*
X91126785Y-127407200D01*
X91126785Y-127407200D02*
X90983928Y-127264342D01*
X90983928Y-127264342D02*
X90888690Y-127216723D01*
X90888690Y-127216723D02*
X90793452Y-127216723D01*
X90841071Y-127454819D02*
X90745833Y-127407200D01*
X90745833Y-127407200D02*
X90650595Y-127311961D01*
X90650595Y-127311961D02*
X90602976Y-127121485D01*
X90602976Y-127121485D02*
X90602976Y-126788152D01*
X90602976Y-126788152D02*
X90650595Y-126597676D01*
X90650595Y-126597676D02*
X90745833Y-126502438D01*
X90745833Y-126502438D02*
X90841071Y-126454819D01*
X90841071Y-126454819D02*
X91031547Y-126454819D01*
X91031547Y-126454819D02*
X91126785Y-126502438D01*
X91126785Y-126502438D02*
X91222023Y-126597676D01*
X91222023Y-126597676D02*
X91269642Y-126788152D01*
X91269642Y-126788152D02*
X91269642Y-127121485D01*
X91269642Y-127121485D02*
X91222023Y-127311961D01*
X91222023Y-127311961D02*
X91126785Y-127407200D01*
X91126785Y-127407200D02*
X91031547Y-127454819D01*
X91031547Y-127454819D02*
X90841071Y-127454819D01*
X91650595Y-126550057D02*
X91698214Y-126502438D01*
X91698214Y-126502438D02*
X91793452Y-126454819D01*
X91793452Y-126454819D02*
X92031547Y-126454819D01*
X92031547Y-126454819D02*
X92126785Y-126502438D01*
X92126785Y-126502438D02*
X92174404Y-126550057D01*
X92174404Y-126550057D02*
X92222023Y-126645295D01*
X92222023Y-126645295D02*
X92222023Y-126740533D01*
X92222023Y-126740533D02*
X92174404Y-126883390D01*
X92174404Y-126883390D02*
X91602976Y-127454819D01*
X91602976Y-127454819D02*
X92222023Y-127454819D01*
X109166666Y-123154819D02*
X109166666Y-123869104D01*
X109166666Y-123869104D02*
X109119047Y-124011961D01*
X109119047Y-124011961D02*
X109023809Y-124107200D01*
X109023809Y-124107200D02*
X108880952Y-124154819D01*
X108880952Y-124154819D02*
X108785714Y-124154819D01*
X110071428Y-123154819D02*
X109880952Y-123154819D01*
X109880952Y-123154819D02*
X109785714Y-123202438D01*
X109785714Y-123202438D02*
X109738095Y-123250057D01*
X109738095Y-123250057D02*
X109642857Y-123392914D01*
X109642857Y-123392914D02*
X109595238Y-123583390D01*
X109595238Y-123583390D02*
X109595238Y-123964342D01*
X109595238Y-123964342D02*
X109642857Y-124059580D01*
X109642857Y-124059580D02*
X109690476Y-124107200D01*
X109690476Y-124107200D02*
X109785714Y-124154819D01*
X109785714Y-124154819D02*
X109976190Y-124154819D01*
X109976190Y-124154819D02*
X110071428Y-124107200D01*
X110071428Y-124107200D02*
X110119047Y-124059580D01*
X110119047Y-124059580D02*
X110166666Y-123964342D01*
X110166666Y-123964342D02*
X110166666Y-123726247D01*
X110166666Y-123726247D02*
X110119047Y-123631009D01*
X110119047Y-123631009D02*
X110071428Y-123583390D01*
X110071428Y-123583390D02*
X109976190Y-123535771D01*
X109976190Y-123535771D02*
X109785714Y-123535771D01*
X109785714Y-123535771D02*
X109690476Y-123583390D01*
X109690476Y-123583390D02*
X109642857Y-123631009D01*
X109642857Y-123631009D02*
X109595238Y-123726247D01*
X99933333Y-132759580D02*
X99885714Y-132807200D01*
X99885714Y-132807200D02*
X99742857Y-132854819D01*
X99742857Y-132854819D02*
X99647619Y-132854819D01*
X99647619Y-132854819D02*
X99504762Y-132807200D01*
X99504762Y-132807200D02*
X99409524Y-132711961D01*
X99409524Y-132711961D02*
X99361905Y-132616723D01*
X99361905Y-132616723D02*
X99314286Y-132426247D01*
X99314286Y-132426247D02*
X99314286Y-132283390D01*
X99314286Y-132283390D02*
X99361905Y-132092914D01*
X99361905Y-132092914D02*
X99409524Y-131997676D01*
X99409524Y-131997676D02*
X99504762Y-131902438D01*
X99504762Y-131902438D02*
X99647619Y-131854819D01*
X99647619Y-131854819D02*
X99742857Y-131854819D01*
X99742857Y-131854819D02*
X99885714Y-131902438D01*
X99885714Y-131902438D02*
X99933333Y-131950057D01*
X100314286Y-131950057D02*
X100361905Y-131902438D01*
X100361905Y-131902438D02*
X100457143Y-131854819D01*
X100457143Y-131854819D02*
X100695238Y-131854819D01*
X100695238Y-131854819D02*
X100790476Y-131902438D01*
X100790476Y-131902438D02*
X100838095Y-131950057D01*
X100838095Y-131950057D02*
X100885714Y-132045295D01*
X100885714Y-132045295D02*
X100885714Y-132140533D01*
X100885714Y-132140533D02*
X100838095Y-132283390D01*
X100838095Y-132283390D02*
X100266667Y-132854819D01*
X100266667Y-132854819D02*
X100885714Y-132854819D01*
X81454819Y-130366666D02*
X80978628Y-130699999D01*
X81454819Y-130938094D02*
X80454819Y-130938094D01*
X80454819Y-130938094D02*
X80454819Y-130557142D01*
X80454819Y-130557142D02*
X80502438Y-130461904D01*
X80502438Y-130461904D02*
X80550057Y-130414285D01*
X80550057Y-130414285D02*
X80645295Y-130366666D01*
X80645295Y-130366666D02*
X80788152Y-130366666D01*
X80788152Y-130366666D02*
X80883390Y-130414285D01*
X80883390Y-130414285D02*
X80931009Y-130461904D01*
X80931009Y-130461904D02*
X80978628Y-130557142D01*
X80978628Y-130557142D02*
X80978628Y-130938094D01*
X80454819Y-130033332D02*
X80454819Y-129366666D01*
X80454819Y-129366666D02*
X81454819Y-129795237D01*
X77906666Y-128324819D02*
X77906666Y-129039104D01*
X77906666Y-129039104D02*
X77859047Y-129181961D01*
X77859047Y-129181961D02*
X77763809Y-129277200D01*
X77763809Y-129277200D02*
X77620952Y-129324819D01*
X77620952Y-129324819D02*
X77525714Y-129324819D01*
X78382857Y-129324819D02*
X78382857Y-128324819D01*
X78382857Y-128324819D02*
X78763809Y-128324819D01*
X78763809Y-128324819D02*
X78859047Y-128372438D01*
X78859047Y-128372438D02*
X78906666Y-128420057D01*
X78906666Y-128420057D02*
X78954285Y-128515295D01*
X78954285Y-128515295D02*
X78954285Y-128658152D01*
X78954285Y-128658152D02*
X78906666Y-128753390D01*
X78906666Y-128753390D02*
X78859047Y-128801009D01*
X78859047Y-128801009D02*
X78763809Y-128848628D01*
X78763809Y-128848628D02*
X78382857Y-128848628D01*
X79287619Y-128324819D02*
X79906666Y-128324819D01*
X79906666Y-128324819D02*
X79573333Y-128705771D01*
X79573333Y-128705771D02*
X79716190Y-128705771D01*
X79716190Y-128705771D02*
X79811428Y-128753390D01*
X79811428Y-128753390D02*
X79859047Y-128801009D01*
X79859047Y-128801009D02*
X79906666Y-128896247D01*
X79906666Y-128896247D02*
X79906666Y-129134342D01*
X79906666Y-129134342D02*
X79859047Y-129229580D01*
X79859047Y-129229580D02*
X79811428Y-129277200D01*
X79811428Y-129277200D02*
X79716190Y-129324819D01*
X79716190Y-129324819D02*
X79430476Y-129324819D01*
X79430476Y-129324819D02*
X79335238Y-129277200D01*
X79335238Y-129277200D02*
X79287619Y-129229580D01*
X88238095Y-128654819D02*
X88238095Y-129464342D01*
X88238095Y-129464342D02*
X88285714Y-129559580D01*
X88285714Y-129559580D02*
X88333333Y-129607200D01*
X88333333Y-129607200D02*
X88428571Y-129654819D01*
X88428571Y-129654819D02*
X88619047Y-129654819D01*
X88619047Y-129654819D02*
X88714285Y-129607200D01*
X88714285Y-129607200D02*
X88761904Y-129559580D01*
X88761904Y-129559580D02*
X88809523Y-129464342D01*
X88809523Y-129464342D02*
X88809523Y-128654819D01*
X89809523Y-129654819D02*
X89238095Y-129654819D01*
X89523809Y-129654819D02*
X89523809Y-128654819D01*
X89523809Y-128654819D02*
X89428571Y-128797676D01*
X89428571Y-128797676D02*
X89333333Y-128892914D01*
X89333333Y-128892914D02*
X89238095Y-128940533D01*
X111033333Y-127304819D02*
X110700000Y-126828628D01*
X110461905Y-127304819D02*
X110461905Y-126304819D01*
X110461905Y-126304819D02*
X110842857Y-126304819D01*
X110842857Y-126304819D02*
X110938095Y-126352438D01*
X110938095Y-126352438D02*
X110985714Y-126400057D01*
X110985714Y-126400057D02*
X111033333Y-126495295D01*
X111033333Y-126495295D02*
X111033333Y-126638152D01*
X111033333Y-126638152D02*
X110985714Y-126733390D01*
X110985714Y-126733390D02*
X110938095Y-126781009D01*
X110938095Y-126781009D02*
X110842857Y-126828628D01*
X110842857Y-126828628D02*
X110461905Y-126828628D01*
X111604762Y-126733390D02*
X111509524Y-126685771D01*
X111509524Y-126685771D02*
X111461905Y-126638152D01*
X111461905Y-126638152D02*
X111414286Y-126542914D01*
X111414286Y-126542914D02*
X111414286Y-126495295D01*
X111414286Y-126495295D02*
X111461905Y-126400057D01*
X111461905Y-126400057D02*
X111509524Y-126352438D01*
X111509524Y-126352438D02*
X111604762Y-126304819D01*
X111604762Y-126304819D02*
X111795238Y-126304819D01*
X111795238Y-126304819D02*
X111890476Y-126352438D01*
X111890476Y-126352438D02*
X111938095Y-126400057D01*
X111938095Y-126400057D02*
X111985714Y-126495295D01*
X111985714Y-126495295D02*
X111985714Y-126542914D01*
X111985714Y-126542914D02*
X111938095Y-126638152D01*
X111938095Y-126638152D02*
X111890476Y-126685771D01*
X111890476Y-126685771D02*
X111795238Y-126733390D01*
X111795238Y-126733390D02*
X111604762Y-126733390D01*
X111604762Y-126733390D02*
X111509524Y-126781009D01*
X111509524Y-126781009D02*
X111461905Y-126828628D01*
X111461905Y-126828628D02*
X111414286Y-126923866D01*
X111414286Y-126923866D02*
X111414286Y-127114342D01*
X111414286Y-127114342D02*
X111461905Y-127209580D01*
X111461905Y-127209580D02*
X111509524Y-127257200D01*
X111509524Y-127257200D02*
X111604762Y-127304819D01*
X111604762Y-127304819D02*
X111795238Y-127304819D01*
X111795238Y-127304819D02*
X111890476Y-127257200D01*
X111890476Y-127257200D02*
X111938095Y-127209580D01*
X111938095Y-127209580D02*
X111985714Y-127114342D01*
X111985714Y-127114342D02*
X111985714Y-126923866D01*
X111985714Y-126923866D02*
X111938095Y-126828628D01*
X111938095Y-126828628D02*
X111890476Y-126781009D01*
X111890476Y-126781009D02*
X111795238Y-126733390D01*
X106066666Y-123154819D02*
X106066666Y-123869104D01*
X106066666Y-123869104D02*
X106019047Y-124011961D01*
X106019047Y-124011961D02*
X105923809Y-124107200D01*
X105923809Y-124107200D02*
X105780952Y-124154819D01*
X105780952Y-124154819D02*
X105685714Y-124154819D01*
X107019047Y-123154819D02*
X106542857Y-123154819D01*
X106542857Y-123154819D02*
X106495238Y-123631009D01*
X106495238Y-123631009D02*
X106542857Y-123583390D01*
X106542857Y-123583390D02*
X106638095Y-123535771D01*
X106638095Y-123535771D02*
X106876190Y-123535771D01*
X106876190Y-123535771D02*
X106971428Y-123583390D01*
X106971428Y-123583390D02*
X107019047Y-123631009D01*
X107019047Y-123631009D02*
X107066666Y-123726247D01*
X107066666Y-123726247D02*
X107066666Y-123964342D01*
X107066666Y-123964342D02*
X107019047Y-124059580D01*
X107019047Y-124059580D02*
X106971428Y-124107200D01*
X106971428Y-124107200D02*
X106876190Y-124154819D01*
X106876190Y-124154819D02*
X106638095Y-124154819D01*
X106638095Y-124154819D02*
X106542857Y-124107200D01*
X106542857Y-124107200D02*
X106495238Y-124059580D01*
X80933333Y-140754819D02*
X80600000Y-140278628D01*
X80361905Y-140754819D02*
X80361905Y-139754819D01*
X80361905Y-139754819D02*
X80742857Y-139754819D01*
X80742857Y-139754819D02*
X80838095Y-139802438D01*
X80838095Y-139802438D02*
X80885714Y-139850057D01*
X80885714Y-139850057D02*
X80933333Y-139945295D01*
X80933333Y-139945295D02*
X80933333Y-140088152D01*
X80933333Y-140088152D02*
X80885714Y-140183390D01*
X80885714Y-140183390D02*
X80838095Y-140231009D01*
X80838095Y-140231009D02*
X80742857Y-140278628D01*
X80742857Y-140278628D02*
X80361905Y-140278628D01*
X81409524Y-140754819D02*
X81600000Y-140754819D01*
X81600000Y-140754819D02*
X81695238Y-140707200D01*
X81695238Y-140707200D02*
X81742857Y-140659580D01*
X81742857Y-140659580D02*
X81838095Y-140516723D01*
X81838095Y-140516723D02*
X81885714Y-140326247D01*
X81885714Y-140326247D02*
X81885714Y-139945295D01*
X81885714Y-139945295D02*
X81838095Y-139850057D01*
X81838095Y-139850057D02*
X81790476Y-139802438D01*
X81790476Y-139802438D02*
X81695238Y-139754819D01*
X81695238Y-139754819D02*
X81504762Y-139754819D01*
X81504762Y-139754819D02*
X81409524Y-139802438D01*
X81409524Y-139802438D02*
X81361905Y-139850057D01*
X81361905Y-139850057D02*
X81314286Y-139945295D01*
X81314286Y-139945295D02*
X81314286Y-140183390D01*
X81314286Y-140183390D02*
X81361905Y-140278628D01*
X81361905Y-140278628D02*
X81409524Y-140326247D01*
X81409524Y-140326247D02*
X81504762Y-140373866D01*
X81504762Y-140373866D02*
X81695238Y-140373866D01*
X81695238Y-140373866D02*
X81790476Y-140326247D01*
X81790476Y-140326247D02*
X81838095Y-140278628D01*
X81838095Y-140278628D02*
X81885714Y-140183390D01*
X95366666Y-152979819D02*
X95366666Y-153694104D01*
X95366666Y-153694104D02*
X95319047Y-153836961D01*
X95319047Y-153836961D02*
X95223809Y-153932200D01*
X95223809Y-153932200D02*
X95080952Y-153979819D01*
X95080952Y-153979819D02*
X94985714Y-153979819D01*
X95795238Y-153075057D02*
X95842857Y-153027438D01*
X95842857Y-153027438D02*
X95938095Y-152979819D01*
X95938095Y-152979819D02*
X96176190Y-152979819D01*
X96176190Y-152979819D02*
X96271428Y-153027438D01*
X96271428Y-153027438D02*
X96319047Y-153075057D01*
X96319047Y-153075057D02*
X96366666Y-153170295D01*
X96366666Y-153170295D02*
X96366666Y-153265533D01*
X96366666Y-153265533D02*
X96319047Y-153408390D01*
X96319047Y-153408390D02*
X95747619Y-153979819D01*
X95747619Y-153979819D02*
X96366666Y-153979819D01*
X100785714Y-124862295D02*
X100519047Y-124481342D01*
X100328571Y-124862295D02*
X100328571Y-124062295D01*
X100328571Y-124062295D02*
X100633333Y-124062295D01*
X100633333Y-124062295D02*
X100709523Y-124100390D01*
X100709523Y-124100390D02*
X100747618Y-124138485D01*
X100747618Y-124138485D02*
X100785714Y-124214676D01*
X100785714Y-124214676D02*
X100785714Y-124328961D01*
X100785714Y-124328961D02*
X100747618Y-124405152D01*
X100747618Y-124405152D02*
X100709523Y-124443247D01*
X100709523Y-124443247D02*
X100633333Y-124481342D01*
X100633333Y-124481342D02*
X100328571Y-124481342D01*
X101547618Y-124862295D02*
X101090475Y-124862295D01*
X101319047Y-124862295D02*
X101319047Y-124062295D01*
X101319047Y-124062295D02*
X101242856Y-124176580D01*
X101242856Y-124176580D02*
X101166666Y-124252771D01*
X101166666Y-124252771D02*
X101090475Y-124290866D01*
X102042857Y-124062295D02*
X102119047Y-124062295D01*
X102119047Y-124062295D02*
X102195238Y-124100390D01*
X102195238Y-124100390D02*
X102233333Y-124138485D01*
X102233333Y-124138485D02*
X102271428Y-124214676D01*
X102271428Y-124214676D02*
X102309523Y-124367057D01*
X102309523Y-124367057D02*
X102309523Y-124557533D01*
X102309523Y-124557533D02*
X102271428Y-124709914D01*
X102271428Y-124709914D02*
X102233333Y-124786104D01*
X102233333Y-124786104D02*
X102195238Y-124824200D01*
X102195238Y-124824200D02*
X102119047Y-124862295D01*
X102119047Y-124862295D02*
X102042857Y-124862295D01*
X102042857Y-124862295D02*
X101966666Y-124824200D01*
X101966666Y-124824200D02*
X101928571Y-124786104D01*
X101928571Y-124786104D02*
X101890476Y-124709914D01*
X101890476Y-124709914D02*
X101852380Y-124557533D01*
X101852380Y-124557533D02*
X101852380Y-124367057D01*
X101852380Y-124367057D02*
X101890476Y-124214676D01*
X101890476Y-124214676D02*
X101928571Y-124138485D01*
X101928571Y-124138485D02*
X101966666Y-124100390D01*
X101966666Y-124100390D02*
X102042857Y-124062295D01*
X93504761Y-143350057D02*
X93409523Y-143302438D01*
X93409523Y-143302438D02*
X93314285Y-143207200D01*
X93314285Y-143207200D02*
X93171428Y-143064342D01*
X93171428Y-143064342D02*
X93076190Y-143016723D01*
X93076190Y-143016723D02*
X92980952Y-143016723D01*
X93028571Y-143254819D02*
X92933333Y-143207200D01*
X92933333Y-143207200D02*
X92838095Y-143111961D01*
X92838095Y-143111961D02*
X92790476Y-142921485D01*
X92790476Y-142921485D02*
X92790476Y-142588152D01*
X92790476Y-142588152D02*
X92838095Y-142397676D01*
X92838095Y-142397676D02*
X92933333Y-142302438D01*
X92933333Y-142302438D02*
X93028571Y-142254819D01*
X93028571Y-142254819D02*
X93219047Y-142254819D01*
X93219047Y-142254819D02*
X93314285Y-142302438D01*
X93314285Y-142302438D02*
X93409523Y-142397676D01*
X93409523Y-142397676D02*
X93457142Y-142588152D01*
X93457142Y-142588152D02*
X93457142Y-142921485D01*
X93457142Y-142921485D02*
X93409523Y-143111961D01*
X93409523Y-143111961D02*
X93314285Y-143207200D01*
X93314285Y-143207200D02*
X93219047Y-143254819D01*
X93219047Y-143254819D02*
X93028571Y-143254819D01*
X94409523Y-143254819D02*
X93838095Y-143254819D01*
X94123809Y-143254819D02*
X94123809Y-142254819D01*
X94123809Y-142254819D02*
X94028571Y-142397676D01*
X94028571Y-142397676D02*
X93933333Y-142492914D01*
X93933333Y-142492914D02*
X93838095Y-142540533D01*
X87633333Y-123654819D02*
X87300000Y-123178628D01*
X87061905Y-123654819D02*
X87061905Y-122654819D01*
X87061905Y-122654819D02*
X87442857Y-122654819D01*
X87442857Y-122654819D02*
X87538095Y-122702438D01*
X87538095Y-122702438D02*
X87585714Y-122750057D01*
X87585714Y-122750057D02*
X87633333Y-122845295D01*
X87633333Y-122845295D02*
X87633333Y-122988152D01*
X87633333Y-122988152D02*
X87585714Y-123083390D01*
X87585714Y-123083390D02*
X87538095Y-123131009D01*
X87538095Y-123131009D02*
X87442857Y-123178628D01*
X87442857Y-123178628D02*
X87061905Y-123178628D01*
X88538095Y-122654819D02*
X88061905Y-122654819D01*
X88061905Y-122654819D02*
X88014286Y-123131009D01*
X88014286Y-123131009D02*
X88061905Y-123083390D01*
X88061905Y-123083390D02*
X88157143Y-123035771D01*
X88157143Y-123035771D02*
X88395238Y-123035771D01*
X88395238Y-123035771D02*
X88490476Y-123083390D01*
X88490476Y-123083390D02*
X88538095Y-123131009D01*
X88538095Y-123131009D02*
X88585714Y-123226247D01*
X88585714Y-123226247D02*
X88585714Y-123464342D01*
X88585714Y-123464342D02*
X88538095Y-123559580D01*
X88538095Y-123559580D02*
X88490476Y-123607200D01*
X88490476Y-123607200D02*
X88395238Y-123654819D01*
X88395238Y-123654819D02*
X88157143Y-123654819D01*
X88157143Y-123654819D02*
X88061905Y-123607200D01*
X88061905Y-123607200D02*
X88014286Y-123559580D01*
X88216666Y-120654819D02*
X88216666Y-121369104D01*
X88216666Y-121369104D02*
X88169047Y-121511961D01*
X88169047Y-121511961D02*
X88073809Y-121607200D01*
X88073809Y-121607200D02*
X87930952Y-121654819D01*
X87930952Y-121654819D02*
X87835714Y-121654819D01*
X88597619Y-120654819D02*
X89216666Y-120654819D01*
X89216666Y-120654819D02*
X88883333Y-121035771D01*
X88883333Y-121035771D02*
X89026190Y-121035771D01*
X89026190Y-121035771D02*
X89121428Y-121083390D01*
X89121428Y-121083390D02*
X89169047Y-121131009D01*
X89169047Y-121131009D02*
X89216666Y-121226247D01*
X89216666Y-121226247D02*
X89216666Y-121464342D01*
X89216666Y-121464342D02*
X89169047Y-121559580D01*
X89169047Y-121559580D02*
X89121428Y-121607200D01*
X89121428Y-121607200D02*
X89026190Y-121654819D01*
X89026190Y-121654819D02*
X88740476Y-121654819D01*
X88740476Y-121654819D02*
X88645238Y-121607200D01*
X88645238Y-121607200D02*
X88597619Y-121559580D01*
X106204761Y-125950057D02*
X106109523Y-125902438D01*
X106109523Y-125902438D02*
X106014285Y-125807200D01*
X106014285Y-125807200D02*
X105871428Y-125664342D01*
X105871428Y-125664342D02*
X105776190Y-125616723D01*
X105776190Y-125616723D02*
X105680952Y-125616723D01*
X105728571Y-125854819D02*
X105633333Y-125807200D01*
X105633333Y-125807200D02*
X105538095Y-125711961D01*
X105538095Y-125711961D02*
X105490476Y-125521485D01*
X105490476Y-125521485D02*
X105490476Y-125188152D01*
X105490476Y-125188152D02*
X105538095Y-124997676D01*
X105538095Y-124997676D02*
X105633333Y-124902438D01*
X105633333Y-124902438D02*
X105728571Y-124854819D01*
X105728571Y-124854819D02*
X105919047Y-124854819D01*
X105919047Y-124854819D02*
X106014285Y-124902438D01*
X106014285Y-124902438D02*
X106109523Y-124997676D01*
X106109523Y-124997676D02*
X106157142Y-125188152D01*
X106157142Y-125188152D02*
X106157142Y-125521485D01*
X106157142Y-125521485D02*
X106109523Y-125711961D01*
X106109523Y-125711961D02*
X106014285Y-125807200D01*
X106014285Y-125807200D02*
X105919047Y-125854819D01*
X105919047Y-125854819D02*
X105728571Y-125854819D01*
X107014285Y-125188152D02*
X107014285Y-125854819D01*
X106776190Y-124807200D02*
X106538095Y-125521485D01*
X106538095Y-125521485D02*
X107157142Y-125521485D01*
X98759580Y-139266666D02*
X98807200Y-139314285D01*
X98807200Y-139314285D02*
X98854819Y-139457142D01*
X98854819Y-139457142D02*
X98854819Y-139552380D01*
X98854819Y-139552380D02*
X98807200Y-139695237D01*
X98807200Y-139695237D02*
X98711961Y-139790475D01*
X98711961Y-139790475D02*
X98616723Y-139838094D01*
X98616723Y-139838094D02*
X98426247Y-139885713D01*
X98426247Y-139885713D02*
X98283390Y-139885713D01*
X98283390Y-139885713D02*
X98092914Y-139838094D01*
X98092914Y-139838094D02*
X97997676Y-139790475D01*
X97997676Y-139790475D02*
X97902438Y-139695237D01*
X97902438Y-139695237D02*
X97854819Y-139552380D01*
X97854819Y-139552380D02*
X97854819Y-139457142D01*
X97854819Y-139457142D02*
X97902438Y-139314285D01*
X97902438Y-139314285D02*
X97950057Y-139266666D01*
X98854819Y-138314285D02*
X98854819Y-138885713D01*
X98854819Y-138599999D02*
X97854819Y-138599999D01*
X97854819Y-138599999D02*
X97997676Y-138695237D01*
X97997676Y-138695237D02*
X98092914Y-138790475D01*
X98092914Y-138790475D02*
X98140533Y-138885713D01*
X111318095Y-134714819D02*
X111318095Y-135524342D01*
X111318095Y-135524342D02*
X111365714Y-135619580D01*
X111365714Y-135619580D02*
X111413333Y-135667200D01*
X111413333Y-135667200D02*
X111508571Y-135714819D01*
X111508571Y-135714819D02*
X111699047Y-135714819D01*
X111699047Y-135714819D02*
X111794285Y-135667200D01*
X111794285Y-135667200D02*
X111841904Y-135619580D01*
X111841904Y-135619580D02*
X111889523Y-135524342D01*
X111889523Y-135524342D02*
X111889523Y-134714819D01*
X112318095Y-134810057D02*
X112365714Y-134762438D01*
X112365714Y-134762438D02*
X112460952Y-134714819D01*
X112460952Y-134714819D02*
X112699047Y-134714819D01*
X112699047Y-134714819D02*
X112794285Y-134762438D01*
X112794285Y-134762438D02*
X112841904Y-134810057D01*
X112841904Y-134810057D02*
X112889523Y-134905295D01*
X112889523Y-134905295D02*
X112889523Y-135000533D01*
X112889523Y-135000533D02*
X112841904Y-135143390D01*
X112841904Y-135143390D02*
X112270476Y-135714819D01*
X112270476Y-135714819D02*
X112889523Y-135714819D01*
D11*
%TO.C,R3*%
X82872936Y-126465000D02*
X83327064Y-126465000D01*
X82872936Y-127935000D02*
X83327064Y-127935000D01*
D12*
%TO.C,L1*%
X84126500Y-145826400D02*
X84126500Y-148236860D01*
X84126500Y-149562740D02*
X84126500Y-149837060D01*
X84126500Y-151162940D02*
X84126500Y-153573400D01*
X84126500Y-153573400D02*
X91873500Y-153573400D01*
X91873500Y-145826400D02*
X84126500Y-145826400D01*
X91873500Y-148236860D02*
X91873500Y-145826400D01*
X91873500Y-149837060D02*
X91873500Y-149562740D01*
X91873500Y-153573400D02*
X91873500Y-151162940D01*
X82399300Y-148899800D02*
G75*
G03*
X82399300Y-148899800I-101600J0D01*
G01*
D11*
%TO.C,C7*%
X98738748Y-129165000D02*
X99261252Y-129165000D01*
X98738748Y-130635000D02*
X99261252Y-130635000D01*
%TO.C,JP1*%
X111870000Y-122530000D02*
X111870000Y-121200000D01*
X113200000Y-122530000D02*
X111870000Y-122530000D01*
X114470000Y-122530000D02*
X119610000Y-122530000D01*
X114470000Y-122530000D02*
X114470000Y-119870000D01*
X119610000Y-122530000D02*
X119610000Y-119870000D01*
X114470000Y-119870000D02*
X119610000Y-119870000D01*
%TO.C,Q3*%
X87700000Y-139040000D02*
X86025000Y-139040000D01*
X87700000Y-139040000D02*
X88350000Y-139040000D01*
X87700000Y-142160000D02*
X87050000Y-142160000D01*
X87700000Y-142160000D02*
X88350000Y-142160000D01*
%TO.C,R6*%
X93772936Y-123465000D02*
X94227064Y-123465000D01*
X93772936Y-124935000D02*
X94227064Y-124935000D01*
%TO.C,R11*%
X83622936Y-142515000D02*
X84077064Y-142515000D01*
X83622936Y-143985000D02*
X84077064Y-143985000D01*
%TO.C,R4*%
X98827064Y-128135000D02*
X98372936Y-128135000D01*
X98827064Y-126665000D02*
X98372936Y-126665000D01*
%TO.C,D1*%
X84450000Y-131090000D02*
X81150000Y-131090000D01*
X84450000Y-131090000D02*
X84450000Y-136600000D01*
X81150000Y-131090000D02*
X81150000Y-136600000D01*
%TO.C,R1*%
X97410000Y-135972936D02*
X97410000Y-137427064D01*
X95590000Y-135972936D02*
X95590000Y-137427064D01*
%TO.C,C5*%
X87538748Y-126765000D02*
X88061252Y-126765000D01*
X87538748Y-128235000D02*
X88061252Y-128235000D01*
%TO.C,JP2*%
X103430000Y-119870000D02*
X103430000Y-121200000D01*
X102100000Y-119870000D02*
X103430000Y-119870000D01*
X100830000Y-119870000D02*
X95690000Y-119870000D01*
X100830000Y-119870000D02*
X100830000Y-122530000D01*
X95690000Y-119870000D02*
X95690000Y-122530000D01*
X100830000Y-122530000D02*
X95690000Y-122530000D01*
%TO.C,C4*%
X79238748Y-126465000D02*
X79761252Y-126465000D01*
X79238748Y-127935000D02*
X79761252Y-127935000D01*
%TO.C,R2*%
X79727064Y-125335000D02*
X79272936Y-125335000D01*
X79727064Y-123865000D02*
X79272936Y-123865000D01*
%TO.C,C3*%
X83411252Y-125335000D02*
X82888748Y-125335000D01*
X83411252Y-123865000D02*
X82888748Y-123865000D01*
%TO.C,Q2*%
X94250000Y-128560000D02*
X95925000Y-128560000D01*
X94250000Y-128560000D02*
X93600000Y-128560000D01*
X94250000Y-125440000D02*
X94900000Y-125440000D01*
X94250000Y-125440000D02*
X93600000Y-125440000D01*
%TO.C,J6*%
X108170000Y-119870000D02*
X109500000Y-119870000D01*
X108170000Y-121200000D02*
X108170000Y-119870000D01*
X108170000Y-122470000D02*
X108170000Y-122530000D01*
X108170000Y-122470000D02*
X110830000Y-122470000D01*
X108170000Y-122530000D02*
X110830000Y-122530000D01*
X110830000Y-122470000D02*
X110830000Y-122530000D01*
%TO.C,C2*%
X99365000Y-134961252D02*
X99365000Y-134438748D01*
X100835000Y-134961252D02*
X100835000Y-134438748D01*
%TO.C,R7*%
X83327064Y-130035000D02*
X82872936Y-130035000D01*
X83327064Y-128565000D02*
X82872936Y-128565000D01*
%TO.C,JP3*%
X77410000Y-129870000D02*
X78740000Y-129870000D01*
X77410000Y-131200000D02*
X77410000Y-129870000D01*
X77410000Y-132470000D02*
X77410000Y-137610000D01*
X77410000Y-132470000D02*
X80070000Y-132470000D01*
X77410000Y-137610000D02*
X80070000Y-137610000D01*
X80070000Y-132470000D02*
X80070000Y-137610000D01*
%TO.C,U1*%
X93260000Y-130340000D02*
X93260000Y-130815000D01*
X92785000Y-137560000D02*
X93260000Y-137560000D01*
X92785000Y-130340000D02*
X93260000Y-130340000D01*
X86515000Y-137560000D02*
X86040000Y-137560000D01*
X86515000Y-130340000D02*
X86040000Y-130340000D01*
X86040000Y-137560000D02*
X86040000Y-137085000D01*
X86040000Y-130340000D02*
X86040000Y-130815000D01*
%TO.C,R8*%
X108372936Y-126115000D02*
X108827064Y-126115000D01*
X108372936Y-127585000D02*
X108827064Y-127585000D01*
%TO.C,J5*%
X107130000Y-122530000D02*
X105800000Y-122530000D01*
X107130000Y-121200000D02*
X107130000Y-122530000D01*
X107130000Y-119930000D02*
X107130000Y-119870000D01*
X107130000Y-119930000D02*
X104470000Y-119930000D01*
X107130000Y-119870000D02*
X104470000Y-119870000D01*
X104470000Y-119930000D02*
X104470000Y-119870000D01*
%TO.C,R9*%
X84027064Y-140535000D02*
X83572936Y-140535000D01*
X84027064Y-139065000D02*
X83572936Y-139065000D01*
%TO.C,J2*%
X94370000Y-146795000D02*
X95700000Y-146795000D01*
X94370000Y-148125000D02*
X94370000Y-146795000D01*
X94370000Y-149395000D02*
X94370000Y-151995000D01*
X94370000Y-149395000D02*
X97030000Y-149395000D01*
X94370000Y-151995000D02*
X97030000Y-151995000D01*
X97030000Y-149395000D02*
X97030000Y-151995000D01*
%TO.C,R10*%
X98272936Y-123765000D02*
X98727064Y-123765000D01*
X98272936Y-125235000D02*
X98727064Y-125235000D01*
%TO.C,Q1*%
X94235000Y-141701000D02*
X93505000Y-141701000D01*
X93505000Y-141996000D02*
X93505000Y-141701000D01*
X93505000Y-138751000D02*
X93505000Y-138456000D01*
X93505000Y-138456000D02*
X90665000Y-138456000D01*
X90665000Y-141996000D02*
X93505000Y-141996000D01*
X90665000Y-141701000D02*
X90665000Y-141996000D01*
X90665000Y-138456000D02*
X90665000Y-138751000D01*
%TO.C,R5*%
X87572936Y-123965000D02*
X88027064Y-123965000D01*
X87572936Y-125435000D02*
X88027064Y-125435000D01*
%TO.C,J3*%
X89430000Y-122530000D02*
X89430000Y-121200000D01*
X90760000Y-122530000D02*
X89430000Y-122530000D01*
X92030000Y-122530000D02*
X94630000Y-122530000D01*
X92030000Y-122530000D02*
X92030000Y-119870000D01*
X94630000Y-122530000D02*
X94630000Y-119870000D01*
X92030000Y-119870000D02*
X94630000Y-119870000D01*
%TO.C,Q4*%
X103400000Y-127260000D02*
X105075000Y-127260000D01*
X103400000Y-127260000D02*
X102750000Y-127260000D01*
X103400000Y-124140000D02*
X104050000Y-124140000D01*
X103400000Y-124140000D02*
X102750000Y-124140000D01*
%TO.C,C1*%
X100835000Y-137938748D02*
X100835000Y-138461252D01*
X99365000Y-137938748D02*
X99365000Y-138461252D01*
%TO.C,U2*%
X101600000Y-128010000D02*
X122600000Y-128010000D01*
X122600000Y-128010000D02*
X122600000Y-145790000D01*
X122600000Y-145790000D02*
X101600000Y-145790000D01*
X101600000Y-145790000D02*
X101600000Y-128010000D01*
X116670000Y-132400000D02*
X122600000Y-132400000D01*
X122600000Y-132400000D02*
X122600000Y-141400000D01*
X122600000Y-141400000D02*
X116670000Y-141400000D01*
X116670000Y-141400000D02*
X116670000Y-132400000D01*
%TD*%
M02*
