M48
; DRILL file {KiCad 7.0.9} date Mon Apr  8 13:48:10 2024
; FORMAT={-:-/ absolute / metric / decimal}
; #@! TF.CreationDate,2024-04-08T13:48:10+02:00
; #@! TF.GenerationSoftware,Kicad,Pcbnew,7.0.9
; #@! TF.FileFunction,Plated,1,4,PTH
FMAT,2
METRIC
; #@! TA.AperFunction,Plated,PTH,ViaDrill
T1C0.150
; #@! TA.AperFunction,Plated,PTH,ViaDrill
T2C0.200
; #@! TA.AperFunction,Plated,PTH,ComponentDrill
T3C1.000
%
G90
G05
T1
X87.35Y-131.65
X87.35Y-132.3
X87.35Y-132.95
X87.35Y-133.65
X87.35Y-135.15
X87.35Y-135.75
X87.35Y-136.35
X87.85Y-131.65
X87.85Y-132.3
X87.85Y-132.95
X87.85Y-133.65
X87.85Y-135.15
X87.85Y-135.75
X87.85Y-136.35
X88.35Y-131.65
X88.35Y-132.3
X88.35Y-132.95
X88.35Y-133.65
X88.35Y-135.15
X88.35Y-135.75
X88.35Y-136.35
X88.85Y-131.65
X88.85Y-132.3
X88.85Y-132.95
X88.85Y-133.65
X88.85Y-135.15
X88.85Y-135.75
X88.85Y-136.35
X89.35Y-131.65
X89.35Y-132.3
X89.35Y-132.95
X89.35Y-133.65
X89.35Y-135.15
X89.35Y-135.75
X89.35Y-136.35
X89.9Y-131.65
X89.9Y-132.3
X89.9Y-132.95
X89.9Y-133.65
X89.9Y-135.15
X89.9Y-135.75
X89.9Y-136.35
X90.45Y-131.65
X90.45Y-132.3
X90.45Y-132.95
X90.45Y-133.65
X90.45Y-135.15
X90.45Y-135.75
X90.45Y-136.35
X91.0Y-131.65
X91.0Y-132.3
X91.0Y-132.95
X91.0Y-133.65
X91.0Y-135.15
X91.0Y-135.75
X91.0Y-136.35
X91.437Y-129.661
X91.5Y-131.65
X91.5Y-132.3
X91.5Y-132.95
X91.5Y-133.65
X91.5Y-135.15
X91.5Y-135.75
X91.5Y-136.35
X92.0Y-131.65
X92.0Y-132.3
X92.0Y-132.95
X92.0Y-133.65
X92.0Y-135.15
X92.0Y-135.75
X92.0Y-136.35
X92.4Y-129.65
X94.2Y-137.5
X94.7Y-134.45
X94.85Y-141.196
X97.2Y-133.4
T2
X78.55Y-125.85
X78.55Y-128.55
X81.2Y-129.3
X82.9Y-138.5
X83.15Y-148.9
X84.1Y-125.8
X84.95Y-130.65
X85.0Y-134.4
X85.85Y-143.25
X86.0Y-138.5
X89.7Y-124.7
X90.2Y-129.5
X91.3Y-123.2
X91.8Y-142.45
X95.9Y-124.2
X96.8Y-130.45
X98.7Y-139.0
X100.7Y-123.3
X100.9Y-126.65
X101.05Y-129.9
X105.6Y-126.65
X108.9Y-142.8
T3
X78.74Y-121.158
X78.74Y-131.2
X78.74Y-133.74
X78.74Y-136.28
X78.74Y-141.478
X78.74Y-144.018
X78.74Y-146.558
X78.74Y-149.098
X78.74Y-151.638
X78.74Y-154.178
X81.28Y-121.158
X83.82Y-121.158
X86.36Y-121.158
X90.76Y-121.2
X93.3Y-121.2
X95.7Y-148.125
X95.7Y-150.665
X97.02Y-121.2
X99.06Y-141.478
X99.06Y-144.018
X99.06Y-146.558
X99.06Y-149.098
X99.06Y-151.638
X99.06Y-154.178
X99.56Y-121.2
X102.1Y-121.2
X104.48Y-129.28
X104.48Y-144.52
X105.8Y-121.2
X107.02Y-129.28
X107.02Y-144.52
X109.5Y-121.2
X109.56Y-129.28
X109.56Y-144.52
X112.1Y-129.28
X112.1Y-144.52
X113.2Y-121.2
X114.64Y-129.28
X114.64Y-144.52
X115.74Y-121.2
X117.18Y-129.28
X117.18Y-144.52
X117.79Y-124.79
X118.28Y-121.2
X119.72Y-129.28
X119.72Y-144.52
T0
M30
