%TF.GenerationSoftware,KiCad,Pcbnew,7.0.9*%
%TF.CreationDate,2024-04-10T12:07:57+02:00*%
%TF.ProjectId,Test_1,54657374-5f31-42e6-9b69-6361645f7063,rev?*%
%TF.SameCoordinates,Original*%
%TF.FileFunction,Soldermask,Bot*%
%TF.FilePolarity,Negative*%
%FSLAX46Y46*%
G04 Gerber Fmt 4.6, Leading zero omitted, Abs format (unit mm)*
G04 Created by KiCad (PCBNEW 7.0.9) date 2024-04-10 12:07:57*
%MOMM*%
%LPD*%
G01*
G04 APERTURE LIST*
G04 Aperture macros list*
%AMRoundRect*
0 Rectangle with rounded corners*
0 $1 Rounding radius*
0 $2 $3 $4 $5 $6 $7 $8 $9 X,Y pos of 4 corners*
0 Add a 4 corners polygon primitive as box body*
4,1,4,$2,$3,$4,$5,$6,$7,$8,$9,$2,$3,0*
0 Add four circle primitives for the rounded corners*
1,1,$1+$1,$2,$3*
1,1,$1+$1,$4,$5*
1,1,$1+$1,$6,$7*
1,1,$1+$1,$8,$9*
0 Add four rect primitives between the rounded corners*
20,1,$1+$1,$2,$3,$4,$5,0*
20,1,$1+$1,$4,$5,$6,$7,0*
20,1,$1+$1,$6,$7,$8,$9,0*
20,1,$1+$1,$8,$9,$2,$3,0*%
G04 Aperture macros list end*
%ADD10R,1.700000X1.700000*%
%ADD11O,1.700000X1.700000*%
%ADD12R,1.600000X1.600000*%
%ADD13C,1.600000*%
%ADD14RoundRect,0.250000X-0.325000X-0.650000X0.325000X-0.650000X0.325000X0.650000X-0.325000X0.650000X0*%
G04 APERTURE END LIST*
D10*
%TO.C,JP1*%
X113200000Y-121200000D03*
D11*
X115740000Y-121200000D03*
X118280000Y-121200000D03*
%TD*%
D10*
%TO.C,JP2*%
X102100000Y-121200000D03*
D11*
X99560000Y-121200000D03*
X97020000Y-121200000D03*
%TD*%
D10*
%TO.C,J6*%
X109500000Y-121200000D03*
%TD*%
%TO.C,JP3*%
X78740000Y-131200000D03*
D11*
X78740000Y-133740000D03*
X78740000Y-136280000D03*
%TD*%
D10*
%TO.C,J5*%
X105800000Y-121200000D03*
%TD*%
%TO.C,J2*%
X95700000Y-148125000D03*
D11*
X95700000Y-150665000D03*
%TD*%
D10*
%TO.C,J3*%
X90760000Y-121200000D03*
D11*
X93300000Y-121200000D03*
%TD*%
D12*
%TO.C,U2*%
X119720000Y-129280000D03*
D13*
X117180000Y-129280000D03*
X114640000Y-129280000D03*
X112100000Y-129280000D03*
X109560000Y-129280000D03*
X107020000Y-129280000D03*
X104480000Y-129280000D03*
X104480000Y-144520000D03*
X107020000Y-144520000D03*
X109560000Y-144520000D03*
X112100000Y-144520000D03*
X114640000Y-144520000D03*
X117180000Y-144520000D03*
X119720000Y-144520000D03*
%TD*%
D14*
%TO.C,C6*%
X95925000Y-133200000D03*
X98875000Y-133200000D03*
%TD*%
D10*
%TO.C,J1*%
X78740000Y-121158000D03*
D11*
X81280000Y-121158000D03*
X83820000Y-121158000D03*
X86360000Y-121158000D03*
%TD*%
D10*
%TO.C,J106*%
X99060000Y-141478000D03*
D11*
X99060000Y-144018000D03*
X99060000Y-146558000D03*
X99060000Y-149098000D03*
X99060000Y-151638000D03*
X99060000Y-154178000D03*
%TD*%
D10*
%TO.C,J4*%
X117790000Y-124790000D03*
%TD*%
%TO.C,J105*%
X78740000Y-141478000D03*
D11*
X78740000Y-144018000D03*
X78740000Y-146558000D03*
X78740000Y-149098000D03*
X78740000Y-151638000D03*
X78740000Y-154178000D03*
%TD*%
M02*
