%TF.GenerationSoftware,KiCad,Pcbnew,7.0.9*%
%TF.CreationDate,2024-04-10T12:07:57+02:00*%
%TF.ProjectId,Test_1,54657374-5f31-42e6-9b69-6361645f7063,rev?*%
%TF.SameCoordinates,Original*%
%TF.FileFunction,Copper,L1,Top*%
%TF.FilePolarity,Positive*%
%FSLAX46Y46*%
G04 Gerber Fmt 4.6, Leading zero omitted, Abs format (unit mm)*
G04 Created by KiCad (PCBNEW 7.0.9) date 2024-04-10 12:07:57*
%MOMM*%
%LPD*%
G01*
G04 APERTURE LIST*
G04 Aperture macros list*
%AMRoundRect*
0 Rectangle with rounded corners*
0 $1 Rounding radius*
0 $2 $3 $4 $5 $6 $7 $8 $9 X,Y pos of 4 corners*
0 Add a 4 corners polygon primitive as box body*
4,1,4,$2,$3,$4,$5,$6,$7,$8,$9,$2,$3,0*
0 Add four circle primitives for the rounded corners*
1,1,$1+$1,$2,$3*
1,1,$1+$1,$4,$5*
1,1,$1+$1,$6,$7*
1,1,$1+$1,$8,$9*
0 Add four rect primitives between the rounded corners*
20,1,$1+$1,$2,$3,$4,$5,0*
20,1,$1+$1,$4,$5,$6,$7,0*
20,1,$1+$1,$6,$7,$8,$9,0*
20,1,$1+$1,$8,$9,$2,$3,0*%
%AMFreePoly0*
4,1,21,1.545000,0.775000,0.925000,0.775000,0.925000,0.525000,1.545000,0.525000,1.545000,0.125000,0.925000,0.125000,0.925000,-0.125000,1.545000,-0.125000,1.545000,-0.525000,0.925000,-0.525000,0.925000,-0.775000,1.545000,-0.775000,1.545000,-1.175000,0.925000,-1.175000,0.925000,-1.125000,-0.925000,-1.125000,-0.925000,1.125000,0.925000,1.125000,0.925000,1.175000,1.545000,1.175000,
1.545000,0.775000,1.545000,0.775000,$1*%
G04 Aperture macros list end*
%TA.AperFunction,SMDPad,CuDef*%
%ADD10RoundRect,0.250000X-0.262500X-0.450000X0.262500X-0.450000X0.262500X0.450000X-0.262500X0.450000X0*%
%TD*%
%TA.AperFunction,SMDPad,CuDef*%
%ADD11R,2.159000X0.660400*%
%TD*%
%TA.AperFunction,SMDPad,CuDef*%
%ADD12RoundRect,0.250000X-0.250000X-0.475000X0.250000X-0.475000X0.250000X0.475000X-0.250000X0.475000X0*%
%TD*%
%TA.AperFunction,ComponentPad*%
%ADD13R,1.700000X1.700000*%
%TD*%
%TA.AperFunction,ComponentPad*%
%ADD14O,1.700000X1.700000*%
%TD*%
%TA.AperFunction,SMDPad,CuDef*%
%ADD15RoundRect,0.150000X-0.587500X-0.150000X0.587500X-0.150000X0.587500X0.150000X-0.587500X0.150000X0*%
%TD*%
%TA.AperFunction,SMDPad,CuDef*%
%ADD16RoundRect,0.250000X0.262500X0.450000X-0.262500X0.450000X-0.262500X-0.450000X0.262500X-0.450000X0*%
%TD*%
%TA.AperFunction,SMDPad,CuDef*%
%ADD17RoundRect,0.250000X-0.650000X1.000000X-0.650000X-1.000000X0.650000X-1.000000X0.650000X1.000000X0*%
%TD*%
%TA.AperFunction,SMDPad,CuDef*%
%ADD18RoundRect,0.250000X-0.625000X0.312500X-0.625000X-0.312500X0.625000X-0.312500X0.625000X0.312500X0*%
%TD*%
%TA.AperFunction,SMDPad,CuDef*%
%ADD19RoundRect,0.200000X0.200000X0.275000X-0.200000X0.275000X-0.200000X-0.275000X0.200000X-0.275000X0*%
%TD*%
%TA.AperFunction,SMDPad,CuDef*%
%ADD20RoundRect,0.250000X0.250000X0.475000X-0.250000X0.475000X-0.250000X-0.475000X0.250000X-0.475000X0*%
%TD*%
%TA.AperFunction,SMDPad,CuDef*%
%ADD21RoundRect,0.150000X0.587500X0.150000X-0.587500X0.150000X-0.587500X-0.150000X0.587500X-0.150000X0*%
%TD*%
%TA.AperFunction,SMDPad,CuDef*%
%ADD22RoundRect,0.250000X0.475000X-0.250000X0.475000X0.250000X-0.475000X0.250000X-0.475000X-0.250000X0*%
%TD*%
%TA.AperFunction,SMDPad,CuDef*%
%ADD23RoundRect,0.062500X0.337500X0.062500X-0.337500X0.062500X-0.337500X-0.062500X0.337500X-0.062500X0*%
%TD*%
%TA.AperFunction,SMDPad,CuDef*%
%ADD24RoundRect,0.062500X0.062500X0.337500X-0.062500X0.337500X-0.062500X-0.337500X0.062500X-0.337500X0*%
%TD*%
%TA.AperFunction,SMDPad,CuDef*%
%ADD25R,5.300000X5.300000*%
%TD*%
%TA.AperFunction,SMDPad,CuDef*%
%ADD26R,0.830000X0.400000*%
%TD*%
%TA.AperFunction,SMDPad,CuDef*%
%ADD27FreePoly0,180.000000*%
%TD*%
%TA.AperFunction,SMDPad,CuDef*%
%ADD28RoundRect,0.250000X-0.475000X0.250000X-0.475000X-0.250000X0.475000X-0.250000X0.475000X0.250000X0*%
%TD*%
%TA.AperFunction,ComponentPad*%
%ADD29R,1.600000X1.600000*%
%TD*%
%TA.AperFunction,ComponentPad*%
%ADD30C,1.600000*%
%TD*%
%TA.AperFunction,ViaPad*%
%ADD31C,0.500000*%
%TD*%
%TA.AperFunction,Conductor*%
%ADD32C,0.300000*%
%TD*%
%TA.AperFunction,Conductor*%
%ADD33C,0.500000*%
%TD*%
G04 APERTURE END LIST*
D10*
%TO.P,R3,1*%
%TO.N,Net-(C4-Pad2)*%
X82187500Y-127200000D03*
%TO.P,R3,2*%
%TO.N,Net-(Q2-D)*%
X84012500Y-127200000D03*
%TD*%
D11*
%TO.P,L1,1,1*%
%TO.N,GND*%
X85028200Y-148899800D03*
%TO.P,L1,2,2*%
%TO.N,Net-(J105-Pin_1)*%
X85028200Y-150500000D03*
%TO.P,L1,3,3*%
%TO.N,Net-(J105-Pin_6)*%
X90971800Y-150500000D03*
%TO.P,L1,4,4*%
%TO.N,/OUT+*%
X90971800Y-148899800D03*
%TD*%
D12*
%TO.P,C7,1*%
%TO.N,Net-(J2-Pin_1)*%
X98050000Y-129900000D03*
%TO.P,C7,2*%
%TO.N,Net-(Q3-G)*%
X99950000Y-129900000D03*
%TD*%
D13*
%TO.P,JP1,1,A*%
%TO.N,Net-(J6-Pin_1)*%
X113200000Y-121200000D03*
D14*
%TO.P,JP1,2,C*%
%TO.N,GND*%
X115740000Y-121200000D03*
%TO.P,JP1,3,B*%
X118280000Y-121200000D03*
%TD*%
D15*
%TO.P,Q3,1,G*%
%TO.N,Net-(Q3-G)*%
X86762500Y-139650000D03*
%TO.P,Q3,2,S*%
%TO.N,Net-(Q3-S)*%
X86762500Y-141550000D03*
%TO.P,Q3,3,D*%
%TO.N,Net-(J2-Pin_1)*%
X88637500Y-140600000D03*
%TD*%
D10*
%TO.P,R6,1*%
%TO.N,Net-(Q2-S)*%
X93087500Y-124200000D03*
%TO.P,R6,2*%
%TO.N,GND*%
X94912500Y-124200000D03*
%TD*%
%TO.P,R11,1*%
%TO.N,/3.3V*%
X82937500Y-143250000D03*
%TO.P,R11,2*%
%TO.N,Net-(U1-SDO)*%
X84762500Y-143250000D03*
%TD*%
D16*
%TO.P,R4,1*%
%TO.N,Net-(U1-SW0)*%
X99512500Y-127400000D03*
%TO.P,R4,2*%
%TO.N,Net-(Q2-G)*%
X97687500Y-127400000D03*
%TD*%
D17*
%TO.P,D1,1,A1*%
%TO.N,Net-(D1-A1)*%
X82800000Y-132600000D03*
%TO.P,D1,2,A2*%
%TO.N,GND*%
X82800000Y-136600000D03*
%TD*%
D18*
%TO.P,R1,1*%
%TO.N,Net-(D1-A1)*%
X96500000Y-135237500D03*
%TO.P,R1,2*%
%TO.N,Net-(Q1-D)*%
X96500000Y-138162500D03*
%TD*%
D12*
%TO.P,C5,1*%
%TO.N,Net-(Q2-D)*%
X86850000Y-127500000D03*
%TO.P,C5,2*%
%TO.N,Net-(Q2-G)*%
X88750000Y-127500000D03*
%TD*%
D13*
%TO.P,JP2,1,A*%
%TO.N,Net-(J5-Pin_1)*%
X102100000Y-121200000D03*
D14*
%TO.P,JP2,2,C*%
%TO.N,Net-(D1-A1)*%
X99560000Y-121200000D03*
%TO.P,JP2,3,B*%
%TO.N,Net-(J1-Pin_4)*%
X97020000Y-121200000D03*
%TD*%
D12*
%TO.P,C4,1*%
%TO.N,/OUT+*%
X78550000Y-127200000D03*
%TO.P,C4,2*%
%TO.N,Net-(C4-Pad2)*%
X80450000Y-127200000D03*
%TD*%
D19*
%TO.P,R2,1*%
%TO.N,Net-(C3-Pad2)*%
X80325000Y-124500000D03*
%TO.P,R2,2*%
%TO.N,GND*%
X78675000Y-124500000D03*
%TD*%
D20*
%TO.P,C3,1*%
%TO.N,/OUT+*%
X84100000Y-124600000D03*
%TO.P,C3,2*%
%TO.N,Net-(C3-Pad2)*%
X82200000Y-124600000D03*
%TD*%
D21*
%TO.P,Q2,1,G*%
%TO.N,Net-(Q2-G)*%
X95187500Y-127950000D03*
%TO.P,Q2,2,S*%
%TO.N,Net-(Q2-S)*%
X95187500Y-126050000D03*
%TO.P,Q2,3,D*%
%TO.N,Net-(Q2-D)*%
X93312500Y-127000000D03*
%TD*%
D13*
%TO.P,J6,1,Pin_1*%
%TO.N,Net-(J6-Pin_1)*%
X109500000Y-121200000D03*
%TD*%
D22*
%TO.P,C2,1*%
%TO.N,Net-(D1-A1)*%
X100100000Y-135650000D03*
%TO.P,C2,2*%
%TO.N,Net-(U1-CPO)*%
X100100000Y-133750000D03*
%TD*%
D16*
%TO.P,R7,1*%
%TO.N,Net-(U1-RT)*%
X84012500Y-129300000D03*
%TO.P,R7,2*%
%TO.N,GND*%
X82187500Y-129300000D03*
%TD*%
D13*
%TO.P,JP3,1,A*%
%TO.N,GND*%
X78740000Y-131200000D03*
D14*
%TO.P,JP3,2,C*%
%TO.N,Net-(JP3-C)*%
X78740000Y-133740000D03*
%TO.P,JP3,3,B*%
%TO.N,/3.3V*%
X78740000Y-136280000D03*
%TD*%
D23*
%TO.P,U1,1,OUTP0*%
%TO.N,/OUT+*%
X93100000Y-136700000D03*
%TO.P,U1,2,HGATE0*%
%TO.N,Net-(Q1-G)*%
X93100000Y-136200000D03*
%TO.P,U1,3,HSNSM0*%
%TO.N,Net-(Q1-D)*%
X93100000Y-135700000D03*
%TO.P,U1,4,HSNSP0*%
%TO.N,Net-(D1-A1)*%
X93100000Y-135200000D03*
%TO.P,U1,5,DNC*%
%TO.N,unconnected-(U1-DNC-Pad5)*%
X93100000Y-134700000D03*
%TO.P,U1,6,IN*%
%TO.N,Net-(D1-A1)*%
X93100000Y-134200000D03*
%TO.P,U1,7,CPO*%
%TO.N,Net-(U1-CPO)*%
X93100000Y-133700000D03*
%TO.P,U1,8,INT*%
%TO.N,Net-(U1-INT)*%
X93100000Y-133200000D03*
%TO.P,U1,9,SDI*%
%TO.N,Net-(U1-SDI)*%
X93100000Y-132700000D03*
%TO.P,U1,10,SDO*%
%TO.N,Net-(U1-SDO)*%
X93100000Y-132200000D03*
%TO.P,U1,11,SCK*%
%TO.N,Net-(U1-SCK)*%
X93100000Y-131700000D03*
%TO.P,U1,12,NCS*%
%TO.N,Net-(U1-NCS)*%
X93100000Y-131200000D03*
D24*
%TO.P,U1,13,AUTO*%
%TO.N,Net-(JP3-C)*%
X92400000Y-130500000D03*
%TO.P,U1,14,WAKEUP*%
%TO.N,Net-(J3-Pin_1)*%
X91900000Y-130500000D03*
%TO.P,U1,15,DNC*%
%TO.N,unconnected-(U1-DNC-Pad15)*%
X91400000Y-130500000D03*
%TO.P,U1,16,SW0*%
%TO.N,Net-(U1-SW0)*%
X90900000Y-130500000D03*
%TO.P,U1,17,SW1*%
%TO.N,unconnected-(U1-SW1-Pad17)*%
X90400000Y-130500000D03*
%TO.P,U1,18,SW2*%
%TO.N,unconnected-(U1-SW2-Pad18)*%
X89900000Y-130500000D03*
%TO.P,U1,19,SW3*%
%TO.N,unconnected-(U1-SW3-Pad19)*%
X89400000Y-130500000D03*
%TO.P,U1,20,SW4*%
%TO.N,unconnected-(U1-SW4-Pad20)*%
X88900000Y-130500000D03*
%TO.P,U1,21,GND*%
%TO.N,GND*%
X88400000Y-130500000D03*
%TO.P,U1,22,RT*%
%TO.N,Net-(U1-RT)*%
X87900000Y-130500000D03*
%TO.P,U1,23,LGATE*%
%TO.N,unconnected-(U1-LGATE-Pad23)*%
X87400000Y-130500000D03*
%TO.P,U1,24,LSRC*%
%TO.N,GND*%
X86900000Y-130500000D03*
D23*
%TO.P,U1,25,OUTM0*%
X86200000Y-131200000D03*
%TO.P,U1,26,LSNS0*%
X86200000Y-131700000D03*
%TO.P,U1,27,OUTM1*%
%TO.N,Net-(U1-LSNS1{slash}LSNS2)*%
X86200000Y-132200000D03*
%TO.P,U1,28,LSNS1/LSNS2*%
X86200000Y-132700000D03*
%TO.P,U1,29,OUTM2*%
X86200000Y-133200000D03*
%TO.P,U1,30,OUTM3*%
%TO.N,Net-(U1-LSNS3{slash}LSNS4)*%
X86200000Y-133700000D03*
%TO.P,U1,31,LSNS3/LSNS4*%
X86200000Y-134200000D03*
%TO.P,U1,32,OUTM4*%
X86200000Y-134700000D03*
%TO.P,U1,33,OUTP4*%
%TO.N,unconnected-(U1-OUTP4-Pad33)*%
X86200000Y-135200000D03*
%TO.P,U1,34,HGATE4*%
%TO.N,unconnected-(U1-HGATE4-Pad34)*%
X86200000Y-135700000D03*
%TO.P,U1,35,HSNSM4*%
%TO.N,Net-(D1-A1)*%
X86200000Y-136200000D03*
%TO.P,U1,36,HSNSP4*%
X86200000Y-136700000D03*
D24*
%TO.P,U1,37,OUTP3*%
%TO.N,unconnected-(U1-OUTP3-Pad37)*%
X86900000Y-137400000D03*
%TO.P,U1,38,HGATE3*%
%TO.N,unconnected-(U1-HGATE3-Pad38)*%
X87400000Y-137400000D03*
%TO.P,U1,39,HSNSM3*%
%TO.N,Net-(D1-A1)*%
X87900000Y-137400000D03*
%TO.P,U1,40,HSNSP3*%
X88400000Y-137400000D03*
%TO.P,U1,41,OUTP2*%
%TO.N,unconnected-(U1-OUTP2-Pad41)*%
X88900000Y-137400000D03*
%TO.P,U1,42,HGATE2*%
%TO.N,unconnected-(U1-HGATE2-Pad42)*%
X89400000Y-137400000D03*
%TO.P,U1,43,HSNSM2*%
%TO.N,Net-(D1-A1)*%
X89900000Y-137400000D03*
%TO.P,U1,44,HSNSP2*%
X90400000Y-137400000D03*
%TO.P,U1,45,OUTP1*%
%TO.N,unconnected-(U1-OUTP1-Pad45)*%
X90900000Y-137400000D03*
%TO.P,U1,46,HGATE1*%
%TO.N,unconnected-(U1-HGATE1-Pad46)*%
X91400000Y-137400000D03*
%TO.P,U1,47,HSNSM1*%
%TO.N,Net-(D1-A1)*%
X91900000Y-137400000D03*
%TO.P,U1,48,HSNSP1*%
X92400000Y-137400000D03*
D25*
%TO.P,U1,49,GND*%
%TO.N,GND*%
X89650000Y-133950000D03*
%TD*%
D10*
%TO.P,R8,1*%
%TO.N,Net-(Q3-G)*%
X107687500Y-126850000D03*
%TO.P,R8,2*%
%TO.N,Net-(U2-PA4_A1_D1)*%
X109512500Y-126850000D03*
%TD*%
D13*
%TO.P,J5,1,Pin_1*%
%TO.N,Net-(J5-Pin_1)*%
X105800000Y-121200000D03*
%TD*%
D16*
%TO.P,R9,1*%
%TO.N,Net-(Q3-S)*%
X84712500Y-139800000D03*
%TO.P,R9,2*%
%TO.N,GND*%
X82887500Y-139800000D03*
%TD*%
D13*
%TO.P,J2,1,Pin_1*%
%TO.N,Net-(J2-Pin_1)*%
X95700000Y-148125000D03*
D14*
%TO.P,J2,2,Pin_2*%
%TO.N,/OUT+*%
X95700000Y-150665000D03*
%TD*%
D10*
%TO.P,R10,1*%
%TO.N,/3.3V*%
X97587500Y-124500000D03*
%TO.P,R10,2*%
%TO.N,Net-(Q4-B)*%
X99412500Y-124500000D03*
%TD*%
D26*
%TO.P,Q1,1,S*%
%TO.N,/OUT+*%
X93820000Y-141201000D03*
%TO.P,Q1,2,S*%
X93820000Y-140551000D03*
%TO.P,Q1,3,S*%
X93820000Y-139901000D03*
%TO.P,Q1,4,G*%
%TO.N,Net-(Q1-G)*%
X93820000Y-139251000D03*
D27*
%TO.P,Q1,5,D*%
%TO.N,Net-(Q1-D)*%
X91880000Y-140226000D03*
%TD*%
D10*
%TO.P,R5,1*%
%TO.N,/3.3V*%
X86887500Y-124700000D03*
%TO.P,R5,2*%
%TO.N,Net-(U1-SW0)*%
X88712500Y-124700000D03*
%TD*%
D13*
%TO.P,J3,1,Pin_1*%
%TO.N,Net-(J3-Pin_1)*%
X90760000Y-121200000D03*
D14*
%TO.P,J3,2,Pin_2*%
%TO.N,/3.3V*%
X93300000Y-121200000D03*
%TD*%
D21*
%TO.P,Q4,1,B*%
%TO.N,Net-(Q4-B)*%
X104337500Y-126650000D03*
%TO.P,Q4,2,E*%
%TO.N,Net-(Q4-E)*%
X104337500Y-124750000D03*
%TO.P,Q4,3,C*%
%TO.N,Net-(J2-Pin_1)*%
X102462500Y-125700000D03*
%TD*%
D28*
%TO.P,C1,1*%
%TO.N,Net-(D1-A1)*%
X100100000Y-137250000D03*
%TO.P,C1,2*%
%TO.N,GND*%
X100100000Y-139150000D03*
%TD*%
D29*
%TO.P,U2,1,PA02_A0_D0*%
%TO.N,Net-(Q4-E)*%
X119720000Y-129280000D03*
D30*
%TO.P,U2,2,PA4_A1_D1*%
%TO.N,Net-(U2-PA4_A1_D1)*%
X117180000Y-129280000D03*
%TO.P,U2,3,PA10_A2_D2*%
%TO.N,unconnected-(U2-PA10_A2_D2-Pad3)*%
X114640000Y-129280000D03*
%TO.P,U2,4,PA11_A3_D3*%
%TO.N,unconnected-(U2-PA11_A3_D3-Pad4)*%
X112100000Y-129280000D03*
%TO.P,U2,5,PA8_A4_D4_SDA*%
%TO.N,unconnected-(U2-PA8_A4_D4_SDA-Pad5)*%
X109560000Y-129280000D03*
%TO.P,U2,6,PA9_A5_D5_SCL*%
%TO.N,unconnected-(U2-PA9_A5_D5_SCL-Pad6)*%
X107020000Y-129280000D03*
%TO.P,U2,7,PB08_A6_D6_TX*%
%TO.N,unconnected-(U2-PB08_A6_D6_TX-Pad7)*%
X104480000Y-129280000D03*
%TO.P,U2,8,PB09_A7_D7_RX*%
%TO.N,Net-(U1-NCS)*%
X104480000Y-144520000D03*
%TO.P,U2,9,PA7_A8_D8_SCK*%
%TO.N,Net-(U1-SCK)*%
X107020000Y-144520000D03*
%TO.P,U2,10,PA5_A9_D9_MISO*%
%TO.N,Net-(U1-SDO)*%
X109560000Y-144520000D03*
%TO.P,U2,11,PA6_A10_D10_MOSI*%
%TO.N,Net-(U1-SDI)*%
X112100000Y-144520000D03*
%TO.P,U2,12,3V3*%
%TO.N,unconnected-(U2-3V3-Pad12)*%
X114640000Y-144520000D03*
%TO.P,U2,13,GND*%
%TO.N,GND*%
X117180000Y-144520000D03*
%TO.P,U2,14,5V*%
%TO.N,/3.3V*%
X119720000Y-144520000D03*
%TD*%
D13*
%TO.P,J1,1,Pin_1*%
%TO.N,unconnected-(J1-Pin_1-Pad1)*%
X78740000Y-121158000D03*
D14*
%TO.P,J1,2,Pin_2*%
%TO.N,unconnected-(J1-Pin_2-Pad2)*%
X81280000Y-121158000D03*
%TO.P,J1,3,Pin_3*%
%TO.N,GND*%
X83820000Y-121158000D03*
%TO.P,J1,4,Pin_4*%
%TO.N,Net-(J1-Pin_4)*%
X86360000Y-121158000D03*
%TD*%
D13*
%TO.P,J106,1,Pin_1*%
%TO.N,GND*%
X99060000Y-141478000D03*
D14*
%TO.P,J106,2,Pin_2*%
%TO.N,unconnected-(J106-Pin_2-Pad2)*%
X99060000Y-144018000D03*
%TO.P,J106,3,Pin_3*%
%TO.N,unconnected-(J106-Pin_3-Pad3)*%
X99060000Y-146558000D03*
%TO.P,J106,4,Pin_4*%
%TO.N,unconnected-(J106-Pin_4-Pad4)*%
X99060000Y-149098000D03*
%TO.P,J106,5,Pin_5*%
%TO.N,unconnected-(J106-Pin_5-Pad5)*%
X99060000Y-151638000D03*
%TO.P,J106,6,Pin_6*%
%TO.N,GND*%
X99060000Y-154178000D03*
%TD*%
D13*
%TO.P,J4,1,Pin_1*%
%TO.N,/3.3V*%
X117790000Y-124790000D03*
%TD*%
%TO.P,J105,1,Pin_1*%
%TO.N,Net-(J105-Pin_1)*%
X78740000Y-141478000D03*
D14*
%TO.P,J105,2,Pin_2*%
%TO.N,unconnected-(J105-Pin_2-Pad2)*%
X78740000Y-144018000D03*
%TO.P,J105,3,Pin_3*%
%TO.N,unconnected-(J105-Pin_3-Pad3)*%
X78740000Y-146558000D03*
%TO.P,J105,4,Pin_4*%
%TO.N,unconnected-(J105-Pin_4-Pad4)*%
X78740000Y-149098000D03*
%TO.P,J105,5,Pin_5*%
%TO.N,unconnected-(J105-Pin_5-Pad5)*%
X78740000Y-151638000D03*
%TO.P,J105,6,Pin_6*%
%TO.N,Net-(J105-Pin_6)*%
X78740000Y-154178000D03*
%TD*%
D31*
%TO.N,Net-(U1-SDO)*%
X108900000Y-142800000D03*
X85850000Y-143250000D03*
%TO.N,GND*%
X88550000Y-135700000D03*
X91300000Y-131575000D03*
X87450000Y-131575000D03*
X91850000Y-131575000D03*
X89100000Y-136325000D03*
X90750000Y-135150000D03*
X89650000Y-136325000D03*
X88000000Y-132675000D03*
X91850000Y-136325000D03*
X87450000Y-135700000D03*
X90200000Y-132100000D03*
X89650000Y-135150000D03*
X87450000Y-133200000D03*
X91300000Y-132675000D03*
X88000000Y-135700000D03*
X87450000Y-133725000D03*
X91300000Y-133725000D03*
X88000000Y-136325000D03*
X88000000Y-132100000D03*
X91300000Y-132100000D03*
X91300000Y-133200000D03*
X87450000Y-132100000D03*
X78550000Y-125850000D03*
X87450000Y-132675000D03*
X81200000Y-129300000D03*
X87450000Y-135150000D03*
X89100000Y-132675000D03*
X89100000Y-132100000D03*
X90750000Y-136325000D03*
X91850000Y-132100000D03*
X90750000Y-132675000D03*
X91300000Y-135700000D03*
X91300000Y-136325000D03*
X87450000Y-136325000D03*
X91850000Y-132675000D03*
X98700000Y-139000000D03*
X88000000Y-133725000D03*
X91850000Y-133725000D03*
X88550000Y-135150000D03*
X90750000Y-132100000D03*
X83150000Y-148900000D03*
X89650000Y-133200000D03*
X91300000Y-135150000D03*
X91850000Y-135700000D03*
X90750000Y-133200000D03*
X88550000Y-131575000D03*
X90200000Y-132675000D03*
X88550000Y-136325000D03*
X91850000Y-133200000D03*
X90200000Y-133200000D03*
X88550000Y-132675000D03*
X90750000Y-135700000D03*
X89100000Y-133725000D03*
X89100000Y-131575000D03*
X88000000Y-131575000D03*
X89650000Y-132100000D03*
X90750000Y-131575000D03*
X82900000Y-138500000D03*
X95900000Y-124200000D03*
X89100000Y-135700000D03*
X88000000Y-135150000D03*
X88550000Y-133725000D03*
X90200000Y-133725000D03*
X90200000Y-135700000D03*
X91850000Y-135150000D03*
X89650000Y-132675000D03*
X89650000Y-135700000D03*
X90200000Y-135150000D03*
X90200000Y-131575000D03*
X89650000Y-133725000D03*
X90750000Y-133725000D03*
X88000000Y-133200000D03*
X89650000Y-131575000D03*
X89100000Y-133200000D03*
X90200000Y-136325000D03*
X88550000Y-133200000D03*
X88550000Y-132100000D03*
X89100000Y-135150000D03*
%TO.N,Net-(Q3-G)*%
X101050000Y-129900000D03*
X86000000Y-138500000D03*
%TO.N,Net-(Q4-B)*%
X100900000Y-126650000D03*
X105600000Y-126650000D03*
%TO.N,Net-(U1-INT)*%
X97200000Y-133400000D03*
%TO.N,Net-(U1-SW0)*%
X90200000Y-129500000D03*
X89700000Y-124700000D03*
%TO.N,Net-(JP3-C)*%
X84950000Y-130650000D03*
X92400000Y-129575000D03*
%TO.N,Net-(J2-Pin_1)*%
X91800000Y-142450000D03*
X96800000Y-130450000D03*
%TO.N,Net-(D1-A1)*%
X85000000Y-134400000D03*
X94700000Y-134450000D03*
X100700000Y-123300000D03*
%TO.N,/OUT+*%
X94903680Y-141078680D03*
X78550000Y-128550000D03*
X84100000Y-125800000D03*
X94200000Y-137500000D03*
%TO.N,Net-(J3-Pin_1)*%
X91369975Y-129425000D03*
X91300000Y-123200000D03*
%TD*%
D32*
%TO.N,GND*%
X88400000Y-131425000D02*
X88550000Y-131575000D01*
X88400000Y-130500000D02*
X88400000Y-131425000D01*
X86900000Y-130500000D02*
X86900000Y-131025000D01*
X86900000Y-131025000D02*
X87075000Y-131200000D01*
X87075000Y-131200000D02*
X87450000Y-131575000D01*
X86200000Y-131200000D02*
X87075000Y-131200000D01*
X87325000Y-131700000D02*
X87450000Y-131575000D01*
X86200000Y-131700000D02*
X87325000Y-131700000D01*
%TO.N,Net-(U1-SDI)*%
X102203553Y-133624871D02*
X101278682Y-132700000D01*
X103559341Y-146670000D02*
X109950000Y-146670000D01*
X109950000Y-146670000D02*
X112100000Y-144520000D01*
X102203553Y-145314212D02*
X103559341Y-146670000D01*
X102203553Y-133624871D02*
X102203553Y-145314212D01*
X101278682Y-132700000D02*
X93100000Y-132700000D01*
%TO.N,Net-(U1-SDO)*%
X102703553Y-133417765D02*
X102703553Y-145107106D01*
D33*
X84762500Y-143250000D02*
X85850000Y-143250000D01*
D32*
X103766447Y-146170000D02*
X107910000Y-146170000D01*
X102703553Y-145107106D02*
X103766447Y-146170000D01*
D33*
X108900000Y-143860000D02*
X109560000Y-144520000D01*
D32*
X107910000Y-146170000D02*
X109560000Y-144520000D01*
D33*
X108900000Y-143860000D02*
X108900000Y-142800000D01*
D32*
X101485788Y-132200000D02*
X102703553Y-133417765D01*
X93100000Y-132200000D02*
X101485788Y-132200000D01*
%TO.N,Net-(U1-SCK)*%
X103203553Y-133210659D02*
X103203553Y-144900000D01*
X93100000Y-131700000D02*
X101692894Y-131700000D01*
X105870000Y-145670000D02*
X107020000Y-144520000D01*
X103973553Y-145670000D02*
X105870000Y-145670000D01*
D33*
X107020000Y-144520000D02*
X106580000Y-144520000D01*
D32*
X101692894Y-131700000D02*
X103203553Y-133210659D01*
X103203553Y-144900000D02*
X103973553Y-145670000D01*
%TO.N,Net-(U1-NCS)*%
X104480000Y-133780000D02*
X101900000Y-131200000D01*
X93100000Y-131200000D02*
X101900000Y-131200000D01*
X104480000Y-144520000D02*
X104480000Y-133780000D01*
%TO.N,Net-(U1-LSNS1{slash}LSNS2)*%
X86200000Y-132200000D02*
X86200000Y-132700000D01*
X86200000Y-132700000D02*
X86200000Y-133200000D01*
%TO.N,Net-(U1-LSNS3{slash}LSNS4)*%
X86200000Y-133700000D02*
X86200000Y-134200000D01*
X86200000Y-134700000D02*
X86200000Y-134200000D01*
D33*
%TO.N,Net-(J105-Pin_1)*%
X81650000Y-150500000D02*
X80040000Y-148890000D01*
X85028200Y-150500000D02*
X81650000Y-150500000D01*
X80040000Y-148890000D02*
X80040000Y-142778000D01*
X80040000Y-142778000D02*
X78740000Y-141478000D01*
%TO.N,GND*%
X82187500Y-129300000D02*
X81200000Y-129300000D01*
X82900000Y-136700000D02*
X82800000Y-136600000D01*
X78587500Y-125812500D02*
X78550000Y-125850000D01*
X83150200Y-148899800D02*
X83150000Y-148900000D01*
X100100000Y-139150000D02*
X98850000Y-139150000D01*
X78587500Y-124600000D02*
X78587500Y-125812500D01*
X82887500Y-139800000D02*
X82887500Y-138512500D01*
X94912500Y-124200000D02*
X95900000Y-124200000D01*
X82887500Y-138512500D02*
X82900000Y-138500000D01*
X85028200Y-148899800D02*
X83150200Y-148899800D01*
X98850000Y-139150000D02*
X98700000Y-139000000D01*
X82800000Y-138400000D02*
X82900000Y-138500000D01*
X82800000Y-136600000D02*
X82800000Y-138400000D01*
D32*
%TO.N,Net-(Q1-G)*%
X94085788Y-136200000D02*
X93100000Y-136200000D01*
X94649000Y-139251000D02*
X95100000Y-138800000D01*
X93820000Y-139251000D02*
X93850000Y-139221000D01*
X95100000Y-137214212D02*
X94085788Y-136200000D01*
X93820000Y-139251000D02*
X94649000Y-139251000D01*
X95100000Y-138800000D02*
X95100000Y-137214212D01*
D33*
%TO.N,Net-(Q1-D)*%
X95121310Y-141851000D02*
X96500000Y-140472310D01*
X92955000Y-141851000D02*
X95121310Y-141851000D01*
X91880000Y-140226000D02*
X91880000Y-140776000D01*
D32*
X96500000Y-137500000D02*
X96100000Y-137100000D01*
X94292894Y-135700000D02*
X93100000Y-135700000D01*
D33*
X91880000Y-140776000D02*
X92955000Y-141851000D01*
D32*
X96100000Y-137100000D02*
X95692894Y-137100000D01*
X95692894Y-137100000D02*
X94292894Y-135700000D01*
X96500000Y-138162500D02*
X96500000Y-137500000D01*
D33*
X96500000Y-140472310D02*
X96500000Y-138162500D01*
%TO.N,Net-(Q2-G)*%
X88750000Y-127500000D02*
X89900000Y-127500000D01*
X95737500Y-127400000D02*
X97687500Y-127400000D01*
X95187500Y-127950000D02*
X95737500Y-127400000D01*
X95187500Y-127950000D02*
X90350000Y-127950000D01*
X97687500Y-127100000D02*
X97425000Y-127100000D01*
X90350000Y-127950000D02*
X89900000Y-127500000D01*
%TO.N,Net-(Q2-S)*%
X93650000Y-126050000D02*
X93087500Y-125487500D01*
X93087500Y-125487500D02*
X93087500Y-124200000D01*
X95187500Y-126050000D02*
X93650000Y-126050000D01*
%TO.N,Net-(Q2-D)*%
X87100000Y-126100000D02*
X89660050Y-126100000D01*
X86850000Y-127500000D02*
X86850000Y-126350000D01*
X93312500Y-127000000D02*
X90560050Y-127000000D01*
X85200000Y-127200000D02*
X85500000Y-127500000D01*
X86850000Y-126350000D02*
X87100000Y-126100000D01*
X84012500Y-127200000D02*
X85200000Y-127200000D01*
X90560050Y-127000000D02*
X89660050Y-126100000D01*
X85500000Y-127500000D02*
X86850000Y-127500000D01*
%TO.N,Net-(Q3-G)*%
X86762500Y-139262500D02*
X86000000Y-138500000D01*
X105209949Y-128030000D02*
X106389949Y-126850000D01*
X86762500Y-139650000D02*
X86550000Y-139650000D01*
X99950000Y-129900000D02*
X101050000Y-129900000D01*
X106389949Y-126850000D02*
X107687500Y-126850000D01*
X102092233Y-129900000D02*
X103962233Y-128030000D01*
X86762500Y-139650000D02*
X86762500Y-139262500D01*
X103962233Y-128030000D02*
X105209949Y-128030000D01*
X101050000Y-129900000D02*
X102092233Y-129900000D01*
%TO.N,Net-(Q3-S)*%
X84712500Y-139800000D02*
X84712500Y-141212500D01*
X84712500Y-141212500D02*
X85050000Y-141550000D01*
X85050000Y-141550000D02*
X86762500Y-141550000D01*
%TO.N,Net-(Q4-B)*%
X100900000Y-125000000D02*
X100900000Y-126650000D01*
X100400000Y-124500000D02*
X100900000Y-125000000D01*
X105600000Y-126650000D02*
X104337500Y-126650000D01*
X99412500Y-124500000D02*
X100400000Y-124500000D01*
%TO.N,Net-(Q4-E)*%
X119720000Y-129280000D02*
X117740000Y-127300000D01*
X116189950Y-127300000D02*
X114439950Y-125550000D01*
X107752082Y-124750000D02*
X108552082Y-125550000D01*
X114439950Y-125550000D02*
X108552082Y-125550000D01*
X117740000Y-127300000D02*
X116189950Y-127300000D01*
X104337500Y-124750000D02*
X107752082Y-124750000D01*
D32*
%TO.N,Net-(U1-CPO)*%
X96105000Y-134055000D02*
X97895000Y-134055000D01*
X97895000Y-134055000D02*
X98200000Y-133750000D01*
X95750000Y-133700000D02*
X96105000Y-134055000D01*
X98200000Y-133750000D02*
X100100000Y-133750000D01*
X93100000Y-133700000D02*
X95750000Y-133700000D01*
D33*
%TO.N,Net-(C3-Pad2)*%
X80412500Y-124600000D02*
X82200000Y-124600000D01*
%TO.N,Net-(C4-Pad2)*%
X82187500Y-127200000D02*
X80450000Y-127200000D01*
D32*
%TO.N,Net-(U1-INT)*%
X97000000Y-133200000D02*
X93100000Y-133200000D01*
X97200000Y-133400000D02*
X97000000Y-133200000D01*
D33*
%TO.N,Net-(U1-SW0)*%
X90975000Y-128725000D02*
X90200000Y-129500000D01*
D32*
X90600000Y-129500000D02*
X90200000Y-129500000D01*
D33*
X88712500Y-124700000D02*
X89700000Y-124700000D01*
X99512500Y-127400000D02*
X98187500Y-128725000D01*
D32*
X90900000Y-129800000D02*
X90600000Y-129500000D01*
D33*
X98187500Y-128725000D02*
X90975000Y-128725000D01*
D32*
X90900000Y-129800000D02*
X90900000Y-130500000D01*
D33*
X99512500Y-127012500D02*
X99512500Y-127100000D01*
%TO.N,Net-(U1-RT)*%
X87700000Y-129300000D02*
X87900000Y-129500000D01*
D32*
X87900000Y-130500000D02*
X87900000Y-129873482D01*
D33*
X87900000Y-129500000D02*
X87900000Y-129873482D01*
X84012500Y-129300000D02*
X87700000Y-129300000D01*
%TO.N,Net-(U2-PA4_A1_D1)*%
X109512500Y-126850000D02*
X114750000Y-126850000D01*
X114750000Y-126850000D02*
X117180000Y-129280000D01*
D32*
%TO.N,Net-(JP3-C)*%
X92400000Y-130500000D02*
X92400000Y-129575000D01*
D33*
X81830000Y-130650000D02*
X84950000Y-130650000D01*
X78740000Y-133740000D02*
X81830000Y-130650000D01*
%TO.N,Net-(J2-Pin_1)*%
X99400000Y-128550000D02*
X101600000Y-128550000D01*
X102462500Y-127687500D02*
X102462500Y-125700000D01*
X89150000Y-143150000D02*
X91100000Y-143150000D01*
X98050000Y-129900000D02*
X97350000Y-129900000D01*
X88637500Y-140600000D02*
X88637500Y-142637500D01*
X91800000Y-142450000D02*
X95700000Y-146350000D01*
X95700000Y-146350000D02*
X95700000Y-148125000D01*
X97350000Y-129900000D02*
X96800000Y-130450000D01*
X88637500Y-142637500D02*
X89150000Y-143150000D01*
X101600000Y-128550000D02*
X102462500Y-127687500D01*
D32*
X98250000Y-129800000D02*
X98350000Y-129700000D01*
D33*
X98050000Y-129900000D02*
X99400000Y-128550000D01*
X91100000Y-143150000D02*
X91800000Y-142450000D01*
%TO.N,Net-(J1-Pin_4)*%
X95720000Y-119900000D02*
X87618000Y-119900000D01*
X87618000Y-119900000D02*
X86360000Y-121158000D01*
X97020000Y-121200000D02*
X95720000Y-119900000D01*
%TO.N,Net-(J105-Pin_6)*%
X80478000Y-154178000D02*
X78740000Y-154178000D01*
X90971800Y-154078200D02*
X90750000Y-154300000D01*
X90971800Y-150500000D02*
X90971800Y-154078200D01*
X80600000Y-154300000D02*
X80478000Y-154178000D01*
X90750000Y-154300000D02*
X80600000Y-154300000D01*
%TO.N,Net-(D1-A1)*%
X84400000Y-132600000D02*
X85000000Y-133200000D01*
X85000000Y-133200000D02*
X85000000Y-134400000D01*
D32*
X86200000Y-136700000D02*
X86200000Y-136200000D01*
X87900000Y-137885096D02*
X87635096Y-138150000D01*
X96500000Y-135237500D02*
X96500000Y-136100000D01*
X86200000Y-137700000D02*
X86200000Y-136700000D01*
X88664904Y-138150000D02*
X88400000Y-137885096D01*
X91635096Y-138150000D02*
X90664904Y-138150000D01*
D33*
X98450000Y-135650000D02*
X100100000Y-135650000D01*
D32*
X86650000Y-138150000D02*
X86200000Y-137700000D01*
X94500000Y-135200000D02*
X93100000Y-135200000D01*
X92400000Y-137400000D02*
X91900000Y-137400000D01*
X88400000Y-137885096D02*
X88400000Y-137400000D01*
X89900000Y-137400000D02*
X89900000Y-137885096D01*
X85714904Y-136200000D02*
X85000000Y-135485096D01*
D33*
X82800000Y-132600000D02*
X84400000Y-132600000D01*
D32*
X95600000Y-136300000D02*
X94500000Y-135200000D01*
D33*
X98200000Y-135400000D02*
X98450000Y-135650000D01*
X98200000Y-135400000D02*
X96662500Y-135400000D01*
D32*
X91900000Y-137885096D02*
X91635096Y-138150000D01*
X86200000Y-136200000D02*
X85714904Y-136200000D01*
X89635096Y-138150000D02*
X88664904Y-138150000D01*
X93100000Y-134200000D02*
X94450000Y-134200000D01*
X87635096Y-138150000D02*
X86650000Y-138150000D01*
X96500000Y-136100000D02*
X96300000Y-136300000D01*
X87900000Y-137400000D02*
X87900000Y-137885096D01*
X89900000Y-137885096D02*
X89635096Y-138150000D01*
D33*
X100100000Y-137250000D02*
X100100000Y-135650000D01*
D32*
X91900000Y-137400000D02*
X91900000Y-137885096D01*
X90664904Y-138150000D02*
X90400000Y-137885096D01*
D33*
X99560000Y-122160000D02*
X100700000Y-123300000D01*
D32*
X96300000Y-136300000D02*
X95600000Y-136300000D01*
X85000000Y-135485096D02*
X85000000Y-134400000D01*
X88400000Y-137400000D02*
X87900000Y-137400000D01*
D33*
X96662500Y-135400000D02*
X96500000Y-135237500D01*
D32*
X90400000Y-137885096D02*
X90400000Y-137400000D01*
X90400000Y-137400000D02*
X89900000Y-137400000D01*
D33*
X99560000Y-121200000D02*
X99560000Y-122160000D01*
D32*
X94450000Y-134200000D02*
X94700000Y-134450000D01*
X95712500Y-134450000D02*
X96500000Y-135237500D01*
X94700000Y-134450000D02*
X95712500Y-134450000D01*
D33*
%TO.N,/OUT+*%
X93934800Y-148899800D02*
X95700000Y-150665000D01*
X78550000Y-127200000D02*
X78550000Y-128550000D01*
X90971800Y-148899800D02*
X93934800Y-148899800D01*
D32*
X93820000Y-140551000D02*
X93820000Y-139901000D01*
X93400000Y-136700000D02*
X94200000Y-137500000D01*
X93820000Y-141201000D02*
X93820000Y-140551000D01*
D33*
X84100000Y-124600000D02*
X84100000Y-125800000D01*
D32*
X94781360Y-141201000D02*
X94903680Y-141078680D01*
X93820000Y-141201000D02*
X94781360Y-141201000D01*
X93100000Y-136700000D02*
X93400000Y-136700000D01*
D33*
%TO.N,Net-(J5-Pin_1)*%
X102100000Y-121200000D02*
X105800000Y-121200000D01*
%TO.N,Net-(J6-Pin_1)*%
X109500000Y-121200000D02*
X113200000Y-121200000D01*
%TO.N,Net-(J3-Pin_1)*%
X90760000Y-122660000D02*
X91300000Y-123200000D01*
X90760000Y-121200000D02*
X90760000Y-122660000D01*
D32*
X91900000Y-130500000D02*
X91900000Y-129955025D01*
X91900000Y-129955025D02*
X91369975Y-129425000D01*
%TD*%
%TA.AperFunction,Conductor*%
%TO.N,/3.3V*%
G36*
X122732539Y-119119685D02*
G01*
X122778294Y-119172489D01*
X122789500Y-119224000D01*
X122789500Y-155475500D01*
X122769815Y-155542539D01*
X122717011Y-155588294D01*
X122665500Y-155599500D01*
X76934500Y-155599500D01*
X76867461Y-155579815D01*
X76821706Y-155527011D01*
X76810500Y-155475500D01*
X76810500Y-154178000D01*
X77634785Y-154178000D01*
X77653602Y-154381082D01*
X77709417Y-154577247D01*
X77709422Y-154577260D01*
X77800327Y-154759821D01*
X77923237Y-154922581D01*
X78073958Y-155059980D01*
X78073960Y-155059982D01*
X78173141Y-155121392D01*
X78247363Y-155167348D01*
X78437544Y-155241024D01*
X78638024Y-155278500D01*
X78638026Y-155278500D01*
X78841974Y-155278500D01*
X78841976Y-155278500D01*
X79042456Y-155241024D01*
X79232637Y-155167348D01*
X79406041Y-155059981D01*
X79556764Y-154922579D01*
X79679673Y-154759821D01*
X79685945Y-154747226D01*
X79733449Y-154695990D01*
X79796944Y-154678500D01*
X80226278Y-154678500D01*
X80293317Y-154698185D01*
X80307480Y-154708787D01*
X80326622Y-154725374D01*
X80326624Y-154725375D01*
X80326625Y-154725375D01*
X80326627Y-154725377D01*
X80331010Y-154727379D01*
X80353807Y-154740905D01*
X80357669Y-154743796D01*
X80406295Y-154761932D01*
X80410351Y-154763612D01*
X80432457Y-154773708D01*
X80457540Y-154785164D01*
X80457541Y-154785164D01*
X80457543Y-154785165D01*
X80462312Y-154785850D01*
X80488002Y-154792407D01*
X80492517Y-154794091D01*
X80544258Y-154797791D01*
X80548657Y-154798264D01*
X80564201Y-154800500D01*
X80579906Y-154800500D01*
X80584328Y-154800657D01*
X80636073Y-154804359D01*
X80640785Y-154803334D01*
X80667143Y-154800500D01*
X90682857Y-154800500D01*
X90709215Y-154803334D01*
X90713927Y-154804359D01*
X90765671Y-154800657D01*
X90770094Y-154800500D01*
X90785799Y-154800500D01*
X90801342Y-154798264D01*
X90805740Y-154797791D01*
X90857483Y-154794091D01*
X90861992Y-154792408D01*
X90887685Y-154785850D01*
X90892457Y-154785165D01*
X90939646Y-154763613D01*
X90943736Y-154761920D01*
X90972638Y-154751140D01*
X90992329Y-154743797D01*
X90992329Y-154743796D01*
X90992331Y-154743796D01*
X90996189Y-154740907D01*
X91018995Y-154727375D01*
X91023373Y-154725377D01*
X91062564Y-154691416D01*
X91066014Y-154688637D01*
X91068930Y-154686453D01*
X91078593Y-154679221D01*
X91089720Y-154668092D01*
X91092925Y-154665109D01*
X91132143Y-154631128D01*
X91134751Y-154627068D01*
X91151381Y-154606431D01*
X91278231Y-154479581D01*
X91298868Y-154462951D01*
X91302928Y-154460343D01*
X91336909Y-154421125D01*
X91339892Y-154417920D01*
X91351021Y-154406793D01*
X91360437Y-154394214D01*
X91363217Y-154390764D01*
X91371606Y-154381083D01*
X91397177Y-154351573D01*
X91399175Y-154347195D01*
X91412707Y-154324389D01*
X91415596Y-154320531D01*
X91433722Y-154271928D01*
X91435414Y-154267845D01*
X91456965Y-154220657D01*
X91457650Y-154215885D01*
X91464209Y-154190192D01*
X91465891Y-154185683D01*
X91466440Y-154178000D01*
X97954785Y-154178000D01*
X97973602Y-154381082D01*
X98029417Y-154577247D01*
X98029422Y-154577260D01*
X98120327Y-154759821D01*
X98243237Y-154922581D01*
X98393958Y-155059980D01*
X98393960Y-155059982D01*
X98493141Y-155121392D01*
X98567363Y-155167348D01*
X98757544Y-155241024D01*
X98958024Y-155278500D01*
X98958026Y-155278500D01*
X99161974Y-155278500D01*
X99161976Y-155278500D01*
X99362456Y-155241024D01*
X99552637Y-155167348D01*
X99726041Y-155059981D01*
X99876764Y-154922579D01*
X99999673Y-154759821D01*
X100090582Y-154577250D01*
X100146397Y-154381083D01*
X100165215Y-154178000D01*
X100146397Y-153974917D01*
X100090582Y-153778750D01*
X100077572Y-153752623D01*
X100041514Y-153680207D01*
X99999673Y-153596179D01*
X99876764Y-153433421D01*
X99876762Y-153433418D01*
X99726041Y-153296019D01*
X99726039Y-153296017D01*
X99552642Y-153188655D01*
X99552635Y-153188651D01*
X99457546Y-153151814D01*
X99362456Y-153114976D01*
X99161976Y-153077500D01*
X98958024Y-153077500D01*
X98757544Y-153114976D01*
X98757541Y-153114976D01*
X98757541Y-153114977D01*
X98567364Y-153188651D01*
X98567357Y-153188655D01*
X98393960Y-153296017D01*
X98393958Y-153296019D01*
X98243237Y-153433418D01*
X98120327Y-153596178D01*
X98029422Y-153778739D01*
X98029417Y-153778752D01*
X97973602Y-153974917D01*
X97954785Y-154177999D01*
X97954785Y-154178000D01*
X91466440Y-154178000D01*
X91469591Y-154133940D01*
X91470065Y-154129540D01*
X91472300Y-154113999D01*
X91472300Y-154098294D01*
X91472458Y-154093869D01*
X91476159Y-154042127D01*
X91475132Y-154037406D01*
X91472300Y-154011058D01*
X91472300Y-151204700D01*
X91491985Y-151137661D01*
X91544789Y-151091906D01*
X91596300Y-151080700D01*
X92075976Y-151080700D01*
X92075977Y-151080699D01*
X92149040Y-151066166D01*
X92231901Y-151010801D01*
X92287266Y-150927940D01*
X92301800Y-150854874D01*
X92301800Y-150145126D01*
X92301800Y-150145123D01*
X92301799Y-150145121D01*
X92287267Y-150072064D01*
X92287266Y-150072060D01*
X92231901Y-149989199D01*
X92176535Y-149952205D01*
X92149039Y-149933833D01*
X92149035Y-149933832D01*
X92075977Y-149919300D01*
X92075974Y-149919300D01*
X89867626Y-149919300D01*
X89867623Y-149919300D01*
X89794564Y-149933832D01*
X89794560Y-149933833D01*
X89711699Y-149989199D01*
X89656333Y-150072060D01*
X89656332Y-150072064D01*
X89641800Y-150145121D01*
X89641800Y-150854878D01*
X89656332Y-150927935D01*
X89656333Y-150927939D01*
X89656334Y-150927940D01*
X89711699Y-151010801D01*
X89791707Y-151064260D01*
X89794560Y-151066166D01*
X89794564Y-151066167D01*
X89867621Y-151080699D01*
X89867624Y-151080700D01*
X89867626Y-151080700D01*
X90347300Y-151080700D01*
X90414339Y-151100385D01*
X90460094Y-151153189D01*
X90471300Y-151204700D01*
X90471300Y-153675500D01*
X90451615Y-153742539D01*
X90398811Y-153788294D01*
X90347300Y-153799500D01*
X80851721Y-153799500D01*
X80784682Y-153779815D01*
X80770523Y-153769216D01*
X80751373Y-153752623D01*
X80751372Y-153752622D01*
X80751367Y-153752619D01*
X80746983Y-153750617D01*
X80724194Y-153737096D01*
X80720331Y-153734204D01*
X80720329Y-153734203D01*
X80671716Y-153716071D01*
X80667642Y-153714383D01*
X80620457Y-153692835D01*
X80620455Y-153692834D01*
X80615682Y-153692148D01*
X80590000Y-153685593D01*
X80585485Y-153683909D01*
X80533740Y-153680207D01*
X80529343Y-153679734D01*
X80513799Y-153677500D01*
X80498094Y-153677500D01*
X80493671Y-153677342D01*
X80476083Y-153676084D01*
X80441929Y-153673641D01*
X80441925Y-153673641D01*
X80437215Y-153674666D01*
X80410857Y-153677500D01*
X79796944Y-153677500D01*
X79729905Y-153657815D01*
X79685945Y-153608774D01*
X79679673Y-153596178D01*
X79556762Y-153433418D01*
X79406041Y-153296019D01*
X79406039Y-153296017D01*
X79232642Y-153188655D01*
X79232635Y-153188651D01*
X79137546Y-153151814D01*
X79042456Y-153114976D01*
X78841976Y-153077500D01*
X78638024Y-153077500D01*
X78437544Y-153114976D01*
X78437541Y-153114976D01*
X78437541Y-153114977D01*
X78247364Y-153188651D01*
X78247357Y-153188655D01*
X78073960Y-153296017D01*
X78073958Y-153296019D01*
X77923237Y-153433418D01*
X77800327Y-153596178D01*
X77709422Y-153778739D01*
X77709417Y-153778752D01*
X77653602Y-153974917D01*
X77634785Y-154177999D01*
X77634785Y-154178000D01*
X76810500Y-154178000D01*
X76810500Y-151638000D01*
X77634785Y-151638000D01*
X77653602Y-151841082D01*
X77709417Y-152037247D01*
X77709422Y-152037260D01*
X77800327Y-152219821D01*
X77923237Y-152382581D01*
X78073958Y-152519980D01*
X78073960Y-152519982D01*
X78173141Y-152581392D01*
X78247363Y-152627348D01*
X78437544Y-152701024D01*
X78638024Y-152738500D01*
X78638026Y-152738500D01*
X78841974Y-152738500D01*
X78841976Y-152738500D01*
X79042456Y-152701024D01*
X79232637Y-152627348D01*
X79406041Y-152519981D01*
X79556764Y-152382579D01*
X79679673Y-152219821D01*
X79770582Y-152037250D01*
X79826397Y-151841083D01*
X79845215Y-151638000D01*
X79826397Y-151434917D01*
X79770582Y-151238750D01*
X79753627Y-151204700D01*
X79684646Y-151066167D01*
X79679673Y-151056179D01*
X79594804Y-150943794D01*
X79556762Y-150893418D01*
X79406041Y-150756019D01*
X79406039Y-150756017D01*
X79232642Y-150648655D01*
X79232635Y-150648651D01*
X79137546Y-150611814D01*
X79042456Y-150574976D01*
X78841976Y-150537500D01*
X78638024Y-150537500D01*
X78437544Y-150574976D01*
X78437541Y-150574976D01*
X78437541Y-150574977D01*
X78247364Y-150648651D01*
X78247357Y-150648655D01*
X78073960Y-150756017D01*
X78073958Y-150756019D01*
X77923237Y-150893418D01*
X77800327Y-151056178D01*
X77709422Y-151238739D01*
X77709417Y-151238752D01*
X77653602Y-151434917D01*
X77634785Y-151637999D01*
X77634785Y-151638000D01*
X76810500Y-151638000D01*
X76810500Y-149098000D01*
X77634785Y-149098000D01*
X77653602Y-149301082D01*
X77709417Y-149497247D01*
X77709422Y-149497260D01*
X77800327Y-149679821D01*
X77923237Y-149842581D01*
X78073958Y-149979980D01*
X78073960Y-149979982D01*
X78105451Y-149999480D01*
X78247363Y-150087348D01*
X78437544Y-150161024D01*
X78638024Y-150198500D01*
X78638026Y-150198500D01*
X78841974Y-150198500D01*
X78841976Y-150198500D01*
X79042456Y-150161024D01*
X79232637Y-150087348D01*
X79406041Y-149979981D01*
X79556764Y-149842579D01*
X79679673Y-149679821D01*
X79749895Y-149538794D01*
X79797395Y-149487561D01*
X79865058Y-149470139D01*
X79931398Y-149492064D01*
X79948574Y-149506388D01*
X81248614Y-150806428D01*
X81265246Y-150827066D01*
X81267854Y-150831125D01*
X81267857Y-150831128D01*
X81307067Y-150865103D01*
X81310283Y-150868097D01*
X81321407Y-150879221D01*
X81321412Y-150879224D01*
X81321417Y-150879229D01*
X81333979Y-150888633D01*
X81337427Y-150891411D01*
X81367947Y-150917856D01*
X81376627Y-150925377D01*
X81381010Y-150927379D01*
X81403807Y-150940905D01*
X81407669Y-150943796D01*
X81456295Y-150961932D01*
X81460351Y-150963612D01*
X81482457Y-150973708D01*
X81507540Y-150985164D01*
X81507541Y-150985164D01*
X81507543Y-150985165D01*
X81512312Y-150985850D01*
X81538002Y-150992407D01*
X81542517Y-150994091D01*
X81594258Y-150997791D01*
X81598657Y-150998264D01*
X81614201Y-151000500D01*
X81629906Y-151000500D01*
X81634328Y-151000657D01*
X81686073Y-151004359D01*
X81690785Y-151003334D01*
X81717143Y-151000500D01*
X83715067Y-151000500D01*
X83782106Y-151020185D01*
X83783956Y-151021397D01*
X83836013Y-151056179D01*
X83850960Y-151066166D01*
X83850963Y-151066166D01*
X83850964Y-151066167D01*
X83924021Y-151080699D01*
X83924024Y-151080700D01*
X83924026Y-151080700D01*
X86132376Y-151080700D01*
X86132377Y-151080699D01*
X86205440Y-151066166D01*
X86288301Y-151010801D01*
X86343666Y-150927940D01*
X86358200Y-150854874D01*
X86358200Y-150145126D01*
X86358200Y-150145123D01*
X86358199Y-150145121D01*
X86343667Y-150072064D01*
X86343666Y-150072060D01*
X86288301Y-149989199D01*
X86232935Y-149952205D01*
X86205439Y-149933833D01*
X86205435Y-149933832D01*
X86132377Y-149919300D01*
X86132374Y-149919300D01*
X83924026Y-149919300D01*
X83924023Y-149919300D01*
X83850964Y-149933832D01*
X83850957Y-149933835D01*
X83783956Y-149978603D01*
X83717279Y-149999480D01*
X83715067Y-149999500D01*
X81908676Y-149999500D01*
X81841637Y-149979815D01*
X81820995Y-149963181D01*
X80757817Y-148900003D01*
X82644353Y-148900003D01*
X82645039Y-148904777D01*
X82645985Y-148931254D01*
X82645640Y-148936068D01*
X82645641Y-148936073D01*
X82646866Y-148941703D01*
X82649700Y-148968062D01*
X82649700Y-148971761D01*
X82656941Y-148996426D01*
X82660699Y-149013701D01*
X82664835Y-149042456D01*
X82664836Y-149042461D01*
X82666837Y-149046842D01*
X82675208Y-149071990D01*
X82676233Y-149076705D01*
X82679102Y-149081958D01*
X82689248Y-149106453D01*
X82690245Y-149109850D01*
X82690247Y-149109853D01*
X82703999Y-149131253D01*
X82712476Y-149146777D01*
X82724621Y-149173370D01*
X82724622Y-149173371D01*
X82724623Y-149173373D01*
X82727781Y-149177017D01*
X82742894Y-149198785D01*
X82745206Y-149203018D01*
X82745209Y-149203023D01*
X82749534Y-149207348D01*
X82766167Y-149227987D01*
X82768056Y-149230927D01*
X82768059Y-149230930D01*
X82787191Y-149247508D01*
X82799701Y-149260018D01*
X82818873Y-149282144D01*
X82818874Y-149282145D01*
X82822928Y-149284750D01*
X82843571Y-149301385D01*
X82846977Y-149304791D01*
X82852374Y-149307738D01*
X82874148Y-149322856D01*
X82876827Y-149325177D01*
X82899889Y-149335709D01*
X82915409Y-149344184D01*
X82939949Y-149359954D01*
X82939948Y-149359954D01*
X82944564Y-149361309D01*
X82969061Y-149371454D01*
X82973294Y-149373766D01*
X82979213Y-149375053D01*
X83004376Y-149383427D01*
X83007743Y-149384965D01*
X83033030Y-149388600D01*
X83050323Y-149392362D01*
X83078036Y-149400499D01*
X83078037Y-149400500D01*
X83078039Y-149400500D01*
X83082857Y-149400500D01*
X83109215Y-149403334D01*
X83113927Y-149404359D01*
X83165671Y-149400657D01*
X83170094Y-149400500D01*
X83229425Y-149400500D01*
X83232222Y-149400300D01*
X83715067Y-149400300D01*
X83782106Y-149419985D01*
X83783956Y-149421197D01*
X83807879Y-149437181D01*
X83850960Y-149465966D01*
X83850963Y-149465966D01*
X83850964Y-149465967D01*
X83924021Y-149480499D01*
X83924024Y-149480500D01*
X83924026Y-149480500D01*
X86132376Y-149480500D01*
X86132377Y-149480499D01*
X86205440Y-149465966D01*
X86288301Y-149410601D01*
X86343666Y-149327740D01*
X86358200Y-149254674D01*
X86358200Y-148544926D01*
X86358200Y-148544923D01*
X86358199Y-148544921D01*
X86343667Y-148471864D01*
X86343666Y-148471860D01*
X86288301Y-148388999D01*
X86232935Y-148352005D01*
X86205439Y-148333633D01*
X86205435Y-148333632D01*
X86132377Y-148319100D01*
X86132374Y-148319100D01*
X83924026Y-148319100D01*
X83924023Y-148319100D01*
X83850964Y-148333632D01*
X83850957Y-148333635D01*
X83783956Y-148378403D01*
X83717279Y-148399280D01*
X83715067Y-148399300D01*
X83217343Y-148399300D01*
X83190985Y-148396466D01*
X83186274Y-148395441D01*
X83186270Y-148395441D01*
X83147752Y-148398196D01*
X83134528Y-148399142D01*
X83130106Y-148399300D01*
X83114401Y-148399300D01*
X83114400Y-148399300D01*
X83113815Y-148399342D01*
X83109390Y-148399500D01*
X83078039Y-148399500D01*
X83078037Y-148399500D01*
X83078033Y-148399501D01*
X83074243Y-148400614D01*
X83048168Y-148405318D01*
X83042717Y-148405709D01*
X83042715Y-148405709D01*
X83038193Y-148407396D01*
X83012519Y-148413948D01*
X83007742Y-148414634D01*
X82982035Y-148426373D01*
X82965473Y-148432550D01*
X82939949Y-148440046D01*
X82939945Y-148440048D01*
X82936345Y-148442361D01*
X82912667Y-148454213D01*
X82907875Y-148456000D01*
X82907866Y-148456005D01*
X82903998Y-148458901D01*
X82881224Y-148472414D01*
X82876826Y-148474423D01*
X82876825Y-148474423D01*
X82855876Y-148492575D01*
X82841720Y-148503172D01*
X82818874Y-148517854D01*
X82818867Y-148517860D01*
X82801082Y-148538384D01*
X82788584Y-148550882D01*
X82768060Y-148568667D01*
X82768054Y-148568674D01*
X82753372Y-148591520D01*
X82742775Y-148605676D01*
X82724623Y-148626625D01*
X82724623Y-148626626D01*
X82722614Y-148631024D01*
X82709101Y-148653798D01*
X82706205Y-148657666D01*
X82706200Y-148657675D01*
X82704413Y-148662467D01*
X82692561Y-148686145D01*
X82690248Y-148689745D01*
X82690246Y-148689749D01*
X82682750Y-148715273D01*
X82676573Y-148731835D01*
X82664834Y-148757542D01*
X82664148Y-148762319D01*
X82657596Y-148787993D01*
X82655909Y-148792515D01*
X82655909Y-148792517D01*
X82655519Y-148797968D01*
X82650814Y-148824043D01*
X82649701Y-148827833D01*
X82649700Y-148827842D01*
X82649700Y-148853940D01*
X82648438Y-148871586D01*
X82644353Y-148899999D01*
X82644353Y-148900003D01*
X80757817Y-148900003D01*
X80576819Y-148719005D01*
X80543334Y-148657682D01*
X80540500Y-148631324D01*
X80540500Y-143500000D01*
X81925001Y-143500000D01*
X81925001Y-143749986D01*
X81935494Y-143852697D01*
X81990641Y-144019119D01*
X81990643Y-144019124D01*
X82082684Y-144168345D01*
X82206654Y-144292315D01*
X82355875Y-144384356D01*
X82355880Y-144384358D01*
X82522302Y-144439505D01*
X82522309Y-144439506D01*
X82625019Y-144449999D01*
X82687499Y-144449998D01*
X82687500Y-144449998D01*
X82687500Y-143500000D01*
X81925001Y-143500000D01*
X80540500Y-143500000D01*
X80540500Y-143000000D01*
X81925000Y-143000000D01*
X82687500Y-143000000D01*
X82687500Y-142050000D01*
X83187500Y-142050000D01*
X83187500Y-144449999D01*
X83249972Y-144449999D01*
X83249986Y-144449998D01*
X83352697Y-144439505D01*
X83519119Y-144384358D01*
X83519124Y-144384356D01*
X83668345Y-144292315D01*
X83792315Y-144168345D01*
X83884354Y-144019126D01*
X83884842Y-144018081D01*
X83885368Y-144017482D01*
X83888149Y-144012975D01*
X83888918Y-144013449D01*
X83931007Y-143965635D01*
X83998198Y-143946473D01*
X84065082Y-143966679D01*
X84096498Y-143996157D01*
X84138042Y-144051653D01*
X84142455Y-144057547D01*
X84257664Y-144143793D01*
X84257671Y-144143797D01*
X84302618Y-144160561D01*
X84392517Y-144194091D01*
X84452127Y-144200500D01*
X85072872Y-144200499D01*
X85132483Y-144194091D01*
X85267331Y-144143796D01*
X85382546Y-144057546D01*
X85468796Y-143942331D01*
X85492835Y-143877879D01*
X85510258Y-143831167D01*
X85552129Y-143775233D01*
X85617593Y-143750816D01*
X85626440Y-143750500D01*
X85921960Y-143750500D01*
X85921961Y-143750500D01*
X85948153Y-143742809D01*
X85965436Y-143739050D01*
X85969882Y-143738410D01*
X85992457Y-143735165D01*
X86017287Y-143723824D01*
X86033862Y-143717642D01*
X86060053Y-143709953D01*
X86083020Y-143695192D01*
X86098540Y-143686717D01*
X86123373Y-143675377D01*
X86144006Y-143657497D01*
X86158148Y-143646910D01*
X86181128Y-143632143D01*
X86199015Y-143611499D01*
X86211499Y-143599015D01*
X86232143Y-143581128D01*
X86246910Y-143558148D01*
X86257497Y-143544006D01*
X86275377Y-143523373D01*
X86286717Y-143498540D01*
X86295192Y-143483020D01*
X86309953Y-143460053D01*
X86317642Y-143433862D01*
X86323822Y-143417292D01*
X86335165Y-143392457D01*
X86339050Y-143365426D01*
X86342806Y-143348159D01*
X86350500Y-143321961D01*
X86350500Y-143294667D01*
X86351762Y-143277020D01*
X86355647Y-143250000D01*
X86351762Y-143222977D01*
X86350500Y-143205331D01*
X86350500Y-143178042D01*
X86350500Y-143178039D01*
X86342805Y-143151834D01*
X86339051Y-143134577D01*
X86335165Y-143107543D01*
X86323825Y-143082713D01*
X86317641Y-143066133D01*
X86309953Y-143039947D01*
X86295192Y-143016978D01*
X86286714Y-143001451D01*
X86276354Y-142978767D01*
X86275377Y-142976627D01*
X86257500Y-142955996D01*
X86246905Y-142941844D01*
X86232143Y-142918872D01*
X86222910Y-142910871D01*
X86211510Y-142900992D01*
X86199006Y-142888488D01*
X86181128Y-142867857D01*
X86181123Y-142867853D01*
X86158160Y-142853095D01*
X86144000Y-142842496D01*
X86137007Y-142836437D01*
X86123373Y-142824623D01*
X86098541Y-142813282D01*
X86083019Y-142804806D01*
X86060053Y-142790047D01*
X86060051Y-142790046D01*
X86033858Y-142782355D01*
X86017288Y-142776174D01*
X85992457Y-142764835D01*
X85965423Y-142760947D01*
X85948154Y-142757190D01*
X85921963Y-142749500D01*
X85921961Y-142749500D01*
X85885799Y-142749500D01*
X85626440Y-142749500D01*
X85559401Y-142729815D01*
X85513646Y-142677011D01*
X85510258Y-142668833D01*
X85468797Y-142557671D01*
X85468793Y-142557664D01*
X85382547Y-142442455D01*
X85382544Y-142442452D01*
X85267335Y-142356206D01*
X85267328Y-142356202D01*
X85132482Y-142305908D01*
X85132483Y-142305908D01*
X85086615Y-142300977D01*
X85071556Y-142294739D01*
X85068029Y-142296666D01*
X85041672Y-142299500D01*
X84452129Y-142299500D01*
X84452123Y-142299501D01*
X84392516Y-142305908D01*
X84257671Y-142356202D01*
X84257664Y-142356206D01*
X84142455Y-142442452D01*
X84096498Y-142503842D01*
X84040563Y-142545713D01*
X83970872Y-142550696D01*
X83909549Y-142517210D01*
X83888335Y-142486909D01*
X83888149Y-142487025D01*
X83886170Y-142483816D01*
X83884845Y-142481924D01*
X83884356Y-142480877D01*
X83792315Y-142331654D01*
X83668345Y-142207684D01*
X83519124Y-142115643D01*
X83519119Y-142115641D01*
X83352697Y-142060494D01*
X83352690Y-142060493D01*
X83249986Y-142050000D01*
X83187500Y-142050000D01*
X82687500Y-142050000D01*
X82687499Y-142049999D01*
X82625028Y-142050000D01*
X82625011Y-142050001D01*
X82522302Y-142060494D01*
X82355880Y-142115641D01*
X82355875Y-142115643D01*
X82206654Y-142207684D01*
X82082684Y-142331654D01*
X81990643Y-142480875D01*
X81990641Y-142480880D01*
X81935494Y-142647302D01*
X81935493Y-142647309D01*
X81925000Y-142750013D01*
X81925000Y-143000000D01*
X80540500Y-143000000D01*
X80540500Y-142845143D01*
X80543334Y-142818785D01*
X80544359Y-142814073D01*
X80540658Y-142762329D01*
X80540500Y-142757904D01*
X80540500Y-142742201D01*
X80538264Y-142726657D01*
X80537791Y-142722254D01*
X80534091Y-142670517D01*
X80532407Y-142666002D01*
X80525850Y-142640312D01*
X80525165Y-142635543D01*
X80515700Y-142614819D01*
X80503616Y-142588359D01*
X80501932Y-142584295D01*
X80483796Y-142535669D01*
X80480905Y-142531807D01*
X80467379Y-142509010D01*
X80465377Y-142504627D01*
X80450125Y-142487025D01*
X80431411Y-142465427D01*
X80428633Y-142461979D01*
X80419229Y-142449417D01*
X80419224Y-142449412D01*
X80419221Y-142449407D01*
X80408097Y-142438283D01*
X80405103Y-142435067D01*
X80371128Y-142395857D01*
X80371125Y-142395854D01*
X80367066Y-142393246D01*
X80346428Y-142376614D01*
X79876819Y-141907005D01*
X79843334Y-141845682D01*
X79840500Y-141819324D01*
X79840500Y-140603323D01*
X79840499Y-140603321D01*
X79825967Y-140530264D01*
X79825966Y-140530260D01*
X79811165Y-140508109D01*
X79770601Y-140447399D01*
X79687740Y-140392034D01*
X79687739Y-140392033D01*
X79687735Y-140392032D01*
X79614677Y-140377500D01*
X79614674Y-140377500D01*
X77865326Y-140377500D01*
X77865323Y-140377500D01*
X77792264Y-140392032D01*
X77792260Y-140392033D01*
X77709399Y-140447399D01*
X77654033Y-140530260D01*
X77654032Y-140530264D01*
X77639500Y-140603321D01*
X77639500Y-142352678D01*
X77654032Y-142425735D01*
X77654033Y-142425739D01*
X77669854Y-142449417D01*
X77709399Y-142508601D01*
X77764942Y-142545713D01*
X77792260Y-142563966D01*
X77792264Y-142563967D01*
X77865321Y-142578499D01*
X77865324Y-142578500D01*
X77865326Y-142578500D01*
X79081324Y-142578500D01*
X79148363Y-142598185D01*
X79169005Y-142614819D01*
X79396452Y-142842266D01*
X79429937Y-142903589D01*
X79424953Y-142973281D01*
X79383081Y-143029214D01*
X79317617Y-143053631D01*
X79249344Y-143038779D01*
X79243511Y-143035385D01*
X79232637Y-143028652D01*
X79232634Y-143028651D01*
X79232635Y-143028651D01*
X79071152Y-142966093D01*
X79042456Y-142954976D01*
X78841976Y-142917500D01*
X78638024Y-142917500D01*
X78437544Y-142954976D01*
X78437541Y-142954976D01*
X78437541Y-142954977D01*
X78247364Y-143028651D01*
X78247357Y-143028655D01*
X78073960Y-143136017D01*
X78073958Y-143136019D01*
X77923237Y-143273418D01*
X77800327Y-143436178D01*
X77709422Y-143618739D01*
X77709417Y-143618752D01*
X77653602Y-143814917D01*
X77634785Y-144017999D01*
X77634785Y-144018000D01*
X77653602Y-144221082D01*
X77709417Y-144417247D01*
X77709422Y-144417260D01*
X77800327Y-144599821D01*
X77923237Y-144762581D01*
X78073958Y-144899980D01*
X78073960Y-144899982D01*
X78129777Y-144934542D01*
X78247363Y-145007348D01*
X78437544Y-145081024D01*
X78638024Y-145118500D01*
X78638026Y-145118500D01*
X78841974Y-145118500D01*
X78841976Y-145118500D01*
X79042456Y-145081024D01*
X79232637Y-145007348D01*
X79350223Y-144934541D01*
X79417583Y-144915986D01*
X79484282Y-144936794D01*
X79529144Y-144990360D01*
X79539500Y-145039969D01*
X79539500Y-145536030D01*
X79519815Y-145603069D01*
X79467011Y-145648824D01*
X79397853Y-145658768D01*
X79350223Y-145641457D01*
X79232642Y-145568655D01*
X79232635Y-145568651D01*
X79051041Y-145498302D01*
X79042456Y-145494976D01*
X78841976Y-145457500D01*
X78638024Y-145457500D01*
X78437544Y-145494976D01*
X78437541Y-145494976D01*
X78437541Y-145494977D01*
X78247364Y-145568651D01*
X78247357Y-145568655D01*
X78073960Y-145676017D01*
X78073958Y-145676019D01*
X77923237Y-145813418D01*
X77800327Y-145976178D01*
X77709422Y-146158739D01*
X77709417Y-146158752D01*
X77653602Y-146354917D01*
X77634785Y-146557999D01*
X77634785Y-146558000D01*
X77653602Y-146761082D01*
X77709417Y-146957247D01*
X77709422Y-146957260D01*
X77800327Y-147139821D01*
X77923237Y-147302581D01*
X78073958Y-147439980D01*
X78073960Y-147439982D01*
X78099808Y-147455986D01*
X78247363Y-147547348D01*
X78437544Y-147621024D01*
X78638024Y-147658500D01*
X78638026Y-147658500D01*
X78841974Y-147658500D01*
X78841976Y-147658500D01*
X79042456Y-147621024D01*
X79232637Y-147547348D01*
X79350223Y-147474541D01*
X79417583Y-147455986D01*
X79484282Y-147476794D01*
X79529144Y-147530360D01*
X79539500Y-147579969D01*
X79539500Y-148076030D01*
X79519815Y-148143069D01*
X79467011Y-148188824D01*
X79397853Y-148198768D01*
X79350223Y-148181457D01*
X79232642Y-148108655D01*
X79232635Y-148108651D01*
X79137546Y-148071814D01*
X79042456Y-148034976D01*
X78841976Y-147997500D01*
X78638024Y-147997500D01*
X78437544Y-148034976D01*
X78437541Y-148034976D01*
X78437541Y-148034977D01*
X78247364Y-148108651D01*
X78247357Y-148108655D01*
X78073960Y-148216017D01*
X78073958Y-148216019D01*
X77923237Y-148353418D01*
X77800327Y-148516178D01*
X77709422Y-148698739D01*
X77709417Y-148698752D01*
X77653602Y-148894917D01*
X77634785Y-149097999D01*
X77634785Y-149098000D01*
X76810500Y-149098000D01*
X76810500Y-137647873D01*
X81649500Y-137647873D01*
X81655908Y-137707483D01*
X81706202Y-137842328D01*
X81706206Y-137842335D01*
X81792452Y-137957544D01*
X81792455Y-137957547D01*
X81907664Y-138043793D01*
X81907671Y-138043797D01*
X81925643Y-138050500D01*
X82042517Y-138094091D01*
X82102127Y-138100500D01*
X82175500Y-138100499D01*
X82242538Y-138120183D01*
X82288294Y-138172986D01*
X82299500Y-138224499D01*
X82299500Y-138332858D01*
X82296667Y-138359206D01*
X82295641Y-138363927D01*
X82295641Y-138363929D01*
X82295641Y-138363930D01*
X82299342Y-138415669D01*
X82299500Y-138420094D01*
X82299500Y-138435799D01*
X82301734Y-138451343D01*
X82302207Y-138455740D01*
X82305909Y-138507485D01*
X82307593Y-138512000D01*
X82314148Y-138537682D01*
X82314834Y-138542455D01*
X82314835Y-138542457D01*
X82336383Y-138589642D01*
X82338071Y-138593716D01*
X82356203Y-138642330D01*
X82359095Y-138646193D01*
X82372616Y-138668979D01*
X82375789Y-138675925D01*
X82387000Y-138727448D01*
X82387000Y-138840892D01*
X82367315Y-138907931D01*
X82337312Y-138940158D01*
X82267452Y-138992455D01*
X82181206Y-139107664D01*
X82181202Y-139107671D01*
X82130908Y-139242517D01*
X82124501Y-139302116D01*
X82124501Y-139302123D01*
X82124500Y-139302135D01*
X82124500Y-140297870D01*
X82124501Y-140297876D01*
X82130908Y-140357483D01*
X82181202Y-140492328D01*
X82181206Y-140492335D01*
X82267452Y-140607544D01*
X82267455Y-140607547D01*
X82382664Y-140693793D01*
X82382671Y-140693797D01*
X82427618Y-140710561D01*
X82517517Y-140744091D01*
X82577127Y-140750500D01*
X83197872Y-140750499D01*
X83257483Y-140744091D01*
X83392331Y-140693796D01*
X83507546Y-140607546D01*
X83593796Y-140492331D01*
X83644091Y-140357483D01*
X83650500Y-140297873D01*
X83650499Y-139302128D01*
X83644486Y-139246194D01*
X83644091Y-139242516D01*
X83593797Y-139107671D01*
X83593793Y-139107664D01*
X83507547Y-138992455D01*
X83503101Y-138989127D01*
X83469439Y-138963927D01*
X83437688Y-138940158D01*
X83395818Y-138884224D01*
X83388000Y-138840892D01*
X83388000Y-138646186D01*
X83393374Y-138616402D01*
X83392206Y-138616148D01*
X83394090Y-138607486D01*
X83394090Y-138607485D01*
X83394091Y-138607483D01*
X83396038Y-138580245D01*
X83398553Y-138562757D01*
X83404359Y-138536073D01*
X83404015Y-138531269D01*
X83404961Y-138504765D01*
X83405647Y-138500000D01*
X83404961Y-138495234D01*
X83404015Y-138468729D01*
X83404359Y-138463927D01*
X83398554Y-138437247D01*
X83396037Y-138419731D01*
X83395262Y-138408892D01*
X83394091Y-138392517D01*
X83392407Y-138388002D01*
X83385850Y-138362312D01*
X83385165Y-138357543D01*
X83383161Y-138353155D01*
X83374788Y-138327995D01*
X83373765Y-138323290D01*
X83360687Y-138299342D01*
X83353336Y-138283247D01*
X83347587Y-138267834D01*
X83342601Y-138198143D01*
X83376086Y-138136819D01*
X83437408Y-138103333D01*
X83463768Y-138100499D01*
X83497871Y-138100499D01*
X83497872Y-138100499D01*
X83557483Y-138094091D01*
X83692331Y-138043796D01*
X83807546Y-137957546D01*
X83893796Y-137842331D01*
X83944091Y-137707483D01*
X83950500Y-137647873D01*
X83950499Y-135552128D01*
X83944091Y-135492517D01*
X83928233Y-135450000D01*
X83893797Y-135357671D01*
X83893793Y-135357664D01*
X83807547Y-135242455D01*
X83807544Y-135242452D01*
X83692335Y-135156206D01*
X83692328Y-135156202D01*
X83557482Y-135105908D01*
X83557483Y-135105908D01*
X83497883Y-135099501D01*
X83497881Y-135099500D01*
X83497873Y-135099500D01*
X83497864Y-135099500D01*
X82102129Y-135099500D01*
X82102123Y-135099501D01*
X82042516Y-135105908D01*
X81907671Y-135156202D01*
X81907664Y-135156206D01*
X81792455Y-135242452D01*
X81792452Y-135242455D01*
X81706206Y-135357664D01*
X81706202Y-135357671D01*
X81655908Y-135492517D01*
X81649887Y-135548525D01*
X81649501Y-135552123D01*
X81649500Y-135552135D01*
X81649500Y-137647873D01*
X76810500Y-137647873D01*
X76810500Y-136530000D01*
X77409364Y-136530000D01*
X77466567Y-136743486D01*
X77466570Y-136743492D01*
X77566399Y-136957578D01*
X77701894Y-137151082D01*
X77868917Y-137318105D01*
X78062421Y-137453600D01*
X78276507Y-137553429D01*
X78276516Y-137553433D01*
X78490000Y-137610634D01*
X78490000Y-136715501D01*
X78597685Y-136764680D01*
X78704237Y-136780000D01*
X78775763Y-136780000D01*
X78882315Y-136764680D01*
X78990000Y-136715501D01*
X78990000Y-137610633D01*
X79203483Y-137553433D01*
X79203492Y-137553429D01*
X79417578Y-137453600D01*
X79611082Y-137318105D01*
X79778105Y-137151082D01*
X79913600Y-136957578D01*
X80013429Y-136743492D01*
X80013432Y-136743486D01*
X80070636Y-136530000D01*
X79173686Y-136530000D01*
X79199493Y-136489844D01*
X79240000Y-136351889D01*
X79240000Y-136208111D01*
X79199493Y-136070156D01*
X79173686Y-136030000D01*
X80070636Y-136030000D01*
X80070635Y-136029999D01*
X80013432Y-135816513D01*
X80013429Y-135816507D01*
X79913600Y-135602422D01*
X79913599Y-135602420D01*
X79778113Y-135408926D01*
X79778108Y-135408920D01*
X79611082Y-135241894D01*
X79417578Y-135106399D01*
X79203492Y-135006570D01*
X79203477Y-135006564D01*
X79164414Y-134996097D01*
X79104754Y-134959732D01*
X79074226Y-134896885D01*
X79082521Y-134827509D01*
X79127007Y-134773632D01*
X79151710Y-134760698D01*
X79232637Y-134729348D01*
X79406041Y-134621981D01*
X79534122Y-134505219D01*
X79556762Y-134484581D01*
X79556764Y-134484579D01*
X79679673Y-134321821D01*
X79770582Y-134139250D01*
X79826397Y-133943083D01*
X79845215Y-133740000D01*
X79826397Y-133536917D01*
X79807464Y-133470375D01*
X79808050Y-133400513D01*
X79839047Y-133348765D01*
X81437821Y-131749991D01*
X81499142Y-131716508D01*
X81568834Y-131721492D01*
X81624767Y-131763364D01*
X81649184Y-131828828D01*
X81649500Y-131837674D01*
X81649500Y-133647870D01*
X81649501Y-133647876D01*
X81655908Y-133707483D01*
X81706202Y-133842328D01*
X81706206Y-133842335D01*
X81792452Y-133957544D01*
X81792455Y-133957547D01*
X81907664Y-134043793D01*
X81907671Y-134043797D01*
X82042517Y-134094091D01*
X82042516Y-134094091D01*
X82049444Y-134094835D01*
X82102127Y-134100500D01*
X83497872Y-134100499D01*
X83557483Y-134094091D01*
X83692331Y-134043796D01*
X83807546Y-133957546D01*
X83893796Y-133842331D01*
X83944091Y-133707483D01*
X83950500Y-133647873D01*
X83950500Y-133224500D01*
X83970185Y-133157461D01*
X84022989Y-133111706D01*
X84074500Y-133100500D01*
X84141324Y-133100500D01*
X84208363Y-133120185D01*
X84229005Y-133136819D01*
X84463181Y-133370995D01*
X84496666Y-133432318D01*
X84499500Y-133458676D01*
X84499500Y-134355331D01*
X84498238Y-134372977D01*
X84494353Y-134399999D01*
X84514834Y-134542456D01*
X84541489Y-134600821D01*
X84574623Y-134673373D01*
X84574627Y-134673378D01*
X84579418Y-134680833D01*
X84576364Y-134682795D01*
X84598235Y-134730663D01*
X84599500Y-134748332D01*
X84599500Y-135548525D01*
X84599501Y-135548535D01*
X84606346Y-135569603D01*
X84610887Y-135588514D01*
X84614354Y-135610400D01*
X84614355Y-135610403D01*
X84624412Y-135630141D01*
X84631857Y-135648114D01*
X84638704Y-135669186D01*
X84651726Y-135687110D01*
X84661890Y-135703696D01*
X84671950Y-135723438D01*
X84692864Y-135744352D01*
X84692893Y-135744383D01*
X85455890Y-136507380D01*
X85455910Y-136507398D01*
X85476560Y-136528049D01*
X85481794Y-136530716D01*
X85532590Y-136578689D01*
X85549500Y-136641200D01*
X85549500Y-136799180D01*
X85555500Y-136844756D01*
X85555502Y-136844763D01*
X85577770Y-136892516D01*
X85602150Y-136944799D01*
X85680201Y-137022850D01*
X85727907Y-137045095D01*
X85780344Y-137091265D01*
X85799500Y-137157476D01*
X85799500Y-137763429D01*
X85799501Y-137763439D01*
X85806346Y-137784507D01*
X85810887Y-137803418D01*
X85814354Y-137825304D01*
X85814355Y-137825307D01*
X85824412Y-137845045D01*
X85831857Y-137863018D01*
X85838071Y-137882143D01*
X85841719Y-137893368D01*
X85838681Y-137894355D01*
X85848499Y-137946716D01*
X85822205Y-138011449D01*
X85792160Y-138038623D01*
X85746312Y-138068087D01*
X85742508Y-138070344D01*
X85696973Y-138095211D01*
X85693559Y-138098625D01*
X85672938Y-138115243D01*
X85668876Y-138117854D01*
X85668867Y-138117861D01*
X85634899Y-138157062D01*
X85631883Y-138160301D01*
X85595210Y-138196973D01*
X85595207Y-138196979D01*
X85592889Y-138201223D01*
X85577788Y-138222973D01*
X85574624Y-138226625D01*
X85574618Y-138226634D01*
X85553071Y-138273815D01*
X85551090Y-138277773D01*
X85526233Y-138323296D01*
X85525208Y-138328009D01*
X85516839Y-138353155D01*
X85514834Y-138357544D01*
X85507451Y-138408892D01*
X85506665Y-138413246D01*
X85495641Y-138463927D01*
X85495985Y-138468743D01*
X85495039Y-138495221D01*
X85494353Y-138499994D01*
X85494353Y-138500002D01*
X85501734Y-138551345D01*
X85502207Y-138555744D01*
X85505909Y-138607486D01*
X85507593Y-138612000D01*
X85514148Y-138637682D01*
X85514834Y-138642455D01*
X85514835Y-138642457D01*
X85536383Y-138689642D01*
X85538071Y-138693716D01*
X85556203Y-138742329D01*
X85559096Y-138746194D01*
X85572617Y-138768983D01*
X85574619Y-138773367D01*
X85574622Y-138773371D01*
X85574623Y-138773373D01*
X85608598Y-138812583D01*
X85611362Y-138816013D01*
X85620775Y-138828588D01*
X85620782Y-138828596D01*
X85631886Y-138839700D01*
X85634896Y-138842932D01*
X85652660Y-138863433D01*
X85668871Y-138882142D01*
X85668874Y-138882145D01*
X85672928Y-138884750D01*
X85693571Y-138901385D01*
X85862715Y-139070529D01*
X85896200Y-139131852D01*
X85891216Y-139201544D01*
X85862717Y-139245889D01*
X85846955Y-139261651D01*
X85846951Y-139261657D01*
X85789352Y-139374698D01*
X85774500Y-139468475D01*
X85774500Y-139831517D01*
X85784411Y-139894091D01*
X85789354Y-139925304D01*
X85846950Y-140038342D01*
X85846952Y-140038344D01*
X85846954Y-140038347D01*
X85936652Y-140128045D01*
X85936654Y-140128046D01*
X85936658Y-140128050D01*
X86049694Y-140185645D01*
X86049698Y-140185647D01*
X86143475Y-140200499D01*
X86143481Y-140200500D01*
X87381518Y-140200499D01*
X87475304Y-140185646D01*
X87489273Y-140178528D01*
X87557938Y-140165632D01*
X87622679Y-140191907D01*
X87662937Y-140249012D01*
X87665768Y-140315039D01*
X87665880Y-140315057D01*
X87665793Y-140315605D01*
X87665931Y-140318818D01*
X87664481Y-140323888D01*
X87649500Y-140418475D01*
X87649500Y-140781517D01*
X87654578Y-140813577D01*
X87664099Y-140873696D01*
X87665881Y-140884943D01*
X87663857Y-140885263D01*
X87665490Y-140942516D01*
X87629407Y-141002347D01*
X87566704Y-141033171D01*
X87497290Y-141025203D01*
X87489280Y-141021475D01*
X87475304Y-141014354D01*
X87475303Y-141014353D01*
X87475300Y-141014352D01*
X87475301Y-141014352D01*
X87381524Y-140999500D01*
X86143482Y-140999500D01*
X86049694Y-141014354D01*
X86007243Y-141035985D01*
X85950948Y-141049500D01*
X85337000Y-141049500D01*
X85269961Y-141029815D01*
X85224206Y-140977011D01*
X85213000Y-140925500D01*
X85213000Y-140759107D01*
X85232685Y-140692068D01*
X85262685Y-140659843D01*
X85332546Y-140607546D01*
X85418796Y-140492331D01*
X85469091Y-140357483D01*
X85475500Y-140297873D01*
X85475499Y-139302128D01*
X85469486Y-139246194D01*
X85469091Y-139242516D01*
X85418797Y-139107671D01*
X85418793Y-139107664D01*
X85332547Y-138992455D01*
X85332544Y-138992452D01*
X85217335Y-138906206D01*
X85217328Y-138906202D01*
X85082486Y-138855910D01*
X85082485Y-138855909D01*
X85082483Y-138855909D01*
X85022873Y-138849500D01*
X85022863Y-138849500D01*
X84402129Y-138849500D01*
X84402123Y-138849501D01*
X84342516Y-138855908D01*
X84207671Y-138906202D01*
X84207664Y-138906206D01*
X84092455Y-138992452D01*
X84092452Y-138992455D01*
X84006206Y-139107664D01*
X84006202Y-139107671D01*
X83955908Y-139242517D01*
X83949501Y-139302116D01*
X83949501Y-139302123D01*
X83949500Y-139302135D01*
X83949500Y-140297870D01*
X83949501Y-140297876D01*
X83955908Y-140357483D01*
X84006202Y-140492328D01*
X84006206Y-140492335D01*
X84092451Y-140607543D01*
X84092452Y-140607544D01*
X84092454Y-140607546D01*
X84162312Y-140659842D01*
X84204182Y-140715774D01*
X84212000Y-140759107D01*
X84212000Y-141145358D01*
X84209167Y-141171706D01*
X84208141Y-141176427D01*
X84208141Y-141176429D01*
X84208141Y-141176430D01*
X84211842Y-141228169D01*
X84212000Y-141232594D01*
X84212000Y-141248299D01*
X84214234Y-141263843D01*
X84214707Y-141268240D01*
X84218409Y-141319985D01*
X84220093Y-141324500D01*
X84226648Y-141350182D01*
X84227334Y-141354955D01*
X84227335Y-141354957D01*
X84248883Y-141402142D01*
X84250571Y-141406216D01*
X84268703Y-141454829D01*
X84271596Y-141458694D01*
X84285117Y-141481483D01*
X84287119Y-141485867D01*
X84287122Y-141485871D01*
X84287123Y-141485873D01*
X84321098Y-141525083D01*
X84323862Y-141528513D01*
X84333275Y-141541088D01*
X84333282Y-141541096D01*
X84344386Y-141552200D01*
X84347396Y-141555432D01*
X84370070Y-141581600D01*
X84381371Y-141594642D01*
X84381374Y-141594645D01*
X84385428Y-141597250D01*
X84406071Y-141613885D01*
X84648614Y-141856428D01*
X84665246Y-141877066D01*
X84667854Y-141881125D01*
X84667857Y-141881128D01*
X84707067Y-141915103D01*
X84710283Y-141918097D01*
X84721407Y-141929221D01*
X84721412Y-141929224D01*
X84721417Y-141929229D01*
X84733979Y-141938633D01*
X84737427Y-141941411D01*
X84765166Y-141965446D01*
X84776627Y-141975377D01*
X84781010Y-141977379D01*
X84803807Y-141990905D01*
X84807669Y-141993796D01*
X84856295Y-142011932D01*
X84860351Y-142013612D01*
X84879949Y-142022563D01*
X84907540Y-142035164D01*
X84907541Y-142035164D01*
X84907543Y-142035165D01*
X84912312Y-142035850D01*
X84938002Y-142042407D01*
X84942517Y-142044091D01*
X84994258Y-142047791D01*
X84998657Y-142048264D01*
X85014201Y-142050500D01*
X85029906Y-142050500D01*
X85034328Y-142050657D01*
X85043622Y-142051322D01*
X85050519Y-142051816D01*
X85070581Y-142059299D01*
X85077856Y-142055658D01*
X85083164Y-142054991D01*
X85086071Y-142054358D01*
X85086073Y-142054359D01*
X85090785Y-142053334D01*
X85117143Y-142050500D01*
X85950948Y-142050500D01*
X86007242Y-142064015D01*
X86049698Y-142085647D01*
X86143475Y-142100499D01*
X86143481Y-142100500D01*
X87381518Y-142100499D01*
X87475304Y-142085646D01*
X87588342Y-142028050D01*
X87678050Y-141938342D01*
X87735646Y-141825304D01*
X87735646Y-141825302D01*
X87735647Y-141825301D01*
X87750499Y-141731524D01*
X87750500Y-141731519D01*
X87750499Y-141368482D01*
X87735646Y-141274696D01*
X87735645Y-141274694D01*
X87734119Y-141265057D01*
X87736142Y-141264736D01*
X87734506Y-141207494D01*
X87770584Y-141147660D01*
X87833284Y-141116830D01*
X87902698Y-141124792D01*
X87910708Y-141128519D01*
X87924696Y-141135646D01*
X87924698Y-141135646D01*
X87924700Y-141135647D01*
X87924698Y-141135647D01*
X88018477Y-141150500D01*
X88022721Y-141150834D01*
X88088011Y-141175713D01*
X88129486Y-141231942D01*
X88137000Y-141274452D01*
X88137000Y-142570358D01*
X88134167Y-142596706D01*
X88133141Y-142601427D01*
X88136579Y-142649500D01*
X88136842Y-142653169D01*
X88137000Y-142657594D01*
X88137000Y-142673299D01*
X88139234Y-142688843D01*
X88139707Y-142693240D01*
X88143409Y-142744985D01*
X88145093Y-142749500D01*
X88151648Y-142775182D01*
X88152334Y-142779955D01*
X88152335Y-142779957D01*
X88173883Y-142827142D01*
X88175571Y-142831216D01*
X88193703Y-142879829D01*
X88196596Y-142883694D01*
X88210117Y-142906483D01*
X88212119Y-142910867D01*
X88212122Y-142910871D01*
X88212123Y-142910873D01*
X88246098Y-142950083D01*
X88248858Y-142953508D01*
X88253493Y-142959700D01*
X88258275Y-142966088D01*
X88258282Y-142966096D01*
X88269386Y-142977200D01*
X88272396Y-142980432D01*
X88290609Y-143001451D01*
X88306371Y-143019642D01*
X88306374Y-143019645D01*
X88310428Y-143022250D01*
X88331071Y-143038885D01*
X88748614Y-143456428D01*
X88765246Y-143477066D01*
X88767854Y-143481125D01*
X88767858Y-143481129D01*
X88807055Y-143515093D01*
X88810296Y-143518110D01*
X88821396Y-143529211D01*
X88821401Y-143529215D01*
X88821406Y-143529220D01*
X88833979Y-143538631D01*
X88837419Y-143541402D01*
X88876627Y-143575377D01*
X88881012Y-143577379D01*
X88903813Y-143590908D01*
X88907669Y-143593795D01*
X88937204Y-143604811D01*
X88956269Y-143611922D01*
X88960359Y-143613617D01*
X88991081Y-143627647D01*
X89007543Y-143635165D01*
X89012316Y-143635851D01*
X89038004Y-143642408D01*
X89042517Y-143644091D01*
X89094245Y-143647790D01*
X89098652Y-143648264D01*
X89114200Y-143650500D01*
X89114201Y-143650500D01*
X89129915Y-143650500D01*
X89134337Y-143650657D01*
X89186073Y-143654358D01*
X89189302Y-143653655D01*
X89190781Y-143653334D01*
X89217138Y-143650500D01*
X91032857Y-143650500D01*
X91059215Y-143653334D01*
X91063927Y-143654359D01*
X91115671Y-143650657D01*
X91120094Y-143650500D01*
X91135799Y-143650500D01*
X91151342Y-143648264D01*
X91155740Y-143647791D01*
X91207483Y-143644091D01*
X91211992Y-143642408D01*
X91237685Y-143635850D01*
X91242457Y-143635165D01*
X91289646Y-143613613D01*
X91293728Y-143611922D01*
X91328383Y-143598998D01*
X91342329Y-143593797D01*
X91342329Y-143593796D01*
X91342331Y-143593796D01*
X91346189Y-143590907D01*
X91368995Y-143577375D01*
X91373373Y-143575377D01*
X91412564Y-143541416D01*
X91416014Y-143538637D01*
X91420020Y-143535638D01*
X91428593Y-143529221D01*
X91439720Y-143518092D01*
X91442925Y-143515109D01*
X91482143Y-143481128D01*
X91484751Y-143477068D01*
X91501381Y-143456431D01*
X91712321Y-143245491D01*
X91773641Y-143212009D01*
X91843333Y-143216993D01*
X91887680Y-143245494D01*
X95163181Y-146520995D01*
X95196666Y-146582318D01*
X95199500Y-146608676D01*
X95199500Y-146900500D01*
X95179815Y-146967539D01*
X95127011Y-147013294D01*
X95075500Y-147024500D01*
X94825323Y-147024500D01*
X94752264Y-147039032D01*
X94752260Y-147039033D01*
X94669399Y-147094399D01*
X94614033Y-147177260D01*
X94614032Y-147177264D01*
X94599500Y-147250321D01*
X94599500Y-148557324D01*
X94579815Y-148624363D01*
X94527011Y-148670118D01*
X94457853Y-148680062D01*
X94394297Y-148651037D01*
X94387819Y-148645005D01*
X94336185Y-148593371D01*
X94319550Y-148572728D01*
X94316945Y-148568674D01*
X94316942Y-148568671D01*
X94309947Y-148562610D01*
X94277732Y-148534696D01*
X94274500Y-148531686D01*
X94263396Y-148520582D01*
X94263388Y-148520575D01*
X94250813Y-148511162D01*
X94247383Y-148508398D01*
X94208173Y-148474423D01*
X94208171Y-148474422D01*
X94208167Y-148474419D01*
X94203783Y-148472417D01*
X94180994Y-148458896D01*
X94177132Y-148456005D01*
X94177131Y-148456004D01*
X94177129Y-148456003D01*
X94128516Y-148437871D01*
X94124442Y-148436183D01*
X94077257Y-148414635D01*
X94077255Y-148414634D01*
X94072482Y-148413948D01*
X94046800Y-148407393D01*
X94042285Y-148405709D01*
X93990540Y-148402007D01*
X93986143Y-148401534D01*
X93970599Y-148399300D01*
X93954894Y-148399300D01*
X93950471Y-148399142D01*
X93932883Y-148397884D01*
X93898729Y-148395441D01*
X93898725Y-148395441D01*
X93894015Y-148396466D01*
X93867657Y-148399300D01*
X92284933Y-148399300D01*
X92217894Y-148379615D01*
X92216044Y-148378403D01*
X92149042Y-148333635D01*
X92149035Y-148333632D01*
X92075977Y-148319100D01*
X92075974Y-148319100D01*
X89867626Y-148319100D01*
X89867623Y-148319100D01*
X89794564Y-148333632D01*
X89794560Y-148333633D01*
X89711699Y-148388999D01*
X89656333Y-148471860D01*
X89656332Y-148471864D01*
X89641800Y-148544921D01*
X89641800Y-149254678D01*
X89656332Y-149327735D01*
X89656333Y-149327739D01*
X89656334Y-149327740D01*
X89711699Y-149410601D01*
X89794557Y-149465964D01*
X89794560Y-149465966D01*
X89794564Y-149465967D01*
X89867621Y-149480499D01*
X89867624Y-149480500D01*
X89867626Y-149480500D01*
X92075976Y-149480500D01*
X92075977Y-149480499D01*
X92149040Y-149465966D01*
X92192962Y-149436619D01*
X92216044Y-149421197D01*
X92282721Y-149400320D01*
X92284933Y-149400300D01*
X93676124Y-149400300D01*
X93743163Y-149419985D01*
X93763805Y-149436619D01*
X94600949Y-150273763D01*
X94634434Y-150335086D01*
X94632535Y-150395377D01*
X94613602Y-150461919D01*
X94594785Y-150664999D01*
X94594785Y-150665000D01*
X94613602Y-150868082D01*
X94669417Y-151064247D01*
X94669422Y-151064260D01*
X94760327Y-151246821D01*
X94883237Y-151409581D01*
X95033958Y-151546980D01*
X95033960Y-151546982D01*
X95133141Y-151608392D01*
X95207363Y-151654348D01*
X95397544Y-151728024D01*
X95598024Y-151765500D01*
X95598026Y-151765500D01*
X95801974Y-151765500D01*
X95801976Y-151765500D01*
X96002456Y-151728024D01*
X96192637Y-151654348D01*
X96219040Y-151638000D01*
X97954785Y-151638000D01*
X97973602Y-151841082D01*
X98029417Y-152037247D01*
X98029422Y-152037260D01*
X98120327Y-152219821D01*
X98243237Y-152382581D01*
X98393958Y-152519980D01*
X98393960Y-152519982D01*
X98493141Y-152581392D01*
X98567363Y-152627348D01*
X98757544Y-152701024D01*
X98958024Y-152738500D01*
X98958026Y-152738500D01*
X99161974Y-152738500D01*
X99161976Y-152738500D01*
X99362456Y-152701024D01*
X99552637Y-152627348D01*
X99726041Y-152519981D01*
X99876764Y-152382579D01*
X99999673Y-152219821D01*
X100090582Y-152037250D01*
X100146397Y-151841083D01*
X100165215Y-151638000D01*
X100146397Y-151434917D01*
X100090582Y-151238750D01*
X100073627Y-151204700D01*
X100004646Y-151066167D01*
X99999673Y-151056179D01*
X99914804Y-150943794D01*
X99876762Y-150893418D01*
X99726041Y-150756019D01*
X99726039Y-150756017D01*
X99552642Y-150648655D01*
X99552635Y-150648651D01*
X99457546Y-150611814D01*
X99362456Y-150574976D01*
X99161976Y-150537500D01*
X98958024Y-150537500D01*
X98757544Y-150574976D01*
X98757541Y-150574976D01*
X98757541Y-150574977D01*
X98567364Y-150648651D01*
X98567357Y-150648655D01*
X98393960Y-150756017D01*
X98393958Y-150756019D01*
X98243237Y-150893418D01*
X98120327Y-151056178D01*
X98029422Y-151238739D01*
X98029417Y-151238752D01*
X97973602Y-151434917D01*
X97954785Y-151637999D01*
X97954785Y-151638000D01*
X96219040Y-151638000D01*
X96366041Y-151546981D01*
X96516764Y-151409579D01*
X96639673Y-151246821D01*
X96730582Y-151064250D01*
X96786397Y-150868083D01*
X96805215Y-150665000D01*
X96803700Y-150648655D01*
X96786397Y-150461917D01*
X96730582Y-150265750D01*
X96639673Y-150083179D01*
X96516764Y-149920421D01*
X96516762Y-149920418D01*
X96366041Y-149783019D01*
X96366039Y-149783017D01*
X96192642Y-149675655D01*
X96192635Y-149675651D01*
X96097546Y-149638814D01*
X96002456Y-149601976D01*
X95801976Y-149564500D01*
X95598024Y-149564500D01*
X95553524Y-149572818D01*
X95417345Y-149598274D01*
X95347830Y-149591243D01*
X95306880Y-149564066D01*
X95179995Y-149437181D01*
X95146510Y-149375858D01*
X95151494Y-149306166D01*
X95193366Y-149250233D01*
X95258830Y-149225816D01*
X95267676Y-149225500D01*
X96574676Y-149225500D01*
X96574677Y-149225499D01*
X96647740Y-149210966D01*
X96730601Y-149155601D01*
X96769088Y-149098000D01*
X97954785Y-149098000D01*
X97973602Y-149301082D01*
X98029417Y-149497247D01*
X98029422Y-149497260D01*
X98120327Y-149679821D01*
X98243237Y-149842581D01*
X98393958Y-149979980D01*
X98393960Y-149979982D01*
X98425451Y-149999480D01*
X98567363Y-150087348D01*
X98757544Y-150161024D01*
X98958024Y-150198500D01*
X98958026Y-150198500D01*
X99161974Y-150198500D01*
X99161976Y-150198500D01*
X99362456Y-150161024D01*
X99552637Y-150087348D01*
X99726041Y-149979981D01*
X99876764Y-149842579D01*
X99999673Y-149679821D01*
X100090582Y-149497250D01*
X100146397Y-149301083D01*
X100165215Y-149098000D01*
X100153517Y-148971761D01*
X100146397Y-148894917D01*
X100126231Y-148824043D01*
X100090582Y-148698750D01*
X100084305Y-148686145D01*
X100025809Y-148568667D01*
X99999673Y-148516179D01*
X99915237Y-148404368D01*
X99876762Y-148353418D01*
X99726041Y-148216019D01*
X99726039Y-148216017D01*
X99552642Y-148108655D01*
X99552635Y-148108651D01*
X99457546Y-148071814D01*
X99362456Y-148034976D01*
X99161976Y-147997500D01*
X98958024Y-147997500D01*
X98757544Y-148034976D01*
X98757541Y-148034976D01*
X98757541Y-148034977D01*
X98567364Y-148108651D01*
X98567357Y-148108655D01*
X98393960Y-148216017D01*
X98393958Y-148216019D01*
X98243237Y-148353418D01*
X98120327Y-148516178D01*
X98029422Y-148698739D01*
X98029417Y-148698752D01*
X97973602Y-148894917D01*
X97954785Y-149097999D01*
X97954785Y-149098000D01*
X96769088Y-149098000D01*
X96785966Y-149072740D01*
X96800500Y-148999674D01*
X96800500Y-147250326D01*
X96800500Y-147250323D01*
X96800499Y-147250321D01*
X96785967Y-147177264D01*
X96785966Y-147177260D01*
X96760950Y-147139821D01*
X96730601Y-147094399D01*
X96657546Y-147045586D01*
X96647739Y-147039033D01*
X96647735Y-147039032D01*
X96574677Y-147024500D01*
X96574674Y-147024500D01*
X96324500Y-147024500D01*
X96257461Y-147004815D01*
X96211706Y-146952011D01*
X96200500Y-146900500D01*
X96200500Y-146558000D01*
X97954785Y-146558000D01*
X97973602Y-146761082D01*
X98029417Y-146957247D01*
X98029422Y-146957260D01*
X98120327Y-147139821D01*
X98243237Y-147302581D01*
X98393958Y-147439980D01*
X98393960Y-147439982D01*
X98419808Y-147455986D01*
X98567363Y-147547348D01*
X98757544Y-147621024D01*
X98958024Y-147658500D01*
X98958026Y-147658500D01*
X99161974Y-147658500D01*
X99161976Y-147658500D01*
X99362456Y-147621024D01*
X99552637Y-147547348D01*
X99726041Y-147439981D01*
X99876764Y-147302579D01*
X99999673Y-147139821D01*
X100090582Y-146957250D01*
X100146397Y-146761083D01*
X100165215Y-146558000D01*
X100165151Y-146557314D01*
X100146397Y-146354917D01*
X100134812Y-146314201D01*
X100090582Y-146158750D01*
X100089345Y-146156266D01*
X100028454Y-146033979D01*
X99999673Y-145976179D01*
X99940704Y-145898091D01*
X99876762Y-145813418D01*
X99726041Y-145676019D01*
X99726039Y-145676017D01*
X99552642Y-145568655D01*
X99552635Y-145568651D01*
X99371041Y-145498302D01*
X99362456Y-145494976D01*
X99161976Y-145457500D01*
X98958024Y-145457500D01*
X98757544Y-145494976D01*
X98757541Y-145494976D01*
X98757541Y-145494977D01*
X98567364Y-145568651D01*
X98567357Y-145568655D01*
X98393960Y-145676017D01*
X98393958Y-145676019D01*
X98243237Y-145813418D01*
X98120327Y-145976178D01*
X98029422Y-146158739D01*
X98029417Y-146158752D01*
X97973602Y-146354917D01*
X97954785Y-146557999D01*
X97954785Y-146558000D01*
X96200500Y-146558000D01*
X96200500Y-146417143D01*
X96203334Y-146390785D01*
X96204359Y-146386073D01*
X96200658Y-146334329D01*
X96200500Y-146329904D01*
X96200500Y-146314201D01*
X96198264Y-146298657D01*
X96197791Y-146294254D01*
X96194091Y-146242517D01*
X96192407Y-146238002D01*
X96185850Y-146212312D01*
X96185165Y-146207543D01*
X96163612Y-146160351D01*
X96161932Y-146156295D01*
X96143796Y-146107669D01*
X96140905Y-146103807D01*
X96127379Y-146081010D01*
X96125377Y-146076627D01*
X96109080Y-146057819D01*
X96091411Y-146037427D01*
X96088633Y-146033979D01*
X96079229Y-146021417D01*
X96079224Y-146021412D01*
X96079221Y-146021407D01*
X96068097Y-146010283D01*
X96065103Y-146007067D01*
X96031128Y-145967857D01*
X96031125Y-145967854D01*
X96027066Y-145965246D01*
X96006428Y-145948614D01*
X94075814Y-144018000D01*
X97954785Y-144018000D01*
X97973602Y-144221082D01*
X98029417Y-144417247D01*
X98029422Y-144417260D01*
X98120327Y-144599821D01*
X98243237Y-144762581D01*
X98393958Y-144899980D01*
X98393960Y-144899982D01*
X98449777Y-144934542D01*
X98567363Y-145007348D01*
X98757544Y-145081024D01*
X98958024Y-145118500D01*
X98958026Y-145118500D01*
X99161974Y-145118500D01*
X99161976Y-145118500D01*
X99362456Y-145081024D01*
X99552637Y-145007348D01*
X99726041Y-144899981D01*
X99876764Y-144762579D01*
X99999673Y-144599821D01*
X100090582Y-144417250D01*
X100146397Y-144221083D01*
X100165215Y-144018000D01*
X100157389Y-143933547D01*
X100146397Y-143814917D01*
X100128158Y-143750816D01*
X100090582Y-143618750D01*
X100090070Y-143617722D01*
X100043089Y-143523371D01*
X99999673Y-143436179D01*
X99913420Y-143321961D01*
X99876762Y-143273418D01*
X99726041Y-143136019D01*
X99726039Y-143136017D01*
X99552642Y-143028655D01*
X99552635Y-143028651D01*
X99391152Y-142966093D01*
X99362456Y-142954976D01*
X99161976Y-142917500D01*
X98958024Y-142917500D01*
X98757544Y-142954976D01*
X98757541Y-142954976D01*
X98757541Y-142954977D01*
X98567364Y-143028651D01*
X98567357Y-143028655D01*
X98393960Y-143136017D01*
X98393958Y-143136019D01*
X98243237Y-143273418D01*
X98120327Y-143436178D01*
X98029422Y-143618739D01*
X98029417Y-143618752D01*
X97973602Y-143814917D01*
X97954785Y-144017999D01*
X97954785Y-144018000D01*
X94075814Y-144018000D01*
X92524894Y-142467080D01*
X92491409Y-142405757D01*
X92496393Y-142336065D01*
X92538265Y-142280132D01*
X92603729Y-142255715D01*
X92672002Y-142270567D01*
X92679615Y-142275084D01*
X92681623Y-142276374D01*
X92681624Y-142276374D01*
X92681627Y-142276377D01*
X92686010Y-142278379D01*
X92708807Y-142291905D01*
X92712669Y-142294796D01*
X92761295Y-142312932D01*
X92765351Y-142314612D01*
X92787457Y-142324708D01*
X92812540Y-142336164D01*
X92812541Y-142336164D01*
X92812543Y-142336165D01*
X92817312Y-142336850D01*
X92843002Y-142343407D01*
X92847517Y-142345091D01*
X92899258Y-142348791D01*
X92903657Y-142349264D01*
X92919201Y-142351500D01*
X92934906Y-142351500D01*
X92939328Y-142351657D01*
X92991073Y-142355359D01*
X92995785Y-142354334D01*
X93022143Y-142351500D01*
X95054167Y-142351500D01*
X95080525Y-142354334D01*
X95085237Y-142355359D01*
X95122710Y-142352678D01*
X97959500Y-142352678D01*
X97974032Y-142425735D01*
X97974033Y-142425739D01*
X97989854Y-142449417D01*
X98029399Y-142508601D01*
X98084942Y-142545713D01*
X98112260Y-142563966D01*
X98112264Y-142563967D01*
X98185321Y-142578499D01*
X98185324Y-142578500D01*
X98185326Y-142578500D01*
X99934676Y-142578500D01*
X99934677Y-142578499D01*
X100007740Y-142563966D01*
X100090601Y-142508601D01*
X100145966Y-142425740D01*
X100160500Y-142352674D01*
X100160500Y-140603326D01*
X100160500Y-140603323D01*
X100160499Y-140603321D01*
X100145967Y-140530264D01*
X100145966Y-140530260D01*
X100131165Y-140508109D01*
X100090601Y-140447399D01*
X100007740Y-140392034D01*
X100007739Y-140392033D01*
X100007735Y-140392032D01*
X99934677Y-140377500D01*
X99934674Y-140377500D01*
X98185326Y-140377500D01*
X98185323Y-140377500D01*
X98112264Y-140392032D01*
X98112260Y-140392033D01*
X98029399Y-140447399D01*
X97974033Y-140530260D01*
X97974032Y-140530264D01*
X97959500Y-140603321D01*
X97959500Y-142352678D01*
X95122710Y-142352678D01*
X95136981Y-142351657D01*
X95141404Y-142351500D01*
X95157109Y-142351500D01*
X95172652Y-142349264D01*
X95177050Y-142348791D01*
X95228793Y-142345091D01*
X95233302Y-142343408D01*
X95258995Y-142336850D01*
X95263767Y-142336165D01*
X95310956Y-142314613D01*
X95315046Y-142312920D01*
X95351026Y-142299501D01*
X95363639Y-142294797D01*
X95363639Y-142294796D01*
X95363641Y-142294796D01*
X95367499Y-142291907D01*
X95390305Y-142278375D01*
X95394683Y-142276377D01*
X95433874Y-142242416D01*
X95437324Y-142239637D01*
X95440240Y-142237453D01*
X95449903Y-142230221D01*
X95461030Y-142219092D01*
X95464235Y-142216109D01*
X95503453Y-142182128D01*
X95506061Y-142178068D01*
X95522691Y-142157431D01*
X96806431Y-140873691D01*
X96827068Y-140857061D01*
X96831128Y-140854453D01*
X96865109Y-140815235D01*
X96868092Y-140812030D01*
X96879221Y-140800903D01*
X96888637Y-140788324D01*
X96891417Y-140784874D01*
X96900518Y-140774371D01*
X96925377Y-140745683D01*
X96927375Y-140741305D01*
X96940907Y-140718499D01*
X96943796Y-140714641D01*
X96950549Y-140696536D01*
X96961919Y-140666048D01*
X96963614Y-140661955D01*
X96964580Y-140659840D01*
X96985165Y-140614767D01*
X96985850Y-140609995D01*
X96992409Y-140584302D01*
X96994091Y-140579793D01*
X96997791Y-140528050D01*
X96998265Y-140523650D01*
X97000500Y-140508109D01*
X97000500Y-140492404D01*
X97000658Y-140487979D01*
X97004359Y-140436237D01*
X97003332Y-140431516D01*
X97000500Y-140405168D01*
X97000500Y-139099499D01*
X97020185Y-139032460D01*
X97057643Y-139000002D01*
X98194353Y-139000002D01*
X98201734Y-139051345D01*
X98202207Y-139055744D01*
X98205909Y-139107486D01*
X98207593Y-139112000D01*
X98214148Y-139137682D01*
X98214834Y-139142455D01*
X98214835Y-139142457D01*
X98236383Y-139189642D01*
X98238071Y-139193716D01*
X98256204Y-139242331D01*
X98259096Y-139246194D01*
X98272617Y-139268983D01*
X98274619Y-139273367D01*
X98274622Y-139273371D01*
X98274623Y-139273373D01*
X98308598Y-139312583D01*
X98311362Y-139316013D01*
X98320775Y-139328588D01*
X98320782Y-139328596D01*
X98331886Y-139339700D01*
X98334896Y-139342932D01*
X98362419Y-139374696D01*
X98368871Y-139382142D01*
X98368874Y-139382145D01*
X98372928Y-139384750D01*
X98393571Y-139401385D01*
X98448614Y-139456428D01*
X98465246Y-139477066D01*
X98467854Y-139481125D01*
X98467857Y-139481128D01*
X98507067Y-139515103D01*
X98510283Y-139518097D01*
X98521407Y-139529221D01*
X98521412Y-139529224D01*
X98521417Y-139529229D01*
X98533979Y-139538633D01*
X98537427Y-139541411D01*
X98567947Y-139567856D01*
X98576627Y-139575377D01*
X98581010Y-139577379D01*
X98603807Y-139590905D01*
X98607669Y-139593796D01*
X98656295Y-139611932D01*
X98660351Y-139613612D01*
X98672452Y-139619139D01*
X98707540Y-139635164D01*
X98707541Y-139635164D01*
X98707543Y-139635165D01*
X98712312Y-139635850D01*
X98738002Y-139642407D01*
X98742517Y-139644091D01*
X98794258Y-139647791D01*
X98798657Y-139648264D01*
X98814201Y-139650500D01*
X98829906Y-139650500D01*
X98834328Y-139650657D01*
X98886073Y-139654359D01*
X98890785Y-139653334D01*
X98917143Y-139650500D01*
X99125249Y-139650500D01*
X99192288Y-139670185D01*
X99224515Y-139700188D01*
X99267451Y-139757542D01*
X99267454Y-139757546D01*
X99267457Y-139757548D01*
X99382664Y-139843793D01*
X99382671Y-139843797D01*
X99517517Y-139894091D01*
X99517516Y-139894091D01*
X99524444Y-139894835D01*
X99577127Y-139900500D01*
X100622872Y-139900499D01*
X100682483Y-139894091D01*
X100817331Y-139843796D01*
X100932546Y-139757546D01*
X101018796Y-139642331D01*
X101069091Y-139507483D01*
X101075500Y-139447873D01*
X101075499Y-138852128D01*
X101069091Y-138792517D01*
X101060313Y-138768983D01*
X101018797Y-138657671D01*
X101018793Y-138657664D01*
X100932547Y-138542455D01*
X100932544Y-138542452D01*
X100817335Y-138456206D01*
X100817328Y-138456202D01*
X100682482Y-138405908D01*
X100682483Y-138405908D01*
X100622883Y-138399501D01*
X100622881Y-138399500D01*
X100622873Y-138399500D01*
X100622864Y-138399500D01*
X99577129Y-138399500D01*
X99577123Y-138399501D01*
X99517516Y-138405908D01*
X99382671Y-138456202D01*
X99382664Y-138456206D01*
X99267457Y-138542451D01*
X99267451Y-138542457D01*
X99224515Y-138599812D01*
X99168581Y-138641682D01*
X99125249Y-138649500D01*
X99113895Y-138649500D01*
X99046856Y-138629815D01*
X99032688Y-138619210D01*
X99031131Y-138617861D01*
X99031128Y-138617857D01*
X98987477Y-138589804D01*
X98983853Y-138587287D01*
X98969543Y-138576575D01*
X98942331Y-138556204D01*
X98942329Y-138556203D01*
X98937804Y-138554515D01*
X98914112Y-138542655D01*
X98910056Y-138540049D01*
X98910053Y-138540047D01*
X98860270Y-138525429D01*
X98856095Y-138524040D01*
X98807483Y-138505909D01*
X98802671Y-138505564D01*
X98776589Y-138500858D01*
X98771964Y-138499500D01*
X98771961Y-138499500D01*
X98720094Y-138499500D01*
X98715671Y-138499342D01*
X98698083Y-138498084D01*
X98663929Y-138495641D01*
X98663925Y-138495641D01*
X98659215Y-138496666D01*
X98632857Y-138499500D01*
X98628039Y-138499500D01*
X98578276Y-138514109D01*
X98573991Y-138515203D01*
X98523302Y-138526231D01*
X98523289Y-138526236D01*
X98519057Y-138528547D01*
X98494576Y-138538687D01*
X98489947Y-138540047D01*
X98489944Y-138540048D01*
X98446311Y-138568088D01*
X98442507Y-138570345D01*
X98396973Y-138595211D01*
X98393559Y-138598625D01*
X98372938Y-138615243D01*
X98368876Y-138617854D01*
X98368867Y-138617861D01*
X98334899Y-138657062D01*
X98331883Y-138660301D01*
X98295210Y-138696973D01*
X98295207Y-138696979D01*
X98292889Y-138701223D01*
X98277788Y-138722973D01*
X98274624Y-138726625D01*
X98274618Y-138726634D01*
X98253071Y-138773815D01*
X98251090Y-138777773D01*
X98226233Y-138823296D01*
X98225208Y-138828009D01*
X98216839Y-138853155D01*
X98214834Y-138857544D01*
X98207451Y-138908892D01*
X98206665Y-138913246D01*
X98195641Y-138963927D01*
X98195985Y-138968743D01*
X98195039Y-138995221D01*
X98194353Y-138999994D01*
X98194353Y-139000002D01*
X97057643Y-139000002D01*
X97072989Y-138986705D01*
X97124500Y-138975499D01*
X97172871Y-138975499D01*
X97172872Y-138975499D01*
X97232483Y-138969091D01*
X97367331Y-138918796D01*
X97482546Y-138832546D01*
X97568796Y-138717331D01*
X97619091Y-138582483D01*
X97625500Y-138522873D01*
X97625499Y-137802128D01*
X97619091Y-137742517D01*
X97606024Y-137707483D01*
X97568797Y-137607671D01*
X97568793Y-137607664D01*
X97482547Y-137492455D01*
X97482544Y-137492452D01*
X97367335Y-137406206D01*
X97367328Y-137406202D01*
X97232482Y-137355908D01*
X97232483Y-137355908D01*
X97172883Y-137349501D01*
X97172881Y-137349500D01*
X97172873Y-137349500D01*
X97172865Y-137349500D01*
X96948881Y-137349500D01*
X96881842Y-137329815D01*
X96848576Y-137298403D01*
X96848286Y-137298004D01*
X96838104Y-137281392D01*
X96828050Y-137261658D01*
X96738342Y-137171950D01*
X96433650Y-136867257D01*
X96400165Y-136805934D01*
X96405149Y-136736242D01*
X96447021Y-136680309D01*
X96483016Y-136661644D01*
X96484090Y-136661296D01*
X96502026Y-136648263D01*
X96518588Y-136638114D01*
X96538342Y-136628050D01*
X96553834Y-136612557D01*
X96553841Y-136612552D01*
X96812552Y-136353841D01*
X96812557Y-136353834D01*
X96828050Y-136338342D01*
X96838109Y-136318598D01*
X96848269Y-136302018D01*
X96861296Y-136284089D01*
X96868142Y-136263017D01*
X96875588Y-136245043D01*
X96885645Y-136225305D01*
X96885646Y-136225304D01*
X96889112Y-136203416D01*
X96893651Y-136184510D01*
X96900500Y-136163433D01*
X96900500Y-136163428D01*
X96901820Y-136155099D01*
X96931751Y-136091965D01*
X96991063Y-136055035D01*
X97024293Y-136050499D01*
X97172871Y-136050499D01*
X97172872Y-136050499D01*
X97232483Y-136044091D01*
X97367331Y-135993796D01*
X97428688Y-135947864D01*
X97458920Y-135925233D01*
X97524385Y-135900816D01*
X97533231Y-135900500D01*
X97941324Y-135900500D01*
X98008363Y-135920185D01*
X98029005Y-135936819D01*
X98048614Y-135956428D01*
X98065246Y-135977066D01*
X98067854Y-135981125D01*
X98067858Y-135981129D01*
X98107055Y-136015093D01*
X98110296Y-136018110D01*
X98121396Y-136029211D01*
X98121401Y-136029215D01*
X98121406Y-136029220D01*
X98133979Y-136038631D01*
X98137419Y-136041402D01*
X98176627Y-136075377D01*
X98181012Y-136077379D01*
X98203813Y-136090908D01*
X98207669Y-136093795D01*
X98251211Y-136110035D01*
X98256269Y-136111922D01*
X98260359Y-136113617D01*
X98291081Y-136127647D01*
X98307543Y-136135165D01*
X98312316Y-136135851D01*
X98338004Y-136142408D01*
X98342517Y-136144091D01*
X98394245Y-136147790D01*
X98398652Y-136148264D01*
X98414200Y-136150500D01*
X98414201Y-136150500D01*
X98429915Y-136150500D01*
X98434337Y-136150657D01*
X98486073Y-136154358D01*
X98489302Y-136153655D01*
X98490781Y-136153334D01*
X98517138Y-136150500D01*
X99125249Y-136150500D01*
X99192288Y-136170185D01*
X99224515Y-136200188D01*
X99243318Y-136225305D01*
X99267454Y-136257546D01*
X99267457Y-136257548D01*
X99389769Y-136349112D01*
X99388070Y-136351381D01*
X99427264Y-136390580D01*
X99442111Y-136458854D01*
X99417690Y-136524317D01*
X99388689Y-136549445D01*
X99389769Y-136550888D01*
X99267455Y-136642452D01*
X99267452Y-136642455D01*
X99181206Y-136757664D01*
X99181202Y-136757671D01*
X99140330Y-136867257D01*
X99130909Y-136892517D01*
X99124500Y-136952127D01*
X99124500Y-136952134D01*
X99124500Y-136952135D01*
X99124500Y-137547870D01*
X99124501Y-137547876D01*
X99130908Y-137607483D01*
X99181202Y-137742328D01*
X99181206Y-137742335D01*
X99267452Y-137857544D01*
X99267455Y-137857547D01*
X99382664Y-137943793D01*
X99382671Y-137943797D01*
X99517517Y-137994091D01*
X99517516Y-137994091D01*
X99524444Y-137994835D01*
X99577127Y-138000500D01*
X100622872Y-138000499D01*
X100682483Y-137994091D01*
X100817331Y-137943796D01*
X100932546Y-137857546D01*
X101018796Y-137742331D01*
X101069091Y-137607483D01*
X101075500Y-137547873D01*
X101075499Y-136952128D01*
X101069091Y-136892517D01*
X101051277Y-136844756D01*
X101018797Y-136757671D01*
X101018793Y-136757664D01*
X100932547Y-136642455D01*
X100932544Y-136642452D01*
X100810231Y-136550888D01*
X100811930Y-136548617D01*
X100772743Y-136509435D01*
X100757886Y-136441163D01*
X100782298Y-136375697D01*
X100811311Y-136350556D01*
X100810231Y-136349112D01*
X100897092Y-136284087D01*
X100932546Y-136257546D01*
X101018796Y-136142331D01*
X101069091Y-136007483D01*
X101075500Y-135947873D01*
X101075499Y-135352128D01*
X101069091Y-135292517D01*
X101018796Y-135157669D01*
X101018795Y-135157668D01*
X101018793Y-135157664D01*
X100932547Y-135042455D01*
X100932544Y-135042452D01*
X100817335Y-134956206D01*
X100817328Y-134956202D01*
X100682482Y-134905908D01*
X100682483Y-134905908D01*
X100622883Y-134899501D01*
X100622881Y-134899500D01*
X100622873Y-134899500D01*
X100622864Y-134899500D01*
X99577129Y-134899500D01*
X99577123Y-134899501D01*
X99517516Y-134905908D01*
X99382671Y-134956202D01*
X99382664Y-134956206D01*
X99267457Y-135042451D01*
X99267451Y-135042457D01*
X99224515Y-135099812D01*
X99168581Y-135141682D01*
X99125249Y-135149500D01*
X98708676Y-135149500D01*
X98641637Y-135129815D01*
X98620995Y-135113181D01*
X98601385Y-135093571D01*
X98584750Y-135072928D01*
X98582145Y-135068874D01*
X98582142Y-135068871D01*
X98551658Y-135042457D01*
X98542932Y-135034896D01*
X98539700Y-135031886D01*
X98528596Y-135020782D01*
X98528588Y-135020775D01*
X98516013Y-135011362D01*
X98512583Y-135008598D01*
X98473373Y-134974623D01*
X98473371Y-134974622D01*
X98473367Y-134974619D01*
X98468983Y-134972617D01*
X98446194Y-134959096D01*
X98442331Y-134956204D01*
X98442329Y-134956203D01*
X98393716Y-134938071D01*
X98389642Y-134936383D01*
X98342457Y-134914835D01*
X98342455Y-134914834D01*
X98337682Y-134914148D01*
X98312000Y-134907593D01*
X98307485Y-134905909D01*
X98255740Y-134902207D01*
X98251343Y-134901734D01*
X98235799Y-134899500D01*
X98220094Y-134899500D01*
X98215671Y-134899342D01*
X98198083Y-134898084D01*
X98163929Y-134895641D01*
X98163925Y-134895641D01*
X98159215Y-134896666D01*
X98132857Y-134899500D01*
X97735764Y-134899500D01*
X97668725Y-134879815D01*
X97622970Y-134827011D01*
X97619582Y-134818833D01*
X97568797Y-134682671D01*
X97568795Y-134682668D01*
X97567421Y-134680833D01*
X97547193Y-134653811D01*
X97522776Y-134588346D01*
X97537628Y-134520073D01*
X97587033Y-134470668D01*
X97646460Y-134455500D01*
X97958431Y-134455500D01*
X97958433Y-134455500D01*
X97979501Y-134448654D01*
X97998417Y-134444112D01*
X98020304Y-134440646D01*
X98040044Y-134430586D01*
X98058011Y-134423144D01*
X98079090Y-134416296D01*
X98097026Y-134403263D01*
X98113588Y-134393114D01*
X98133342Y-134383050D01*
X98148834Y-134367557D01*
X98148841Y-134367552D01*
X98329573Y-134186819D01*
X98390896Y-134153334D01*
X98417254Y-134150500D01*
X99060859Y-134150500D01*
X99127898Y-134170185D01*
X99173653Y-134222989D01*
X99177030Y-134231140D01*
X99181204Y-134242331D01*
X99181205Y-134242332D01*
X99181206Y-134242335D01*
X99267452Y-134357544D01*
X99267455Y-134357547D01*
X99382664Y-134443793D01*
X99382671Y-134443797D01*
X99517517Y-134494091D01*
X99517516Y-134494091D01*
X99524444Y-134494835D01*
X99577127Y-134500500D01*
X100622872Y-134500499D01*
X100682483Y-134494091D01*
X100817331Y-134443796D01*
X100932546Y-134357546D01*
X101018796Y-134242331D01*
X101069091Y-134107483D01*
X101075500Y-134047873D01*
X101075499Y-133452128D01*
X101069091Y-133392517D01*
X101068593Y-133391184D01*
X101068514Y-133390074D01*
X101067308Y-133384969D01*
X101068135Y-133384773D01*
X101063606Y-133321495D01*
X101097088Y-133260170D01*
X101158410Y-133226682D01*
X101228102Y-133231663D01*
X101272455Y-133260166D01*
X101766734Y-133754444D01*
X101800219Y-133815767D01*
X101803053Y-133842125D01*
X101803053Y-145377641D01*
X101803054Y-145377651D01*
X101809899Y-145398719D01*
X101814440Y-145417630D01*
X101817907Y-145439516D01*
X101817908Y-145439519D01*
X101827965Y-145459257D01*
X101835410Y-145477230D01*
X101842257Y-145498302D01*
X101855279Y-145516226D01*
X101865443Y-145532812D01*
X101875123Y-145551809D01*
X101875503Y-145552554D01*
X101896417Y-145573468D01*
X101896446Y-145573499D01*
X103300327Y-146977380D01*
X103300347Y-146977398D01*
X103320999Y-146998050D01*
X103340731Y-147008104D01*
X103340739Y-147008108D01*
X103357328Y-147018274D01*
X103375250Y-147031295D01*
X103375251Y-147031295D01*
X103375252Y-147031296D01*
X103396321Y-147038142D01*
X103414290Y-147045584D01*
X103434037Y-147055646D01*
X103455923Y-147059112D01*
X103474838Y-147063653D01*
X103495908Y-147070500D01*
X103495910Y-147070500D01*
X110013431Y-147070500D01*
X110013433Y-147070500D01*
X110034501Y-147063654D01*
X110053417Y-147059112D01*
X110075304Y-147055646D01*
X110095044Y-147045586D01*
X110113011Y-147038144D01*
X110134090Y-147031296D01*
X110152026Y-147018263D01*
X110168588Y-147008114D01*
X110188342Y-146998050D01*
X110203834Y-146982557D01*
X110203841Y-146982552D01*
X110425311Y-146761082D01*
X111639745Y-145546646D01*
X111701066Y-145513163D01*
X111763418Y-145515668D01*
X111885014Y-145552554D01*
X111894063Y-145555299D01*
X111894065Y-145555300D01*
X111912529Y-145557118D01*
X112100000Y-145575583D01*
X112305934Y-145555300D01*
X112503954Y-145495232D01*
X112686450Y-145397685D01*
X112846410Y-145266410D01*
X112977685Y-145106450D01*
X113075232Y-144923954D01*
X113135300Y-144725934D01*
X113155583Y-144520000D01*
X113584417Y-144520000D01*
X113604699Y-144725932D01*
X113617109Y-144766842D01*
X113664768Y-144923954D01*
X113762315Y-145106450D01*
X113762317Y-145106452D01*
X113893589Y-145266410D01*
X113990209Y-145345702D01*
X114053550Y-145397685D01*
X114236046Y-145495232D01*
X114434066Y-145555300D01*
X114434065Y-145555300D01*
X114452529Y-145557118D01*
X114640000Y-145575583D01*
X114845934Y-145555300D01*
X115043954Y-145495232D01*
X115226450Y-145397685D01*
X115386410Y-145266410D01*
X115517685Y-145106450D01*
X115615232Y-144923954D01*
X115675300Y-144725934D01*
X115695583Y-144520000D01*
X116124417Y-144520000D01*
X116144699Y-144725932D01*
X116157109Y-144766842D01*
X116204768Y-144923954D01*
X116302315Y-145106450D01*
X116302317Y-145106452D01*
X116433589Y-145266410D01*
X116530209Y-145345702D01*
X116593550Y-145397685D01*
X116776046Y-145495232D01*
X116974066Y-145555300D01*
X116974065Y-145555300D01*
X116992529Y-145557118D01*
X117180000Y-145575583D01*
X117385934Y-145555300D01*
X117583954Y-145495232D01*
X117766450Y-145397685D01*
X117926410Y-145266410D01*
X118057685Y-145106450D01*
X118155232Y-144923954D01*
X118202891Y-144766839D01*
X118241187Y-144708403D01*
X118304999Y-144679946D01*
X118374066Y-144690505D01*
X118426460Y-144736729D01*
X118441326Y-144770742D01*
X118493731Y-144966319D01*
X118493734Y-144966326D01*
X118589865Y-145172481D01*
X118589866Y-145172483D01*
X118640973Y-145245471D01*
X118640974Y-145245472D01*
X119236922Y-144649523D01*
X119260507Y-144729844D01*
X119338239Y-144850798D01*
X119446900Y-144944952D01*
X119577685Y-145004680D01*
X119587466Y-145006086D01*
X118994526Y-145599025D01*
X118994526Y-145599026D01*
X119067512Y-145650131D01*
X119067516Y-145650133D01*
X119273673Y-145746265D01*
X119273682Y-145746269D01*
X119493389Y-145805139D01*
X119493400Y-145805141D01*
X119719998Y-145824966D01*
X119720002Y-145824966D01*
X119946599Y-145805141D01*
X119946610Y-145805139D01*
X120166317Y-145746269D01*
X120166331Y-145746264D01*
X120372478Y-145650136D01*
X120445472Y-145599025D01*
X119852534Y-145006086D01*
X119862315Y-145004680D01*
X119993100Y-144944952D01*
X120101761Y-144850798D01*
X120179493Y-144729844D01*
X120203076Y-144649523D01*
X120799025Y-145245472D01*
X120850136Y-145172478D01*
X120946264Y-144966331D01*
X120946269Y-144966317D01*
X121005139Y-144746610D01*
X121005141Y-144746599D01*
X121024966Y-144520002D01*
X121024966Y-144519997D01*
X121005141Y-144293400D01*
X121005139Y-144293389D01*
X120946269Y-144073682D01*
X120946265Y-144073673D01*
X120850133Y-143867516D01*
X120850131Y-143867512D01*
X120799026Y-143794526D01*
X120799025Y-143794526D01*
X120203076Y-144390475D01*
X120179493Y-144310156D01*
X120101761Y-144189202D01*
X119993100Y-144095048D01*
X119862315Y-144035320D01*
X119852533Y-144033913D01*
X120445472Y-143440974D01*
X120445471Y-143440973D01*
X120372483Y-143389866D01*
X120372481Y-143389865D01*
X120166326Y-143293734D01*
X120166317Y-143293730D01*
X119946610Y-143234860D01*
X119946599Y-143234858D01*
X119720002Y-143215034D01*
X119719998Y-143215034D01*
X119493400Y-143234858D01*
X119493389Y-143234860D01*
X119273682Y-143293730D01*
X119273673Y-143293734D01*
X119067513Y-143389868D01*
X118994527Y-143440972D01*
X118994526Y-143440973D01*
X119587467Y-144033913D01*
X119577685Y-144035320D01*
X119446900Y-144095048D01*
X119338239Y-144189202D01*
X119260507Y-144310156D01*
X119236923Y-144390476D01*
X118640973Y-143794526D01*
X118640972Y-143794527D01*
X118589868Y-143867513D01*
X118493734Y-144073673D01*
X118493731Y-144073680D01*
X118441326Y-144269257D01*
X118404961Y-144328917D01*
X118342113Y-144359446D01*
X118272738Y-144351151D01*
X118218860Y-144306666D01*
X118202892Y-144273162D01*
X118155232Y-144116046D01*
X118057685Y-143933550D01*
X117967723Y-143823930D01*
X117926410Y-143773589D01*
X117784959Y-143657505D01*
X117766450Y-143642315D01*
X117583954Y-143544768D01*
X117385934Y-143484700D01*
X117385932Y-143484699D01*
X117385934Y-143484699D01*
X117180000Y-143464417D01*
X116974067Y-143484699D01*
X116776043Y-143544769D01*
X116684324Y-143593795D01*
X116593550Y-143642315D01*
X116593548Y-143642316D01*
X116593547Y-143642317D01*
X116433589Y-143773589D01*
X116318738Y-143913538D01*
X116302315Y-143933550D01*
X116285165Y-143965635D01*
X116204769Y-144116043D01*
X116144699Y-144314067D01*
X116124417Y-144520000D01*
X115695583Y-144520000D01*
X115675300Y-144314066D01*
X115615232Y-144116046D01*
X115517685Y-143933550D01*
X115427723Y-143823930D01*
X115386410Y-143773589D01*
X115244959Y-143657505D01*
X115226450Y-143642315D01*
X115043954Y-143544768D01*
X114845934Y-143484700D01*
X114845932Y-143484699D01*
X114845934Y-143484699D01*
X114640000Y-143464417D01*
X114434067Y-143484699D01*
X114236043Y-143544769D01*
X114144324Y-143593795D01*
X114053550Y-143642315D01*
X114053548Y-143642316D01*
X114053547Y-143642317D01*
X113893589Y-143773589D01*
X113778738Y-143913538D01*
X113762315Y-143933550D01*
X113745165Y-143965635D01*
X113664769Y-144116043D01*
X113604699Y-144314067D01*
X113584417Y-144520000D01*
X113155583Y-144520000D01*
X113135300Y-144314066D01*
X113075232Y-144116046D01*
X112977685Y-143933550D01*
X112887723Y-143823930D01*
X112846410Y-143773589D01*
X112704959Y-143657505D01*
X112686450Y-143642315D01*
X112503954Y-143544768D01*
X112305934Y-143484700D01*
X112305932Y-143484699D01*
X112305934Y-143484699D01*
X112100000Y-143464417D01*
X111894067Y-143484699D01*
X111696043Y-143544769D01*
X111604324Y-143593795D01*
X111513550Y-143642315D01*
X111513548Y-143642316D01*
X111513547Y-143642317D01*
X111353589Y-143773589D01*
X111238738Y-143913538D01*
X111222315Y-143933550D01*
X111205165Y-143965635D01*
X111124769Y-144116043D01*
X111064699Y-144314067D01*
X111044417Y-144520000D01*
X111064699Y-144725932D01*
X111104330Y-144856579D01*
X111104953Y-144926446D01*
X111073350Y-144980255D01*
X109820426Y-146233181D01*
X109759103Y-146266666D01*
X109732745Y-146269500D01*
X108676255Y-146269500D01*
X108609216Y-146249815D01*
X108563461Y-146197011D01*
X108553517Y-146127853D01*
X108582542Y-146064297D01*
X108588574Y-146057819D01*
X108970375Y-145676017D01*
X109099745Y-145546646D01*
X109161066Y-145513163D01*
X109223418Y-145515668D01*
X109345014Y-145552554D01*
X109354063Y-145555299D01*
X109354065Y-145555300D01*
X109372529Y-145557118D01*
X109560000Y-145575583D01*
X109765934Y-145555300D01*
X109963954Y-145495232D01*
X110146450Y-145397685D01*
X110306410Y-145266410D01*
X110437685Y-145106450D01*
X110535232Y-144923954D01*
X110595300Y-144725934D01*
X110615583Y-144520000D01*
X110595300Y-144314066D01*
X110535232Y-144116046D01*
X110437685Y-143933550D01*
X110347723Y-143823930D01*
X110306410Y-143773589D01*
X110164959Y-143657505D01*
X110146450Y-143642315D01*
X109963954Y-143544768D01*
X109765934Y-143484700D01*
X109765932Y-143484699D01*
X109765934Y-143484699D01*
X109574610Y-143465856D01*
X109560000Y-143464417D01*
X109559999Y-143464417D01*
X109559998Y-143464417D01*
X109536652Y-143466716D01*
X109468006Y-143453696D01*
X109417297Y-143405630D01*
X109400500Y-143343313D01*
X109400500Y-142844667D01*
X109401762Y-142827020D01*
X109405647Y-142800000D01*
X109385165Y-142657543D01*
X109325377Y-142526627D01*
X109231128Y-142417857D01*
X109110053Y-142340047D01*
X109110051Y-142340046D01*
X109110049Y-142340045D01*
X109110050Y-142340045D01*
X108971963Y-142299500D01*
X108971961Y-142299500D01*
X108828039Y-142299500D01*
X108828036Y-142299500D01*
X108689949Y-142340045D01*
X108568873Y-142417856D01*
X108474623Y-142526626D01*
X108474622Y-142526628D01*
X108414834Y-142657543D01*
X108394353Y-142800000D01*
X108398238Y-142827020D01*
X108399500Y-142844667D01*
X108399500Y-143792858D01*
X108396667Y-143819206D01*
X108395641Y-143823927D01*
X108398758Y-143867512D01*
X108399342Y-143875669D01*
X108399500Y-143880094D01*
X108399500Y-143895799D01*
X108401734Y-143911343D01*
X108402207Y-143915740D01*
X108405909Y-143967485D01*
X108407593Y-143972000D01*
X108414148Y-143997682D01*
X108414834Y-144002455D01*
X108414835Y-144002457D01*
X108436383Y-144049642D01*
X108438071Y-144053716D01*
X108456203Y-144102329D01*
X108459096Y-144106194D01*
X108472617Y-144128983D01*
X108474619Y-144133367D01*
X108474622Y-144133372D01*
X108474623Y-144133373D01*
X108508592Y-144172576D01*
X108511368Y-144176021D01*
X108513051Y-144178269D01*
X108537460Y-144243736D01*
X108532437Y-144288558D01*
X108524700Y-144314066D01*
X108524700Y-144314067D01*
X108524700Y-144314068D01*
X108524699Y-144314071D01*
X108504417Y-144520000D01*
X108524699Y-144725932D01*
X108564330Y-144856579D01*
X108564953Y-144926446D01*
X108533350Y-144980255D01*
X107780426Y-145733181D01*
X107719103Y-145766666D01*
X107692745Y-145769500D01*
X107355752Y-145769500D01*
X107288713Y-145749815D01*
X107242958Y-145697011D01*
X107233014Y-145627853D01*
X107262039Y-145564297D01*
X107319755Y-145526839D01*
X107423954Y-145495232D01*
X107606450Y-145397685D01*
X107766410Y-145266410D01*
X107897685Y-145106450D01*
X107995232Y-144923954D01*
X108055300Y-144725934D01*
X108075583Y-144520000D01*
X108055300Y-144314066D01*
X107995232Y-144116046D01*
X107897685Y-143933550D01*
X107807723Y-143823930D01*
X107766410Y-143773589D01*
X107624959Y-143657505D01*
X107606450Y-143642315D01*
X107423954Y-143544768D01*
X107225934Y-143484700D01*
X107225932Y-143484699D01*
X107225934Y-143484699D01*
X107020000Y-143464417D01*
X106814067Y-143484699D01*
X106616043Y-143544769D01*
X106524324Y-143593795D01*
X106433550Y-143642315D01*
X106433548Y-143642316D01*
X106433547Y-143642317D01*
X106273589Y-143773589D01*
X106158738Y-143913538D01*
X106142315Y-143933550D01*
X106125165Y-143965635D01*
X106044769Y-144116043D01*
X105984699Y-144314067D01*
X105964417Y-144520000D01*
X105984699Y-144725932D01*
X106024330Y-144856579D01*
X106024953Y-144926446D01*
X105993350Y-144980255D01*
X105740424Y-145233182D01*
X105679104Y-145266666D01*
X105652745Y-145269500D01*
X105477414Y-145269500D01*
X105410375Y-145249815D01*
X105364620Y-145197011D01*
X105354676Y-145127853D01*
X105368054Y-145087049D01*
X105455232Y-144923954D01*
X105515300Y-144725934D01*
X105535583Y-144520000D01*
X105515300Y-144314066D01*
X105455232Y-144116046D01*
X105357685Y-143933550D01*
X105267723Y-143823930D01*
X105226410Y-143773589D01*
X105084959Y-143657505D01*
X105066450Y-143642315D01*
X104946046Y-143577957D01*
X104896202Y-143528994D01*
X104880500Y-143468599D01*
X104880500Y-133716568D01*
X104880500Y-133716567D01*
X104873652Y-133695491D01*
X104869111Y-133676578D01*
X104865646Y-133654696D01*
X104855588Y-133634958D01*
X104848140Y-133616976D01*
X104841296Y-133595910D01*
X104828271Y-133577982D01*
X104818106Y-133561394D01*
X104814970Y-133555240D01*
X104808050Y-133541658D01*
X104787398Y-133521006D01*
X104787380Y-133520986D01*
X102159287Y-130892893D01*
X102159256Y-130892864D01*
X102138342Y-130871950D01*
X102138341Y-130871949D01*
X102118600Y-130861890D01*
X102102014Y-130851726D01*
X102084090Y-130838704D01*
X102084091Y-130838704D01*
X102063018Y-130831857D01*
X102045045Y-130824412D01*
X102025307Y-130814355D01*
X102025304Y-130814354D01*
X102003418Y-130810887D01*
X101984507Y-130806346D01*
X101963439Y-130799501D01*
X101963434Y-130799500D01*
X101963433Y-130799500D01*
X101963429Y-130799500D01*
X100753315Y-130799500D01*
X100686276Y-130779815D01*
X100640521Y-130727011D01*
X100630577Y-130657853D01*
X100641233Y-130625840D01*
X100640697Y-130625641D01*
X100694582Y-130481167D01*
X100736453Y-130425233D01*
X100801917Y-130400816D01*
X100810764Y-130400500D01*
X100978039Y-130400500D01*
X101014201Y-130400500D01*
X102025090Y-130400500D01*
X102051448Y-130403334D01*
X102056160Y-130404359D01*
X102107904Y-130400657D01*
X102112327Y-130400500D01*
X102128032Y-130400500D01*
X102143575Y-130398264D01*
X102147973Y-130397791D01*
X102199716Y-130394091D01*
X102204225Y-130392408D01*
X102229918Y-130385850D01*
X102234690Y-130385165D01*
X102281879Y-130363613D01*
X102285961Y-130361922D01*
X102319812Y-130349298D01*
X102334562Y-130343797D01*
X102334562Y-130343796D01*
X102334564Y-130343796D01*
X102338422Y-130340907D01*
X102361228Y-130327375D01*
X102365606Y-130325377D01*
X102404797Y-130291416D01*
X102408247Y-130288637D01*
X102413232Y-130284905D01*
X102420826Y-130279221D01*
X102431953Y-130268092D01*
X102435158Y-130265109D01*
X102474376Y-130231128D01*
X102476984Y-130227068D01*
X102493614Y-130206431D01*
X103244746Y-129455298D01*
X103306067Y-129421815D01*
X103375758Y-129426799D01*
X103431692Y-129468671D01*
X103451085Y-129506985D01*
X103504768Y-129683954D01*
X103602315Y-129866450D01*
X103613549Y-129880139D01*
X103733589Y-130026410D01*
X103822651Y-130099500D01*
X103893550Y-130157685D01*
X104076046Y-130255232D01*
X104274066Y-130315300D01*
X104274065Y-130315300D01*
X104292529Y-130317118D01*
X104480000Y-130335583D01*
X104685934Y-130315300D01*
X104883954Y-130255232D01*
X105066450Y-130157685D01*
X105226410Y-130026410D01*
X105357685Y-129866450D01*
X105455232Y-129683954D01*
X105515300Y-129485934D01*
X105535583Y-129280000D01*
X105964417Y-129280000D01*
X105984699Y-129485932D01*
X106003692Y-129548543D01*
X106044768Y-129683954D01*
X106142315Y-129866450D01*
X106153549Y-129880139D01*
X106273589Y-130026410D01*
X106362651Y-130099500D01*
X106433550Y-130157685D01*
X106616046Y-130255232D01*
X106814066Y-130315300D01*
X106814065Y-130315300D01*
X106832529Y-130317118D01*
X107020000Y-130335583D01*
X107225934Y-130315300D01*
X107423954Y-130255232D01*
X107606450Y-130157685D01*
X107766410Y-130026410D01*
X107897685Y-129866450D01*
X107995232Y-129683954D01*
X108055300Y-129485934D01*
X108075583Y-129280000D01*
X108504417Y-129280000D01*
X108524699Y-129485932D01*
X108543692Y-129548543D01*
X108584768Y-129683954D01*
X108682315Y-129866450D01*
X108693549Y-129880139D01*
X108813589Y-130026410D01*
X108902651Y-130099500D01*
X108973550Y-130157685D01*
X109156046Y-130255232D01*
X109354066Y-130315300D01*
X109354065Y-130315300D01*
X109372529Y-130317118D01*
X109560000Y-130335583D01*
X109765934Y-130315300D01*
X109963954Y-130255232D01*
X110146450Y-130157685D01*
X110306410Y-130026410D01*
X110437685Y-129866450D01*
X110535232Y-129683954D01*
X110595300Y-129485934D01*
X110615583Y-129280000D01*
X111044417Y-129280000D01*
X111064699Y-129485932D01*
X111083692Y-129548543D01*
X111124768Y-129683954D01*
X111222315Y-129866450D01*
X111233549Y-129880139D01*
X111353589Y-130026410D01*
X111442651Y-130099500D01*
X111513550Y-130157685D01*
X111696046Y-130255232D01*
X111894066Y-130315300D01*
X111894065Y-130315300D01*
X111912529Y-130317118D01*
X112100000Y-130335583D01*
X112305934Y-130315300D01*
X112503954Y-130255232D01*
X112686450Y-130157685D01*
X112846410Y-130026410D01*
X112977685Y-129866450D01*
X113075232Y-129683954D01*
X113135300Y-129485934D01*
X113155583Y-129280000D01*
X113584417Y-129280000D01*
X113604699Y-129485932D01*
X113623692Y-129548543D01*
X113664768Y-129683954D01*
X113762315Y-129866450D01*
X113773549Y-129880139D01*
X113893589Y-130026410D01*
X113982651Y-130099500D01*
X114053550Y-130157685D01*
X114236046Y-130255232D01*
X114434066Y-130315300D01*
X114434065Y-130315300D01*
X114452529Y-130317118D01*
X114640000Y-130335583D01*
X114845934Y-130315300D01*
X115043954Y-130255232D01*
X115226450Y-130157685D01*
X115386410Y-130026410D01*
X115517685Y-129866450D01*
X115615232Y-129683954D01*
X115675300Y-129485934D01*
X115695583Y-129280000D01*
X115675300Y-129074066D01*
X115615232Y-128876046D01*
X115517685Y-128693550D01*
X115434528Y-128592222D01*
X115407216Y-128527912D01*
X115409917Y-128512132D01*
X115347014Y-128498449D01*
X115327777Y-128485471D01*
X115269625Y-128437748D01*
X115226450Y-128402315D01*
X115043954Y-128304768D01*
X114845934Y-128244700D01*
X114845932Y-128244699D01*
X114845934Y-128244699D01*
X114640000Y-128224417D01*
X114434067Y-128244699D01*
X114236043Y-128304769D01*
X114170201Y-128339963D01*
X114053550Y-128402315D01*
X114053548Y-128402316D01*
X114053547Y-128402317D01*
X113893589Y-128533589D01*
X113762317Y-128693547D01*
X113664769Y-128876043D01*
X113664768Y-128876045D01*
X113664768Y-128876046D01*
X113663226Y-128881128D01*
X113604699Y-129074067D01*
X113584417Y-129280000D01*
X113155583Y-129280000D01*
X113135300Y-129074066D01*
X113075232Y-128876046D01*
X112977685Y-128693550D01*
X112919184Y-128622266D01*
X112846410Y-128533589D01*
X112726477Y-128435164D01*
X112686450Y-128402315D01*
X112503954Y-128304768D01*
X112305934Y-128244700D01*
X112305932Y-128244699D01*
X112305934Y-128244699D01*
X112100000Y-128224417D01*
X111894067Y-128244699D01*
X111696043Y-128304769D01*
X111630201Y-128339963D01*
X111513550Y-128402315D01*
X111513548Y-128402316D01*
X111513547Y-128402317D01*
X111353589Y-128533589D01*
X111222317Y-128693547D01*
X111124769Y-128876043D01*
X111124768Y-128876045D01*
X111124768Y-128876046D01*
X111123226Y-128881128D01*
X111064699Y-129074067D01*
X111044417Y-129280000D01*
X110615583Y-129280000D01*
X110595300Y-129074066D01*
X110535232Y-128876046D01*
X110437685Y-128693550D01*
X110379184Y-128622266D01*
X110306410Y-128533589D01*
X110186477Y-128435164D01*
X110146450Y-128402315D01*
X109963954Y-128304768D01*
X109765934Y-128244700D01*
X109765932Y-128244699D01*
X109765934Y-128244699D01*
X109560000Y-128224417D01*
X109354067Y-128244699D01*
X109156043Y-128304769D01*
X109090201Y-128339963D01*
X108973550Y-128402315D01*
X108973548Y-128402316D01*
X108973547Y-128402317D01*
X108813589Y-128533589D01*
X108682317Y-128693547D01*
X108584769Y-128876043D01*
X108584768Y-128876045D01*
X108584768Y-128876046D01*
X108583226Y-128881128D01*
X108524699Y-129074067D01*
X108504417Y-129280000D01*
X108075583Y-129280000D01*
X108055300Y-129074066D01*
X107995232Y-128876046D01*
X107897685Y-128693550D01*
X107839184Y-128622266D01*
X107766410Y-128533589D01*
X107646477Y-128435164D01*
X107606450Y-128402315D01*
X107423954Y-128304768D01*
X107225934Y-128244700D01*
X107225932Y-128244699D01*
X107225934Y-128244699D01*
X107020000Y-128224417D01*
X106814067Y-128244699D01*
X106616043Y-128304769D01*
X106550201Y-128339963D01*
X106433550Y-128402315D01*
X106433548Y-128402316D01*
X106433547Y-128402317D01*
X106273589Y-128533589D01*
X106142317Y-128693547D01*
X106044769Y-128876043D01*
X106044768Y-128876045D01*
X106044768Y-128876046D01*
X106043226Y-128881128D01*
X105984699Y-129074067D01*
X105964417Y-129280000D01*
X105535583Y-129280000D01*
X105515300Y-129074066D01*
X105455232Y-128876046D01*
X105357685Y-128693550D01*
X105351962Y-128686576D01*
X105324649Y-128622266D01*
X105336440Y-128553398D01*
X105383592Y-128501838D01*
X105396307Y-128495114D01*
X105399605Y-128493608D01*
X105403669Y-128491925D01*
X105452280Y-128473796D01*
X105456138Y-128470907D01*
X105478944Y-128457375D01*
X105483322Y-128455377D01*
X105522513Y-128421416D01*
X105525963Y-128418637D01*
X105532670Y-128413616D01*
X105538542Y-128409221D01*
X105549669Y-128398092D01*
X105552874Y-128395109D01*
X105592092Y-128361128D01*
X105594700Y-128357068D01*
X105611330Y-128336431D01*
X106560944Y-127386819D01*
X106622267Y-127353334D01*
X106648625Y-127350500D01*
X106823560Y-127350500D01*
X106890599Y-127370185D01*
X106936354Y-127422989D01*
X106939742Y-127431167D01*
X106981202Y-127542328D01*
X106981206Y-127542335D01*
X107067452Y-127657544D01*
X107067455Y-127657547D01*
X107182664Y-127743793D01*
X107182671Y-127743797D01*
X107210526Y-127754186D01*
X107317517Y-127794091D01*
X107377127Y-127800500D01*
X107997872Y-127800499D01*
X108057483Y-127794091D01*
X108192331Y-127743796D01*
X108307546Y-127657546D01*
X108393796Y-127542331D01*
X108444091Y-127407483D01*
X108450500Y-127347873D01*
X108450499Y-126352128D01*
X108444091Y-126292517D01*
X108442588Y-126288488D01*
X108416308Y-126218027D01*
X108411324Y-126148336D01*
X108444809Y-126087013D01*
X108506132Y-126053528D01*
X108541335Y-126051010D01*
X108588155Y-126054359D01*
X108592867Y-126053334D01*
X108619225Y-126050500D01*
X108667582Y-126050500D01*
X108734621Y-126070185D01*
X108780376Y-126122989D01*
X108790320Y-126192147D01*
X108783764Y-126217833D01*
X108755908Y-126292517D01*
X108750197Y-126345641D01*
X108749501Y-126352123D01*
X108749500Y-126352135D01*
X108749500Y-127347870D01*
X108749501Y-127347876D01*
X108755908Y-127407483D01*
X108806202Y-127542328D01*
X108806206Y-127542335D01*
X108892452Y-127657544D01*
X108892455Y-127657547D01*
X109007664Y-127743793D01*
X109007671Y-127743797D01*
X109035526Y-127754186D01*
X109142517Y-127794091D01*
X109202127Y-127800500D01*
X109822872Y-127800499D01*
X109882483Y-127794091D01*
X110017331Y-127743796D01*
X110132546Y-127657546D01*
X110218796Y-127542331D01*
X110226149Y-127522615D01*
X110260258Y-127431167D01*
X110302129Y-127375233D01*
X110367593Y-127350816D01*
X110376440Y-127350500D01*
X114491324Y-127350500D01*
X114558363Y-127370185D01*
X114579005Y-127386819D01*
X115494122Y-128301936D01*
X115527607Y-128363259D01*
X115525569Y-128391755D01*
X115533702Y-128389602D01*
X115600190Y-128411075D01*
X115618063Y-128425877D01*
X116120436Y-128928250D01*
X116153921Y-128989573D01*
X116151416Y-129051924D01*
X116144700Y-129074063D01*
X116144699Y-129074066D01*
X116124417Y-129280000D01*
X116144699Y-129485932D01*
X116163692Y-129548543D01*
X116204768Y-129683954D01*
X116302315Y-129866450D01*
X116313549Y-129880139D01*
X116433589Y-130026410D01*
X116522651Y-130099500D01*
X116593550Y-130157685D01*
X116776046Y-130255232D01*
X116974066Y-130315300D01*
X116974065Y-130315300D01*
X116992529Y-130317118D01*
X117180000Y-130335583D01*
X117385934Y-130315300D01*
X117583954Y-130255232D01*
X117766450Y-130157685D01*
X117926410Y-130026410D01*
X118057685Y-129866450D01*
X118155232Y-129683954D01*
X118215300Y-129485934D01*
X118235583Y-129280000D01*
X118215300Y-129074066D01*
X118155232Y-128876046D01*
X118057685Y-128693550D01*
X117974528Y-128592222D01*
X117947216Y-128527912D01*
X117949917Y-128512132D01*
X117887014Y-128498449D01*
X117867777Y-128485471D01*
X117809625Y-128437748D01*
X117766450Y-128402315D01*
X117583954Y-128304768D01*
X117385934Y-128244700D01*
X117385932Y-128244699D01*
X117385934Y-128244699D01*
X117180000Y-128224417D01*
X116974066Y-128244699D01*
X116974063Y-128244700D01*
X116951924Y-128251416D01*
X116882057Y-128252039D01*
X116828250Y-128220436D01*
X116619995Y-128012181D01*
X116586510Y-127950858D01*
X116591494Y-127881166D01*
X116633366Y-127825233D01*
X116698830Y-127800816D01*
X116707676Y-127800500D01*
X117481324Y-127800500D01*
X117548363Y-127820185D01*
X117569005Y-127836819D01*
X118034122Y-128301936D01*
X118067607Y-128363259D01*
X118065569Y-128391755D01*
X118073702Y-128389602D01*
X118140190Y-128411075D01*
X118158063Y-128425877D01*
X118633181Y-128900995D01*
X118666666Y-128962318D01*
X118669500Y-128988676D01*
X118669500Y-130104678D01*
X118684032Y-130177735D01*
X118684033Y-130177739D01*
X118690423Y-130187302D01*
X118739399Y-130260601D01*
X118816814Y-130312327D01*
X118822260Y-130315966D01*
X118822264Y-130315967D01*
X118895321Y-130330499D01*
X118895324Y-130330500D01*
X118895326Y-130330500D01*
X120544676Y-130330500D01*
X120544677Y-130330499D01*
X120617740Y-130315966D01*
X120700601Y-130260601D01*
X120755966Y-130177740D01*
X120770500Y-130104674D01*
X120770500Y-128455326D01*
X120770500Y-128455323D01*
X120770499Y-128455321D01*
X120755967Y-128382264D01*
X120755966Y-128382260D01*
X120743270Y-128363259D01*
X120700601Y-128299399D01*
X120618737Y-128244700D01*
X120617739Y-128244033D01*
X120617735Y-128244032D01*
X120544677Y-128229500D01*
X120544674Y-128229500D01*
X119428676Y-128229500D01*
X119361637Y-128209815D01*
X119340995Y-128193181D01*
X118141385Y-126993571D01*
X118124750Y-126972928D01*
X118122145Y-126968874D01*
X118122142Y-126968871D01*
X118110737Y-126958989D01*
X118082932Y-126934896D01*
X118079700Y-126931886D01*
X118068596Y-126920782D01*
X118068588Y-126920775D01*
X118056013Y-126911362D01*
X118052583Y-126908598D01*
X118013373Y-126874623D01*
X118013371Y-126874622D01*
X118013367Y-126874619D01*
X118008983Y-126872617D01*
X117986194Y-126859096D01*
X117982331Y-126856204D01*
X117982329Y-126856203D01*
X117933716Y-126838071D01*
X117929642Y-126836383D01*
X117882457Y-126814835D01*
X117882455Y-126814834D01*
X117877682Y-126814148D01*
X117852000Y-126807593D01*
X117847485Y-126805909D01*
X117795740Y-126802207D01*
X117791343Y-126801734D01*
X117775799Y-126799500D01*
X117760094Y-126799500D01*
X117755671Y-126799342D01*
X117738083Y-126798084D01*
X117703929Y-126795641D01*
X117703925Y-126795641D01*
X117699215Y-126796666D01*
X117672857Y-126799500D01*
X116448626Y-126799500D01*
X116381587Y-126779815D01*
X116360945Y-126763181D01*
X115285608Y-125687844D01*
X116440000Y-125687844D01*
X116446401Y-125747372D01*
X116446403Y-125747379D01*
X116496645Y-125882086D01*
X116496649Y-125882093D01*
X116582809Y-125997187D01*
X116582812Y-125997190D01*
X116697906Y-126083350D01*
X116697913Y-126083354D01*
X116832620Y-126133596D01*
X116832627Y-126133598D01*
X116892155Y-126139999D01*
X116892172Y-126140000D01*
X117540000Y-126140000D01*
X117540000Y-125225501D01*
X117647685Y-125274680D01*
X117754237Y-125290000D01*
X117825763Y-125290000D01*
X117932315Y-125274680D01*
X118040000Y-125225501D01*
X118040000Y-126140000D01*
X118687828Y-126140000D01*
X118687844Y-126139999D01*
X118747372Y-126133598D01*
X118747379Y-126133596D01*
X118882086Y-126083354D01*
X118882093Y-126083350D01*
X118997187Y-125997190D01*
X118997190Y-125997187D01*
X119083350Y-125882093D01*
X119083354Y-125882086D01*
X119133596Y-125747379D01*
X119133598Y-125747372D01*
X119139999Y-125687844D01*
X119140000Y-125687819D01*
X119140000Y-125040000D01*
X118223686Y-125040000D01*
X118249493Y-124999844D01*
X118290000Y-124861889D01*
X118290000Y-124718111D01*
X118249493Y-124580156D01*
X118223686Y-124540000D01*
X119140000Y-124540000D01*
X119140000Y-123892172D01*
X119139999Y-123892155D01*
X119133598Y-123832627D01*
X119133596Y-123832620D01*
X119083354Y-123697913D01*
X119083350Y-123697906D01*
X118997190Y-123582812D01*
X118997187Y-123582809D01*
X118882093Y-123496649D01*
X118882086Y-123496645D01*
X118747379Y-123446403D01*
X118747372Y-123446401D01*
X118687844Y-123440000D01*
X118040000Y-123440000D01*
X118040000Y-124354498D01*
X117932315Y-124305320D01*
X117825763Y-124290000D01*
X117754237Y-124290000D01*
X117647685Y-124305320D01*
X117540000Y-124354498D01*
X117540000Y-123440000D01*
X116892155Y-123440000D01*
X116832627Y-123446401D01*
X116832620Y-123446403D01*
X116697913Y-123496645D01*
X116697906Y-123496649D01*
X116582812Y-123582809D01*
X116582809Y-123582812D01*
X116496649Y-123697906D01*
X116496645Y-123697913D01*
X116446403Y-123832620D01*
X116446401Y-123832627D01*
X116440000Y-123892155D01*
X116440000Y-124540000D01*
X117356314Y-124540000D01*
X117330507Y-124580156D01*
X117290000Y-124718111D01*
X117290000Y-124861889D01*
X117330507Y-124999844D01*
X117356314Y-125040000D01*
X116440000Y-125040000D01*
X116440000Y-125687844D01*
X115285608Y-125687844D01*
X114841335Y-125243571D01*
X114824700Y-125222928D01*
X114822095Y-125218874D01*
X114822092Y-125218871D01*
X114800297Y-125199986D01*
X114782882Y-125184896D01*
X114779650Y-125181886D01*
X114768546Y-125170782D01*
X114768538Y-125170775D01*
X114759960Y-125164354D01*
X114755958Y-125161358D01*
X114752533Y-125158598D01*
X114713323Y-125124623D01*
X114713321Y-125124622D01*
X114713317Y-125124619D01*
X114708933Y-125122617D01*
X114686144Y-125109096D01*
X114682281Y-125106204D01*
X114682279Y-125106203D01*
X114633666Y-125088071D01*
X114629592Y-125086383D01*
X114582407Y-125064835D01*
X114582405Y-125064834D01*
X114577632Y-125064148D01*
X114551950Y-125057593D01*
X114547435Y-125055909D01*
X114495690Y-125052207D01*
X114491293Y-125051734D01*
X114475749Y-125049500D01*
X114460044Y-125049500D01*
X114455621Y-125049342D01*
X114438033Y-125048084D01*
X114403879Y-125045641D01*
X114403875Y-125045641D01*
X114399165Y-125046666D01*
X114372807Y-125049500D01*
X108810758Y-125049500D01*
X108743719Y-125029815D01*
X108723077Y-125013181D01*
X108153467Y-124443571D01*
X108136832Y-124422928D01*
X108134227Y-124418874D01*
X108134224Y-124418871D01*
X108103022Y-124391835D01*
X108095014Y-124384896D01*
X108091782Y-124381886D01*
X108080678Y-124370782D01*
X108080670Y-124370775D01*
X108073019Y-124365048D01*
X108068090Y-124361358D01*
X108064665Y-124358598D01*
X108025455Y-124324623D01*
X108025453Y-124324622D01*
X108025449Y-124324619D01*
X108021065Y-124322617D01*
X107998276Y-124309096D01*
X107995019Y-124306658D01*
X107994413Y-124306204D01*
X107994411Y-124306203D01*
X107945798Y-124288071D01*
X107941724Y-124286383D01*
X107894539Y-124264835D01*
X107894537Y-124264834D01*
X107889764Y-124264148D01*
X107864082Y-124257593D01*
X107859567Y-124255909D01*
X107807822Y-124252207D01*
X107803425Y-124251734D01*
X107787881Y-124249500D01*
X107772176Y-124249500D01*
X107767753Y-124249342D01*
X107750165Y-124248084D01*
X107716011Y-124245641D01*
X107716007Y-124245641D01*
X107711297Y-124246666D01*
X107684939Y-124249500D01*
X105149052Y-124249500D01*
X105092758Y-124235985D01*
X105050301Y-124214352D01*
X104956524Y-124199500D01*
X103718482Y-124199500D01*
X103637519Y-124212323D01*
X103624696Y-124214354D01*
X103511658Y-124271950D01*
X103511657Y-124271951D01*
X103511652Y-124271954D01*
X103421954Y-124361652D01*
X103421951Y-124361657D01*
X103421950Y-124361658D01*
X103410105Y-124384905D01*
X103364352Y-124474698D01*
X103349500Y-124568475D01*
X103349500Y-124931517D01*
X103359851Y-124996868D01*
X103361640Y-125008170D01*
X103365881Y-125034943D01*
X103363857Y-125035263D01*
X103365490Y-125092516D01*
X103329407Y-125152347D01*
X103266704Y-125183171D01*
X103197290Y-125175203D01*
X103189280Y-125171475D01*
X103175304Y-125164354D01*
X103175303Y-125164353D01*
X103175300Y-125164352D01*
X103175301Y-125164352D01*
X103081524Y-125149500D01*
X101843482Y-125149500D01*
X101768588Y-125161362D01*
X101749696Y-125164354D01*
X101636658Y-125221950D01*
X101636657Y-125221951D01*
X101636652Y-125221954D01*
X101612181Y-125246426D01*
X101550858Y-125279911D01*
X101481166Y-125274927D01*
X101425233Y-125233055D01*
X101400816Y-125167591D01*
X101400500Y-125158745D01*
X101400500Y-125067143D01*
X101403334Y-125040785D01*
X101404359Y-125036073D01*
X101400658Y-124984329D01*
X101400500Y-124979904D01*
X101400500Y-124964201D01*
X101398264Y-124948657D01*
X101397791Y-124944254D01*
X101397521Y-124940479D01*
X101394091Y-124892517D01*
X101392407Y-124888002D01*
X101385850Y-124862312D01*
X101385165Y-124857543D01*
X101363612Y-124810351D01*
X101361932Y-124806295D01*
X101343796Y-124757669D01*
X101340905Y-124753807D01*
X101327379Y-124731010D01*
X101325377Y-124726627D01*
X101302304Y-124699999D01*
X101291411Y-124687427D01*
X101288633Y-124683979D01*
X101279229Y-124671417D01*
X101279224Y-124671412D01*
X101279221Y-124671407D01*
X101268097Y-124660283D01*
X101265103Y-124657067D01*
X101231128Y-124617857D01*
X101231125Y-124617854D01*
X101227066Y-124615246D01*
X101206428Y-124598614D01*
X100801385Y-124193571D01*
X100784750Y-124172928D01*
X100782145Y-124168874D01*
X100782142Y-124168871D01*
X100751727Y-124142517D01*
X100742932Y-124134896D01*
X100739700Y-124131886D01*
X100728596Y-124120782D01*
X100728588Y-124120775D01*
X100716013Y-124111362D01*
X100712583Y-124108598D01*
X100673373Y-124074623D01*
X100673371Y-124074622D01*
X100673367Y-124074619D01*
X100668983Y-124072617D01*
X100646194Y-124059096D01*
X100644119Y-124057543D01*
X100642331Y-124056204D01*
X100642330Y-124056203D01*
X100642328Y-124056202D01*
X100600716Y-124040682D01*
X100544782Y-123998811D01*
X100530189Y-123959687D01*
X100496761Y-123988654D01*
X100440227Y-123998855D01*
X100440227Y-123999500D01*
X100436654Y-123999500D01*
X100436410Y-123999544D01*
X100435803Y-123999500D01*
X100435799Y-123999500D01*
X100435794Y-123999500D01*
X100420094Y-123999500D01*
X100415671Y-123999342D01*
X100398083Y-123998084D01*
X100363929Y-123995641D01*
X100363925Y-123995641D01*
X100359215Y-123996666D01*
X100332857Y-123999500D01*
X100276440Y-123999500D01*
X100209401Y-123979815D01*
X100163646Y-123927011D01*
X100160258Y-123918833D01*
X100118797Y-123807671D01*
X100118793Y-123807664D01*
X100032547Y-123692455D01*
X100032544Y-123692452D01*
X99917335Y-123606206D01*
X99917328Y-123606202D01*
X99782486Y-123555910D01*
X99782485Y-123555909D01*
X99782483Y-123555909D01*
X99722873Y-123549500D01*
X99722863Y-123549500D01*
X99102129Y-123549500D01*
X99102123Y-123549501D01*
X99042516Y-123555908D01*
X98907671Y-123606202D01*
X98907664Y-123606206D01*
X98792455Y-123692452D01*
X98746498Y-123753842D01*
X98690563Y-123795713D01*
X98620872Y-123800696D01*
X98559549Y-123767210D01*
X98538335Y-123736909D01*
X98538149Y-123737025D01*
X98536170Y-123733816D01*
X98534845Y-123731924D01*
X98534356Y-123730877D01*
X98442315Y-123581654D01*
X98318345Y-123457684D01*
X98169124Y-123365643D01*
X98169119Y-123365641D01*
X98002697Y-123310494D01*
X98002690Y-123310493D01*
X97899986Y-123300000D01*
X97837500Y-123300000D01*
X97837500Y-125699999D01*
X97899972Y-125699999D01*
X97899986Y-125699998D01*
X98002697Y-125689505D01*
X98169119Y-125634358D01*
X98169124Y-125634356D01*
X98318345Y-125542315D01*
X98442315Y-125418345D01*
X98534354Y-125269126D01*
X98534842Y-125268081D01*
X98535368Y-125267482D01*
X98538149Y-125262975D01*
X98538918Y-125263449D01*
X98581007Y-125215635D01*
X98648198Y-125196473D01*
X98715082Y-125216679D01*
X98746498Y-125246157D01*
X98749749Y-125250500D01*
X98787179Y-125300500D01*
X98792455Y-125307547D01*
X98907664Y-125393793D01*
X98907671Y-125393797D01*
X98927493Y-125401190D01*
X99042517Y-125444091D01*
X99102127Y-125450500D01*
X99722872Y-125450499D01*
X99782483Y-125444091D01*
X99917331Y-125393796D01*
X100032546Y-125307546D01*
X100118796Y-125192331D01*
X100121566Y-125184905D01*
X100123553Y-125179578D01*
X100165424Y-125123644D01*
X100230888Y-125099227D01*
X100299161Y-125114079D01*
X100327416Y-125135230D01*
X100363181Y-125170995D01*
X100396666Y-125232318D01*
X100399500Y-125258676D01*
X100399500Y-126576501D01*
X100379815Y-126643540D01*
X100327011Y-126689295D01*
X100257853Y-126699239D01*
X100194297Y-126670214D01*
X100176234Y-126650813D01*
X100144424Y-126608321D01*
X100132546Y-126592454D01*
X100132544Y-126592453D01*
X100132544Y-126592452D01*
X100017335Y-126506206D01*
X100017328Y-126506202D01*
X99882486Y-126455910D01*
X99882485Y-126455909D01*
X99882483Y-126455909D01*
X99822873Y-126449500D01*
X99822863Y-126449500D01*
X99202129Y-126449500D01*
X99202123Y-126449501D01*
X99142516Y-126455908D01*
X99007671Y-126506202D01*
X99007664Y-126506206D01*
X98892455Y-126592452D01*
X98892452Y-126592455D01*
X98806206Y-126707664D01*
X98806202Y-126707671D01*
X98755908Y-126842517D01*
X98750420Y-126893571D01*
X98749501Y-126902123D01*
X98749500Y-126902135D01*
X98749500Y-127403823D01*
X98729815Y-127470862D01*
X98713181Y-127491504D01*
X98662180Y-127542505D01*
X98600857Y-127575990D01*
X98531165Y-127571006D01*
X98475232Y-127529134D01*
X98450815Y-127463670D01*
X98450499Y-127454824D01*
X98450499Y-126902129D01*
X98450498Y-126902123D01*
X98450497Y-126902116D01*
X98444091Y-126842517D01*
X98440710Y-126833453D01*
X98393797Y-126707671D01*
X98393793Y-126707664D01*
X98307547Y-126592455D01*
X98307544Y-126592452D01*
X98192335Y-126506206D01*
X98192328Y-126506202D01*
X98057486Y-126455910D01*
X98057485Y-126455909D01*
X98057483Y-126455909D01*
X97997873Y-126449500D01*
X97997863Y-126449500D01*
X97377129Y-126449500D01*
X97377123Y-126449501D01*
X97317516Y-126455908D01*
X97182671Y-126506202D01*
X97182664Y-126506206D01*
X97067455Y-126592452D01*
X97067452Y-126592455D01*
X96981206Y-126707664D01*
X96981202Y-126707671D01*
X96939742Y-126818833D01*
X96897871Y-126874767D01*
X96832407Y-126899184D01*
X96823560Y-126899500D01*
X95804638Y-126899500D01*
X95778281Y-126896666D01*
X95773576Y-126895642D01*
X95773568Y-126895642D01*
X95728857Y-126898840D01*
X95721837Y-126899342D01*
X95717415Y-126899500D01*
X95701699Y-126899500D01*
X95686146Y-126901736D01*
X95681750Y-126902208D01*
X95630017Y-126905909D01*
X95630014Y-126905910D01*
X95625496Y-126907595D01*
X95599820Y-126914148D01*
X95595041Y-126914835D01*
X95547855Y-126936384D01*
X95543767Y-126938077D01*
X95495168Y-126956205D01*
X95495167Y-126956206D01*
X95491302Y-126959099D01*
X95468520Y-126972616D01*
X95464131Y-126974620D01*
X95464130Y-126974621D01*
X95464128Y-126974622D01*
X95464127Y-126974623D01*
X95461235Y-126977129D01*
X95424917Y-127008597D01*
X95421473Y-127011372D01*
X95408906Y-127020780D01*
X95408903Y-127020783D01*
X95397790Y-127031893D01*
X95394556Y-127034904D01*
X95355362Y-127068866D01*
X95355354Y-127068876D01*
X95352743Y-127072938D01*
X95336116Y-127093568D01*
X95066503Y-127363181D01*
X95005180Y-127396666D01*
X94978822Y-127399500D01*
X94568482Y-127399500D01*
X94474693Y-127414354D01*
X94460724Y-127421472D01*
X94392055Y-127434366D01*
X94327315Y-127408087D01*
X94287060Y-127350980D01*
X94284232Y-127284960D01*
X94284120Y-127284943D01*
X94284207Y-127284389D01*
X94284070Y-127281174D01*
X94285520Y-127276101D01*
X94300499Y-127181524D01*
X94300500Y-127181519D01*
X94300499Y-126818482D01*
X94285646Y-126724696D01*
X94285645Y-126724694D01*
X94284119Y-126715057D01*
X94286142Y-126714736D01*
X94284506Y-126657494D01*
X94320584Y-126597660D01*
X94383284Y-126566830D01*
X94452698Y-126574792D01*
X94460706Y-126578517D01*
X94474696Y-126585646D01*
X94474698Y-126585646D01*
X94474700Y-126585647D01*
X94568475Y-126600499D01*
X94568481Y-126600500D01*
X95806518Y-126600499D01*
X95900304Y-126585646D01*
X96013342Y-126528050D01*
X96103050Y-126438342D01*
X96160646Y-126325304D01*
X96160646Y-126325302D01*
X96160647Y-126325301D01*
X96174846Y-126235646D01*
X96175500Y-126231519D01*
X96175499Y-125868482D01*
X96160646Y-125774696D01*
X96103050Y-125661658D01*
X96103046Y-125661654D01*
X96103045Y-125661652D01*
X96013347Y-125571954D01*
X96013344Y-125571952D01*
X96013342Y-125571950D01*
X95925145Y-125527011D01*
X95900301Y-125514352D01*
X95806524Y-125499500D01*
X94568482Y-125499500D01*
X94474694Y-125514354D01*
X94432243Y-125535985D01*
X94375948Y-125549500D01*
X93908676Y-125549500D01*
X93841637Y-125529815D01*
X93820995Y-125513181D01*
X93624319Y-125316505D01*
X93590834Y-125255182D01*
X93588000Y-125228824D01*
X93588000Y-125159107D01*
X93607685Y-125092068D01*
X93637685Y-125059843D01*
X93707546Y-125007546D01*
X93793796Y-124892331D01*
X93844091Y-124757483D01*
X93850500Y-124697873D01*
X93850500Y-124697870D01*
X94149500Y-124697870D01*
X94149501Y-124697876D01*
X94155908Y-124757483D01*
X94206202Y-124892328D01*
X94206206Y-124892335D01*
X94292452Y-125007544D01*
X94292455Y-125007547D01*
X94407664Y-125093793D01*
X94407671Y-125093797D01*
X94444425Y-125107505D01*
X94542517Y-125144091D01*
X94602127Y-125150500D01*
X95222872Y-125150499D01*
X95282483Y-125144091D01*
X95417331Y-125093796D01*
X95532546Y-125007546D01*
X95618796Y-124892331D01*
X95643536Y-124826000D01*
X95660258Y-124781167D01*
X95683589Y-124750000D01*
X96575001Y-124750000D01*
X96575001Y-124999986D01*
X96585494Y-125102697D01*
X96640641Y-125269119D01*
X96640643Y-125269124D01*
X96732684Y-125418345D01*
X96856654Y-125542315D01*
X97005875Y-125634356D01*
X97005880Y-125634358D01*
X97172302Y-125689505D01*
X97172309Y-125689506D01*
X97275019Y-125699999D01*
X97337499Y-125699998D01*
X97337500Y-125699998D01*
X97337500Y-124750000D01*
X96575001Y-124750000D01*
X95683589Y-124750000D01*
X95702129Y-124725233D01*
X95767593Y-124700816D01*
X95776440Y-124700500D01*
X95971960Y-124700500D01*
X95971961Y-124700500D01*
X95998153Y-124692809D01*
X96015436Y-124689050D01*
X96019882Y-124688410D01*
X96042457Y-124685165D01*
X96067287Y-124673824D01*
X96083862Y-124667642D01*
X96110053Y-124659953D01*
X96133020Y-124645192D01*
X96148540Y-124636717D01*
X96173373Y-124625377D01*
X96194006Y-124607497D01*
X96208148Y-124596910D01*
X96231128Y-124582143D01*
X96249015Y-124561499D01*
X96261499Y-124549015D01*
X96282143Y-124531128D01*
X96296910Y-124508148D01*
X96307497Y-124494006D01*
X96325377Y-124473373D01*
X96336717Y-124448540D01*
X96345192Y-124433020D01*
X96359953Y-124410053D01*
X96367642Y-124383862D01*
X96373822Y-124367292D01*
X96385165Y-124342457D01*
X96385395Y-124340856D01*
X96386067Y-124339384D01*
X96387664Y-124333946D01*
X96388445Y-124334175D01*
X96414411Y-124277302D01*
X96473185Y-124239522D01*
X96543055Y-124239514D01*
X96560730Y-124250000D01*
X97337500Y-124250000D01*
X97337500Y-123300000D01*
X97337499Y-123299999D01*
X97275028Y-123300000D01*
X97275011Y-123300001D01*
X97172302Y-123310494D01*
X97005880Y-123365641D01*
X97005875Y-123365643D01*
X96856654Y-123457684D01*
X96732684Y-123581654D01*
X96640643Y-123730875D01*
X96640641Y-123730880D01*
X96585494Y-123897302D01*
X96585493Y-123897308D01*
X96582418Y-123927408D01*
X96556020Y-123992099D01*
X96498839Y-124032249D01*
X96429028Y-124035111D01*
X96368752Y-123999776D01*
X96354743Y-123981840D01*
X96345191Y-123966976D01*
X96336714Y-123951451D01*
X96332634Y-123942517D01*
X96325377Y-123926627D01*
X96307500Y-123905996D01*
X96296905Y-123891844D01*
X96282143Y-123868872D01*
X96282142Y-123868871D01*
X96261510Y-123850992D01*
X96249006Y-123838488D01*
X96231128Y-123817857D01*
X96231123Y-123817853D01*
X96208160Y-123803095D01*
X96194000Y-123792496D01*
X96181487Y-123781654D01*
X96173373Y-123774623D01*
X96148541Y-123763282D01*
X96133019Y-123754806D01*
X96110053Y-123740047D01*
X96110051Y-123740046D01*
X96083858Y-123732355D01*
X96067288Y-123726174D01*
X96042457Y-123714835D01*
X96015423Y-123710947D01*
X95998154Y-123707190D01*
X95971963Y-123699500D01*
X95971961Y-123699500D01*
X95935799Y-123699500D01*
X95776440Y-123699500D01*
X95709401Y-123679815D01*
X95663646Y-123627011D01*
X95660258Y-123618833D01*
X95618797Y-123507671D01*
X95618793Y-123507664D01*
X95532547Y-123392455D01*
X95532544Y-123392452D01*
X95417335Y-123306206D01*
X95417328Y-123306202D01*
X95282486Y-123255910D01*
X95282485Y-123255909D01*
X95282483Y-123255909D01*
X95222873Y-123249500D01*
X95222863Y-123249500D01*
X94602129Y-123249500D01*
X94602123Y-123249501D01*
X94542516Y-123255908D01*
X94407671Y-123306202D01*
X94407664Y-123306206D01*
X94292455Y-123392452D01*
X94292452Y-123392455D01*
X94206206Y-123507664D01*
X94206202Y-123507671D01*
X94155908Y-123642517D01*
X94149501Y-123702116D01*
X94149501Y-123702123D01*
X94149500Y-123702135D01*
X94149500Y-124697870D01*
X93850500Y-124697870D01*
X93850499Y-123702128D01*
X93844409Y-123645477D01*
X93844091Y-123642516D01*
X93793797Y-123507671D01*
X93793793Y-123507664D01*
X93707547Y-123392455D01*
X93707544Y-123392452D01*
X93592335Y-123306206D01*
X93592328Y-123306202D01*
X93457486Y-123255910D01*
X93457485Y-123255909D01*
X93457483Y-123255909D01*
X93397873Y-123249500D01*
X93397863Y-123249500D01*
X92777129Y-123249500D01*
X92777123Y-123249501D01*
X92717516Y-123255908D01*
X92582671Y-123306202D01*
X92582664Y-123306206D01*
X92467455Y-123392452D01*
X92467452Y-123392455D01*
X92381206Y-123507664D01*
X92381202Y-123507671D01*
X92330908Y-123642517D01*
X92324501Y-123702116D01*
X92324501Y-123702123D01*
X92324500Y-123702135D01*
X92324500Y-124697870D01*
X92324501Y-124697876D01*
X92330908Y-124757483D01*
X92381202Y-124892328D01*
X92381206Y-124892335D01*
X92467451Y-125007543D01*
X92467452Y-125007544D01*
X92467454Y-125007546D01*
X92537312Y-125059842D01*
X92579182Y-125115774D01*
X92587000Y-125159107D01*
X92587000Y-125420358D01*
X92584167Y-125446706D01*
X92583141Y-125451427D01*
X92583141Y-125451429D01*
X92583141Y-125451430D01*
X92585896Y-125489947D01*
X92586579Y-125499500D01*
X92586842Y-125503169D01*
X92587000Y-125507594D01*
X92587000Y-125523299D01*
X92589236Y-125538856D01*
X92589707Y-125543234D01*
X92593409Y-125594985D01*
X92595093Y-125599500D01*
X92601648Y-125625182D01*
X92602334Y-125629955D01*
X92602335Y-125629957D01*
X92623883Y-125677142D01*
X92625571Y-125681216D01*
X92643703Y-125729829D01*
X92643704Y-125729831D01*
X92646596Y-125733694D01*
X92660117Y-125756483D01*
X92662119Y-125760867D01*
X92662122Y-125760871D01*
X92662123Y-125760873D01*
X92696098Y-125800083D01*
X92698862Y-125803513D01*
X92708275Y-125816088D01*
X92708282Y-125816096D01*
X92719386Y-125827200D01*
X92722396Y-125830432D01*
X92750310Y-125862647D01*
X92756371Y-125869642D01*
X92756374Y-125869645D01*
X92760428Y-125872250D01*
X92781071Y-125888885D01*
X93130005Y-126237819D01*
X93163490Y-126299142D01*
X93158506Y-126368834D01*
X93116634Y-126424767D01*
X93051170Y-126449184D01*
X93042324Y-126449500D01*
X92693482Y-126449500D01*
X92599694Y-126464354D01*
X92557243Y-126485985D01*
X92500948Y-126499500D01*
X90818726Y-126499500D01*
X90751687Y-126479815D01*
X90731045Y-126463181D01*
X90061435Y-125793571D01*
X90044800Y-125772928D01*
X90042195Y-125768874D01*
X90042192Y-125768871D01*
X90019423Y-125749142D01*
X90002982Y-125734896D01*
X89999750Y-125731886D01*
X89988646Y-125720782D01*
X89988638Y-125720775D01*
X89976063Y-125711362D01*
X89972633Y-125708598D01*
X89933423Y-125674623D01*
X89933421Y-125674622D01*
X89933417Y-125674619D01*
X89929033Y-125672617D01*
X89906244Y-125659096D01*
X89902381Y-125656204D01*
X89902379Y-125656203D01*
X89853766Y-125638071D01*
X89849692Y-125636383D01*
X89802507Y-125614835D01*
X89802505Y-125614834D01*
X89797732Y-125614148D01*
X89772050Y-125607593D01*
X89767535Y-125605909D01*
X89715790Y-125602207D01*
X89711393Y-125601734D01*
X89695849Y-125599500D01*
X89680144Y-125599500D01*
X89675721Y-125599342D01*
X89658133Y-125598084D01*
X89623979Y-125595641D01*
X89623975Y-125595641D01*
X89619265Y-125596666D01*
X89592907Y-125599500D01*
X89511432Y-125599500D01*
X89444393Y-125579815D01*
X89398638Y-125527011D01*
X89388694Y-125457853D01*
X89412165Y-125401190D01*
X89415679Y-125396494D01*
X89418796Y-125392331D01*
X89446770Y-125317330D01*
X89460258Y-125281167D01*
X89502129Y-125225233D01*
X89567593Y-125200816D01*
X89576440Y-125200500D01*
X89771960Y-125200500D01*
X89771961Y-125200500D01*
X89798153Y-125192809D01*
X89815436Y-125189050D01*
X89819882Y-125188410D01*
X89842457Y-125185165D01*
X89867287Y-125173824D01*
X89883862Y-125167642D01*
X89910053Y-125159953D01*
X89933020Y-125145192D01*
X89948540Y-125136717D01*
X89973373Y-125125377D01*
X89994006Y-125107497D01*
X90008148Y-125096910D01*
X90031128Y-125082143D01*
X90049015Y-125061499D01*
X90061499Y-125049015D01*
X90082143Y-125031128D01*
X90096910Y-125008148D01*
X90107497Y-124994006D01*
X90125377Y-124973373D01*
X90136717Y-124948540D01*
X90145192Y-124933020D01*
X90159953Y-124910053D01*
X90167642Y-124883862D01*
X90173822Y-124867292D01*
X90185165Y-124842457D01*
X90189050Y-124815426D01*
X90192806Y-124798159D01*
X90200500Y-124771961D01*
X90200500Y-124744667D01*
X90201762Y-124727020D01*
X90205647Y-124699999D01*
X90201762Y-124672977D01*
X90200500Y-124655331D01*
X90200500Y-124628042D01*
X90200500Y-124628039D01*
X90192805Y-124601834D01*
X90189051Y-124584577D01*
X90185165Y-124557543D01*
X90183917Y-124554811D01*
X90173826Y-124532715D01*
X90167641Y-124516133D01*
X90163110Y-124500701D01*
X90159953Y-124489947D01*
X90145192Y-124466978D01*
X90136714Y-124451451D01*
X90131703Y-124440479D01*
X90125377Y-124426627D01*
X90107500Y-124405996D01*
X90096905Y-124391844D01*
X90082143Y-124368872D01*
X90073811Y-124361652D01*
X90061510Y-124350992D01*
X90049006Y-124338488D01*
X90031128Y-124317857D01*
X90031123Y-124317853D01*
X90008160Y-124303095D01*
X89994000Y-124292496D01*
X89986938Y-124286377D01*
X89973373Y-124274623D01*
X89948541Y-124263282D01*
X89933019Y-124254806D01*
X89928730Y-124252050D01*
X89910053Y-124240047D01*
X89910051Y-124240046D01*
X89883858Y-124232355D01*
X89867288Y-124226174D01*
X89842457Y-124214835D01*
X89815423Y-124210947D01*
X89798154Y-124207190D01*
X89771963Y-124199500D01*
X89771961Y-124199500D01*
X89735799Y-124199500D01*
X89576440Y-124199500D01*
X89509401Y-124179815D01*
X89463646Y-124127011D01*
X89460258Y-124118833D01*
X89418797Y-124007671D01*
X89418793Y-124007664D01*
X89332547Y-123892455D01*
X89332544Y-123892452D01*
X89217335Y-123806206D01*
X89217328Y-123806202D01*
X89082486Y-123755910D01*
X89082485Y-123755909D01*
X89082483Y-123755909D01*
X89022873Y-123749500D01*
X89022863Y-123749500D01*
X88402129Y-123749500D01*
X88402123Y-123749501D01*
X88342516Y-123755908D01*
X88207671Y-123806202D01*
X88207664Y-123806206D01*
X88092455Y-123892452D01*
X88046498Y-123953842D01*
X87990563Y-123995713D01*
X87920872Y-124000696D01*
X87859549Y-123967210D01*
X87838335Y-123936909D01*
X87838149Y-123937025D01*
X87836170Y-123933816D01*
X87834845Y-123931924D01*
X87834356Y-123930877D01*
X87742315Y-123781654D01*
X87618345Y-123657684D01*
X87469124Y-123565643D01*
X87469119Y-123565641D01*
X87302697Y-123510494D01*
X87302690Y-123510493D01*
X87199986Y-123500000D01*
X87137500Y-123500000D01*
X87137500Y-124826000D01*
X87117815Y-124893039D01*
X87065011Y-124938794D01*
X87013500Y-124950000D01*
X85875001Y-124950000D01*
X85875001Y-125199986D01*
X85885494Y-125302697D01*
X85940641Y-125469119D01*
X85940643Y-125469124D01*
X86032684Y-125618345D01*
X86156654Y-125742315D01*
X86305875Y-125834356D01*
X86305880Y-125834358D01*
X86384819Y-125860516D01*
X86442264Y-125900289D01*
X86469087Y-125964804D01*
X86456772Y-126033580D01*
X86439531Y-126059421D01*
X86424624Y-126076625D01*
X86424617Y-126076636D01*
X86422615Y-126081020D01*
X86409100Y-126103799D01*
X86406206Y-126107664D01*
X86406200Y-126107675D01*
X86388078Y-126156264D01*
X86386385Y-126160353D01*
X86364835Y-126207543D01*
X86364833Y-126207550D01*
X86364146Y-126212327D01*
X86357598Y-126237986D01*
X86355910Y-126242513D01*
X86355909Y-126242517D01*
X86352207Y-126294260D01*
X86351734Y-126298656D01*
X86349500Y-126314199D01*
X86349500Y-126329904D01*
X86349342Y-126334329D01*
X86345641Y-126386069D01*
X86345641Y-126386073D01*
X86346666Y-126390785D01*
X86349500Y-126417143D01*
X86349500Y-126525249D01*
X86329815Y-126592288D01*
X86299812Y-126624515D01*
X86242457Y-126667451D01*
X86242451Y-126667457D01*
X86156206Y-126782664D01*
X86156202Y-126782671D01*
X86105418Y-126918833D01*
X86063547Y-126974767D01*
X85998083Y-126999184D01*
X85989236Y-126999500D01*
X85758676Y-126999500D01*
X85691637Y-126979815D01*
X85670995Y-126963181D01*
X85601385Y-126893571D01*
X85584750Y-126872928D01*
X85582145Y-126868874D01*
X85582142Y-126868871D01*
X85546596Y-126838071D01*
X85542932Y-126834896D01*
X85539700Y-126831886D01*
X85528596Y-126820782D01*
X85528588Y-126820775D01*
X85516013Y-126811362D01*
X85512583Y-126808598D01*
X85473373Y-126774623D01*
X85473371Y-126774622D01*
X85473367Y-126774619D01*
X85468983Y-126772617D01*
X85446194Y-126759096D01*
X85442331Y-126756204D01*
X85442329Y-126756203D01*
X85393716Y-126738071D01*
X85389642Y-126736383D01*
X85342457Y-126714835D01*
X85342455Y-126714834D01*
X85337682Y-126714148D01*
X85312000Y-126707593D01*
X85307485Y-126705909D01*
X85255740Y-126702207D01*
X85251343Y-126701734D01*
X85235799Y-126699500D01*
X85220094Y-126699500D01*
X85215671Y-126699342D01*
X85198083Y-126698084D01*
X85163929Y-126695641D01*
X85163925Y-126695641D01*
X85159215Y-126696666D01*
X85132857Y-126699500D01*
X84876440Y-126699500D01*
X84809401Y-126679815D01*
X84763646Y-126627011D01*
X84760258Y-126618833D01*
X84718797Y-126507671D01*
X84718793Y-126507664D01*
X84632547Y-126392455D01*
X84632544Y-126392452D01*
X84510231Y-126300888D01*
X84511687Y-126298942D01*
X84471487Y-126258741D01*
X84456637Y-126190467D01*
X84481056Y-126125004D01*
X84486609Y-126118114D01*
X84525374Y-126073377D01*
X84525374Y-126073375D01*
X84525377Y-126073373D01*
X84585165Y-125942457D01*
X84593272Y-125886073D01*
X84594898Y-125874767D01*
X84600500Y-125835799D01*
X84605142Y-125803513D01*
X84605647Y-125800000D01*
X84601762Y-125772977D01*
X84600500Y-125755331D01*
X84600500Y-125574749D01*
X84620185Y-125507710D01*
X84650190Y-125475482D01*
X84707546Y-125432546D01*
X84793796Y-125317331D01*
X84844091Y-125182483D01*
X84850500Y-125122873D01*
X84850499Y-124450000D01*
X85875000Y-124450000D01*
X86637500Y-124450000D01*
X86637500Y-123500000D01*
X86637499Y-123499999D01*
X86575028Y-123500000D01*
X86575011Y-123500001D01*
X86472302Y-123510494D01*
X86305880Y-123565641D01*
X86305875Y-123565643D01*
X86156654Y-123657684D01*
X86032684Y-123781654D01*
X85940643Y-123930875D01*
X85940641Y-123930880D01*
X85885494Y-124097302D01*
X85885493Y-124097309D01*
X85875000Y-124200013D01*
X85875000Y-124450000D01*
X84850499Y-124450000D01*
X84850499Y-124077128D01*
X84844857Y-124024646D01*
X84844091Y-124017516D01*
X84793797Y-123882671D01*
X84793793Y-123882664D01*
X84707547Y-123767455D01*
X84707544Y-123767452D01*
X84592335Y-123681206D01*
X84592328Y-123681202D01*
X84457486Y-123630910D01*
X84457485Y-123630909D01*
X84457483Y-123630909D01*
X84397873Y-123624500D01*
X84397863Y-123624500D01*
X83802129Y-123624500D01*
X83802123Y-123624501D01*
X83742516Y-123630908D01*
X83607671Y-123681202D01*
X83607664Y-123681206D01*
X83492455Y-123767452D01*
X83492452Y-123767455D01*
X83406206Y-123882664D01*
X83406202Y-123882671D01*
X83355908Y-124017517D01*
X83349769Y-124074622D01*
X83349501Y-124077123D01*
X83349500Y-124077135D01*
X83349500Y-125122870D01*
X83349501Y-125122876D01*
X83355908Y-125182483D01*
X83406202Y-125317328D01*
X83406203Y-125317329D01*
X83406204Y-125317331D01*
X83492452Y-125432543D01*
X83492455Y-125432547D01*
X83507876Y-125444091D01*
X83541316Y-125469124D01*
X83549810Y-125475482D01*
X83591682Y-125531415D01*
X83599500Y-125574749D01*
X83599500Y-125755331D01*
X83598238Y-125772977D01*
X83594353Y-125800000D01*
X83594858Y-125803513D01*
X83599500Y-125835799D01*
X83606728Y-125886074D01*
X83614834Y-125942453D01*
X83614835Y-125942458D01*
X83674622Y-126073371D01*
X83679418Y-126080834D01*
X83676418Y-126082761D01*
X83698383Y-126130831D01*
X83688454Y-126199991D01*
X83642711Y-126252805D01*
X83618982Y-126264686D01*
X83507671Y-126306202D01*
X83507664Y-126306206D01*
X83392455Y-126392452D01*
X83392452Y-126392455D01*
X83306206Y-126507664D01*
X83306202Y-126507671D01*
X83255908Y-126642517D01*
X83249799Y-126699342D01*
X83249501Y-126702123D01*
X83249500Y-126702135D01*
X83249500Y-127697870D01*
X83249501Y-127697876D01*
X83255908Y-127757483D01*
X83306202Y-127892328D01*
X83306206Y-127892335D01*
X83392452Y-128007544D01*
X83392455Y-128007547D01*
X83507664Y-128093793D01*
X83507671Y-128093797D01*
X83614972Y-128133818D01*
X83670906Y-128175689D01*
X83695323Y-128241154D01*
X83680471Y-128309427D01*
X83631066Y-128358832D01*
X83614972Y-128366182D01*
X83507671Y-128406202D01*
X83507664Y-128406206D01*
X83392455Y-128492452D01*
X83392452Y-128492455D01*
X83306206Y-128607664D01*
X83306202Y-128607671D01*
X83255908Y-128742517D01*
X83250197Y-128795641D01*
X83249501Y-128802123D01*
X83249500Y-128802135D01*
X83249500Y-129797870D01*
X83249501Y-129797876D01*
X83255908Y-129857483D01*
X83302413Y-129982167D01*
X83307397Y-130051859D01*
X83273912Y-130113182D01*
X83212589Y-130146666D01*
X83186231Y-130149500D01*
X83013769Y-130149500D01*
X82946730Y-130129815D01*
X82900975Y-130077011D01*
X82891031Y-130007853D01*
X82897587Y-129982167D01*
X82919531Y-129923332D01*
X82944091Y-129857483D01*
X82950500Y-129797873D01*
X82950499Y-128802128D01*
X82944091Y-128742517D01*
X82935257Y-128718833D01*
X82893797Y-128607671D01*
X82893793Y-128607664D01*
X82807547Y-128492455D01*
X82807544Y-128492452D01*
X82692335Y-128406206D01*
X82692328Y-128406202D01*
X82585027Y-128366182D01*
X82529093Y-128324311D01*
X82504676Y-128258847D01*
X82519527Y-128190574D01*
X82568932Y-128141168D01*
X82585027Y-128133818D01*
X82656487Y-128107164D01*
X82692331Y-128093796D01*
X82807546Y-128007546D01*
X82893796Y-127892331D01*
X82944091Y-127757483D01*
X82950500Y-127697873D01*
X82950499Y-126702128D01*
X82944983Y-126650813D01*
X82944091Y-126642516D01*
X82893797Y-126507671D01*
X82893793Y-126507664D01*
X82807547Y-126392455D01*
X82807544Y-126392452D01*
X82692335Y-126306206D01*
X82692328Y-126306202D01*
X82557486Y-126255910D01*
X82557485Y-126255909D01*
X82557483Y-126255909D01*
X82497873Y-126249500D01*
X82497863Y-126249500D01*
X81877129Y-126249500D01*
X81877123Y-126249501D01*
X81817516Y-126255908D01*
X81682671Y-126306202D01*
X81682664Y-126306206D01*
X81567455Y-126392452D01*
X81567452Y-126392455D01*
X81481206Y-126507664D01*
X81481202Y-126507671D01*
X81439742Y-126618833D01*
X81397871Y-126674767D01*
X81332407Y-126699184D01*
X81323560Y-126699500D01*
X81310764Y-126699500D01*
X81243725Y-126679815D01*
X81197970Y-126627011D01*
X81194582Y-126618833D01*
X81143797Y-126482671D01*
X81143793Y-126482664D01*
X81057547Y-126367455D01*
X81057544Y-126367452D01*
X80942335Y-126281206D01*
X80942328Y-126281202D01*
X80807486Y-126230910D01*
X80807485Y-126230909D01*
X80807483Y-126230909D01*
X80747873Y-126224500D01*
X80747863Y-126224500D01*
X80152129Y-126224500D01*
X80152123Y-126224501D01*
X80092516Y-126230908D01*
X79957671Y-126281202D01*
X79957664Y-126281206D01*
X79842455Y-126367452D01*
X79842452Y-126367455D01*
X79756206Y-126482664D01*
X79756202Y-126482671D01*
X79705908Y-126617517D01*
X79700243Y-126670214D01*
X79699501Y-126677123D01*
X79699500Y-126677135D01*
X79699500Y-127722870D01*
X79699501Y-127722876D01*
X79705908Y-127782483D01*
X79756202Y-127917328D01*
X79756206Y-127917335D01*
X79842452Y-128032544D01*
X79842455Y-128032547D01*
X79957664Y-128118793D01*
X79957671Y-128118797D01*
X79979287Y-128126859D01*
X80092517Y-128169091D01*
X80152127Y-128175500D01*
X80747872Y-128175499D01*
X80807483Y-128169091D01*
X80942331Y-128118796D01*
X81057546Y-128032546D01*
X81143796Y-127917331D01*
X81187371Y-127800500D01*
X81194582Y-127781167D01*
X81236453Y-127725233D01*
X81301917Y-127700816D01*
X81310764Y-127700500D01*
X81323560Y-127700500D01*
X81390599Y-127720185D01*
X81436354Y-127772989D01*
X81439742Y-127781167D01*
X81481202Y-127892328D01*
X81481206Y-127892335D01*
X81567452Y-128007544D01*
X81567455Y-128007547D01*
X81682664Y-128093793D01*
X81682671Y-128093797D01*
X81789972Y-128133818D01*
X81845906Y-128175689D01*
X81870323Y-128241154D01*
X81855471Y-128309427D01*
X81806066Y-128358832D01*
X81789972Y-128366182D01*
X81682671Y-128406202D01*
X81682664Y-128406206D01*
X81567455Y-128492452D01*
X81567452Y-128492455D01*
X81481206Y-128607664D01*
X81481202Y-128607671D01*
X81439742Y-128718833D01*
X81397871Y-128774767D01*
X81332407Y-128799184D01*
X81323560Y-128799500D01*
X81271961Y-128799500D01*
X81128039Y-128799500D01*
X81128036Y-128799500D01*
X81128034Y-128799501D01*
X81101842Y-128807190D01*
X81084568Y-128810948D01*
X81057544Y-128814834D01*
X81057541Y-128814835D01*
X81032710Y-128826175D01*
X81016141Y-128832355D01*
X81003171Y-128836163D01*
X80989947Y-128840047D01*
X80989945Y-128840047D01*
X80989945Y-128840048D01*
X80966982Y-128854805D01*
X80951461Y-128863280D01*
X80926628Y-128874621D01*
X80926625Y-128874623D01*
X80906000Y-128892495D01*
X80891840Y-128903095D01*
X80868876Y-128917853D01*
X80868871Y-128917857D01*
X80850993Y-128938489D01*
X80838489Y-128950993D01*
X80817857Y-128968871D01*
X80817853Y-128968876D01*
X80803095Y-128991840D01*
X80792495Y-129006000D01*
X80774623Y-129026625D01*
X80774621Y-129026628D01*
X80763280Y-129051461D01*
X80754806Y-129066979D01*
X80750905Y-129073049D01*
X80740047Y-129089946D01*
X80732355Y-129116141D01*
X80726175Y-129132711D01*
X80714835Y-129157543D01*
X80710949Y-129184568D01*
X80707189Y-129201851D01*
X80699500Y-129228039D01*
X80699500Y-129255331D01*
X80698238Y-129272977D01*
X80697228Y-129280000D01*
X80694353Y-129300000D01*
X80696872Y-129317517D01*
X80698238Y-129327020D01*
X80699500Y-129344667D01*
X80699500Y-129371964D01*
X80707188Y-129398148D01*
X80710949Y-129415432D01*
X80714835Y-129442457D01*
X80714835Y-129442459D01*
X80726172Y-129467282D01*
X80732355Y-129483858D01*
X80740046Y-129510051D01*
X80740047Y-129510053D01*
X80754806Y-129533019D01*
X80763282Y-129548541D01*
X80774623Y-129573373D01*
X80786217Y-129586753D01*
X80792496Y-129594000D01*
X80803095Y-129608160D01*
X80817853Y-129631123D01*
X80817857Y-129631128D01*
X80838488Y-129649006D01*
X80850992Y-129661510D01*
X80868871Y-129682142D01*
X80868872Y-129682143D01*
X80891844Y-129696905D01*
X80905996Y-129707500D01*
X80926627Y-129725377D01*
X80949899Y-129736005D01*
X80951451Y-129736714D01*
X80966978Y-129745192D01*
X80989947Y-129759953D01*
X81016136Y-129767643D01*
X81032713Y-129773826D01*
X81057538Y-129785163D01*
X81057539Y-129785163D01*
X81057543Y-129785165D01*
X81084564Y-129789050D01*
X81101846Y-129792809D01*
X81128039Y-129800500D01*
X81164201Y-129800500D01*
X81323560Y-129800500D01*
X81390599Y-129820185D01*
X81436354Y-129872989D01*
X81439742Y-129881167D01*
X81481202Y-129992328D01*
X81481203Y-129992330D01*
X81481204Y-129992331D01*
X81547013Y-130080241D01*
X81547168Y-130080447D01*
X81571585Y-130145911D01*
X81556734Y-130214184D01*
X81529103Y-130248471D01*
X81517708Y-130258346D01*
X81517440Y-130258578D01*
X81513996Y-130261353D01*
X81501403Y-130270780D01*
X81490291Y-130281892D01*
X81487055Y-130284905D01*
X81447861Y-130318867D01*
X81447854Y-130318876D01*
X81445243Y-130322938D01*
X81428616Y-130343568D01*
X80052181Y-131720004D01*
X79990858Y-131753489D01*
X79921166Y-131748505D01*
X79865233Y-131706633D01*
X79840816Y-131641169D01*
X79840500Y-131632323D01*
X79840500Y-130325323D01*
X79840499Y-130325321D01*
X79825967Y-130252264D01*
X79825966Y-130252260D01*
X79819442Y-130242496D01*
X79770601Y-130169399D01*
X79687740Y-130114034D01*
X79687739Y-130114033D01*
X79687735Y-130114032D01*
X79614677Y-130099500D01*
X79614674Y-130099500D01*
X77865326Y-130099500D01*
X77865323Y-130099500D01*
X77792264Y-130114032D01*
X77792260Y-130114033D01*
X77709399Y-130169399D01*
X77654033Y-130252260D01*
X77654032Y-130252264D01*
X77639500Y-130325321D01*
X77639500Y-132074678D01*
X77654032Y-132147735D01*
X77654033Y-132147739D01*
X77659689Y-132156204D01*
X77709399Y-132230601D01*
X77766677Y-132268872D01*
X77792260Y-132285966D01*
X77792264Y-132285967D01*
X77865321Y-132300499D01*
X77865324Y-132300500D01*
X77865326Y-132300500D01*
X79172323Y-132300500D01*
X79239362Y-132320185D01*
X79285117Y-132372989D01*
X79295061Y-132442147D01*
X79266036Y-132505703D01*
X79260011Y-132512174D01*
X79171374Y-132600811D01*
X79133118Y-132639067D01*
X79071795Y-132672551D01*
X79022652Y-132673274D01*
X78841976Y-132639500D01*
X78638024Y-132639500D01*
X78437544Y-132676976D01*
X78437541Y-132676976D01*
X78437541Y-132676977D01*
X78247364Y-132750651D01*
X78247357Y-132750655D01*
X78073960Y-132858017D01*
X78073958Y-132858019D01*
X77923237Y-132995418D01*
X77800327Y-133158178D01*
X77709422Y-133340739D01*
X77709417Y-133340752D01*
X77653602Y-133536917D01*
X77634785Y-133739999D01*
X77634785Y-133740000D01*
X77653602Y-133943082D01*
X77709417Y-134139247D01*
X77709422Y-134139260D01*
X77800327Y-134321821D01*
X77923237Y-134484581D01*
X78073958Y-134621980D01*
X78073960Y-134621982D01*
X78125366Y-134653811D01*
X78247363Y-134729348D01*
X78328283Y-134760696D01*
X78383685Y-134803269D01*
X78407276Y-134869035D01*
X78391565Y-134937116D01*
X78341542Y-134985895D01*
X78315586Y-134996097D01*
X78276519Y-135006565D01*
X78276507Y-135006570D01*
X78062422Y-135106399D01*
X78062420Y-135106400D01*
X77868926Y-135241886D01*
X77868920Y-135241891D01*
X77701891Y-135408920D01*
X77701886Y-135408926D01*
X77566400Y-135602420D01*
X77566399Y-135602422D01*
X77466570Y-135816507D01*
X77466567Y-135816513D01*
X77409364Y-136029999D01*
X77409364Y-136030000D01*
X78306314Y-136030000D01*
X78280507Y-136070156D01*
X78240000Y-136208111D01*
X78240000Y-136351889D01*
X78280507Y-136489844D01*
X78306314Y-136530000D01*
X77409364Y-136530000D01*
X76810500Y-136530000D01*
X76810500Y-127722870D01*
X77799500Y-127722870D01*
X77799501Y-127722876D01*
X77805908Y-127782483D01*
X77856202Y-127917328D01*
X77856203Y-127917329D01*
X77856204Y-127917331D01*
X77942454Y-128032546D01*
X77996479Y-128072989D01*
X77999810Y-128075482D01*
X78041682Y-128131415D01*
X78049500Y-128174749D01*
X78049500Y-128505331D01*
X78048238Y-128522977D01*
X78044353Y-128549999D01*
X78064834Y-128692456D01*
X78119544Y-128812251D01*
X78124623Y-128823373D01*
X78218872Y-128932143D01*
X78339947Y-129009953D01*
X78339950Y-129009954D01*
X78339949Y-129009954D01*
X78434609Y-129037748D01*
X78470427Y-129048265D01*
X78478036Y-129050499D01*
X78478038Y-129050500D01*
X78478039Y-129050500D01*
X78621962Y-129050500D01*
X78621962Y-129050499D01*
X78750708Y-129012697D01*
X78760050Y-129009954D01*
X78760050Y-129009953D01*
X78760053Y-129009953D01*
X78881128Y-128932143D01*
X78975377Y-128823373D01*
X79035165Y-128692457D01*
X79055647Y-128550000D01*
X79053288Y-128533589D01*
X79051762Y-128522977D01*
X79050500Y-128505331D01*
X79050500Y-128174749D01*
X79070185Y-128107710D01*
X79100190Y-128075482D01*
X79157546Y-128032546D01*
X79243796Y-127917331D01*
X79294091Y-127782483D01*
X79300500Y-127722873D01*
X79300499Y-126677128D01*
X79294378Y-126620185D01*
X79294091Y-126617516D01*
X79243797Y-126482671D01*
X79243793Y-126482664D01*
X79157547Y-126367455D01*
X79157544Y-126367452D01*
X79035231Y-126275888D01*
X79036026Y-126274825D01*
X78993089Y-126231886D01*
X78978238Y-126163613D01*
X79002656Y-126098149D01*
X79008190Y-126091281D01*
X79012877Y-126085873D01*
X79014875Y-126081495D01*
X79028407Y-126058689D01*
X79031296Y-126054831D01*
X79031473Y-126054358D01*
X79041785Y-126026707D01*
X79049422Y-126006228D01*
X79051114Y-126002145D01*
X79055537Y-125992461D01*
X79072665Y-125954957D01*
X79073350Y-125950185D01*
X79079909Y-125924492D01*
X79081591Y-125919983D01*
X79085291Y-125868240D01*
X79085765Y-125863840D01*
X79088000Y-125848299D01*
X79088000Y-125832594D01*
X79088158Y-125828169D01*
X79088826Y-125818834D01*
X79091859Y-125776427D01*
X79090832Y-125771706D01*
X79088000Y-125745358D01*
X79088000Y-125240303D01*
X79107685Y-125173264D01*
X79138363Y-125140535D01*
X79197150Y-125097150D01*
X79277793Y-124987882D01*
X79305026Y-124910054D01*
X79322646Y-124859701D01*
X79322646Y-124859699D01*
X79325500Y-124829269D01*
X79674500Y-124829269D01*
X79677353Y-124859699D01*
X79677353Y-124859701D01*
X79722206Y-124987879D01*
X79722207Y-124987882D01*
X79802850Y-125097150D01*
X79912118Y-125177793D01*
X79953657Y-125192328D01*
X80040299Y-125222646D01*
X80070730Y-125225500D01*
X80070734Y-125225500D01*
X80579270Y-125225500D01*
X80609699Y-125222646D01*
X80609701Y-125222646D01*
X80684497Y-125196473D01*
X80737882Y-125177793D01*
X80809781Y-125124729D01*
X80875408Y-125100759D01*
X80883413Y-125100500D01*
X81339236Y-125100500D01*
X81406275Y-125120185D01*
X81452030Y-125172989D01*
X81455418Y-125181167D01*
X81506202Y-125317328D01*
X81506206Y-125317335D01*
X81592452Y-125432544D01*
X81592455Y-125432547D01*
X81707664Y-125518793D01*
X81707671Y-125518797D01*
X81737212Y-125529815D01*
X81842517Y-125569091D01*
X81902127Y-125575500D01*
X82497872Y-125575499D01*
X82557483Y-125569091D01*
X82692331Y-125518796D01*
X82807546Y-125432546D01*
X82893796Y-125317331D01*
X82944091Y-125182483D01*
X82950500Y-125122873D01*
X82950499Y-124077128D01*
X82944857Y-124024646D01*
X82944091Y-124017516D01*
X82893797Y-123882671D01*
X82893793Y-123882664D01*
X82807547Y-123767455D01*
X82807544Y-123767452D01*
X82692335Y-123681206D01*
X82692328Y-123681202D01*
X82557486Y-123630910D01*
X82557485Y-123630909D01*
X82557483Y-123630909D01*
X82497873Y-123624500D01*
X82497863Y-123624500D01*
X81902129Y-123624500D01*
X81902123Y-123624501D01*
X81842516Y-123630908D01*
X81707671Y-123681202D01*
X81707664Y-123681206D01*
X81592455Y-123767452D01*
X81592452Y-123767455D01*
X81506206Y-123882664D01*
X81506202Y-123882671D01*
X81455418Y-124018833D01*
X81413547Y-124074767D01*
X81348083Y-124099184D01*
X81339236Y-124099500D01*
X81046352Y-124099500D01*
X80979313Y-124079815D01*
X80933558Y-124027011D01*
X80929310Y-124016452D01*
X80927794Y-124012121D01*
X80927793Y-124012118D01*
X80924511Y-124007671D01*
X80847150Y-123902850D01*
X80737882Y-123822207D01*
X80737880Y-123822206D01*
X80609700Y-123777353D01*
X80579270Y-123774500D01*
X80579266Y-123774500D01*
X80070734Y-123774500D01*
X80070730Y-123774500D01*
X80040300Y-123777353D01*
X80040298Y-123777353D01*
X79912119Y-123822206D01*
X79912117Y-123822207D01*
X79802850Y-123902850D01*
X79722207Y-124012117D01*
X79722206Y-124012119D01*
X79677353Y-124140298D01*
X79677353Y-124140300D01*
X79674500Y-124170730D01*
X79674500Y-124829269D01*
X79325500Y-124829269D01*
X79325500Y-124170730D01*
X79322646Y-124140300D01*
X79322646Y-124140298D01*
X79286605Y-124037302D01*
X79277793Y-124012118D01*
X79197150Y-123902850D01*
X79087882Y-123822207D01*
X79087880Y-123822206D01*
X78959700Y-123777353D01*
X78929270Y-123774500D01*
X78929266Y-123774500D01*
X78420734Y-123774500D01*
X78420730Y-123774500D01*
X78390300Y-123777353D01*
X78390298Y-123777353D01*
X78262119Y-123822206D01*
X78262117Y-123822207D01*
X78152850Y-123902850D01*
X78072207Y-124012117D01*
X78072206Y-124012119D01*
X78027353Y-124140298D01*
X78027353Y-124140300D01*
X78024500Y-124170730D01*
X78024500Y-124829269D01*
X78027353Y-124859699D01*
X78027353Y-124859701D01*
X78067129Y-124973371D01*
X78072207Y-124987882D01*
X78072209Y-124987884D01*
X78072628Y-124988678D01*
X78072975Y-124990077D01*
X78075276Y-124996653D01*
X78074659Y-124996868D01*
X78087000Y-125046623D01*
X78087000Y-125632033D01*
X78075795Y-125683543D01*
X78064834Y-125707545D01*
X78064146Y-125712327D01*
X78057598Y-125737986D01*
X78055910Y-125742513D01*
X78055909Y-125742516D01*
X78052207Y-125794256D01*
X78051734Y-125798655D01*
X78044353Y-125849997D01*
X78044353Y-125850003D01*
X78045039Y-125854777D01*
X78045985Y-125881255D01*
X78045641Y-125886068D01*
X78045641Y-125886073D01*
X78053998Y-125924492D01*
X78056666Y-125936753D01*
X78057452Y-125941110D01*
X78064834Y-125992453D01*
X78064836Y-125992461D01*
X78066837Y-125996842D01*
X78075208Y-126021990D01*
X78076233Y-126026705D01*
X78076234Y-126026707D01*
X78101095Y-126072236D01*
X78103076Y-126076193D01*
X78121138Y-126115742D01*
X78131083Y-126184901D01*
X78102060Y-126248457D01*
X78064234Y-126274720D01*
X78065454Y-126276953D01*
X78057664Y-126281206D01*
X77942455Y-126367452D01*
X77942452Y-126367455D01*
X77856206Y-126482664D01*
X77856202Y-126482671D01*
X77805908Y-126617517D01*
X77800243Y-126670214D01*
X77799501Y-126677123D01*
X77799500Y-126677135D01*
X77799500Y-127722870D01*
X76810500Y-127722870D01*
X76810500Y-122032678D01*
X77639500Y-122032678D01*
X77654032Y-122105735D01*
X77654033Y-122105739D01*
X77654034Y-122105740D01*
X77709399Y-122188601D01*
X77772256Y-122230600D01*
X77792260Y-122243966D01*
X77792264Y-122243967D01*
X77865321Y-122258499D01*
X77865324Y-122258500D01*
X77865326Y-122258500D01*
X79614676Y-122258500D01*
X79614677Y-122258499D01*
X79687740Y-122243966D01*
X79770601Y-122188601D01*
X79825966Y-122105740D01*
X79840500Y-122032674D01*
X79840500Y-121158000D01*
X80174785Y-121158000D01*
X80193602Y-121361082D01*
X80249417Y-121557247D01*
X80249422Y-121557260D01*
X80340327Y-121739821D01*
X80463237Y-121902581D01*
X80613958Y-122039980D01*
X80613960Y-122039982D01*
X80681790Y-122081980D01*
X80787363Y-122147348D01*
X80977544Y-122221024D01*
X81178024Y-122258500D01*
X81178026Y-122258500D01*
X81381974Y-122258500D01*
X81381976Y-122258500D01*
X81582456Y-122221024D01*
X81772637Y-122147348D01*
X81946041Y-122039981D01*
X82096764Y-121902579D01*
X82219673Y-121739821D01*
X82310582Y-121557250D01*
X82366397Y-121361083D01*
X82385215Y-121158000D01*
X82714785Y-121158000D01*
X82733602Y-121361082D01*
X82789417Y-121557247D01*
X82789422Y-121557260D01*
X82880327Y-121739821D01*
X83003237Y-121902581D01*
X83153958Y-122039980D01*
X83153960Y-122039982D01*
X83221790Y-122081980D01*
X83327363Y-122147348D01*
X83517544Y-122221024D01*
X83718024Y-122258500D01*
X83718026Y-122258500D01*
X83921974Y-122258500D01*
X83921976Y-122258500D01*
X84122456Y-122221024D01*
X84312637Y-122147348D01*
X84486041Y-122039981D01*
X84636764Y-121902579D01*
X84759673Y-121739821D01*
X84850582Y-121557250D01*
X84906397Y-121361083D01*
X84925215Y-121158000D01*
X85254785Y-121158000D01*
X85273602Y-121361082D01*
X85329417Y-121557247D01*
X85329422Y-121557260D01*
X85420327Y-121739821D01*
X85543237Y-121902581D01*
X85693958Y-122039980D01*
X85693960Y-122039982D01*
X85761790Y-122081980D01*
X85867363Y-122147348D01*
X86057544Y-122221024D01*
X86258024Y-122258500D01*
X86258026Y-122258500D01*
X86461974Y-122258500D01*
X86461976Y-122258500D01*
X86662456Y-122221024D01*
X86852637Y-122147348D01*
X87026041Y-122039981D01*
X87176764Y-121902579D01*
X87299673Y-121739821D01*
X87390582Y-121557250D01*
X87446397Y-121361083D01*
X87465215Y-121158000D01*
X87446397Y-120954917D01*
X87427464Y-120888375D01*
X87428050Y-120818513D01*
X87459045Y-120766767D01*
X87788997Y-120436816D01*
X87850318Y-120403334D01*
X87876676Y-120400500D01*
X89535500Y-120400500D01*
X89602539Y-120420185D01*
X89648294Y-120472989D01*
X89659500Y-120524500D01*
X89659500Y-122074678D01*
X89674032Y-122147735D01*
X89674033Y-122147739D01*
X89674034Y-122147740D01*
X89729399Y-122230601D01*
X89791358Y-122272000D01*
X89812260Y-122285966D01*
X89812264Y-122285967D01*
X89885321Y-122300499D01*
X89885324Y-122300500D01*
X89885326Y-122300500D01*
X90135500Y-122300500D01*
X90202539Y-122320185D01*
X90248294Y-122372989D01*
X90259500Y-122424500D01*
X90259500Y-122592858D01*
X90256667Y-122619206D01*
X90255641Y-122623927D01*
X90255641Y-122623929D01*
X90255641Y-122623930D01*
X90259342Y-122675669D01*
X90259500Y-122680094D01*
X90259500Y-122695799D01*
X90261734Y-122711343D01*
X90262207Y-122715740D01*
X90265909Y-122767485D01*
X90267593Y-122772000D01*
X90274148Y-122797682D01*
X90274834Y-122802455D01*
X90274835Y-122802457D01*
X90296383Y-122849642D01*
X90298071Y-122853716D01*
X90316203Y-122902329D01*
X90319096Y-122906194D01*
X90332617Y-122928983D01*
X90334619Y-122933367D01*
X90334622Y-122933371D01*
X90334623Y-122933373D01*
X90368598Y-122972583D01*
X90371362Y-122976013D01*
X90380775Y-122988588D01*
X90380782Y-122988596D01*
X90391886Y-122999700D01*
X90394896Y-123002932D01*
X90419224Y-123031008D01*
X90428871Y-123042142D01*
X90428874Y-123042145D01*
X90432928Y-123044750D01*
X90453571Y-123061385D01*
X90931895Y-123539708D01*
X90934890Y-123542925D01*
X90968872Y-123582143D01*
X91012519Y-123610193D01*
X91016149Y-123612714D01*
X91057669Y-123643796D01*
X91062183Y-123645479D01*
X91085888Y-123657344D01*
X91089947Y-123659953D01*
X91139737Y-123674571D01*
X91143894Y-123675955D01*
X91192517Y-123694091D01*
X91197320Y-123694434D01*
X91223421Y-123699144D01*
X91224634Y-123699500D01*
X91228039Y-123700500D01*
X91279906Y-123700500D01*
X91284328Y-123700657D01*
X91336073Y-123704359D01*
X91340785Y-123703334D01*
X91367143Y-123700500D01*
X91371961Y-123700500D01*
X91421743Y-123685882D01*
X91426000Y-123684796D01*
X91476706Y-123673766D01*
X91480928Y-123671460D01*
X91505435Y-123661309D01*
X91506792Y-123660910D01*
X91510053Y-123659953D01*
X91553700Y-123631902D01*
X91557487Y-123629655D01*
X91603023Y-123604791D01*
X91606429Y-123601383D01*
X91627070Y-123584750D01*
X91631128Y-123582143D01*
X91665116Y-123542916D01*
X91668098Y-123539714D01*
X91704791Y-123503023D01*
X91707099Y-123498795D01*
X91722225Y-123477010D01*
X91722486Y-123476709D01*
X91725377Y-123473373D01*
X91746935Y-123426165D01*
X91748896Y-123422248D01*
X91773766Y-123376706D01*
X91774789Y-123372001D01*
X91783164Y-123346837D01*
X91785165Y-123342457D01*
X91792548Y-123291100D01*
X91793331Y-123286763D01*
X91804359Y-123236075D01*
X91804015Y-123231267D01*
X91804962Y-123204762D01*
X91805647Y-123200000D01*
X91798261Y-123148635D01*
X91797791Y-123144262D01*
X91794091Y-123092517D01*
X91792407Y-123088002D01*
X91785850Y-123062312D01*
X91785165Y-123057543D01*
X91778131Y-123042142D01*
X91763616Y-123010359D01*
X91761932Y-123006295D01*
X91743796Y-122957669D01*
X91740905Y-122953807D01*
X91727379Y-122931010D01*
X91725377Y-122926627D01*
X91725375Y-122926625D01*
X91725375Y-122926624D01*
X91725374Y-122926623D01*
X91691403Y-122887418D01*
X91688625Y-122883970D01*
X91679224Y-122871412D01*
X91679222Y-122871410D01*
X91679220Y-122871407D01*
X91668117Y-122860304D01*
X91665100Y-122857063D01*
X91631128Y-122817857D01*
X91627071Y-122815250D01*
X91606427Y-122798614D01*
X91319995Y-122512181D01*
X91286510Y-122450858D01*
X91291494Y-122381166D01*
X91333366Y-122325233D01*
X91398830Y-122300816D01*
X91407676Y-122300500D01*
X91634676Y-122300500D01*
X91634677Y-122300499D01*
X91707740Y-122285966D01*
X91790601Y-122230601D01*
X91845966Y-122147740D01*
X91860500Y-122074674D01*
X91860500Y-121866681D01*
X91880185Y-121799642D01*
X91932989Y-121753887D01*
X92002147Y-121743943D01*
X92065703Y-121772968D01*
X92096882Y-121814277D01*
X92126398Y-121877575D01*
X92126399Y-121877577D01*
X92261894Y-122071082D01*
X92428917Y-122238105D01*
X92622421Y-122373600D01*
X92836507Y-122473429D01*
X92836516Y-122473433D01*
X93050000Y-122530634D01*
X93050000Y-121635501D01*
X93157685Y-121684680D01*
X93264237Y-121700000D01*
X93335763Y-121700000D01*
X93442315Y-121684680D01*
X93550000Y-121635501D01*
X93550000Y-122530633D01*
X93763483Y-122473433D01*
X93763492Y-122473429D01*
X93977578Y-122373600D01*
X94171082Y-122238105D01*
X94338105Y-122071082D01*
X94473600Y-121877578D01*
X94573429Y-121663492D01*
X94573432Y-121663486D01*
X94630636Y-121450000D01*
X93733686Y-121450000D01*
X93759493Y-121409844D01*
X93800000Y-121271889D01*
X93800000Y-121128111D01*
X93759493Y-120990156D01*
X93733686Y-120950000D01*
X94630636Y-120950000D01*
X94630635Y-120949999D01*
X94573432Y-120736513D01*
X94573429Y-120736507D01*
X94499006Y-120576905D01*
X94488514Y-120507827D01*
X94517034Y-120444043D01*
X94575510Y-120405804D01*
X94611388Y-120400500D01*
X95461324Y-120400500D01*
X95528363Y-120420185D01*
X95549005Y-120436819D01*
X95920949Y-120808763D01*
X95954434Y-120870086D01*
X95952535Y-120930377D01*
X95933602Y-120996919D01*
X95914785Y-121199999D01*
X95914785Y-121200000D01*
X95933602Y-121403082D01*
X95989417Y-121599247D01*
X95989422Y-121599260D01*
X96080327Y-121781821D01*
X96203237Y-121944581D01*
X96353958Y-122081980D01*
X96353960Y-122081982D01*
X96392331Y-122105740D01*
X96527363Y-122189348D01*
X96717544Y-122263024D01*
X96918024Y-122300500D01*
X96918026Y-122300500D01*
X97121974Y-122300500D01*
X97121976Y-122300500D01*
X97322456Y-122263024D01*
X97512637Y-122189348D01*
X97686041Y-122081981D01*
X97836764Y-121944579D01*
X97959673Y-121781821D01*
X98050582Y-121599250D01*
X98106397Y-121403083D01*
X98125215Y-121200000D01*
X98454785Y-121200000D01*
X98473602Y-121403082D01*
X98529417Y-121599247D01*
X98529422Y-121599260D01*
X98620327Y-121781821D01*
X98743237Y-121944581D01*
X98893958Y-122081980D01*
X98893960Y-122081982D01*
X98932331Y-122105740D01*
X99000164Y-122147740D01*
X99006108Y-122151420D01*
X99052744Y-122203447D01*
X99064515Y-122247997D01*
X99065909Y-122267486D01*
X99067593Y-122272000D01*
X99074148Y-122297682D01*
X99074834Y-122302455D01*
X99074835Y-122302457D01*
X99096383Y-122349642D01*
X99098071Y-122353716D01*
X99116203Y-122402329D01*
X99119096Y-122406194D01*
X99132617Y-122428983D01*
X99134619Y-122433367D01*
X99134622Y-122433371D01*
X99134623Y-122433373D01*
X99168598Y-122472583D01*
X99171362Y-122476013D01*
X99180775Y-122488588D01*
X99180782Y-122488596D01*
X99191886Y-122499700D01*
X99194896Y-122502932D01*
X99222810Y-122535147D01*
X99228871Y-122542142D01*
X99228874Y-122542145D01*
X99232928Y-122544750D01*
X99253571Y-122561385D01*
X100331901Y-123639715D01*
X100334896Y-123642932D01*
X100354075Y-123665066D01*
X100368056Y-123681202D01*
X100368872Y-123682143D01*
X100412525Y-123710197D01*
X100416131Y-123712700D01*
X100457669Y-123743795D01*
X100457672Y-123743796D01*
X100462184Y-123745479D01*
X100485889Y-123757345D01*
X100489945Y-123759952D01*
X100496762Y-123763065D01*
X100549566Y-123808820D01*
X100559077Y-123841212D01*
X100584622Y-123815668D01*
X100644049Y-123800500D01*
X100679915Y-123800500D01*
X100684337Y-123800657D01*
X100736073Y-123804358D01*
X100739302Y-123803655D01*
X100740781Y-123803334D01*
X100767138Y-123800500D01*
X100771962Y-123800500D01*
X100782575Y-123797383D01*
X100821769Y-123785874D01*
X100826007Y-123784793D01*
X100876706Y-123773765D01*
X100880931Y-123771457D01*
X100905426Y-123761311D01*
X100910053Y-123759953D01*
X100953722Y-123731887D01*
X100957476Y-123729660D01*
X101003023Y-123704791D01*
X101006429Y-123701383D01*
X101027070Y-123684750D01*
X101031128Y-123682143D01*
X101065116Y-123642916D01*
X101068098Y-123639714D01*
X101104791Y-123603023D01*
X101107100Y-123598792D01*
X101122221Y-123577014D01*
X101125377Y-123573373D01*
X101146928Y-123526180D01*
X101148899Y-123522241D01*
X101173765Y-123476706D01*
X101174787Y-123472004D01*
X101183166Y-123446833D01*
X101185165Y-123442457D01*
X101192550Y-123391086D01*
X101193325Y-123386785D01*
X101204358Y-123336073D01*
X101204014Y-123331267D01*
X101204961Y-123304768D01*
X101205647Y-123300000D01*
X101198260Y-123248630D01*
X101197789Y-123244238D01*
X101197205Y-123236075D01*
X101194091Y-123192517D01*
X101194091Y-123192515D01*
X101192408Y-123188004D01*
X101185851Y-123162316D01*
X101185165Y-123157543D01*
X101163617Y-123110359D01*
X101161922Y-123106269D01*
X101156791Y-123092512D01*
X101143795Y-123057669D01*
X101140908Y-123053813D01*
X101127379Y-123031012D01*
X101125377Y-123026627D01*
X101091402Y-122987419D01*
X101088631Y-122983979D01*
X101079220Y-122971406D01*
X101079215Y-122971401D01*
X101079211Y-122971396D01*
X101068110Y-122960296D01*
X101065093Y-122957055D01*
X101031129Y-122917858D01*
X101031125Y-122917854D01*
X101027066Y-122915246D01*
X101006428Y-122898614D01*
X100298908Y-122191094D01*
X100265423Y-122129771D01*
X100269363Y-122074678D01*
X100999500Y-122074678D01*
X101014032Y-122147735D01*
X101014033Y-122147739D01*
X101014034Y-122147740D01*
X101069399Y-122230601D01*
X101131358Y-122272000D01*
X101152260Y-122285966D01*
X101152264Y-122285967D01*
X101225321Y-122300499D01*
X101225324Y-122300500D01*
X101225326Y-122300500D01*
X102974676Y-122300500D01*
X102974677Y-122300499D01*
X103047740Y-122285966D01*
X103130601Y-122230601D01*
X103185966Y-122147740D01*
X103200500Y-122074674D01*
X103200500Y-121824500D01*
X103220185Y-121757461D01*
X103272989Y-121711706D01*
X103324500Y-121700500D01*
X104575500Y-121700500D01*
X104642539Y-121720185D01*
X104688294Y-121772989D01*
X104699500Y-121824500D01*
X104699500Y-122074678D01*
X104714032Y-122147735D01*
X104714033Y-122147739D01*
X104714034Y-122147740D01*
X104769399Y-122230601D01*
X104831358Y-122272000D01*
X104852260Y-122285966D01*
X104852264Y-122285967D01*
X104925321Y-122300499D01*
X104925324Y-122300500D01*
X104925326Y-122300500D01*
X106674676Y-122300500D01*
X106674677Y-122300499D01*
X106747740Y-122285966D01*
X106830601Y-122230601D01*
X106885966Y-122147740D01*
X106900499Y-122074678D01*
X108399500Y-122074678D01*
X108414032Y-122147735D01*
X108414033Y-122147739D01*
X108414034Y-122147740D01*
X108469399Y-122230601D01*
X108531358Y-122272000D01*
X108552260Y-122285966D01*
X108552264Y-122285967D01*
X108625321Y-122300499D01*
X108625324Y-122300500D01*
X108625326Y-122300500D01*
X110374676Y-122300500D01*
X110374677Y-122300499D01*
X110447740Y-122285966D01*
X110530601Y-122230601D01*
X110585966Y-122147740D01*
X110600500Y-122074674D01*
X110600500Y-121824500D01*
X110620185Y-121757461D01*
X110672989Y-121711706D01*
X110724500Y-121700500D01*
X111975500Y-121700500D01*
X112042539Y-121720185D01*
X112088294Y-121772989D01*
X112099500Y-121824500D01*
X112099500Y-122074678D01*
X112114032Y-122147735D01*
X112114033Y-122147739D01*
X112114034Y-122147740D01*
X112169399Y-122230601D01*
X112231358Y-122272000D01*
X112252260Y-122285966D01*
X112252264Y-122285967D01*
X112325321Y-122300499D01*
X112325324Y-122300500D01*
X112325326Y-122300500D01*
X114074676Y-122300500D01*
X114074677Y-122300499D01*
X114147740Y-122285966D01*
X114230601Y-122230601D01*
X114285966Y-122147740D01*
X114300500Y-122074674D01*
X114300500Y-121200000D01*
X114634785Y-121200000D01*
X114653602Y-121403082D01*
X114709417Y-121599247D01*
X114709422Y-121599260D01*
X114800327Y-121781821D01*
X114923237Y-121944581D01*
X115073958Y-122081980D01*
X115073960Y-122081982D01*
X115112331Y-122105740D01*
X115247363Y-122189348D01*
X115437544Y-122263024D01*
X115638024Y-122300500D01*
X115638026Y-122300500D01*
X115841974Y-122300500D01*
X115841976Y-122300500D01*
X116042456Y-122263024D01*
X116232637Y-122189348D01*
X116406041Y-122081981D01*
X116556764Y-121944579D01*
X116679673Y-121781821D01*
X116770582Y-121599250D01*
X116826397Y-121403083D01*
X116845215Y-121200000D01*
X117174785Y-121200000D01*
X117193602Y-121403082D01*
X117249417Y-121599247D01*
X117249422Y-121599260D01*
X117340327Y-121781821D01*
X117463237Y-121944581D01*
X117613958Y-122081980D01*
X117613960Y-122081982D01*
X117652331Y-122105740D01*
X117787363Y-122189348D01*
X117977544Y-122263024D01*
X118178024Y-122300500D01*
X118178026Y-122300500D01*
X118381974Y-122300500D01*
X118381976Y-122300500D01*
X118582456Y-122263024D01*
X118772637Y-122189348D01*
X118946041Y-122081981D01*
X119096764Y-121944579D01*
X119219673Y-121781821D01*
X119310582Y-121599250D01*
X119366397Y-121403083D01*
X119385215Y-121200000D01*
X119366397Y-120996917D01*
X119310582Y-120800750D01*
X119219673Y-120618179D01*
X119096764Y-120455421D01*
X119096762Y-120455418D01*
X118946041Y-120318019D01*
X118946039Y-120318017D01*
X118772642Y-120210655D01*
X118772635Y-120210651D01*
X118664219Y-120168651D01*
X118582456Y-120136976D01*
X118381976Y-120099500D01*
X118178024Y-120099500D01*
X117977544Y-120136976D01*
X117977541Y-120136976D01*
X117977541Y-120136977D01*
X117787364Y-120210651D01*
X117787357Y-120210655D01*
X117613960Y-120318017D01*
X117613958Y-120318019D01*
X117463237Y-120455418D01*
X117340327Y-120618178D01*
X117249422Y-120800739D01*
X117249417Y-120800752D01*
X117193602Y-120996917D01*
X117174785Y-121199999D01*
X117174785Y-121200000D01*
X116845215Y-121200000D01*
X116826397Y-120996917D01*
X116770582Y-120800750D01*
X116679673Y-120618179D01*
X116556764Y-120455421D01*
X116556762Y-120455418D01*
X116406041Y-120318019D01*
X116406039Y-120318017D01*
X116232642Y-120210655D01*
X116232635Y-120210651D01*
X116124219Y-120168651D01*
X116042456Y-120136976D01*
X115841976Y-120099500D01*
X115638024Y-120099500D01*
X115437544Y-120136976D01*
X115437541Y-120136976D01*
X115437541Y-120136977D01*
X115247364Y-120210651D01*
X115247357Y-120210655D01*
X115073960Y-120318017D01*
X115073958Y-120318019D01*
X114923237Y-120455418D01*
X114800327Y-120618178D01*
X114709422Y-120800739D01*
X114709417Y-120800752D01*
X114653602Y-120996917D01*
X114634785Y-121199999D01*
X114634785Y-121200000D01*
X114300500Y-121200000D01*
X114300500Y-120325326D01*
X114300500Y-120325323D01*
X114300499Y-120325321D01*
X114285967Y-120252264D01*
X114285966Y-120252260D01*
X114230601Y-120169399D01*
X114175235Y-120132405D01*
X114147739Y-120114033D01*
X114147735Y-120114032D01*
X114074677Y-120099500D01*
X114074674Y-120099500D01*
X112325326Y-120099500D01*
X112325323Y-120099500D01*
X112252264Y-120114032D01*
X112252260Y-120114033D01*
X112169399Y-120169399D01*
X112114033Y-120252260D01*
X112114032Y-120252264D01*
X112099500Y-120325321D01*
X112099500Y-120575500D01*
X112079815Y-120642539D01*
X112027011Y-120688294D01*
X111975500Y-120699500D01*
X110724500Y-120699500D01*
X110657461Y-120679815D01*
X110611706Y-120627011D01*
X110600500Y-120575500D01*
X110600500Y-120325323D01*
X110600499Y-120325321D01*
X110585967Y-120252264D01*
X110585966Y-120252260D01*
X110530601Y-120169399D01*
X110475235Y-120132405D01*
X110447739Y-120114033D01*
X110447735Y-120114032D01*
X110374677Y-120099500D01*
X110374674Y-120099500D01*
X108625326Y-120099500D01*
X108625323Y-120099500D01*
X108552264Y-120114032D01*
X108552260Y-120114033D01*
X108469399Y-120169399D01*
X108414033Y-120252260D01*
X108414032Y-120252264D01*
X108399500Y-120325321D01*
X108399500Y-122074678D01*
X106900499Y-122074678D01*
X106900500Y-122074674D01*
X106900500Y-120325326D01*
X106900500Y-120325323D01*
X106900499Y-120325321D01*
X106885967Y-120252264D01*
X106885966Y-120252260D01*
X106830601Y-120169399D01*
X106775235Y-120132405D01*
X106747739Y-120114033D01*
X106747735Y-120114032D01*
X106674677Y-120099500D01*
X106674674Y-120099500D01*
X104925326Y-120099500D01*
X104925323Y-120099500D01*
X104852264Y-120114032D01*
X104852260Y-120114033D01*
X104769399Y-120169399D01*
X104714033Y-120252260D01*
X104714032Y-120252264D01*
X104699500Y-120325321D01*
X104699500Y-120575500D01*
X104679815Y-120642539D01*
X104627011Y-120688294D01*
X104575500Y-120699500D01*
X103324500Y-120699500D01*
X103257461Y-120679815D01*
X103211706Y-120627011D01*
X103200500Y-120575500D01*
X103200500Y-120325323D01*
X103200499Y-120325321D01*
X103185967Y-120252264D01*
X103185966Y-120252260D01*
X103130601Y-120169399D01*
X103075235Y-120132405D01*
X103047739Y-120114033D01*
X103047735Y-120114032D01*
X102974677Y-120099500D01*
X102974674Y-120099500D01*
X101225326Y-120099500D01*
X101225323Y-120099500D01*
X101152264Y-120114032D01*
X101152260Y-120114033D01*
X101069399Y-120169399D01*
X101014033Y-120252260D01*
X101014032Y-120252264D01*
X100999500Y-120325321D01*
X100999500Y-122074678D01*
X100269363Y-122074678D01*
X100270407Y-122060079D01*
X100303049Y-122011778D01*
X100376764Y-121944579D01*
X100499673Y-121781821D01*
X100590582Y-121599250D01*
X100646397Y-121403083D01*
X100665215Y-121200000D01*
X100646397Y-120996917D01*
X100590582Y-120800750D01*
X100499673Y-120618179D01*
X100376764Y-120455421D01*
X100376762Y-120455418D01*
X100226041Y-120318019D01*
X100226039Y-120318017D01*
X100052642Y-120210655D01*
X100052635Y-120210651D01*
X99944219Y-120168651D01*
X99862456Y-120136976D01*
X99661976Y-120099500D01*
X99458024Y-120099500D01*
X99257544Y-120136976D01*
X99257541Y-120136976D01*
X99257541Y-120136977D01*
X99067364Y-120210651D01*
X99067357Y-120210655D01*
X98893960Y-120318017D01*
X98893958Y-120318019D01*
X98743237Y-120455418D01*
X98620327Y-120618178D01*
X98529422Y-120800739D01*
X98529417Y-120800752D01*
X98473602Y-120996917D01*
X98454785Y-121199999D01*
X98454785Y-121200000D01*
X98125215Y-121200000D01*
X98106397Y-120996917D01*
X98050582Y-120800750D01*
X97959673Y-120618179D01*
X97836764Y-120455421D01*
X97836762Y-120455418D01*
X97686041Y-120318019D01*
X97686039Y-120318017D01*
X97512642Y-120210655D01*
X97512635Y-120210651D01*
X97404219Y-120168651D01*
X97322456Y-120136976D01*
X97121976Y-120099500D01*
X96918024Y-120099500D01*
X96873524Y-120107818D01*
X96737345Y-120133274D01*
X96667830Y-120126243D01*
X96626880Y-120099066D01*
X96121385Y-119593571D01*
X96104750Y-119572928D01*
X96102145Y-119568874D01*
X96102142Y-119568871D01*
X96095147Y-119562810D01*
X96062932Y-119534896D01*
X96059700Y-119531886D01*
X96048596Y-119520782D01*
X96048588Y-119520775D01*
X96036013Y-119511362D01*
X96032583Y-119508598D01*
X95993373Y-119474623D01*
X95993371Y-119474622D01*
X95993367Y-119474619D01*
X95988983Y-119472617D01*
X95966194Y-119459096D01*
X95962331Y-119456204D01*
X95962329Y-119456203D01*
X95913716Y-119438071D01*
X95909642Y-119436383D01*
X95862457Y-119414835D01*
X95862455Y-119414834D01*
X95857682Y-119414148D01*
X95832000Y-119407593D01*
X95827485Y-119405909D01*
X95775740Y-119402207D01*
X95771343Y-119401734D01*
X95755799Y-119399500D01*
X95740094Y-119399500D01*
X95735671Y-119399342D01*
X95718083Y-119398084D01*
X95683929Y-119395641D01*
X95683925Y-119395641D01*
X95679215Y-119396666D01*
X95652857Y-119399500D01*
X87685143Y-119399500D01*
X87658785Y-119396666D01*
X87654074Y-119395641D01*
X87654070Y-119395641D01*
X87615552Y-119398396D01*
X87602328Y-119399342D01*
X87597906Y-119399500D01*
X87582199Y-119399500D01*
X87566656Y-119401734D01*
X87562260Y-119402207D01*
X87510517Y-119405909D01*
X87510513Y-119405910D01*
X87505986Y-119407598D01*
X87480327Y-119414146D01*
X87475550Y-119414833D01*
X87475543Y-119414835D01*
X87428353Y-119436385D01*
X87424264Y-119438078D01*
X87375675Y-119456200D01*
X87375664Y-119456206D01*
X87371799Y-119459100D01*
X87349020Y-119472615D01*
X87344636Y-119474617D01*
X87344626Y-119474623D01*
X87320676Y-119495375D01*
X87305433Y-119508584D01*
X87301996Y-119511354D01*
X87289402Y-119520781D01*
X87278291Y-119531892D01*
X87275055Y-119534905D01*
X87235861Y-119568867D01*
X87235854Y-119568876D01*
X87233243Y-119572938D01*
X87216616Y-119593568D01*
X86753118Y-120057066D01*
X86691795Y-120090551D01*
X86642652Y-120091274D01*
X86461976Y-120057500D01*
X86258024Y-120057500D01*
X86057544Y-120094976D01*
X86057541Y-120094976D01*
X86057541Y-120094977D01*
X85867364Y-120168651D01*
X85867357Y-120168655D01*
X85693960Y-120276017D01*
X85693958Y-120276019D01*
X85543237Y-120413418D01*
X85420327Y-120576178D01*
X85329422Y-120758739D01*
X85329417Y-120758752D01*
X85273602Y-120954917D01*
X85254785Y-121157999D01*
X85254785Y-121158000D01*
X84925215Y-121158000D01*
X84922445Y-121128111D01*
X84906397Y-120954917D01*
X84882260Y-120870086D01*
X84850582Y-120758750D01*
X84839509Y-120736513D01*
X84780586Y-120618178D01*
X84759673Y-120576179D01*
X84659889Y-120444043D01*
X84636762Y-120413418D01*
X84486041Y-120276019D01*
X84486039Y-120276017D01*
X84312642Y-120168655D01*
X84312635Y-120168651D01*
X84203166Y-120126243D01*
X84122456Y-120094976D01*
X83921976Y-120057500D01*
X83718024Y-120057500D01*
X83517544Y-120094976D01*
X83517541Y-120094976D01*
X83517541Y-120094977D01*
X83327364Y-120168651D01*
X83327357Y-120168655D01*
X83153960Y-120276017D01*
X83153958Y-120276019D01*
X83003237Y-120413418D01*
X82880327Y-120576178D01*
X82789422Y-120758739D01*
X82789417Y-120758752D01*
X82733602Y-120954917D01*
X82714785Y-121157999D01*
X82714785Y-121158000D01*
X82385215Y-121158000D01*
X82382445Y-121128111D01*
X82366397Y-120954917D01*
X82342260Y-120870086D01*
X82310582Y-120758750D01*
X82299509Y-120736513D01*
X82240586Y-120618178D01*
X82219673Y-120576179D01*
X82119889Y-120444043D01*
X82096762Y-120413418D01*
X81946041Y-120276019D01*
X81946039Y-120276017D01*
X81772642Y-120168655D01*
X81772635Y-120168651D01*
X81663166Y-120126243D01*
X81582456Y-120094976D01*
X81381976Y-120057500D01*
X81178024Y-120057500D01*
X80977544Y-120094976D01*
X80977541Y-120094976D01*
X80977541Y-120094977D01*
X80787364Y-120168651D01*
X80787357Y-120168655D01*
X80613960Y-120276017D01*
X80613958Y-120276019D01*
X80463237Y-120413418D01*
X80340327Y-120576178D01*
X80249422Y-120758739D01*
X80249417Y-120758752D01*
X80193602Y-120954917D01*
X80174785Y-121157999D01*
X80174785Y-121158000D01*
X79840500Y-121158000D01*
X79840500Y-120283326D01*
X79840500Y-120283323D01*
X79840499Y-120283321D01*
X79825967Y-120210264D01*
X79825966Y-120210260D01*
X79798664Y-120169399D01*
X79770601Y-120127399D01*
X79687740Y-120072034D01*
X79687739Y-120072033D01*
X79687735Y-120072032D01*
X79614677Y-120057500D01*
X79614674Y-120057500D01*
X77865326Y-120057500D01*
X77865323Y-120057500D01*
X77792264Y-120072032D01*
X77792260Y-120072033D01*
X77709399Y-120127399D01*
X77654033Y-120210260D01*
X77654032Y-120210264D01*
X77639500Y-120283321D01*
X77639500Y-122032678D01*
X76810500Y-122032678D01*
X76810500Y-119224000D01*
X76830185Y-119156961D01*
X76882989Y-119111206D01*
X76934500Y-119100000D01*
X122665500Y-119100000D01*
X122732539Y-119119685D01*
G37*
%TD.AperFunction*%
%TD*%
M02*
