%TF.GenerationSoftware,KiCad,Pcbnew,7.0.9*%
%TF.CreationDate,2024-04-10T12:07:57+02:00*%
%TF.ProjectId,Test_1,54657374-5f31-42e6-9b69-6361645f7063,rev?*%
%TF.SameCoordinates,Original*%
%TF.FileFunction,Legend,Bot*%
%TF.FilePolarity,Positive*%
%FSLAX46Y46*%
G04 Gerber Fmt 4.6, Leading zero omitted, Abs format (unit mm)*
G04 Created by KiCad (PCBNEW 7.0.9) date 2024-04-10 12:07:57*
%MOMM*%
%LPD*%
G01*
G04 APERTURE LIST*
%ADD10C,0.150000*%
%ADD11C,0.120000*%
G04 APERTURE END LIST*
D10*
X101766666Y-133559580D02*
X101814285Y-133607200D01*
X101814285Y-133607200D02*
X101957142Y-133654819D01*
X101957142Y-133654819D02*
X102052380Y-133654819D01*
X102052380Y-133654819D02*
X102195237Y-133607200D01*
X102195237Y-133607200D02*
X102290475Y-133511961D01*
X102290475Y-133511961D02*
X102338094Y-133416723D01*
X102338094Y-133416723D02*
X102385713Y-133226247D01*
X102385713Y-133226247D02*
X102385713Y-133083390D01*
X102385713Y-133083390D02*
X102338094Y-132892914D01*
X102338094Y-132892914D02*
X102290475Y-132797676D01*
X102290475Y-132797676D02*
X102195237Y-132702438D01*
X102195237Y-132702438D02*
X102052380Y-132654819D01*
X102052380Y-132654819D02*
X101957142Y-132654819D01*
X101957142Y-132654819D02*
X101814285Y-132702438D01*
X101814285Y-132702438D02*
X101766666Y-132750057D01*
X100909523Y-132654819D02*
X101099999Y-132654819D01*
X101099999Y-132654819D02*
X101195237Y-132702438D01*
X101195237Y-132702438D02*
X101242856Y-132750057D01*
X101242856Y-132750057D02*
X101338094Y-132892914D01*
X101338094Y-132892914D02*
X101385713Y-133083390D01*
X101385713Y-133083390D02*
X101385713Y-133464342D01*
X101385713Y-133464342D02*
X101338094Y-133559580D01*
X101338094Y-133559580D02*
X101290475Y-133607200D01*
X101290475Y-133607200D02*
X101195237Y-133654819D01*
X101195237Y-133654819D02*
X101004761Y-133654819D01*
X101004761Y-133654819D02*
X100909523Y-133607200D01*
X100909523Y-133607200D02*
X100861904Y-133559580D01*
X100861904Y-133559580D02*
X100814285Y-133464342D01*
X100814285Y-133464342D02*
X100814285Y-133226247D01*
X100814285Y-133226247D02*
X100861904Y-133131009D01*
X100861904Y-133131009D02*
X100909523Y-133083390D01*
X100909523Y-133083390D02*
X101004761Y-133035771D01*
X101004761Y-133035771D02*
X101195237Y-133035771D01*
X101195237Y-133035771D02*
X101290475Y-133083390D01*
X101290475Y-133083390D02*
X101338094Y-133131009D01*
X101338094Y-133131009D02*
X101385713Y-133226247D01*
X79033333Y-122654819D02*
X79033333Y-123369104D01*
X79033333Y-123369104D02*
X79080952Y-123511961D01*
X79080952Y-123511961D02*
X79176190Y-123607200D01*
X79176190Y-123607200D02*
X79319047Y-123654819D01*
X79319047Y-123654819D02*
X79414285Y-123654819D01*
X78033333Y-123654819D02*
X78604761Y-123654819D01*
X78319047Y-123654819D02*
X78319047Y-122654819D01*
X78319047Y-122654819D02*
X78414285Y-122797676D01*
X78414285Y-122797676D02*
X78509523Y-122892914D01*
X78509523Y-122892914D02*
X78604761Y-122940533D01*
X100345714Y-138602819D02*
X100345714Y-139317104D01*
X100345714Y-139317104D02*
X100393333Y-139459961D01*
X100393333Y-139459961D02*
X100488571Y-139555200D01*
X100488571Y-139555200D02*
X100631428Y-139602819D01*
X100631428Y-139602819D02*
X100726666Y-139602819D01*
X99345714Y-139602819D02*
X99917142Y-139602819D01*
X99631428Y-139602819D02*
X99631428Y-138602819D01*
X99631428Y-138602819D02*
X99726666Y-138745676D01*
X99726666Y-138745676D02*
X99821904Y-138840914D01*
X99821904Y-138840914D02*
X99917142Y-138888533D01*
X98726666Y-138602819D02*
X98631428Y-138602819D01*
X98631428Y-138602819D02*
X98536190Y-138650438D01*
X98536190Y-138650438D02*
X98488571Y-138698057D01*
X98488571Y-138698057D02*
X98440952Y-138793295D01*
X98440952Y-138793295D02*
X98393333Y-138983771D01*
X98393333Y-138983771D02*
X98393333Y-139221866D01*
X98393333Y-139221866D02*
X98440952Y-139412342D01*
X98440952Y-139412342D02*
X98488571Y-139507580D01*
X98488571Y-139507580D02*
X98536190Y-139555200D01*
X98536190Y-139555200D02*
X98631428Y-139602819D01*
X98631428Y-139602819D02*
X98726666Y-139602819D01*
X98726666Y-139602819D02*
X98821904Y-139555200D01*
X98821904Y-139555200D02*
X98869523Y-139507580D01*
X98869523Y-139507580D02*
X98917142Y-139412342D01*
X98917142Y-139412342D02*
X98964761Y-139221866D01*
X98964761Y-139221866D02*
X98964761Y-138983771D01*
X98964761Y-138983771D02*
X98917142Y-138793295D01*
X98917142Y-138793295D02*
X98869523Y-138698057D01*
X98869523Y-138698057D02*
X98821904Y-138650438D01*
X98821904Y-138650438D02*
X98726666Y-138602819D01*
X97536190Y-138602819D02*
X97726666Y-138602819D01*
X97726666Y-138602819D02*
X97821904Y-138650438D01*
X97821904Y-138650438D02*
X97869523Y-138698057D01*
X97869523Y-138698057D02*
X97964761Y-138840914D01*
X97964761Y-138840914D02*
X98012380Y-139031390D01*
X98012380Y-139031390D02*
X98012380Y-139412342D01*
X98012380Y-139412342D02*
X97964761Y-139507580D01*
X97964761Y-139507580D02*
X97917142Y-139555200D01*
X97917142Y-139555200D02*
X97821904Y-139602819D01*
X97821904Y-139602819D02*
X97631428Y-139602819D01*
X97631428Y-139602819D02*
X97536190Y-139555200D01*
X97536190Y-139555200D02*
X97488571Y-139507580D01*
X97488571Y-139507580D02*
X97440952Y-139412342D01*
X97440952Y-139412342D02*
X97440952Y-139174247D01*
X97440952Y-139174247D02*
X97488571Y-139079009D01*
X97488571Y-139079009D02*
X97536190Y-139031390D01*
X97536190Y-139031390D02*
X97631428Y-138983771D01*
X97631428Y-138983771D02*
X97821904Y-138983771D01*
X97821904Y-138983771D02*
X97917142Y-139031390D01*
X97917142Y-139031390D02*
X97964761Y-139079009D01*
X97964761Y-139079009D02*
X98012380Y-139174247D01*
X121033333Y-124254819D02*
X121033333Y-124969104D01*
X121033333Y-124969104D02*
X121080952Y-125111961D01*
X121080952Y-125111961D02*
X121176190Y-125207200D01*
X121176190Y-125207200D02*
X121319047Y-125254819D01*
X121319047Y-125254819D02*
X121414285Y-125254819D01*
X120128571Y-124588152D02*
X120128571Y-125254819D01*
X120366666Y-124207200D02*
X120604761Y-124921485D01*
X120604761Y-124921485D02*
X119985714Y-124921485D01*
X80025714Y-138602819D02*
X80025714Y-139317104D01*
X80025714Y-139317104D02*
X80073333Y-139459961D01*
X80073333Y-139459961D02*
X80168571Y-139555200D01*
X80168571Y-139555200D02*
X80311428Y-139602819D01*
X80311428Y-139602819D02*
X80406666Y-139602819D01*
X79025714Y-139602819D02*
X79597142Y-139602819D01*
X79311428Y-139602819D02*
X79311428Y-138602819D01*
X79311428Y-138602819D02*
X79406666Y-138745676D01*
X79406666Y-138745676D02*
X79501904Y-138840914D01*
X79501904Y-138840914D02*
X79597142Y-138888533D01*
X78406666Y-138602819D02*
X78311428Y-138602819D01*
X78311428Y-138602819D02*
X78216190Y-138650438D01*
X78216190Y-138650438D02*
X78168571Y-138698057D01*
X78168571Y-138698057D02*
X78120952Y-138793295D01*
X78120952Y-138793295D02*
X78073333Y-138983771D01*
X78073333Y-138983771D02*
X78073333Y-139221866D01*
X78073333Y-139221866D02*
X78120952Y-139412342D01*
X78120952Y-139412342D02*
X78168571Y-139507580D01*
X78168571Y-139507580D02*
X78216190Y-139555200D01*
X78216190Y-139555200D02*
X78311428Y-139602819D01*
X78311428Y-139602819D02*
X78406666Y-139602819D01*
X78406666Y-139602819D02*
X78501904Y-139555200D01*
X78501904Y-139555200D02*
X78549523Y-139507580D01*
X78549523Y-139507580D02*
X78597142Y-139412342D01*
X78597142Y-139412342D02*
X78644761Y-139221866D01*
X78644761Y-139221866D02*
X78644761Y-138983771D01*
X78644761Y-138983771D02*
X78597142Y-138793295D01*
X78597142Y-138793295D02*
X78549523Y-138698057D01*
X78549523Y-138698057D02*
X78501904Y-138650438D01*
X78501904Y-138650438D02*
X78406666Y-138602819D01*
X77168571Y-138602819D02*
X77644761Y-138602819D01*
X77644761Y-138602819D02*
X77692380Y-139079009D01*
X77692380Y-139079009D02*
X77644761Y-139031390D01*
X77644761Y-139031390D02*
X77549523Y-138983771D01*
X77549523Y-138983771D02*
X77311428Y-138983771D01*
X77311428Y-138983771D02*
X77216190Y-139031390D01*
X77216190Y-139031390D02*
X77168571Y-139079009D01*
X77168571Y-139079009D02*
X77120952Y-139174247D01*
X77120952Y-139174247D02*
X77120952Y-139412342D01*
X77120952Y-139412342D02*
X77168571Y-139507580D01*
X77168571Y-139507580D02*
X77216190Y-139555200D01*
X77216190Y-139555200D02*
X77311428Y-139602819D01*
X77311428Y-139602819D02*
X77549523Y-139602819D01*
X77549523Y-139602819D02*
X77644761Y-139555200D01*
X77644761Y-139555200D02*
X77692380Y-139507580D01*
D11*
%TO.C,C6*%
X96688748Y-132290000D02*
X98111252Y-132290000D01*
X96688748Y-134110000D02*
X98111252Y-134110000D01*
%TO.C,J1*%
X87690000Y-119828000D02*
X87690000Y-122488000D01*
X80010000Y-119828000D02*
X87690000Y-119828000D01*
X80010000Y-119828000D02*
X80010000Y-122488000D01*
X78740000Y-119828000D02*
X77410000Y-119828000D01*
X77410000Y-119828000D02*
X77410000Y-121158000D01*
X80010000Y-122488000D02*
X87690000Y-122488000D01*
%TO.C,G\u002A\u002A\u002A*%
G36*
X88251437Y-152086223D02*
G01*
X88263454Y-152107464D01*
X88267982Y-152115758D01*
X88264457Y-152119998D01*
X88248706Y-152131614D01*
X88222075Y-152149102D01*
X88186431Y-152171280D01*
X88143644Y-152196963D01*
X88095580Y-152224969D01*
X88057059Y-152247209D01*
X88013039Y-152272917D01*
X87975730Y-152295038D01*
X87946998Y-152312452D01*
X87928709Y-152324039D01*
X87922728Y-152328681D01*
X87925498Y-152329277D01*
X87942263Y-152331753D01*
X87972910Y-152335876D01*
X88015958Y-152341458D01*
X88069921Y-152348312D01*
X88133319Y-152356250D01*
X88204666Y-152365084D01*
X88282480Y-152374626D01*
X88365278Y-152384689D01*
X88408562Y-152389942D01*
X88490116Y-152399926D01*
X88566511Y-152409388D01*
X88636170Y-152418127D01*
X88697517Y-152425941D01*
X88748975Y-152432629D01*
X88788968Y-152437989D01*
X88815921Y-152441820D01*
X88828257Y-152443919D01*
X88829996Y-152444393D01*
X88836017Y-152447111D01*
X88836712Y-152451263D01*
X88830595Y-152457931D01*
X88816180Y-152468202D01*
X88791980Y-152483160D01*
X88756508Y-152503890D01*
X88708279Y-152531477D01*
X88698723Y-152536931D01*
X88656253Y-152561483D01*
X88619496Y-152583234D01*
X88590580Y-152600892D01*
X88571633Y-152613160D01*
X88564782Y-152618746D01*
X88565244Y-152620082D01*
X88571796Y-152632712D01*
X88585306Y-152656975D01*
X88604755Y-152691094D01*
X88629127Y-152733294D01*
X88657403Y-152781798D01*
X88688566Y-152834830D01*
X88705296Y-152863216D01*
X88743589Y-152928590D01*
X88774595Y-152982629D01*
X88799114Y-153027249D01*
X88817944Y-153064366D01*
X88831885Y-153095895D01*
X88841737Y-153123755D01*
X88848297Y-153149859D01*
X88852367Y-153176125D01*
X88854744Y-153204469D01*
X88856227Y-153236806D01*
X88856369Y-153250452D01*
X88856774Y-153289527D01*
X88853371Y-153337957D01*
X88844906Y-153383176D01*
X88830343Y-153428365D01*
X88808652Y-153476708D01*
X88778798Y-153531388D01*
X88739748Y-153595586D01*
X88734867Y-153603737D01*
X88721905Y-153626053D01*
X88702504Y-153659827D01*
X88677569Y-153703472D01*
X88648005Y-153755400D01*
X88614716Y-153814024D01*
X88578608Y-153877754D01*
X88540586Y-153945005D01*
X88524585Y-153973333D01*
X88470006Y-154069838D01*
X88422502Y-154153528D01*
X88381363Y-154225514D01*
X88346993Y-154284976D01*
X88345877Y-154286906D01*
X88315336Y-154338814D01*
X88289028Y-154382350D01*
X88266245Y-154418624D01*
X88246275Y-154448747D01*
X88228410Y-154473828D01*
X88211938Y-154494979D01*
X88196149Y-154513311D01*
X88180334Y-154529933D01*
X88163783Y-154545957D01*
X88145785Y-154562493D01*
X88122869Y-154581547D01*
X88074438Y-154614659D01*
X88021181Y-154643965D01*
X87968361Y-154666708D01*
X87921238Y-154680131D01*
X87906006Y-154681601D01*
X87874856Y-154683046D01*
X87829358Y-154684341D01*
X87770527Y-154685475D01*
X87699377Y-154686432D01*
X87616920Y-154687200D01*
X87524173Y-154687766D01*
X87422147Y-154688115D01*
X87311858Y-154688234D01*
X86746399Y-154688234D01*
X86744223Y-154481796D01*
X86742046Y-154275358D01*
X86460730Y-154648869D01*
X86419663Y-154703310D01*
X86370182Y-154768667D01*
X86324262Y-154829058D01*
X86282793Y-154883330D01*
X86246663Y-154930326D01*
X86216759Y-154968893D01*
X86193972Y-154997875D01*
X86179189Y-155016118D01*
X86173298Y-155022466D01*
X86172771Y-155021848D01*
X86170992Y-155010000D01*
X86169456Y-154984915D01*
X86168251Y-154948995D01*
X86167464Y-154904641D01*
X86167183Y-154854254D01*
X86167183Y-154685956D01*
X85916444Y-154691791D01*
X85872794Y-154692750D01*
X85797053Y-154693955D01*
X85734389Y-154694013D01*
X85682663Y-154692677D01*
X85639736Y-154689699D01*
X85603470Y-154684831D01*
X85571727Y-154677827D01*
X85542366Y-154668437D01*
X85513251Y-154656416D01*
X85482241Y-154641514D01*
X85449089Y-154623262D01*
X85405592Y-154592905D01*
X85365587Y-154555886D01*
X85327030Y-154509965D01*
X85287880Y-154452902D01*
X85246094Y-154382456D01*
X85233279Y-154359829D01*
X85207729Y-154315254D01*
X85176442Y-154261133D01*
X85140991Y-154200170D01*
X85102953Y-154135072D01*
X85063901Y-154068544D01*
X85025410Y-154003290D01*
X84994301Y-153950673D01*
X84941117Y-153860535D01*
X84895332Y-153782563D01*
X84879043Y-153754591D01*
X85085539Y-153754591D01*
X85087492Y-153758321D01*
X85096575Y-153774192D01*
X85112048Y-153800778D01*
X85132799Y-153836178D01*
X85157718Y-153878495D01*
X85185694Y-153925827D01*
X85190015Y-153933129D01*
X85226240Y-153994611D01*
X85265983Y-154062449D01*
X85306276Y-154131553D01*
X85344148Y-154196832D01*
X85376633Y-154253197D01*
X85395583Y-154285995D01*
X85427814Y-154339968D01*
X85455219Y-154382414D01*
X85479492Y-154415324D01*
X85502325Y-154440689D01*
X85525411Y-154460502D01*
X85550441Y-154476753D01*
X85579110Y-154491434D01*
X85624936Y-154512921D01*
X85981406Y-154515206D01*
X86337876Y-154517490D01*
X86480267Y-154327802D01*
X86483742Y-154323168D01*
X86521540Y-154272162D01*
X86554399Y-154226711D01*
X86581312Y-154188282D01*
X86601270Y-154158345D01*
X86613263Y-154138368D01*
X86616283Y-154129819D01*
X86917359Y-154129819D01*
X86917359Y-154137833D01*
X86917359Y-154516998D01*
X87380104Y-154516315D01*
X87442413Y-154516204D01*
X87539030Y-154515910D01*
X87621437Y-154515418D01*
X87690970Y-154514652D01*
X87748962Y-154513532D01*
X87796747Y-154511982D01*
X87835660Y-154509922D01*
X87867033Y-154507274D01*
X87892203Y-154503961D01*
X87912502Y-154499904D01*
X87929264Y-154495025D01*
X87943825Y-154489246D01*
X87957517Y-154482489D01*
X87966321Y-154477408D01*
X88000158Y-154452520D01*
X88037358Y-154418589D01*
X88074002Y-154379406D01*
X88106173Y-154338757D01*
X88144550Y-154284976D01*
X88144550Y-154215482D01*
X88143934Y-154185496D01*
X88141238Y-154155324D01*
X88135527Y-154126141D01*
X88125873Y-154095470D01*
X88111344Y-154060837D01*
X88091012Y-154019768D01*
X88063947Y-153969787D01*
X88029220Y-153908419D01*
X87943480Y-153758668D01*
X87430420Y-153758668D01*
X86917359Y-153758668D01*
X86917359Y-154129819D01*
X86616283Y-154129819D01*
X86616080Y-154129554D01*
X86608846Y-154119952D01*
X86593280Y-154099219D01*
X86570702Y-154069117D01*
X86542432Y-154031405D01*
X86509791Y-153987845D01*
X86474098Y-153940196D01*
X86338288Y-153758868D01*
X85712527Y-153756729D01*
X85694696Y-153756668D01*
X85596002Y-153756331D01*
X85502372Y-153756011D01*
X85415054Y-153755713D01*
X85335299Y-153755441D01*
X85264355Y-153755199D01*
X85203472Y-153754991D01*
X85153899Y-153754822D01*
X85116887Y-153754696D01*
X85093683Y-153754618D01*
X85085539Y-153754591D01*
X84879043Y-153754591D01*
X84856312Y-153715557D01*
X84823422Y-153658315D01*
X84796029Y-153609636D01*
X84773497Y-153568318D01*
X84755194Y-153533161D01*
X84740485Y-153502963D01*
X84728736Y-153476523D01*
X84719312Y-153452639D01*
X84711580Y-153430110D01*
X84704905Y-153407735D01*
X84698653Y-153384314D01*
X84697917Y-153381382D01*
X84689584Y-153335613D01*
X84684633Y-153283309D01*
X84683628Y-153245285D01*
X84854640Y-153245285D01*
X84854879Y-153255976D01*
X84861163Y-153303350D01*
X84874568Y-153356373D01*
X84893235Y-153409557D01*
X84915309Y-153457413D01*
X84938932Y-153494452D01*
X84949003Y-153505076D01*
X84979989Y-153527847D01*
X85020350Y-153549202D01*
X85065459Y-153566873D01*
X85110687Y-153578594D01*
X85111189Y-153578684D01*
X85135078Y-153581428D01*
X85171670Y-153583783D01*
X85217467Y-153585610D01*
X85268973Y-153586767D01*
X85322693Y-153587115D01*
X85486316Y-153586798D01*
X85489469Y-153581316D01*
X85694596Y-153581316D01*
X85695110Y-153581729D01*
X85706714Y-153583253D01*
X85732081Y-153584618D01*
X85769188Y-153585770D01*
X85816011Y-153586658D01*
X85870528Y-153587230D01*
X85930714Y-153587432D01*
X86167183Y-153587432D01*
X86167183Y-153419593D01*
X86167184Y-153416504D01*
X86167569Y-153362151D01*
X86168594Y-153316994D01*
X86170178Y-153282811D01*
X86172241Y-153261378D01*
X86174700Y-153254473D01*
X86178817Y-153258875D01*
X86192094Y-153275221D01*
X86213558Y-153302523D01*
X86242314Y-153339618D01*
X86277468Y-153385342D01*
X86318124Y-153438531D01*
X86363390Y-153498020D01*
X86412370Y-153562646D01*
X86464171Y-153631244D01*
X86746123Y-154005296D01*
X86746123Y-153796364D01*
X86746123Y-153587432D01*
X87292448Y-153587432D01*
X87340335Y-153587414D01*
X87430719Y-153587284D01*
X87515465Y-153587037D01*
X87593238Y-153586682D01*
X87662705Y-153586231D01*
X87722533Y-153585695D01*
X87771387Y-153585085D01*
X87807934Y-153584413D01*
X87830840Y-153583688D01*
X87838772Y-153582922D01*
X87835692Y-153576819D01*
X87825642Y-153558502D01*
X87809811Y-153530151D01*
X87789434Y-153493938D01*
X87765747Y-153452036D01*
X87739986Y-153406617D01*
X87713388Y-153359854D01*
X87687187Y-153313919D01*
X87662620Y-153270984D01*
X87640922Y-153233222D01*
X87623330Y-153202806D01*
X87611079Y-153181908D01*
X87605405Y-153172700D01*
X87604832Y-153172714D01*
X87594382Y-153177537D01*
X87572508Y-153189161D01*
X87541337Y-153206414D01*
X87502994Y-153228122D01*
X87459607Y-153253114D01*
X87448891Y-153259320D01*
X87406417Y-153283619D01*
X87369413Y-153304319D01*
X87340023Y-153320251D01*
X87320395Y-153330246D01*
X87312674Y-153333137D01*
X87312784Y-153331992D01*
X87317458Y-153318615D01*
X87328610Y-153290305D01*
X87346233Y-153247084D01*
X87370318Y-153188972D01*
X87400855Y-153115991D01*
X87437836Y-153028162D01*
X87478256Y-152932587D01*
X87670380Y-152932587D01*
X87950929Y-153416976D01*
X87974880Y-153458365D01*
X88022270Y-153540483D01*
X88046673Y-153582922D01*
X88067556Y-153619240D01*
X88109975Y-153693295D01*
X88148765Y-153761306D01*
X88183164Y-153821931D01*
X88212409Y-153873829D01*
X88235738Y-153915657D01*
X88252388Y-153946073D01*
X88261597Y-153963737D01*
X88291716Y-154026110D01*
X88409416Y-153816964D01*
X88440581Y-153761768D01*
X88475729Y-153699893D01*
X88510336Y-153639318D01*
X88542549Y-153583278D01*
X88570514Y-153535006D01*
X88592377Y-153497737D01*
X88602815Y-153479923D01*
X88626182Y-153438570D01*
X88646775Y-153400185D01*
X88662672Y-153368409D01*
X88671951Y-153346886D01*
X88681270Y-153311260D01*
X88685818Y-153250452D01*
X88678052Y-153188357D01*
X88672712Y-153175268D01*
X88660006Y-153149807D01*
X88641059Y-153114056D01*
X88616953Y-153069898D01*
X88588771Y-153019212D01*
X88557595Y-152963881D01*
X88524505Y-152905784D01*
X88490586Y-152846804D01*
X88456917Y-152788821D01*
X88424582Y-152733717D01*
X88394663Y-152683372D01*
X88368240Y-152639668D01*
X88346397Y-152604485D01*
X88330215Y-152579705D01*
X88320777Y-152567209D01*
X88318548Y-152565473D01*
X88307086Y-152560704D01*
X88286546Y-152555621D01*
X88255496Y-152549982D01*
X88212504Y-152543546D01*
X88156139Y-152536069D01*
X88084969Y-152527310D01*
X88032800Y-152521242D01*
X87975082Y-152515049D01*
X87926757Y-152510474D01*
X87889515Y-152507660D01*
X87865048Y-152506749D01*
X87855051Y-152507886D01*
X87854826Y-152508154D01*
X87849274Y-152518683D01*
X87838375Y-152542049D01*
X87823019Y-152576250D01*
X87804094Y-152619289D01*
X87782487Y-152669164D01*
X87759088Y-152723878D01*
X87670380Y-152932587D01*
X87478256Y-152932587D01*
X87481251Y-152925506D01*
X87531093Y-152808043D01*
X87587352Y-152675795D01*
X87650019Y-152528784D01*
X87675520Y-152469012D01*
X87623151Y-152498299D01*
X87608015Y-152506838D01*
X87575765Y-152525241D01*
X87535542Y-152548360D01*
X87491022Y-152574078D01*
X87445885Y-152600280D01*
X87437023Y-152605426D01*
X87391131Y-152631547D01*
X87357203Y-152649691D01*
X87333728Y-152660569D01*
X87319194Y-152664895D01*
X87312092Y-152663381D01*
X87311651Y-152662812D01*
X87304677Y-152651707D01*
X87290440Y-152627914D01*
X87269657Y-152592664D01*
X87243045Y-152547185D01*
X87211320Y-152492707D01*
X87175197Y-152430459D01*
X87135393Y-152361670D01*
X87092624Y-152287571D01*
X87047607Y-152209390D01*
X87040202Y-152196516D01*
X86995286Y-152118440D01*
X86952623Y-152044311D01*
X86912948Y-151975402D01*
X86876994Y-151912988D01*
X86845497Y-151858342D01*
X86819189Y-151812739D01*
X86798807Y-151777452D01*
X86785083Y-151753756D01*
X86778753Y-151742925D01*
X86765489Y-151720858D01*
X86666023Y-151893775D01*
X86648055Y-151924991D01*
X86619943Y-151973737D01*
X86594269Y-152018153D01*
X86572453Y-152055784D01*
X86555915Y-152084177D01*
X86546077Y-152100881D01*
X86525595Y-152135069D01*
X86584896Y-152169339D01*
X86638993Y-152200612D01*
X86690959Y-152230738D01*
X86731259Y-152254305D01*
X86761224Y-152272178D01*
X86782181Y-152285223D01*
X86795463Y-152294304D01*
X86802398Y-152300287D01*
X86804315Y-152304039D01*
X86802546Y-152306423D01*
X86798419Y-152308306D01*
X86793596Y-152309385D01*
X86773583Y-152312574D01*
X86739836Y-152317365D01*
X86693881Y-152323560D01*
X86637241Y-152330960D01*
X86571442Y-152339366D01*
X86498009Y-152348581D01*
X86418468Y-152358407D01*
X86334342Y-152368645D01*
X86279944Y-152375224D01*
X86199431Y-152384996D01*
X86124875Y-152394083D01*
X86057738Y-152402307D01*
X85999481Y-152409486D01*
X85951567Y-152415440D01*
X85915458Y-152419989D01*
X85892617Y-152422952D01*
X85884505Y-152424149D01*
X85888329Y-152426808D01*
X85904392Y-152436598D01*
X85931251Y-152452528D01*
X85967017Y-152473488D01*
X86009805Y-152498368D01*
X86057728Y-152526059D01*
X86094709Y-152547449D01*
X86139422Y-152573559D01*
X86177779Y-152596240D01*
X86207831Y-152614327D01*
X86227625Y-152626655D01*
X86235210Y-152632059D01*
X86234569Y-152634003D01*
X86227494Y-152647955D01*
X86213189Y-152674279D01*
X86201647Y-152695033D01*
X86192321Y-152711802D01*
X86165554Y-152759350D01*
X86133553Y-152815747D01*
X86096985Y-152879819D01*
X86056515Y-152950392D01*
X86012807Y-153026290D01*
X85966528Y-153106340D01*
X85944907Y-153143683D01*
X85899621Y-153222020D01*
X85857129Y-153295677D01*
X85818107Y-153363477D01*
X85783228Y-153424242D01*
X85753168Y-153476794D01*
X85728600Y-153519956D01*
X85710200Y-153552549D01*
X85698640Y-153573395D01*
X85694596Y-153581316D01*
X85489469Y-153581316D01*
X85742032Y-153142258D01*
X85751732Y-153125390D01*
X85795974Y-153048307D01*
X85837492Y-152975738D01*
X85875607Y-152908884D01*
X85909640Y-152848946D01*
X85938911Y-152797125D01*
X85962743Y-152754622D01*
X85980455Y-152722638D01*
X85991370Y-152702375D01*
X85994808Y-152695033D01*
X85993004Y-152693760D01*
X85979432Y-152685444D01*
X85954302Y-152670594D01*
X85919328Y-152650189D01*
X85876220Y-152625207D01*
X85826692Y-152596629D01*
X85772455Y-152565434D01*
X85715220Y-152532600D01*
X85656701Y-152499107D01*
X85598609Y-152465934D01*
X85542656Y-152434060D01*
X85490554Y-152404465D01*
X85444016Y-152378127D01*
X85404753Y-152356027D01*
X85374478Y-152339142D01*
X85354901Y-152328453D01*
X85347737Y-152324939D01*
X85347321Y-152325418D01*
X85339878Y-152336734D01*
X85325473Y-152360520D01*
X85304988Y-152395220D01*
X85279307Y-152439279D01*
X85249315Y-152491141D01*
X85215894Y-152549249D01*
X85179930Y-152612049D01*
X85142305Y-152677984D01*
X85103903Y-152745498D01*
X85065608Y-152813037D01*
X85028303Y-152879043D01*
X84992873Y-152941961D01*
X84960201Y-153000235D01*
X84931171Y-153052310D01*
X84906667Y-153096629D01*
X84887572Y-153131637D01*
X84874770Y-153155778D01*
X84869145Y-153167496D01*
X84865180Y-153180280D01*
X84857722Y-153214525D01*
X84854640Y-153245285D01*
X84683628Y-153245285D01*
X84683226Y-153230055D01*
X84685523Y-153181435D01*
X84691686Y-153143034D01*
X84693644Y-153135710D01*
X84697646Y-153122346D01*
X84702700Y-153108071D01*
X84709399Y-153091786D01*
X84718337Y-153072389D01*
X84730107Y-153048782D01*
X84745304Y-153019864D01*
X84764520Y-152984535D01*
X84788349Y-152941694D01*
X84817385Y-152890243D01*
X84852222Y-152829080D01*
X84893452Y-152757106D01*
X84941670Y-152673221D01*
X84997469Y-152576324D01*
X85017795Y-152541043D01*
X85063230Y-152462161D01*
X85106083Y-152387740D01*
X85145657Y-152318990D01*
X85181258Y-152257119D01*
X85212191Y-152203334D01*
X85237760Y-152158845D01*
X85257271Y-152124860D01*
X85270028Y-152102587D01*
X85275336Y-152093235D01*
X85277178Y-152090792D01*
X85282492Y-152088813D01*
X85291885Y-152090431D01*
X85307017Y-152096432D01*
X85329545Y-152107605D01*
X85361126Y-152124735D01*
X85403417Y-152148611D01*
X85458078Y-152180019D01*
X85496031Y-152201832D01*
X85540564Y-152227170D01*
X85578725Y-152248593D01*
X85608584Y-152265027D01*
X85628209Y-152275401D01*
X85635671Y-152278643D01*
X85634295Y-152274227D01*
X85627272Y-152256184D01*
X85614830Y-152225485D01*
X85597528Y-152183472D01*
X85575924Y-152131489D01*
X85550577Y-152070878D01*
X85522046Y-152002985D01*
X85490890Y-151929150D01*
X85457667Y-151850719D01*
X85445590Y-151822203D01*
X85637495Y-151822203D01*
X85728502Y-152036182D01*
X85819510Y-152250160D01*
X85852688Y-152249112D01*
X85862774Y-152248441D01*
X85889477Y-152245888D01*
X85927858Y-152241742D01*
X85975233Y-152236307D01*
X86028923Y-152229884D01*
X86086246Y-152222775D01*
X86286625Y-152197488D01*
X86451390Y-151911930D01*
X86461381Y-151894614D01*
X86497948Y-151831252D01*
X86532563Y-151771286D01*
X86564195Y-151716503D01*
X86591809Y-151668693D01*
X86614374Y-151629644D01*
X86630856Y-151601144D01*
X86640222Y-151584982D01*
X86664290Y-151543592D01*
X86586967Y-151409669D01*
X86582362Y-151401724D01*
X86541104Y-151333934D01*
X86503348Y-151279152D01*
X86467193Y-151235291D01*
X86430741Y-151200261D01*
X86392092Y-151171973D01*
X86349347Y-151148338D01*
X86324588Y-151136825D01*
X86301850Y-151128417D01*
X86279140Y-151123709D01*
X86251014Y-151121620D01*
X86212030Y-151121070D01*
X86183121Y-151121190D01*
X86152040Y-151122566D01*
X86128554Y-151126175D01*
X86107537Y-151132922D01*
X86083868Y-151143713D01*
X86063401Y-151154325D01*
X86044212Y-151166079D01*
X86026132Y-151179929D01*
X86008169Y-151197233D01*
X85989333Y-151219348D01*
X85968631Y-151247631D01*
X85945074Y-151283441D01*
X85917668Y-151328136D01*
X85885423Y-151383072D01*
X85847348Y-151449607D01*
X85802451Y-151529099D01*
X85637495Y-151822203D01*
X85445590Y-151822203D01*
X85432771Y-151791937D01*
X85401072Y-151716736D01*
X85371888Y-151647096D01*
X85345774Y-151584367D01*
X85323287Y-151529895D01*
X85304983Y-151485029D01*
X85291416Y-151451117D01*
X85283143Y-151429507D01*
X85280719Y-151421547D01*
X85281179Y-151421474D01*
X85291380Y-151425686D01*
X85313046Y-151436792D01*
X85344004Y-151453617D01*
X85382081Y-151474984D01*
X85425104Y-151499717D01*
X85433331Y-151504496D01*
X85475527Y-151528940D01*
X85512251Y-151550097D01*
X85541349Y-151566735D01*
X85560667Y-151577622D01*
X85568053Y-151581525D01*
X85569780Y-151579035D01*
X85578484Y-151564491D01*
X85593638Y-151538407D01*
X85614279Y-151502459D01*
X85639447Y-151458324D01*
X85668181Y-151407676D01*
X85699521Y-151352192D01*
X85735147Y-151289165D01*
X85764861Y-151237199D01*
X85789077Y-151195876D01*
X85809005Y-151163364D01*
X85825854Y-151137830D01*
X85839990Y-151118593D01*
X86609156Y-151118593D01*
X86638974Y-151157990D01*
X86644779Y-151166641D01*
X86659053Y-151189628D01*
X86680296Y-151224818D01*
X86707861Y-151271107D01*
X86741100Y-151327391D01*
X86779365Y-151392567D01*
X86822010Y-151465532D01*
X86867460Y-151543592D01*
X86868386Y-151545182D01*
X86917846Y-151630414D01*
X86969743Y-151720123D01*
X87023429Y-151813207D01*
X87068247Y-151890975D01*
X87119356Y-151979517D01*
X87167664Y-152063053D01*
X87212579Y-152140566D01*
X87253510Y-152211042D01*
X87289866Y-152273467D01*
X87321055Y-152326824D01*
X87346486Y-152370100D01*
X87365568Y-152402280D01*
X87377710Y-152422347D01*
X87382320Y-152429289D01*
X87383624Y-152428850D01*
X87396207Y-152422397D01*
X87420496Y-152409021D01*
X87454768Y-152389724D01*
X87497299Y-152365507D01*
X87546365Y-152337373D01*
X87600243Y-152306323D01*
X87657209Y-152273361D01*
X87715539Y-152239489D01*
X87773509Y-152205707D01*
X87829396Y-152173020D01*
X87881475Y-152142428D01*
X87928024Y-152114933D01*
X87967319Y-152091539D01*
X87997635Y-152073247D01*
X88017249Y-152061059D01*
X88024437Y-152055977D01*
X88024418Y-152055362D01*
X88019592Y-152044171D01*
X88007454Y-152020774D01*
X87988885Y-151986687D01*
X87964770Y-151943424D01*
X87935989Y-151892500D01*
X87903425Y-151835430D01*
X87867962Y-151773728D01*
X87830480Y-151708909D01*
X87791864Y-151642488D01*
X87752995Y-151575980D01*
X87714756Y-151510898D01*
X87678029Y-151448758D01*
X87643698Y-151391075D01*
X87612643Y-151339362D01*
X87585748Y-151295136D01*
X87563896Y-151259910D01*
X87547968Y-151235199D01*
X87538848Y-151222519D01*
X87504874Y-151189915D01*
X87456150Y-151158551D01*
X87397479Y-151135432D01*
X87327169Y-151119919D01*
X87243523Y-151111376D01*
X87230584Y-151110799D01*
X87194004Y-151109995D01*
X87145255Y-151109638D01*
X87087084Y-151109718D01*
X87022240Y-151110228D01*
X86953473Y-151111158D01*
X86883530Y-151112501D01*
X86609156Y-151118593D01*
X85839990Y-151118593D01*
X85840836Y-151117442D01*
X85855159Y-151100369D01*
X85870034Y-151084778D01*
X85886672Y-151068837D01*
X85892400Y-151063590D01*
X85927824Y-151034281D01*
X85965116Y-151007679D01*
X85997835Y-150988443D01*
X86004203Y-150985291D01*
X86022648Y-150976319D01*
X86039975Y-150968550D01*
X86057428Y-150961896D01*
X86076253Y-150956270D01*
X86097693Y-150951587D01*
X86122994Y-150947760D01*
X86153400Y-150944701D01*
X86190157Y-150942325D01*
X86234508Y-150940546D01*
X86287699Y-150939275D01*
X86350974Y-150938427D01*
X86425579Y-150937916D01*
X86512757Y-150937654D01*
X86613755Y-150937556D01*
X86729815Y-150937534D01*
X86821525Y-150937600D01*
X86930313Y-150937901D01*
X87028916Y-150938433D01*
X87116460Y-150939185D01*
X87192071Y-150940145D01*
X87254873Y-150941301D01*
X87303992Y-150942643D01*
X87338552Y-150944158D01*
X87357680Y-150945835D01*
X87373675Y-150948542D01*
X87463420Y-150971205D01*
X87543809Y-151004713D01*
X87613344Y-151048324D01*
X87670528Y-151101292D01*
X87676149Y-151108414D01*
X87692549Y-151132288D01*
X87716237Y-151169286D01*
X87746776Y-151218686D01*
X87783732Y-151279764D01*
X87826667Y-151351795D01*
X87875145Y-151434056D01*
X87928731Y-151525823D01*
X87986987Y-151626372D01*
X88014126Y-151673392D01*
X88059733Y-151752469D01*
X88102559Y-151826798D01*
X88141932Y-151895207D01*
X88177179Y-151956526D01*
X88207627Y-152009582D01*
X88232604Y-152053205D01*
X88234185Y-152055977D01*
X88251437Y-152086223D01*
G37*
%TO.C,J106*%
X100390000Y-155508000D02*
X97730000Y-155508000D01*
X100390000Y-142748000D02*
X100390000Y-155508000D01*
X100390000Y-142748000D02*
X97730000Y-142748000D01*
X100390000Y-141478000D02*
X100390000Y-140148000D01*
X100390000Y-140148000D02*
X99060000Y-140148000D01*
X97730000Y-142748000D02*
X97730000Y-155508000D01*
%TO.C,J4*%
X119120000Y-126120000D02*
X116460000Y-126120000D01*
X119120000Y-126060000D02*
X119120000Y-126120000D01*
X119120000Y-126060000D02*
X116460000Y-126060000D01*
X119120000Y-124790000D02*
X119120000Y-123460000D01*
X119120000Y-123460000D02*
X117790000Y-123460000D01*
X116460000Y-126060000D02*
X116460000Y-126120000D01*
%TO.C,J105*%
X80070000Y-155508000D02*
X77410000Y-155508000D01*
X80070000Y-142748000D02*
X80070000Y-155508000D01*
X80070000Y-142748000D02*
X77410000Y-142748000D01*
X80070000Y-141478000D02*
X80070000Y-140148000D01*
X80070000Y-140148000D02*
X78740000Y-140148000D01*
X77410000Y-142748000D02*
X77410000Y-155508000D01*
%TO.C,G\u002A\u002A\u002A*%
G36*
X91699897Y-151237803D02*
G01*
X91780524Y-151256635D01*
X91915051Y-151247058D01*
X91952228Y-151242203D01*
X92027820Y-151237949D01*
X92060198Y-151254024D01*
X92067059Y-151296141D01*
X92069665Y-151317173D01*
X92088982Y-151355371D01*
X92111317Y-151399536D01*
X92187440Y-151483498D01*
X92276837Y-151548761D01*
X92305644Y-151558048D01*
X92358308Y-151575026D01*
X92395651Y-151579795D01*
X92437224Y-151612255D01*
X92427181Y-151654854D01*
X92377886Y-151676898D01*
X92364185Y-151683025D01*
X92356300Y-151684319D01*
X92300592Y-151716433D01*
X92278231Y-151795748D01*
X92268680Y-151897620D01*
X92395110Y-151761791D01*
X92444456Y-151708814D01*
X92670384Y-151467580D01*
X92855118Y-151273050D01*
X93002069Y-151121951D01*
X93114650Y-151011007D01*
X93196274Y-150936942D01*
X93250352Y-150896482D01*
X93280296Y-150886350D01*
X93289519Y-150903272D01*
X93287497Y-150917181D01*
X93260278Y-150973042D01*
X93198464Y-151058532D01*
X93098473Y-151178018D01*
X92956718Y-151335866D01*
X92769615Y-151536443D01*
X92249710Y-152086961D01*
X92235361Y-152268683D01*
X92190153Y-152841221D01*
X92183082Y-152930217D01*
X92165069Y-153152104D01*
X92148221Y-153353186D01*
X92133549Y-153521736D01*
X92122067Y-153646027D01*
X92114787Y-153714331D01*
X92112994Y-153729466D01*
X92112639Y-153766830D01*
X92122711Y-153806205D01*
X92148427Y-153854314D01*
X92174964Y-153890532D01*
X92195004Y-153917883D01*
X92267658Y-154003635D01*
X92371605Y-154118293D01*
X92512063Y-154268582D01*
X92694248Y-154461226D01*
X92849939Y-154626666D01*
X93017030Y-154808418D01*
X93141218Y-154949766D01*
X93225818Y-155054664D01*
X93274146Y-155127064D01*
X93289519Y-155170921D01*
X93289101Y-155177279D01*
X93279085Y-155189330D01*
X93252936Y-155180045D01*
X93206949Y-155145818D01*
X93137419Y-155083045D01*
X93040641Y-154988121D01*
X92912912Y-154857442D01*
X92750526Y-154687402D01*
X92549779Y-154474398D01*
X92306967Y-154214823D01*
X92282876Y-154189364D01*
X92198621Y-154106277D01*
X92135037Y-154052697D01*
X92104365Y-154039236D01*
X92091459Y-154079284D01*
X92076155Y-154168104D01*
X92062088Y-154285803D01*
X92058988Y-154317211D01*
X92038833Y-154506147D01*
X92019985Y-154638599D01*
X91999201Y-154724437D01*
X91973238Y-154773531D01*
X91938853Y-154795749D01*
X91892802Y-154800962D01*
X91843333Y-154797977D01*
X91803963Y-154771365D01*
X91795401Y-154699090D01*
X91795401Y-154597219D01*
X91373548Y-154597219D01*
X90951695Y-154597219D01*
X90849824Y-154699090D01*
X90738868Y-154775271D01*
X90608391Y-154802812D01*
X90481269Y-154779308D01*
X90372231Y-154710744D01*
X90296008Y-154603106D01*
X90267327Y-154462378D01*
X90268366Y-154436743D01*
X90302847Y-154308220D01*
X90375533Y-154201178D01*
X90471956Y-154138515D01*
X90477120Y-154136562D01*
X90517276Y-154096039D01*
X90539663Y-154033905D01*
X90538881Y-153976968D01*
X90509528Y-153952032D01*
X90484140Y-153971164D01*
X90417419Y-154033607D01*
X90316473Y-154133103D01*
X90187815Y-154263133D01*
X90037955Y-154417181D01*
X89873406Y-154588729D01*
X89725807Y-154743158D01*
X89574310Y-154900586D01*
X89443560Y-155035307D01*
X89340047Y-155140673D01*
X89270262Y-155210035D01*
X89240697Y-155236746D01*
X89225076Y-155229636D01*
X89214653Y-155178981D01*
X89221843Y-155155180D01*
X89258158Y-155097743D01*
X89327445Y-155010053D01*
X89432291Y-154889231D01*
X89575286Y-154732395D01*
X89759019Y-154536666D01*
X89986080Y-154299162D01*
X90259057Y-154017004D01*
X90463904Y-153806187D01*
X90601236Y-153806187D01*
X90624901Y-153964002D01*
X90638832Y-154037615D01*
X90666561Y-154102932D01*
X90707996Y-154121818D01*
X90773865Y-154144211D01*
X90853675Y-154210275D01*
X90920057Y-154298662D01*
X90952958Y-154387615D01*
X90963450Y-154478369D01*
X91448046Y-154487794D01*
X91601710Y-154490003D01*
X91759855Y-154489107D01*
X91864464Y-154483155D01*
X91923781Y-154471586D01*
X91946055Y-154453837D01*
X91947215Y-154449426D01*
X91956540Y-154387390D01*
X91967726Y-154281003D01*
X91978602Y-154150493D01*
X91997736Y-153890532D01*
X91628600Y-153505306D01*
X91549959Y-153423940D01*
X91433068Y-153305857D01*
X91338210Y-153213613D01*
X91273558Y-153155078D01*
X91247285Y-153138122D01*
X91245016Y-153140934D01*
X91208569Y-153180296D01*
X91135840Y-153256488D01*
X91035988Y-153359963D01*
X90918171Y-153481176D01*
X90601236Y-153806187D01*
X90463904Y-153806187D01*
X90509384Y-153759382D01*
X90455885Y-153070827D01*
X90452259Y-153024623D01*
X90435168Y-152818564D01*
X90418707Y-152637640D01*
X90403945Y-152492500D01*
X90391949Y-152393796D01*
X90387735Y-152372303D01*
X90512178Y-152372303D01*
X90516330Y-152460943D01*
X90524648Y-152596263D01*
X90536472Y-152767535D01*
X90551140Y-152964033D01*
X90566267Y-153151867D01*
X90581587Y-153326205D01*
X90595223Y-153465650D01*
X90606100Y-153559253D01*
X90613144Y-153596067D01*
X90613191Y-153596110D01*
X90641458Y-153578803D01*
X90707248Y-153521763D01*
X90800799Y-153433866D01*
X90912349Y-153323988D01*
X91196295Y-153038560D01*
X91345751Y-153038560D01*
X91593894Y-153300042D01*
X91667224Y-153377371D01*
X91774613Y-153490820D01*
X91863290Y-153584738D01*
X91919221Y-153644275D01*
X91946982Y-153672517D01*
X91990174Y-153700561D01*
X92011651Y-153678232D01*
X92018816Y-153633876D01*
X92029731Y-153534952D01*
X92043118Y-153394546D01*
X92058025Y-153224783D01*
X92073500Y-153037787D01*
X92088593Y-152845682D01*
X92102353Y-152660595D01*
X92113828Y-152494650D01*
X92122067Y-152359971D01*
X92126119Y-152268683D01*
X92125034Y-152232911D01*
X92110580Y-152242456D01*
X92056334Y-152292999D01*
X91969494Y-152379707D01*
X91857950Y-152494659D01*
X91729591Y-152629935D01*
X91346650Y-153037603D01*
X91345751Y-153038560D01*
X91196295Y-153038560D01*
X91197247Y-153037603D01*
X90859626Y-152686732D01*
X90810126Y-152635449D01*
X90695478Y-152518001D01*
X90601983Y-152424099D01*
X90538209Y-152362281D01*
X90512725Y-152341084D01*
X90512178Y-152372303D01*
X90387735Y-152372303D01*
X90383789Y-152352178D01*
X90376904Y-152345907D01*
X90319087Y-152328908D01*
X90228349Y-152322085D01*
X90091508Y-152322085D01*
X90103014Y-152116150D01*
X90103246Y-152111989D01*
X90199412Y-152111989D01*
X90203372Y-152175354D01*
X90230597Y-152212548D01*
X90301284Y-152220213D01*
X90302346Y-152220213D01*
X90373580Y-152217056D01*
X90403155Y-152209588D01*
X90400158Y-152204161D01*
X90364427Y-152164160D01*
X90301284Y-152101363D01*
X90199412Y-152003764D01*
X90199412Y-152111989D01*
X90103246Y-152111989D01*
X90114519Y-151910214D01*
X89664586Y-151433833D01*
X89522996Y-151280802D01*
X89398298Y-151139764D01*
X89300807Y-151022615D01*
X89237325Y-150937537D01*
X89214653Y-150892709D01*
X89219154Y-150856619D01*
X89240121Y-150831070D01*
X89249550Y-150837572D01*
X89299682Y-150884314D01*
X89385705Y-150970140D01*
X89500676Y-151087975D01*
X89637655Y-151230742D01*
X89789701Y-151391365D01*
X89867111Y-151473340D01*
X90012668Y-151625658D01*
X90139853Y-151756374D01*
X90241699Y-151858451D01*
X90311239Y-151924857D01*
X90341506Y-151948556D01*
X90345126Y-151947537D01*
X90362238Y-151908283D01*
X90363606Y-151892839D01*
X90471070Y-151892839D01*
X90471074Y-151900866D01*
X90474628Y-152020600D01*
X90492171Y-152102756D01*
X90534493Y-152176082D01*
X90562483Y-152209588D01*
X90612385Y-152269323D01*
X90661978Y-152324335D01*
X90722996Y-152382570D01*
X90759973Y-152397513D01*
X90783858Y-152375975D01*
X90794616Y-152362040D01*
X90832181Y-152342174D01*
X90901999Y-152329953D01*
X91015936Y-152323787D01*
X91185859Y-152322085D01*
X91557701Y-152322085D01*
X91557701Y-152440935D01*
X91557701Y-152559786D01*
X91230461Y-152559786D01*
X90903220Y-152559786D01*
X91068507Y-152738061D01*
X91075336Y-152745414D01*
X91158721Y-152833295D01*
X91223359Y-152898101D01*
X91255752Y-152926267D01*
X91256291Y-152926372D01*
X91288052Y-152903203D01*
X91358197Y-152838346D01*
X91459157Y-152739221D01*
X91583367Y-152613247D01*
X91723261Y-152467844D01*
X91807797Y-152378920D01*
X91940797Y-152237776D01*
X92036317Y-152132542D01*
X92100562Y-152054452D01*
X92139736Y-151994738D01*
X92160043Y-151944635D01*
X92167687Y-151895376D01*
X92168872Y-151838195D01*
X92168931Y-151676898D01*
X91320000Y-151676898D01*
X90471070Y-151676898D01*
X90471070Y-151892839D01*
X90363606Y-151892839D01*
X90369198Y-151829705D01*
X90365439Y-151761380D01*
X90342589Y-151720182D01*
X90286731Y-151710855D01*
X90222796Y-151701804D01*
X90143136Y-151652709D01*
X90105484Y-151576995D01*
X90109875Y-151543202D01*
X90531447Y-151543202D01*
X90542505Y-151556423D01*
X90581696Y-151565358D01*
X90656975Y-151570846D01*
X90776299Y-151573728D01*
X90947625Y-151574842D01*
X91178909Y-151575026D01*
X91863316Y-151575026D01*
X91863316Y-151558048D01*
X92067059Y-151558048D01*
X92084038Y-151575026D01*
X92101016Y-151558048D01*
X92084038Y-151541069D01*
X92067059Y-151558048D01*
X91863316Y-151558048D01*
X91863316Y-151493766D01*
X91858559Y-151456802D01*
X91808447Y-151393319D01*
X91707731Y-151371283D01*
X91685329Y-151377167D01*
X91659573Y-151422219D01*
X91657966Y-151432819D01*
X91636162Y-151452979D01*
X91580014Y-151465305D01*
X91478350Y-151471471D01*
X91320000Y-151473155D01*
X91301814Y-151473149D01*
X91153336Y-151471979D01*
X91059250Y-151467062D01*
X91007265Y-151455938D01*
X90985089Y-151436151D01*
X90980428Y-151405240D01*
X90975210Y-151365818D01*
X90952520Y-151337326D01*
X91082300Y-151337326D01*
X91082350Y-151338064D01*
X91116195Y-151355132D01*
X91203010Y-151366679D01*
X91328490Y-151370763D01*
X91352947Y-151370638D01*
X91472557Y-151366285D01*
X91528374Y-151355371D01*
X91523744Y-151337326D01*
X91482125Y-151322245D01*
X91394944Y-151309550D01*
X91290087Y-151304711D01*
X91188839Y-151307727D01*
X91112482Y-151318599D01*
X91082300Y-151337326D01*
X90952520Y-151337326D01*
X90924406Y-151340358D01*
X90830146Y-151367272D01*
X90718595Y-151412315D01*
X90617382Y-151463574D01*
X90554133Y-151509134D01*
X90540564Y-151524858D01*
X90531447Y-151543202D01*
X90109875Y-151543202D01*
X90116397Y-151493009D01*
X90182434Y-151419096D01*
X90226453Y-151392770D01*
X90281373Y-151382386D01*
X90344228Y-151413860D01*
X90352728Y-151419351D01*
X90405948Y-151443762D01*
X90457541Y-151434050D01*
X90534975Y-151386240D01*
X90569267Y-151365162D01*
X90688497Y-151309494D01*
X90814625Y-151268456D01*
X90842873Y-151261483D01*
X90930279Y-151232987D01*
X90970637Y-151198902D01*
X90973825Y-151182057D01*
X91130560Y-151182057D01*
X91133236Y-151187826D01*
X91226247Y-151199380D01*
X91341874Y-151207111D01*
X91448730Y-151208786D01*
X91527213Y-151204164D01*
X91557722Y-151193008D01*
X91557155Y-151191289D01*
X91518454Y-151179990D01*
X91430951Y-151173140D01*
X91311511Y-151172164D01*
X91284216Y-151172755D01*
X91184614Y-151176706D01*
X91130560Y-151182057D01*
X90973825Y-151182057D01*
X90980428Y-151147174D01*
X90980644Y-151129969D01*
X90987069Y-151098886D01*
X91011820Y-151079889D01*
X91067294Y-151070005D01*
X91165889Y-151066256D01*
X91320000Y-151065668D01*
X91390942Y-151065719D01*
X91520706Y-151067256D01*
X91600055Y-151073179D01*
X91641385Y-151086454D01*
X91657092Y-151110048D01*
X91659573Y-151146928D01*
X91663825Y-151186901D01*
X91668153Y-151193008D01*
X91699897Y-151237803D01*
G37*
%TD*%
M02*
