%TF.GenerationSoftware,KiCad,Pcbnew,7.0.9*%
%TF.CreationDate,2024-04-10T11:27:04+02:00*%
%TF.ProjectId,Test_1_PD,54657374-5f31-45f5-9044-2e6b69636164,rev?*%
%TF.SameCoordinates,Original*%
%TF.FileFunction,Soldermask,Top*%
%TF.FilePolarity,Negative*%
%FSLAX46Y46*%
G04 Gerber Fmt 4.6, Leading zero omitted, Abs format (unit mm)*
G04 Created by KiCad (PCBNEW 7.0.9) date 2024-04-10 11:27:04*
%MOMM*%
%LPD*%
G01*
G04 APERTURE LIST*
G04 Aperture macros list*
%AMRoundRect*
0 Rectangle with rounded corners*
0 $1 Rounding radius*
0 $2 $3 $4 $5 $6 $7 $8 $9 X,Y pos of 4 corners*
0 Add a 4 corners polygon primitive as box body*
4,1,4,$2,$3,$4,$5,$6,$7,$8,$9,$2,$3,0*
0 Add four circle primitives for the rounded corners*
1,1,$1+$1,$2,$3*
1,1,$1+$1,$4,$5*
1,1,$1+$1,$6,$7*
1,1,$1+$1,$8,$9*
0 Add four rect primitives between the rounded corners*
20,1,$1+$1,$2,$3,$4,$5,0*
20,1,$1+$1,$4,$5,$6,$7,0*
20,1,$1+$1,$6,$7,$8,$9,0*
20,1,$1+$1,$8,$9,$2,$3,0*%
%AMFreePoly0*
4,1,43,1.580355,1.210355,1.595000,1.175000,1.595000,0.775000,1.580355,0.739645,1.545000,0.725000,0.975000,0.725000,0.975000,0.575000,1.545000,0.575000,1.580355,0.560355,1.595000,0.525000,1.595000,0.125000,1.580355,0.089645,1.545000,0.075000,0.975000,0.075000,0.975000,-0.075000,1.545000,-0.075000,1.580355,-0.089645,1.595000,-0.125000,1.595000,-0.525000,1.580355,-0.560355,
1.545000,-0.575000,0.975000,-0.575000,0.975000,-0.725000,1.545000,-0.725000,1.580355,-0.739645,1.595000,-0.775000,1.595000,-1.175000,1.580355,-1.210355,1.545000,-1.225000,0.925000,-1.225000,0.889645,-1.210355,0.875000,-1.175000,-0.925000,-1.175000,-0.960355,-1.160355,-0.975000,-1.125000,-0.975000,1.125000,-0.960355,1.160355,-0.925000,1.175000,0.875000,1.175000,0.889645,1.210355,
0.925000,1.225000,1.545000,1.225000,1.580355,1.210355,1.580355,1.210355,$1*%
G04 Aperture macros list end*
%ADD10RoundRect,0.150000X0.587500X0.150000X-0.587500X0.150000X-0.587500X-0.150000X0.587500X-0.150000X0*%
%ADD11RoundRect,0.250000X-1.412500X-0.550000X1.412500X-0.550000X1.412500X0.550000X-1.412500X0.550000X0*%
%ADD12R,1.200000X1.200000*%
%ADD13RoundRect,0.250000X0.250000X0.475000X-0.250000X0.475000X-0.250000X-0.475000X0.250000X-0.475000X0*%
%ADD14RoundRect,0.250000X-0.312500X-0.625000X0.312500X-0.625000X0.312500X0.625000X-0.312500X0.625000X0*%
%ADD15RoundRect,0.250000X-0.475000X0.250000X-0.475000X-0.250000X0.475000X-0.250000X0.475000X0.250000X0*%
%ADD16RoundRect,0.050000X-0.415000X-0.200000X0.415000X-0.200000X0.415000X0.200000X-0.415000X0.200000X0*%
%ADD17FreePoly0,0.000000*%
%ADD18R,2.159000X0.660400*%
%ADD19RoundRect,0.250000X0.625000X-0.312500X0.625000X0.312500X-0.625000X0.312500X-0.625000X-0.312500X0*%
%ADD20R,1.219200X0.406400*%
%ADD21R,3.073400X2.489200*%
%ADD22RoundRect,0.150000X-0.587500X-0.150000X0.587500X-0.150000X0.587500X0.150000X-0.587500X0.150000X0*%
%ADD23RoundRect,0.250000X-0.650000X0.325000X-0.650000X-0.325000X0.650000X-0.325000X0.650000X0.325000X0*%
%ADD24RoundRect,0.250000X0.312500X0.625000X-0.312500X0.625000X-0.312500X-0.625000X0.312500X-0.625000X0*%
%ADD25RoundRect,0.250000X-0.800000X0.450000X-0.800000X-0.450000X0.800000X-0.450000X0.800000X0.450000X0*%
%ADD26R,0.800000X0.300000*%
%ADD27R,1.800000X3.400000*%
%ADD28R,1.700000X1.700000*%
%ADD29O,1.700000X1.700000*%
G04 APERTURE END LIST*
D10*
%TO.C,Q2*%
X78775000Y-140975000D03*
X78775000Y-139075000D03*
X76900000Y-140025000D03*
%TD*%
D11*
%TO.C,CBULK1*%
X86125000Y-118800000D03*
X91200000Y-118800000D03*
%TD*%
D12*
%TO.C,D2*%
X71150000Y-121100000D03*
X73950000Y-121100000D03*
%TD*%
D13*
%TO.C,C3*%
X78100000Y-121100000D03*
X76200000Y-121100000D03*
%TD*%
D14*
%TO.C,R1*%
X71012500Y-125450000D03*
X73937500Y-125450000D03*
%TD*%
D15*
%TO.C,CGATE1*%
X91275000Y-131950000D03*
X91275000Y-133850000D03*
%TD*%
D16*
%TO.C,Q4*%
X83180000Y-132849000D03*
X83180000Y-133499000D03*
X83180000Y-134149000D03*
X83180000Y-134799000D03*
D17*
X85120000Y-133824000D03*
%TD*%
D18*
%TO.C,L2*%
X78128200Y-145499900D03*
X78128200Y-147100100D03*
X84071800Y-147100100D03*
X84071800Y-145499900D03*
%TD*%
D19*
%TO.C,RBULK1*%
X82900000Y-118887500D03*
X82900000Y-115962500D03*
%TD*%
D14*
%TO.C,RGATE1*%
X83537500Y-124900000D03*
X86462500Y-124900000D03*
%TD*%
D20*
%TO.C,Q1*%
X80854200Y-126674999D03*
X80854200Y-126025001D03*
X80854200Y-125374999D03*
X80854200Y-124725001D03*
D21*
X78453900Y-125700000D03*
%TD*%
D22*
%TO.C,Q3*%
X82100000Y-139100000D03*
X82100000Y-141000000D03*
X83975000Y-140050000D03*
%TD*%
D23*
%TO.C,C1*%
X73400000Y-129225000D03*
X73400000Y-132175000D03*
%TD*%
D19*
%TO.C,R3*%
X88350000Y-136762500D03*
X88350000Y-133837500D03*
%TD*%
D24*
%TO.C,R2*%
X83162500Y-121050000D03*
X80237500Y-121050000D03*
%TD*%
D19*
%TO.C,R4*%
X88350000Y-142212500D03*
X88350000Y-139287500D03*
%TD*%
D15*
%TO.C,CSTBY1*%
X74600000Y-134350000D03*
X74600000Y-136250000D03*
%TD*%
%TO.C,C2*%
X71050000Y-130250000D03*
X71050000Y-132150000D03*
%TD*%
D25*
%TO.C,D3*%
X91075000Y-123975000D03*
X91075000Y-128375000D03*
%TD*%
D12*
%TO.C,D1*%
X77800000Y-129200000D03*
X80600000Y-129200000D03*
%TD*%
D26*
%TO.C,IC1*%
X77700000Y-132600000D03*
X77700000Y-133100000D03*
X77700000Y-133600000D03*
X77700000Y-134100000D03*
X77700000Y-134600000D03*
X77700000Y-135100000D03*
X80700000Y-135100000D03*
X80700000Y-134600000D03*
X80700000Y-134100000D03*
X80700000Y-133600000D03*
X80700000Y-133100000D03*
X80700000Y-132600000D03*
D27*
X79200000Y-133850000D03*
%TD*%
D16*
%TO.C,Q5*%
X83480000Y-128299000D03*
X83480000Y-128949000D03*
X83480000Y-129599000D03*
X83480000Y-130249000D03*
D17*
X85420000Y-129274000D03*
%TD*%
D28*
%TO.C,J1*%
X71120000Y-116840000D03*
D29*
X73660000Y-116840000D03*
X76200000Y-116840000D03*
X78740000Y-116840000D03*
%TD*%
D28*
%TO.C,J2*%
X71120000Y-137160000D03*
D29*
X71120000Y-139700000D03*
X71120000Y-142240000D03*
X71120000Y-144780000D03*
X71120000Y-147320000D03*
X71120000Y-149860000D03*
%TD*%
D28*
%TO.C,J3*%
X91440000Y-137160000D03*
D29*
X91440000Y-139700000D03*
X91440000Y-142240000D03*
X91440000Y-144780000D03*
X91440000Y-147320000D03*
X91440000Y-149860000D03*
%TD*%
M02*
