%TF.GenerationSoftware,KiCad,Pcbnew,7.0.9*%
%TF.CreationDate,2024-04-10T11:27:04+02:00*%
%TF.ProjectId,Test_1_PD,54657374-5f31-45f5-9044-2e6b69636164,rev?*%
%TF.SameCoordinates,Original*%
%TF.FileFunction,Copper,L1,Top*%
%TF.FilePolarity,Positive*%
%FSLAX46Y46*%
G04 Gerber Fmt 4.6, Leading zero omitted, Abs format (unit mm)*
G04 Created by KiCad (PCBNEW 7.0.9) date 2024-04-10 11:27:04*
%MOMM*%
%LPD*%
G01*
G04 APERTURE LIST*
G04 Aperture macros list*
%AMRoundRect*
0 Rectangle with rounded corners*
0 $1 Rounding radius*
0 $2 $3 $4 $5 $6 $7 $8 $9 X,Y pos of 4 corners*
0 Add a 4 corners polygon primitive as box body*
4,1,4,$2,$3,$4,$5,$6,$7,$8,$9,$2,$3,0*
0 Add four circle primitives for the rounded corners*
1,1,$1+$1,$2,$3*
1,1,$1+$1,$4,$5*
1,1,$1+$1,$6,$7*
1,1,$1+$1,$8,$9*
0 Add four rect primitives between the rounded corners*
20,1,$1+$1,$2,$3,$4,$5,0*
20,1,$1+$1,$4,$5,$6,$7,0*
20,1,$1+$1,$6,$7,$8,$9,0*
20,1,$1+$1,$8,$9,$2,$3,0*%
%AMFreePoly0*
4,1,21,1.545000,0.775000,0.925000,0.775000,0.925000,0.525000,1.545000,0.525000,1.545000,0.125000,0.925000,0.125000,0.925000,-0.125000,1.545000,-0.125000,1.545000,-0.525000,0.925000,-0.525000,0.925000,-0.775000,1.545000,-0.775000,1.545000,-1.175000,0.925000,-1.175000,0.925000,-1.125000,-0.925000,-1.125000,-0.925000,1.125000,0.925000,1.125000,0.925000,1.175000,1.545000,1.175000,
1.545000,0.775000,1.545000,0.775000,$1*%
G04 Aperture macros list end*
%TA.AperFunction,SMDPad,CuDef*%
%ADD10RoundRect,0.150000X0.587500X0.150000X-0.587500X0.150000X-0.587500X-0.150000X0.587500X-0.150000X0*%
%TD*%
%TA.AperFunction,SMDPad,CuDef*%
%ADD11RoundRect,0.250000X-1.412500X-0.550000X1.412500X-0.550000X1.412500X0.550000X-1.412500X0.550000X0*%
%TD*%
%TA.AperFunction,SMDPad,CuDef*%
%ADD12R,1.200000X1.200000*%
%TD*%
%TA.AperFunction,SMDPad,CuDef*%
%ADD13RoundRect,0.250000X0.250000X0.475000X-0.250000X0.475000X-0.250000X-0.475000X0.250000X-0.475000X0*%
%TD*%
%TA.AperFunction,SMDPad,CuDef*%
%ADD14RoundRect,0.250000X-0.312500X-0.625000X0.312500X-0.625000X0.312500X0.625000X-0.312500X0.625000X0*%
%TD*%
%TA.AperFunction,SMDPad,CuDef*%
%ADD15RoundRect,0.250000X-0.475000X0.250000X-0.475000X-0.250000X0.475000X-0.250000X0.475000X0.250000X0*%
%TD*%
%TA.AperFunction,SMDPad,CuDef*%
%ADD16R,0.830000X0.400000*%
%TD*%
%TA.AperFunction,SMDPad,CuDef*%
%ADD17FreePoly0,0.000000*%
%TD*%
%TA.AperFunction,SMDPad,CuDef*%
%ADD18R,2.159000X0.660400*%
%TD*%
%TA.AperFunction,SMDPad,CuDef*%
%ADD19RoundRect,0.250000X0.625000X-0.312500X0.625000X0.312500X-0.625000X0.312500X-0.625000X-0.312500X0*%
%TD*%
%TA.AperFunction,SMDPad,CuDef*%
%ADD20R,1.219200X0.406400*%
%TD*%
%TA.AperFunction,SMDPad,CuDef*%
%ADD21R,3.073400X2.489200*%
%TD*%
%TA.AperFunction,SMDPad,CuDef*%
%ADD22RoundRect,0.150000X-0.587500X-0.150000X0.587500X-0.150000X0.587500X0.150000X-0.587500X0.150000X0*%
%TD*%
%TA.AperFunction,SMDPad,CuDef*%
%ADD23RoundRect,0.250000X-0.650000X0.325000X-0.650000X-0.325000X0.650000X-0.325000X0.650000X0.325000X0*%
%TD*%
%TA.AperFunction,SMDPad,CuDef*%
%ADD24RoundRect,0.250000X0.312500X0.625000X-0.312500X0.625000X-0.312500X-0.625000X0.312500X-0.625000X0*%
%TD*%
%TA.AperFunction,SMDPad,CuDef*%
%ADD25RoundRect,0.250000X-0.800000X0.450000X-0.800000X-0.450000X0.800000X-0.450000X0.800000X0.450000X0*%
%TD*%
%TA.AperFunction,SMDPad,CuDef*%
%ADD26R,0.800000X0.300000*%
%TD*%
%TA.AperFunction,SMDPad,CuDef*%
%ADD27R,1.800000X3.400000*%
%TD*%
%TA.AperFunction,ComponentPad*%
%ADD28R,1.700000X1.700000*%
%TD*%
%TA.AperFunction,ComponentPad*%
%ADD29O,1.700000X1.700000*%
%TD*%
%TA.AperFunction,ViaPad*%
%ADD30C,0.500000*%
%TD*%
%TA.AperFunction,Conductor*%
%ADD31C,0.500000*%
%TD*%
%TA.AperFunction,Conductor*%
%ADD32C,0.300000*%
%TD*%
G04 APERTURE END LIST*
D10*
%TO.P,Q2,1,G*%
%TO.N,Net-(IC1-SCCP)*%
X78775000Y-140975000D03*
%TO.P,Q2,2,S*%
%TO.N,Net-(Q2-S)*%
X78775000Y-139075000D03*
%TO.P,Q2,3,D*%
%TO.N,Net-(D1-A)*%
X76900000Y-140025000D03*
%TD*%
D11*
%TO.P,CBULK1,1*%
%TO.N,Net-(CBULK1-Pad1)*%
X86125000Y-118800000D03*
%TO.P,CBULK1,2*%
%TO.N,GND*%
X91200000Y-118800000D03*
%TD*%
D12*
%TO.P,D2,1,K*%
%TO.N,Net-(D1-K)*%
X71150000Y-121100000D03*
%TO.P,D2,2,A*%
%TO.N,Net-(D2-A)*%
X73950000Y-121100000D03*
%TD*%
D13*
%TO.P,C3,1*%
%TO.N,Net-(C3-Pad1)*%
X78100000Y-121100000D03*
%TO.P,C3,2*%
%TO.N,Net-(D2-A)*%
X76200000Y-121100000D03*
%TD*%
D14*
%TO.P,R1,1*%
%TO.N,Net-(D1-K)*%
X71012500Y-125450000D03*
%TO.P,R1,2*%
%TO.N,Net-(C1-Pad1)*%
X73937500Y-125450000D03*
%TD*%
D15*
%TO.P,CGATE1,1*%
%TO.N,Net-(CGATE1-Pad1)*%
X91275000Y-131950000D03*
%TO.P,CGATE1,2*%
%TO.N,GND*%
X91275000Y-133850000D03*
%TD*%
D16*
%TO.P,Q4,1,S*%
%TO.N,GND*%
X83180000Y-132849000D03*
%TO.P,Q4,2,S*%
X83180000Y-133499000D03*
%TO.P,Q4,3,S*%
X83180000Y-134149000D03*
%TO.P,Q4,4,G*%
%TO.N,Net-(IC1-LGATE2)*%
X83180000Y-134799000D03*
D17*
%TO.P,Q4,5,D*%
%TO.N,Net-(D2-A)*%
X85120000Y-133824000D03*
%TD*%
D18*
%TO.P,L2,1,1*%
%TO.N,/PODL+*%
X78128200Y-145499900D03*
%TO.P,L2,2,2*%
%TO.N,Net-(D2-A)*%
X78128200Y-147100100D03*
%TO.P,L2,3,3*%
%TO.N,Net-(D1-A)*%
X84071800Y-147100100D03*
%TO.P,L2,4,4*%
%TO.N,/PODL-*%
X84071800Y-145499900D03*
%TD*%
D19*
%TO.P,RBULK1,1*%
%TO.N,Net-(IC1-OUT)*%
X82900000Y-118887500D03*
%TO.P,RBULK1,2*%
%TO.N,Net-(CBULK1-Pad1)*%
X82900000Y-115962500D03*
%TD*%
D14*
%TO.P,RGATE1,1*%
%TO.N,Net-(IC1-GATE)*%
X83537500Y-124900000D03*
%TO.P,RGATE1,2*%
%TO.N,Net-(CGATE1-Pad1)*%
X86462500Y-124900000D03*
%TD*%
D20*
%TO.P,Q1,1,S*%
%TO.N,Net-(IC1-OUT)*%
X80854200Y-126674999D03*
%TO.P,Q1,2,S*%
%TO.N,unconnected-(Q1-S-Pad2)*%
X80854200Y-126025001D03*
%TO.P,Q1,3,S*%
%TO.N,unconnected-(Q1-S-Pad3)*%
X80854200Y-125374999D03*
%TO.P,Q1,4,G*%
%TO.N,Net-(IC1-GATE)*%
X80854200Y-124725001D03*
D21*
%TO.P,Q1,5,D*%
%TO.N,Net-(D1-K)*%
X78453900Y-125700000D03*
%TD*%
D22*
%TO.P,Q3,1,G*%
%TO.N,Net-(IC1-SCCP)*%
X82100000Y-139100000D03*
%TO.P,Q3,2,S*%
%TO.N,Net-(Q3-S)*%
X82100000Y-141000000D03*
%TO.P,Q3,3,D*%
%TO.N,Net-(D2-A)*%
X83975000Y-140050000D03*
%TD*%
D23*
%TO.P,C1,1*%
%TO.N,Net-(C1-Pad1)*%
X73400000Y-129225000D03*
%TO.P,C1,2*%
%TO.N,GND*%
X73400000Y-132175000D03*
%TD*%
D19*
%TO.P,R3,1*%
%TO.N,Net-(Q2-S)*%
X88350000Y-136762500D03*
%TO.P,R3,2*%
%TO.N,GND*%
X88350000Y-133837500D03*
%TD*%
D24*
%TO.P,R2,1*%
%TO.N,Net-(D1-A)*%
X83162500Y-121050000D03*
%TO.P,R2,2*%
%TO.N,Net-(C3-Pad1)*%
X80237500Y-121050000D03*
%TD*%
D19*
%TO.P,R4,1*%
%TO.N,Net-(Q3-S)*%
X88350000Y-142212500D03*
%TO.P,R4,2*%
%TO.N,GND*%
X88350000Y-139287500D03*
%TD*%
D15*
%TO.P,CSTBY1,1*%
%TO.N,Net-(IC1-CLASSC)*%
X74600000Y-134350000D03*
%TO.P,CSTBY1,2*%
%TO.N,GND*%
X74600000Y-136250000D03*
%TD*%
%TO.P,C2,1*%
%TO.N,Net-(D1-K)*%
X71050000Y-130250000D03*
%TO.P,C2,2*%
%TO.N,GND*%
X71050000Y-132150000D03*
%TD*%
D25*
%TO.P,D3,1,K*%
%TO.N,Net-(D1-K)*%
X91075000Y-123975000D03*
%TO.P,D3,2,A*%
%TO.N,GND*%
X91075000Y-128375000D03*
%TD*%
D12*
%TO.P,D1,1,K*%
%TO.N,Net-(D1-K)*%
X77800000Y-129200000D03*
%TO.P,D1,2,A*%
%TO.N,Net-(D1-A)*%
X80600000Y-129200000D03*
%TD*%
D26*
%TO.P,IC1,1,SNS1*%
%TO.N,Net-(D1-A)*%
X77700000Y-132600000D03*
%TO.P,IC1,2,SNS2*%
%TO.N,Net-(D2-A)*%
X77700000Y-133100000D03*
%TO.P,IC1,3,IN*%
%TO.N,Net-(D1-K)*%
X77700000Y-133600000D03*
%TO.P,IC1,4,STBY*%
%TO.N,Net-(IC1-CLASSC)*%
X77700000Y-134100000D03*
%TO.P,IC1,5,CLASSV*%
%TO.N,GND*%
X77700000Y-134600000D03*
%TO.P,IC1,6,EN*%
%TO.N,unconnected-(IC1-EN-Pad6)*%
X77700000Y-135100000D03*
%TO.P,IC1,7,SCCP*%
%TO.N,Net-(IC1-SCCP)*%
X80700000Y-135100000D03*
%TO.P,IC1,8,LGATE2*%
%TO.N,Net-(IC1-LGATE2)*%
X80700000Y-134600000D03*
%TO.P,IC1,9,LGATE1*%
%TO.N,Net-(IC1-LGATE1)*%
X80700000Y-134100000D03*
%TO.P,IC1,10,CLASSC*%
%TO.N,Net-(IC1-CLASSC)*%
X80700000Y-133600000D03*
%TO.P,IC1,11,OUT*%
%TO.N,Net-(IC1-OUT)*%
X80700000Y-133100000D03*
%TO.P,IC1,12,GATE*%
%TO.N,Net-(IC1-GATE)*%
X80700000Y-132600000D03*
D27*
%TO.P,IC1,13,GND*%
%TO.N,GND*%
X79200000Y-133850000D03*
%TD*%
D16*
%TO.P,Q5,1,S*%
%TO.N,GND*%
X83480000Y-128299000D03*
%TO.P,Q5,2,S*%
X83480000Y-128949000D03*
%TO.P,Q5,3,S*%
X83480000Y-129599000D03*
%TO.P,Q5,4,G*%
%TO.N,Net-(IC1-LGATE1)*%
X83480000Y-130249000D03*
D17*
%TO.P,Q5,5,D*%
%TO.N,Net-(D1-A)*%
X85420000Y-129274000D03*
%TD*%
D28*
%TO.P,J1,1,Pin_1*%
%TO.N,unconnected-(J1-Pin_1-Pad1)*%
X71120000Y-116840000D03*
D29*
%TO.P,J1,2,Pin_2*%
%TO.N,unconnected-(J1-Pin_2-Pad2)*%
X73660000Y-116840000D03*
%TO.P,J1,3,Pin_3*%
%TO.N,GND*%
X76200000Y-116840000D03*
%TO.P,J1,4,Pin_4*%
%TO.N,Net-(IC1-OUT)*%
X78740000Y-116840000D03*
%TD*%
D28*
%TO.P,J2,1,Pin_1*%
%TO.N,/PODL+*%
X71120000Y-137160000D03*
D29*
%TO.P,J2,2,Pin_2*%
%TO.N,unconnected-(J2-Pin_2-Pad2)*%
X71120000Y-139700000D03*
%TO.P,J2,3,Pin_3*%
%TO.N,unconnected-(J2-Pin_3-Pad3)*%
X71120000Y-142240000D03*
%TO.P,J2,4,Pin_4*%
%TO.N,unconnected-(J2-Pin_4-Pad4)*%
X71120000Y-144780000D03*
%TO.P,J2,5,Pin_5*%
%TO.N,unconnected-(J2-Pin_5-Pad5)*%
X71120000Y-147320000D03*
%TO.P,J2,6,Pin_6*%
%TO.N,/PODL-*%
X71120000Y-149860000D03*
%TD*%
D28*
%TO.P,J3,1,Pin_1*%
%TO.N,GND*%
X91440000Y-137160000D03*
D29*
%TO.P,J3,2,Pin_2*%
%TO.N,unconnected-(J3-Pin_2-Pad2)*%
X91440000Y-139700000D03*
%TO.P,J3,3,Pin_3*%
%TO.N,unconnected-(J3-Pin_3-Pad3)*%
X91440000Y-142240000D03*
%TO.P,J3,4,Pin_4*%
%TO.N,unconnected-(J3-Pin_4-Pad4)*%
X91440000Y-144780000D03*
%TO.P,J3,5,Pin_5*%
%TO.N,unconnected-(J3-Pin_5-Pad5)*%
X91440000Y-147320000D03*
%TO.P,J3,6,Pin_6*%
%TO.N,GND*%
X91440000Y-149860000D03*
%TD*%
D30*
%TO.N,Net-(D1-K)*%
X75300000Y-132950000D03*
X76500000Y-129200000D03*
%TO.N,Net-(D1-A)*%
X77750000Y-130900000D03*
X83300000Y-122750000D03*
X82950000Y-131550000D03*
X87800000Y-129275000D03*
X75250000Y-139750000D03*
%TO.N,Net-(D2-A)*%
X80350000Y-140500000D03*
X76450000Y-131350000D03*
X76100000Y-147100000D03*
X85500000Y-138300000D03*
X76500000Y-137150000D03*
X78800000Y-137450000D03*
X85500000Y-136350000D03*
%TO.N,GND*%
X78575000Y-133000000D03*
X89850000Y-133850000D03*
X86725000Y-139275000D03*
X79200000Y-133600000D03*
X79825000Y-135275000D03*
X78575000Y-132425000D03*
X79200000Y-133025000D03*
X78575000Y-133575000D03*
X79825000Y-133575000D03*
X79200000Y-135300000D03*
X78575000Y-134700000D03*
X86028080Y-131626757D03*
X79825000Y-134150000D03*
X79200000Y-134725000D03*
X79825000Y-134700000D03*
X78575000Y-134150000D03*
X91050000Y-129775000D03*
X71050000Y-133300000D03*
X79200000Y-134175000D03*
X79825000Y-133000000D03*
X79200000Y-132450000D03*
X91200000Y-122675000D03*
X74600000Y-137450000D03*
X78575000Y-135275000D03*
X79825000Y-132425000D03*
%TO.N,Net-(IC1-CLASSC)*%
X82136102Y-133323487D03*
X79400000Y-136550000D03*
%TO.N,Net-(IC1-SCCP)*%
X82100000Y-138050000D03*
X82100000Y-136350000D03*
%TO.N,Net-(IC1-LGATE1)*%
X82484975Y-130604975D03*
X81874265Y-134274265D03*
%TO.N,Net-(IC1-OUT)*%
X81400000Y-127600000D03*
X78750000Y-119450000D03*
%TO.N,Net-(IC1-GATE)*%
X81108170Y-131055108D03*
X82250000Y-126150000D03*
%TO.N,/PODL-*%
X86050000Y-145500000D03*
%TD*%
D31*
%TO.N,Net-(D1-K)*%
X78453900Y-123955400D02*
X78453900Y-125700000D01*
X71050000Y-130250000D02*
X73446878Y-130250000D01*
X91075000Y-123975000D02*
X90675000Y-123575000D01*
X75300000Y-132103122D02*
X75300000Y-132950000D01*
X90675000Y-123575000D02*
X78834300Y-123575000D01*
X78834300Y-123575000D02*
X78453900Y-123955400D01*
D32*
X75950000Y-133600000D02*
X75300000Y-132950000D01*
D31*
X77800000Y-129200000D02*
X76500000Y-129200000D01*
X71012500Y-121237500D02*
X71150000Y-121100000D01*
X73446878Y-130250000D02*
X75300000Y-132103122D01*
X71050000Y-125487500D02*
X71012500Y-125450000D01*
X77800000Y-129200000D02*
X77800000Y-126353900D01*
X71050000Y-130250000D02*
X71050000Y-125487500D01*
X77800000Y-126353900D02*
X78453900Y-125700000D01*
X71012500Y-125450000D02*
X71012500Y-121237500D01*
D32*
X77700000Y-133600000D02*
X75950000Y-133600000D01*
D31*
%TO.N,Net-(D1-A)*%
X76900000Y-140025000D02*
X75675000Y-140025000D01*
X80273690Y-130900000D02*
X77750000Y-130900000D01*
X84071800Y-147100100D02*
X82600100Y-147100100D01*
D32*
X77700000Y-130950000D02*
X77750000Y-130900000D01*
X77700000Y-132600000D02*
X77700000Y-130950000D01*
D31*
X85420000Y-131280000D02*
X85150000Y-131550000D01*
D32*
X75600000Y-140100000D02*
X75250000Y-139750000D01*
D31*
X85421000Y-129275000D02*
X85420000Y-129274000D01*
X83300000Y-122725000D02*
X83300000Y-121187500D01*
X80600000Y-129200000D02*
X80600000Y-130573690D01*
X75675000Y-140025000D02*
X75600000Y-140100000D01*
X83300000Y-121187500D02*
X83162500Y-121050000D01*
X80600000Y-130573690D02*
X80273690Y-130900000D01*
X85420000Y-129274000D02*
X85420000Y-131280000D01*
X82600100Y-147100100D02*
X75250000Y-139750000D01*
X87800000Y-129275000D02*
X85421000Y-129275000D01*
X85150000Y-131550000D02*
X82950000Y-131550000D01*
%TO.N,Net-(D2-A)*%
X85120000Y-133824000D02*
X85120000Y-135970000D01*
X75450000Y-130350000D02*
X76450000Y-131350000D01*
X73950000Y-121100000D02*
X76200000Y-121100000D01*
X75450000Y-123750000D02*
X76200000Y-123000000D01*
X81459816Y-140050000D02*
X83975000Y-140050000D01*
X76100100Y-147100100D02*
X76100000Y-147100000D01*
X75450000Y-130350000D02*
X75450000Y-123750000D01*
X76500000Y-137150000D02*
X78500000Y-137150000D01*
X85500000Y-134504000D02*
X84820000Y-133824000D01*
X85500000Y-139700000D02*
X85500000Y-138300000D01*
X85120000Y-135970000D02*
X85500000Y-136350000D01*
X78500000Y-137150000D02*
X78800000Y-137450000D01*
X80350000Y-140500000D02*
X81009816Y-140500000D01*
X81009816Y-140500000D02*
X81459816Y-140050000D01*
X76200000Y-123000000D02*
X76200000Y-121100000D01*
D32*
X76450000Y-132600000D02*
X76450000Y-131350000D01*
D31*
X83975000Y-140050000D02*
X85150000Y-140050000D01*
X85150000Y-140050000D02*
X85500000Y-139700000D01*
D32*
X76950000Y-133100000D02*
X76450000Y-132600000D01*
X77700000Y-133100000D02*
X76950000Y-133100000D01*
D31*
X78128200Y-147100100D02*
X76100100Y-147100100D01*
%TO.N,Net-(C1-Pad1)*%
X73937500Y-127237500D02*
X73937500Y-125450000D01*
X73400000Y-127775000D02*
X73937500Y-127237500D01*
X73400000Y-129225000D02*
X73400000Y-127775000D01*
%TO.N,Net-(Q2-S)*%
X85789950Y-137050000D02*
X86089950Y-136750000D01*
X78789950Y-138450000D02*
X80189950Y-137050000D01*
X78775000Y-139075000D02*
X78775000Y-138450000D01*
X86089950Y-136750000D02*
X88337500Y-136750000D01*
X88337500Y-136750000D02*
X88350000Y-136762500D01*
X78775000Y-138450000D02*
X78789950Y-138450000D01*
X80189950Y-137050000D02*
X85789950Y-137050000D01*
%TO.N,Net-(C3-Pad1)*%
X80187500Y-121100000D02*
X80237500Y-121050000D01*
X78100000Y-121100000D02*
X80187500Y-121100000D01*
%TO.N,Net-(Q3-S)*%
X82412500Y-142212500D02*
X88350000Y-142212500D01*
X82100000Y-141900000D02*
X82100000Y-141000000D01*
X82412500Y-142212500D02*
X82100000Y-141900000D01*
D32*
%TO.N,GND*%
X83180000Y-134149000D02*
X83180000Y-133499000D01*
D31*
X88350000Y-133837500D02*
X89837500Y-133837500D01*
X83480000Y-128299000D02*
X83480000Y-128949000D01*
X88350000Y-139287500D02*
X86737500Y-139287500D01*
D32*
X77700000Y-134600000D02*
X78350000Y-134600000D01*
X83180000Y-132849000D02*
X83730000Y-132299000D01*
D31*
X83480000Y-129599000D02*
X83480000Y-128949000D01*
X84130000Y-127649000D02*
X87199000Y-127649000D01*
X83480000Y-128299000D02*
X84130000Y-127649000D01*
X87199000Y-127649000D02*
X88725000Y-129175000D01*
X73375000Y-132150000D02*
X73400000Y-132175000D01*
D32*
X85351000Y-132299000D02*
X86023243Y-131626757D01*
D31*
X86737500Y-139287500D02*
X86725000Y-139275000D01*
X74600000Y-136250000D02*
X74600000Y-137450000D01*
X91200000Y-118800000D02*
X91200000Y-122675000D01*
D32*
X83730000Y-132299000D02*
X85351000Y-132299000D01*
D31*
X91075000Y-128375000D02*
X91075000Y-129750000D01*
X88725000Y-131700000D02*
X89850000Y-132825000D01*
X71050000Y-132150000D02*
X73375000Y-132150000D01*
X71050000Y-132150000D02*
X71050000Y-133300000D01*
X89850000Y-132825000D02*
X89850000Y-133850000D01*
X89850000Y-133850000D02*
X91275000Y-133850000D01*
D32*
X83180000Y-133499000D02*
X83180000Y-132849000D01*
X86023243Y-131626757D02*
X86028080Y-131626757D01*
D31*
X88725000Y-129175000D02*
X88725000Y-131700000D01*
D32*
X78350000Y-134600000D02*
X78550000Y-134400000D01*
D31*
X89837500Y-133837500D02*
X89850000Y-133850000D01*
X91075000Y-129750000D02*
X91050000Y-129775000D01*
%TO.N,Net-(CBULK1-Pad1)*%
X86125000Y-116975000D02*
X85112500Y-115962500D01*
X86125000Y-118800000D02*
X86125000Y-116975000D01*
X85112500Y-115962500D02*
X82900000Y-115962500D01*
%TO.N,Net-(CGATE1-Pad1)*%
X89425000Y-126675000D02*
X87650000Y-124900000D01*
X91275000Y-131000000D02*
X89425000Y-129150000D01*
X87650000Y-124900000D02*
X86462500Y-124900000D01*
X91275000Y-131950000D02*
X91275000Y-131000000D01*
X86562500Y-124800000D02*
X86462500Y-124900000D01*
X89425000Y-129150000D02*
X89425000Y-126675000D01*
D32*
%TO.N,Net-(IC1-CLASSC)*%
X75950000Y-134100000D02*
X77700000Y-134100000D01*
X79400000Y-136550000D02*
X77900000Y-136550000D01*
X75700000Y-134350000D02*
X75950000Y-134100000D01*
X80700000Y-133600000D02*
X81859589Y-133600000D01*
X75700000Y-134350000D02*
X74600000Y-134350000D01*
X81859589Y-133600000D02*
X82136102Y-133323487D01*
X77900000Y-136550000D02*
X75700000Y-134350000D01*
D31*
%TO.N,Net-(IC1-SCCP)*%
X78775000Y-140975000D02*
X80650000Y-139100000D01*
D32*
X80850000Y-135100000D02*
X82100000Y-136350000D01*
D31*
X80650000Y-139100000D02*
X82100000Y-139100000D01*
X82100000Y-139100000D02*
X82100000Y-138050000D01*
D32*
X80700000Y-135100000D02*
X80850000Y-135100000D01*
%TO.N,Net-(IC1-LGATE2)*%
X81756224Y-135071091D02*
X82907909Y-135071091D01*
X81285133Y-134600000D02*
X81756224Y-135071091D01*
X80700000Y-134600000D02*
X81285133Y-134600000D01*
X82907909Y-135071091D02*
X83180000Y-134799000D01*
%TO.N,Net-(IC1-LGATE1)*%
X82840950Y-130249000D02*
X82484975Y-130604975D01*
X83480000Y-130249000D02*
X82840950Y-130249000D01*
X80700000Y-134100000D02*
X81700000Y-134100000D01*
X81700000Y-134100000D02*
X81874265Y-134274265D01*
X83476204Y-130245204D02*
X83480000Y-130249000D01*
D31*
%TO.N,Net-(IC1-OUT)*%
X79312500Y-118887500D02*
X78750000Y-119450000D01*
D32*
X81850000Y-132573487D02*
X81850000Y-128050000D01*
X80854200Y-126674999D02*
X80854200Y-127054200D01*
D31*
X78740000Y-116840000D02*
X78740000Y-119440000D01*
D32*
X81850000Y-128050000D02*
X81400000Y-127600000D01*
D31*
X82900000Y-118887500D02*
X79312500Y-118887500D01*
D32*
X80700000Y-133100000D02*
X81298928Y-133100000D01*
D31*
X78740000Y-119440000D02*
X78750000Y-119450000D01*
D32*
X81298928Y-133100000D02*
X81825441Y-132573487D01*
X80854200Y-127054200D02*
X81400000Y-127600000D01*
X81825441Y-132573487D02*
X81850000Y-132573487D01*
D31*
%TO.N,Net-(IC1-GATE)*%
X83537500Y-124900000D02*
X83500000Y-124900000D01*
X83359299Y-124721799D02*
X80854200Y-124721799D01*
X83500000Y-124900000D02*
X82250000Y-126150000D01*
D32*
X80700000Y-131463278D02*
X81108170Y-131055108D01*
D31*
X83537500Y-124900000D02*
X83359299Y-124721799D01*
D32*
X80700000Y-132600000D02*
X80700000Y-131463278D01*
D31*
%TO.N,/PODL+*%
X74350000Y-143850000D02*
X74350000Y-140390000D01*
X78128200Y-145499900D02*
X76000100Y-145499900D01*
X74350000Y-140390000D02*
X71120000Y-137160000D01*
X76000100Y-145499900D02*
X76000000Y-145500000D01*
X76000000Y-145500000D02*
X74350000Y-143850000D01*
%TO.N,/PODL-*%
X84071800Y-145499900D02*
X86049900Y-145499900D01*
X86049900Y-145499900D02*
X86050000Y-145500000D01*
%TD*%
%TA.AperFunction,Conductor*%
%TO.N,/PODL+*%
G36*
X82097991Y-114970185D02*
G01*
X82143746Y-115022989D01*
X82153690Y-115092147D01*
X82124665Y-115155703D01*
X82074285Y-115190682D01*
X82032671Y-115206202D01*
X82032664Y-115206206D01*
X81917455Y-115292452D01*
X81917452Y-115292455D01*
X81831206Y-115407664D01*
X81831202Y-115407671D01*
X81780910Y-115542513D01*
X81780909Y-115542517D01*
X81774500Y-115602127D01*
X81774500Y-115602134D01*
X81774500Y-115602135D01*
X81774500Y-116322870D01*
X81774501Y-116322876D01*
X81780908Y-116382483D01*
X81831202Y-116517328D01*
X81831206Y-116517335D01*
X81917452Y-116632544D01*
X81917455Y-116632547D01*
X82032664Y-116718793D01*
X82032671Y-116718797D01*
X82167517Y-116769091D01*
X82167516Y-116769091D01*
X82174444Y-116769835D01*
X82227127Y-116775500D01*
X83572872Y-116775499D01*
X83632483Y-116769091D01*
X83767331Y-116718796D01*
X83882546Y-116632546D01*
X83914209Y-116590250D01*
X83972272Y-116512689D01*
X84028206Y-116470818D01*
X84071538Y-116463000D01*
X84853824Y-116463000D01*
X84920863Y-116482685D01*
X84941505Y-116499319D01*
X85588181Y-117145994D01*
X85621666Y-117207317D01*
X85624500Y-117233675D01*
X85624500Y-117625500D01*
X85604815Y-117692539D01*
X85552011Y-117738294D01*
X85500500Y-117749500D01*
X84664629Y-117749500D01*
X84664623Y-117749501D01*
X84605016Y-117755908D01*
X84470171Y-117806202D01*
X84470164Y-117806206D01*
X84354955Y-117892452D01*
X84354952Y-117892455D01*
X84268706Y-118007664D01*
X84268702Y-118007671D01*
X84218408Y-118142517D01*
X84212001Y-118202116D01*
X84212001Y-118202123D01*
X84212000Y-118202135D01*
X84212000Y-118297437D01*
X84192315Y-118364476D01*
X84139511Y-118410231D01*
X84070353Y-118420175D01*
X84006797Y-118391150D01*
X83971818Y-118340771D01*
X83968796Y-118332669D01*
X83968793Y-118332664D01*
X83882547Y-118217455D01*
X83882544Y-118217452D01*
X83767335Y-118131206D01*
X83767328Y-118131202D01*
X83632482Y-118080908D01*
X83632483Y-118080908D01*
X83572883Y-118074501D01*
X83572881Y-118074500D01*
X83572873Y-118074500D01*
X83572864Y-118074500D01*
X82227129Y-118074500D01*
X82227123Y-118074501D01*
X82167516Y-118080908D01*
X82032671Y-118131202D01*
X82032664Y-118131206D01*
X81917455Y-118217452D01*
X81917452Y-118217455D01*
X81827728Y-118337311D01*
X81771794Y-118379182D01*
X81728462Y-118387000D01*
X79379643Y-118387000D01*
X79353285Y-118384166D01*
X79339908Y-118381256D01*
X79340606Y-118378042D01*
X79290151Y-118359201D01*
X79248301Y-118303251D01*
X79240500Y-118259963D01*
X79240500Y-117893546D01*
X79260185Y-117826507D01*
X79299218Y-117788122D01*
X79406041Y-117721981D01*
X79556764Y-117584579D01*
X79679673Y-117421821D01*
X79770582Y-117239250D01*
X79826397Y-117043083D01*
X79845215Y-116840000D01*
X79838644Y-116769091D01*
X79826397Y-116636917D01*
X79811068Y-116583041D01*
X79770582Y-116440750D01*
X79679673Y-116258179D01*
X79556764Y-116095421D01*
X79556762Y-116095418D01*
X79406041Y-115958019D01*
X79406039Y-115958017D01*
X79232642Y-115850655D01*
X79232635Y-115850651D01*
X79126150Y-115809399D01*
X79042456Y-115776976D01*
X78841976Y-115739500D01*
X78638024Y-115739500D01*
X78437544Y-115776976D01*
X78437541Y-115776976D01*
X78437541Y-115776977D01*
X78247364Y-115850651D01*
X78247357Y-115850655D01*
X78073960Y-115958017D01*
X78073958Y-115958019D01*
X77923237Y-116095418D01*
X77800327Y-116258178D01*
X77709422Y-116440739D01*
X77709417Y-116440752D01*
X77653602Y-116636917D01*
X77634785Y-116839999D01*
X77634785Y-116840000D01*
X77653602Y-117043082D01*
X77709417Y-117239247D01*
X77709422Y-117239260D01*
X77800327Y-117421821D01*
X77923237Y-117584581D01*
X78073955Y-117721978D01*
X78073957Y-117721979D01*
X78073959Y-117721981D01*
X78180779Y-117788121D01*
X78227413Y-117840146D01*
X78239500Y-117893546D01*
X78239500Y-119372858D01*
X78236667Y-119399206D01*
X78235641Y-119403927D01*
X78235641Y-119403929D01*
X78235641Y-119403930D01*
X78239342Y-119455669D01*
X78239500Y-119460094D01*
X78239500Y-119475799D01*
X78241734Y-119491343D01*
X78242207Y-119495740D01*
X78245909Y-119547485D01*
X78247593Y-119552000D01*
X78254148Y-119577682D01*
X78254834Y-119582455D01*
X78254835Y-119582457D01*
X78276383Y-119629642D01*
X78278071Y-119633716D01*
X78296203Y-119682329D01*
X78299096Y-119686194D01*
X78312617Y-119708983D01*
X78314620Y-119713370D01*
X78314623Y-119713373D01*
X78330058Y-119731187D01*
X78345169Y-119752951D01*
X78345209Y-119753023D01*
X78371901Y-119779715D01*
X78374896Y-119782932D01*
X78408872Y-119822143D01*
X78408873Y-119822143D01*
X78410038Y-119823488D01*
X78417531Y-119830981D01*
X78418869Y-119832140D01*
X78418872Y-119832143D01*
X78422929Y-119834750D01*
X78443570Y-119851384D01*
X78446978Y-119854792D01*
X78470929Y-119867870D01*
X78485815Y-119877436D01*
X78507670Y-119893797D01*
X78513536Y-119897000D01*
X78562941Y-119946405D01*
X78570802Y-119982542D01*
X78607029Y-119955425D01*
X78669005Y-119950993D01*
X78669258Y-119949237D01*
X78678037Y-119950499D01*
X78678039Y-119950500D01*
X78682857Y-119950500D01*
X78709208Y-119953332D01*
X78713927Y-119954359D01*
X78741153Y-119952411D01*
X78758847Y-119952411D01*
X78786073Y-119954359D01*
X78790791Y-119953332D01*
X78817143Y-119950500D01*
X78821960Y-119950500D01*
X78821961Y-119950500D01*
X78826573Y-119949145D01*
X78852678Y-119944434D01*
X78857483Y-119944091D01*
X78883071Y-119934546D01*
X78900022Y-119929570D01*
X78926706Y-119923766D01*
X78930928Y-119921460D01*
X78955435Y-119911309D01*
X78957019Y-119910843D01*
X78960053Y-119909953D01*
X78964103Y-119907349D01*
X78987821Y-119895477D01*
X78992331Y-119893796D01*
X79014185Y-119877434D01*
X79029058Y-119867875D01*
X79053023Y-119854791D01*
X79056429Y-119851383D01*
X79077070Y-119834750D01*
X79081128Y-119832143D01*
X79115116Y-119792916D01*
X79118085Y-119789727D01*
X79148792Y-119759022D01*
X79154793Y-119753022D01*
X79483495Y-119424319D01*
X79544818Y-119390834D01*
X79571176Y-119388000D01*
X81728462Y-119388000D01*
X81795501Y-119407685D01*
X81827728Y-119437689D01*
X81917452Y-119557544D01*
X81917455Y-119557547D01*
X82032664Y-119643793D01*
X82032671Y-119643797D01*
X82167517Y-119694091D01*
X82167516Y-119694091D01*
X82174444Y-119694835D01*
X82227127Y-119700500D01*
X82672983Y-119700499D01*
X82740020Y-119720183D01*
X82785775Y-119772987D01*
X82795719Y-119842146D01*
X82766694Y-119905702D01*
X82716315Y-119940681D01*
X82607669Y-119981203D01*
X82607664Y-119981206D01*
X82492455Y-120067452D01*
X82492452Y-120067455D01*
X82406206Y-120182664D01*
X82406202Y-120182671D01*
X82355908Y-120317517D01*
X82349501Y-120377116D01*
X82349501Y-120377123D01*
X82349500Y-120377135D01*
X82349500Y-121722870D01*
X82349501Y-121722876D01*
X82355908Y-121782483D01*
X82406202Y-121917328D01*
X82406206Y-121917335D01*
X82492452Y-122032544D01*
X82492455Y-122032547D01*
X82607664Y-122118793D01*
X82607673Y-122118798D01*
X82718832Y-122160257D01*
X82774766Y-122202127D01*
X82799184Y-122267592D01*
X82799500Y-122276439D01*
X82799500Y-122705331D01*
X82798238Y-122722977D01*
X82794353Y-122749999D01*
X82814834Y-122892457D01*
X82814835Y-122892458D01*
X82817817Y-122898987D01*
X82827762Y-122968145D01*
X82798738Y-123031701D01*
X82739961Y-123069477D01*
X82705024Y-123074500D01*
X78901443Y-123074500D01*
X78875085Y-123071666D01*
X78870374Y-123070641D01*
X78870370Y-123070641D01*
X78831852Y-123073396D01*
X78818628Y-123074342D01*
X78814206Y-123074500D01*
X78798499Y-123074500D01*
X78782956Y-123076734D01*
X78778560Y-123077207D01*
X78726817Y-123080909D01*
X78726813Y-123080910D01*
X78722286Y-123082598D01*
X78696627Y-123089146D01*
X78691850Y-123089833D01*
X78691843Y-123089835D01*
X78644653Y-123111385D01*
X78640564Y-123113078D01*
X78591975Y-123131200D01*
X78591964Y-123131206D01*
X78588099Y-123134100D01*
X78565320Y-123147615D01*
X78560936Y-123149617D01*
X78560926Y-123149623D01*
X78540348Y-123167454D01*
X78521728Y-123183587D01*
X78518296Y-123186354D01*
X78505702Y-123195781D01*
X78494591Y-123206892D01*
X78491355Y-123209905D01*
X78452161Y-123243867D01*
X78452154Y-123243876D01*
X78449543Y-123247938D01*
X78432916Y-123268568D01*
X78147468Y-123554016D01*
X78126838Y-123570643D01*
X78122776Y-123573254D01*
X78122767Y-123573261D01*
X78088805Y-123612455D01*
X78085792Y-123615691D01*
X78074681Y-123626802D01*
X78065254Y-123639396D01*
X78062487Y-123642828D01*
X78049275Y-123658076D01*
X78028523Y-123682026D01*
X78028517Y-123682036D01*
X78026515Y-123686420D01*
X78013000Y-123709199D01*
X78010106Y-123713064D01*
X78010100Y-123713075D01*
X77991978Y-123761664D01*
X77990285Y-123765753D01*
X77968735Y-123812943D01*
X77968733Y-123812950D01*
X77968046Y-123817727D01*
X77961498Y-123843386D01*
X77959810Y-123847913D01*
X77959809Y-123847917D01*
X77956107Y-123899660D01*
X77955634Y-123904056D01*
X77953400Y-123919599D01*
X77953400Y-123935304D01*
X77953242Y-123939729D01*
X77949541Y-123991469D01*
X77949541Y-123991473D01*
X77950566Y-123996185D01*
X77953400Y-124022543D01*
X77953400Y-124080900D01*
X77933715Y-124147939D01*
X77880911Y-124193694D01*
X77829400Y-124204900D01*
X76892523Y-124204900D01*
X76819464Y-124219432D01*
X76819460Y-124219433D01*
X76736599Y-124274799D01*
X76681233Y-124357660D01*
X76681232Y-124357664D01*
X76666700Y-124430721D01*
X76666700Y-126969278D01*
X76681232Y-127042335D01*
X76681233Y-127042339D01*
X76681234Y-127042340D01*
X76736599Y-127125201D01*
X76817871Y-127179504D01*
X76819460Y-127180566D01*
X76819464Y-127180567D01*
X76892521Y-127195099D01*
X76892524Y-127195100D01*
X76892526Y-127195100D01*
X77175500Y-127195100D01*
X77242539Y-127214785D01*
X77288294Y-127267589D01*
X77299500Y-127319100D01*
X77299500Y-128225500D01*
X77279815Y-128292539D01*
X77227011Y-128338294D01*
X77181320Y-128348233D01*
X77181386Y-128348903D01*
X77175645Y-128349468D01*
X77175500Y-128349500D01*
X77175323Y-128349500D01*
X77102264Y-128364032D01*
X77102260Y-128364033D01*
X77019399Y-128419399D01*
X76964033Y-128502260D01*
X76964032Y-128502264D01*
X76949500Y-128575321D01*
X76949500Y-128575500D01*
X76949473Y-128575589D01*
X76948903Y-128581386D01*
X76947803Y-128581277D01*
X76929815Y-128642539D01*
X76877011Y-128688294D01*
X76825500Y-128699500D01*
X76571961Y-128699500D01*
X76428039Y-128699500D01*
X76428036Y-128699500D01*
X76428034Y-128699501D01*
X76401842Y-128707190D01*
X76384568Y-128710948D01*
X76357544Y-128714834D01*
X76357541Y-128714835D01*
X76332710Y-128726175D01*
X76316141Y-128732355D01*
X76303171Y-128736163D01*
X76289947Y-128740047D01*
X76289945Y-128740047D01*
X76289945Y-128740048D01*
X76266982Y-128754805D01*
X76251461Y-128763280D01*
X76226628Y-128774621D01*
X76226625Y-128774623D01*
X76206000Y-128792495D01*
X76191840Y-128803095D01*
X76168876Y-128817853D01*
X76168875Y-128817854D01*
X76168872Y-128817856D01*
X76168872Y-128817857D01*
X76168207Y-128818623D01*
X76167356Y-128819170D01*
X76162173Y-128823662D01*
X76161526Y-128822916D01*
X76109430Y-128856394D01*
X76039560Y-128856391D01*
X75980784Y-128818614D01*
X75951761Y-128755057D01*
X75950500Y-128737415D01*
X75950500Y-124008675D01*
X75970185Y-123941636D01*
X75986815Y-123920998D01*
X76506431Y-123401381D01*
X76527068Y-123384751D01*
X76531128Y-123382143D01*
X76565109Y-123342925D01*
X76568092Y-123339720D01*
X76579221Y-123328593D01*
X76588637Y-123316014D01*
X76591417Y-123312564D01*
X76625377Y-123273373D01*
X76627375Y-123268995D01*
X76640907Y-123246189D01*
X76643796Y-123242331D01*
X76661922Y-123193728D01*
X76663614Y-123189645D01*
X76673748Y-123167455D01*
X76685165Y-123142457D01*
X76685850Y-123137685D01*
X76692409Y-123111992D01*
X76694091Y-123107483D01*
X76697791Y-123055740D01*
X76698265Y-123051340D01*
X76700500Y-123035799D01*
X76700500Y-123020094D01*
X76700658Y-123015669D01*
X76701635Y-123002011D01*
X76704359Y-122963927D01*
X76703332Y-122959206D01*
X76700500Y-122932858D01*
X76700500Y-122074749D01*
X76720185Y-122007710D01*
X76750190Y-121975482D01*
X76807546Y-121932546D01*
X76893796Y-121817331D01*
X76944091Y-121682483D01*
X76950500Y-121622873D01*
X76950500Y-121622870D01*
X77349500Y-121622870D01*
X77349501Y-121622876D01*
X77355908Y-121682483D01*
X77406202Y-121817328D01*
X77406206Y-121817335D01*
X77492452Y-121932544D01*
X77492455Y-121932547D01*
X77607664Y-122018793D01*
X77607671Y-122018797D01*
X77641502Y-122031415D01*
X77742517Y-122069091D01*
X77802127Y-122075500D01*
X78397872Y-122075499D01*
X78457483Y-122069091D01*
X78592331Y-122018796D01*
X78707546Y-121932546D01*
X78793796Y-121817331D01*
X78844091Y-121682483D01*
X78844090Y-121682483D01*
X78844582Y-121681167D01*
X78886453Y-121625233D01*
X78951917Y-121600816D01*
X78960764Y-121600500D01*
X79300501Y-121600500D01*
X79367540Y-121620185D01*
X79413295Y-121672989D01*
X79423437Y-121719611D01*
X79424099Y-121719576D01*
X79424146Y-121719571D01*
X79424146Y-121719573D01*
X79424324Y-121719564D01*
X79424501Y-121722876D01*
X79430908Y-121782483D01*
X79481202Y-121917328D01*
X79481206Y-121917335D01*
X79567452Y-122032544D01*
X79567455Y-122032547D01*
X79682664Y-122118793D01*
X79682671Y-122118797D01*
X79682674Y-122118798D01*
X79817517Y-122169091D01*
X79877127Y-122175500D01*
X80597872Y-122175499D01*
X80657483Y-122169091D01*
X80792331Y-122118796D01*
X80907546Y-122032546D01*
X80993796Y-121917331D01*
X81044091Y-121782483D01*
X81050500Y-121722873D01*
X81050499Y-120377128D01*
X81044091Y-120317517D01*
X81024142Y-120264032D01*
X80993797Y-120182671D01*
X80993793Y-120182664D01*
X80907547Y-120067455D01*
X80907544Y-120067452D01*
X80792335Y-119981206D01*
X80792328Y-119981202D01*
X80657486Y-119930910D01*
X80657485Y-119930909D01*
X80657483Y-119930909D01*
X80597873Y-119924500D01*
X80597863Y-119924500D01*
X79877129Y-119924500D01*
X79877123Y-119924501D01*
X79817516Y-119930908D01*
X79682671Y-119981202D01*
X79682664Y-119981206D01*
X79567455Y-120067452D01*
X79567452Y-120067455D01*
X79481206Y-120182664D01*
X79481202Y-120182671D01*
X79430908Y-120317517D01*
X79424501Y-120377116D01*
X79424501Y-120377123D01*
X79424500Y-120377135D01*
X79424500Y-120475500D01*
X79404815Y-120542539D01*
X79352011Y-120588294D01*
X79300500Y-120599500D01*
X78960764Y-120599500D01*
X78893725Y-120579815D01*
X78847970Y-120527011D01*
X78844582Y-120518833D01*
X78793797Y-120382671D01*
X78793793Y-120382664D01*
X78707547Y-120267455D01*
X78707544Y-120267452D01*
X78592332Y-120181204D01*
X78590931Y-120180439D01*
X78589801Y-120179309D01*
X78585231Y-120175888D01*
X78585722Y-120175230D01*
X78541527Y-120131033D01*
X78533666Y-120094896D01*
X78497443Y-120122014D01*
X78440854Y-120129121D01*
X78397882Y-120124501D01*
X78397873Y-120124500D01*
X78397863Y-120124500D01*
X77802129Y-120124500D01*
X77802123Y-120124501D01*
X77742516Y-120130908D01*
X77607671Y-120181202D01*
X77607664Y-120181206D01*
X77492455Y-120267452D01*
X77492452Y-120267455D01*
X77406206Y-120382664D01*
X77406202Y-120382671D01*
X77355908Y-120517517D01*
X77349754Y-120574767D01*
X77349501Y-120577123D01*
X77349500Y-120577135D01*
X77349500Y-121622870D01*
X76950500Y-121622870D01*
X76950499Y-120577128D01*
X76945112Y-120527011D01*
X76944091Y-120517516D01*
X76893797Y-120382671D01*
X76893793Y-120382664D01*
X76807547Y-120267455D01*
X76807544Y-120267452D01*
X76692335Y-120181206D01*
X76692328Y-120181202D01*
X76557486Y-120130910D01*
X76557485Y-120130909D01*
X76557483Y-120130909D01*
X76497873Y-120124500D01*
X76497863Y-120124500D01*
X75902129Y-120124500D01*
X75902123Y-120124501D01*
X75842516Y-120130908D01*
X75707671Y-120181202D01*
X75707664Y-120181206D01*
X75592455Y-120267452D01*
X75592452Y-120267455D01*
X75506206Y-120382664D01*
X75506202Y-120382671D01*
X75455418Y-120518833D01*
X75413547Y-120574767D01*
X75348083Y-120599184D01*
X75339236Y-120599500D01*
X74924500Y-120599500D01*
X74857461Y-120579815D01*
X74811706Y-120527011D01*
X74801766Y-120481320D01*
X74801097Y-120481386D01*
X74800531Y-120475645D01*
X74800500Y-120475500D01*
X74800500Y-120475323D01*
X74800499Y-120475321D01*
X74785967Y-120402264D01*
X74785966Y-120402260D01*
X74772876Y-120382669D01*
X74730601Y-120319399D01*
X74652860Y-120267455D01*
X74647739Y-120264033D01*
X74647735Y-120264032D01*
X74574677Y-120249500D01*
X74574674Y-120249500D01*
X73325326Y-120249500D01*
X73325323Y-120249500D01*
X73252264Y-120264032D01*
X73252260Y-120264033D01*
X73169399Y-120319399D01*
X73114033Y-120402260D01*
X73114032Y-120402264D01*
X73099500Y-120475321D01*
X73099500Y-121724678D01*
X73114032Y-121797735D01*
X73114033Y-121797739D01*
X73114034Y-121797740D01*
X73169399Y-121880601D01*
X73247137Y-121932543D01*
X73252260Y-121935966D01*
X73252264Y-121935967D01*
X73325321Y-121950499D01*
X73325324Y-121950500D01*
X73325326Y-121950500D01*
X74574676Y-121950500D01*
X74574677Y-121950499D01*
X74647740Y-121935966D01*
X74730601Y-121880601D01*
X74785966Y-121797740D01*
X74800500Y-121724674D01*
X74800500Y-121724500D01*
X74800526Y-121724410D01*
X74801097Y-121718614D01*
X74802196Y-121718722D01*
X74820185Y-121657461D01*
X74872989Y-121611706D01*
X74924500Y-121600500D01*
X75339236Y-121600500D01*
X75406275Y-121620185D01*
X75452030Y-121672989D01*
X75455418Y-121681167D01*
X75506202Y-121817328D01*
X75506203Y-121817329D01*
X75506204Y-121817331D01*
X75581064Y-121917331D01*
X75592452Y-121932543D01*
X75592455Y-121932547D01*
X75649810Y-121975482D01*
X75691682Y-122031415D01*
X75699500Y-122074749D01*
X75699500Y-122741323D01*
X75679815Y-122808362D01*
X75663181Y-122829004D01*
X75143569Y-123348616D01*
X75122937Y-123365244D01*
X75118872Y-123367857D01*
X75118867Y-123367861D01*
X75084905Y-123407055D01*
X75081892Y-123410291D01*
X75070781Y-123421402D01*
X75061354Y-123433996D01*
X75058587Y-123437428D01*
X75045375Y-123452676D01*
X75024623Y-123476626D01*
X75024617Y-123476636D01*
X75022615Y-123481020D01*
X75009100Y-123503799D01*
X75006206Y-123507664D01*
X75006200Y-123507675D01*
X74988078Y-123556264D01*
X74986385Y-123560353D01*
X74964835Y-123607543D01*
X74964833Y-123607550D01*
X74964146Y-123612327D01*
X74957598Y-123637986D01*
X74955910Y-123642513D01*
X74955909Y-123642517D01*
X74952207Y-123694260D01*
X74951734Y-123698656D01*
X74949500Y-123714199D01*
X74949500Y-123729904D01*
X74949342Y-123734329D01*
X74945641Y-123786069D01*
X74945641Y-123786073D01*
X74946666Y-123790785D01*
X74949500Y-123817143D01*
X74949500Y-124580951D01*
X74929815Y-124647990D01*
X74877011Y-124693745D01*
X74807853Y-124703689D01*
X74744297Y-124674664D01*
X74709318Y-124624284D01*
X74693797Y-124582671D01*
X74693793Y-124582664D01*
X74607547Y-124467455D01*
X74607544Y-124467452D01*
X74492335Y-124381206D01*
X74492328Y-124381202D01*
X74357486Y-124330910D01*
X74357485Y-124330909D01*
X74357483Y-124330909D01*
X74297873Y-124324500D01*
X74297863Y-124324500D01*
X73577129Y-124324500D01*
X73577123Y-124324501D01*
X73517516Y-124330908D01*
X73382671Y-124381202D01*
X73382664Y-124381206D01*
X73267455Y-124467452D01*
X73267452Y-124467455D01*
X73181206Y-124582664D01*
X73181202Y-124582671D01*
X73130908Y-124717517D01*
X73124501Y-124777116D01*
X73124501Y-124777123D01*
X73124500Y-124777135D01*
X73124500Y-126122870D01*
X73124501Y-126122876D01*
X73130908Y-126182483D01*
X73181202Y-126317328D01*
X73181206Y-126317335D01*
X73244308Y-126401627D01*
X73267454Y-126432546D01*
X73382669Y-126518796D01*
X73382671Y-126518797D01*
X73387311Y-126522270D01*
X73429182Y-126578204D01*
X73437000Y-126621537D01*
X73437000Y-126978823D01*
X73417315Y-127045862D01*
X73400681Y-127066504D01*
X73093569Y-127373615D01*
X73072941Y-127390240D01*
X73068880Y-127392850D01*
X73068867Y-127392861D01*
X73034905Y-127432055D01*
X73031892Y-127435291D01*
X73020781Y-127446402D01*
X73011354Y-127458996D01*
X73008587Y-127462428D01*
X72995375Y-127477676D01*
X72974623Y-127501626D01*
X72974617Y-127501636D01*
X72972615Y-127506020D01*
X72959100Y-127528799D01*
X72956206Y-127532664D01*
X72956200Y-127532675D01*
X72938078Y-127581264D01*
X72936385Y-127585353D01*
X72914835Y-127632543D01*
X72914833Y-127632550D01*
X72914146Y-127637327D01*
X72907598Y-127662986D01*
X72905910Y-127667513D01*
X72905909Y-127667517D01*
X72902207Y-127719260D01*
X72901734Y-127723656D01*
X72899500Y-127739199D01*
X72899500Y-127754904D01*
X72899342Y-127759329D01*
X72895641Y-127811069D01*
X72895641Y-127811073D01*
X72896666Y-127815785D01*
X72899500Y-127842143D01*
X72899500Y-128275500D01*
X72879815Y-128342539D01*
X72827011Y-128388294D01*
X72775502Y-128399500D01*
X72702130Y-128399500D01*
X72702123Y-128399501D01*
X72642516Y-128405908D01*
X72507671Y-128456202D01*
X72507664Y-128456206D01*
X72392455Y-128542452D01*
X72392452Y-128542455D01*
X72306206Y-128657664D01*
X72306202Y-128657671D01*
X72255917Y-128792495D01*
X72255909Y-128792517D01*
X72249500Y-128852127D01*
X72249500Y-128852134D01*
X72249500Y-128852135D01*
X72249500Y-129597870D01*
X72249501Y-129597879D01*
X72251046Y-129612248D01*
X72238639Y-129681007D01*
X72191027Y-129732143D01*
X72127756Y-129749500D01*
X72024751Y-129749500D01*
X71957712Y-129729815D01*
X71925485Y-129699812D01*
X71893542Y-129657143D01*
X71882546Y-129642454D01*
X71865657Y-129629811D01*
X71767335Y-129556206D01*
X71767330Y-129556203D01*
X71631166Y-129505417D01*
X71575233Y-129463545D01*
X71550816Y-129398081D01*
X71550500Y-129389235D01*
X71550500Y-126593464D01*
X71570185Y-126526425D01*
X71600187Y-126494199D01*
X71682546Y-126432546D01*
X71768796Y-126317331D01*
X71819091Y-126182483D01*
X71825500Y-126122873D01*
X71825499Y-124777128D01*
X71819091Y-124717517D01*
X71813933Y-124703689D01*
X71768797Y-124582671D01*
X71768793Y-124582664D01*
X71713336Y-124508584D01*
X71682546Y-124467454D01*
X71567331Y-124381204D01*
X71567328Y-124381202D01*
X71562689Y-124377730D01*
X71520818Y-124321796D01*
X71513000Y-124278463D01*
X71513000Y-122074500D01*
X71532685Y-122007461D01*
X71585489Y-121961706D01*
X71637000Y-121950500D01*
X71774676Y-121950500D01*
X71774677Y-121950499D01*
X71847740Y-121935966D01*
X71930601Y-121880601D01*
X71985966Y-121797740D01*
X72000500Y-121724674D01*
X72000500Y-120475326D01*
X72000500Y-120475323D01*
X72000499Y-120475321D01*
X71985967Y-120402264D01*
X71985966Y-120402260D01*
X71972876Y-120382669D01*
X71930601Y-120319399D01*
X71852860Y-120267455D01*
X71847739Y-120264033D01*
X71847735Y-120264032D01*
X71774677Y-120249500D01*
X71774674Y-120249500D01*
X70525326Y-120249500D01*
X70525323Y-120249500D01*
X70452264Y-120264032D01*
X70452260Y-120264033D01*
X70369399Y-120319399D01*
X70314033Y-120402260D01*
X70314032Y-120402264D01*
X70299500Y-120475321D01*
X70299500Y-121724678D01*
X70314032Y-121797735D01*
X70314033Y-121797739D01*
X70314034Y-121797740D01*
X70369399Y-121880601D01*
X70452260Y-121935966D01*
X70452261Y-121935966D01*
X70456890Y-121939059D01*
X70501695Y-121992671D01*
X70512000Y-122042162D01*
X70512000Y-124278463D01*
X70492315Y-124345502D01*
X70462311Y-124377730D01*
X70457671Y-124381203D01*
X70457669Y-124381204D01*
X70342454Y-124467454D01*
X70342453Y-124467455D01*
X70342452Y-124467456D01*
X70256206Y-124582664D01*
X70256202Y-124582671D01*
X70205908Y-124717517D01*
X70199501Y-124777116D01*
X70199501Y-124777123D01*
X70199500Y-124777135D01*
X70199500Y-126122870D01*
X70199501Y-126122876D01*
X70205908Y-126182483D01*
X70256202Y-126317328D01*
X70256206Y-126317335D01*
X70342452Y-126432544D01*
X70342455Y-126432547D01*
X70457665Y-126518794D01*
X70457667Y-126518794D01*
X70457669Y-126518796D01*
X70468830Y-126522958D01*
X70524764Y-126564826D01*
X70549184Y-126630289D01*
X70549500Y-126639141D01*
X70549500Y-129389235D01*
X70529815Y-129456274D01*
X70477011Y-129502029D01*
X70468834Y-129505417D01*
X70332669Y-129556203D01*
X70332664Y-129556206D01*
X70217455Y-129642452D01*
X70217452Y-129642455D01*
X70131206Y-129757664D01*
X70131202Y-129757671D01*
X70082704Y-129887704D01*
X70080909Y-129892517D01*
X70074500Y-129952127D01*
X70074500Y-129952134D01*
X70074500Y-129952135D01*
X70074500Y-130547870D01*
X70074501Y-130547876D01*
X70080908Y-130607483D01*
X70131202Y-130742328D01*
X70131206Y-130742335D01*
X70217452Y-130857544D01*
X70217455Y-130857547D01*
X70332664Y-130943793D01*
X70332671Y-130943797D01*
X70467517Y-130994091D01*
X70467516Y-130994091D01*
X70474444Y-130994835D01*
X70527127Y-131000500D01*
X71572872Y-131000499D01*
X71632483Y-130994091D01*
X71767331Y-130943796D01*
X71882546Y-130857546D01*
X71909227Y-130821903D01*
X71925485Y-130800188D01*
X71981419Y-130758318D01*
X72024751Y-130750500D01*
X73188202Y-130750500D01*
X73255241Y-130770185D01*
X73275883Y-130786819D01*
X73626883Y-131137819D01*
X73660368Y-131199142D01*
X73655384Y-131268834D01*
X73613512Y-131324767D01*
X73548048Y-131349184D01*
X73539202Y-131349500D01*
X72702129Y-131349500D01*
X72702123Y-131349501D01*
X72642516Y-131355908D01*
X72507671Y-131406202D01*
X72507664Y-131406206D01*
X72392456Y-131492452D01*
X72392455Y-131492453D01*
X72392454Y-131492454D01*
X72345177Y-131555608D01*
X72312087Y-131599811D01*
X72256153Y-131641682D01*
X72212820Y-131649500D01*
X72024751Y-131649500D01*
X71957712Y-131629815D01*
X71925485Y-131599812D01*
X71888195Y-131550000D01*
X71882546Y-131542454D01*
X71882542Y-131542451D01*
X71767335Y-131456206D01*
X71767328Y-131456202D01*
X71632482Y-131405908D01*
X71632483Y-131405908D01*
X71572883Y-131399501D01*
X71572881Y-131399500D01*
X71572873Y-131399500D01*
X71572864Y-131399500D01*
X70527129Y-131399500D01*
X70527123Y-131399501D01*
X70467516Y-131405908D01*
X70332671Y-131456202D01*
X70332664Y-131456206D01*
X70217455Y-131542452D01*
X70217452Y-131542455D01*
X70131206Y-131657664D01*
X70131202Y-131657671D01*
X70084391Y-131783180D01*
X70080909Y-131792517D01*
X70074500Y-131852127D01*
X70074500Y-131852134D01*
X70074500Y-131852135D01*
X70074500Y-132447870D01*
X70074501Y-132447876D01*
X70080908Y-132507483D01*
X70131202Y-132642328D01*
X70131206Y-132642335D01*
X70217452Y-132757544D01*
X70217455Y-132757547D01*
X70332664Y-132843793D01*
X70332671Y-132843797D01*
X70468833Y-132894582D01*
X70524767Y-132936453D01*
X70549184Y-133001917D01*
X70549500Y-133010764D01*
X70549500Y-133255331D01*
X70548238Y-133272977D01*
X70544353Y-133299999D01*
X70564834Y-133442456D01*
X70614921Y-133552129D01*
X70624623Y-133573373D01*
X70718872Y-133682143D01*
X70839947Y-133759953D01*
X70839950Y-133759954D01*
X70839949Y-133759954D01*
X70919937Y-133783440D01*
X70975682Y-133799808D01*
X70978036Y-133800499D01*
X70978038Y-133800500D01*
X70978039Y-133800500D01*
X71121962Y-133800500D01*
X71121962Y-133800499D01*
X71260053Y-133759953D01*
X71381128Y-133682143D01*
X71475377Y-133573373D01*
X71535165Y-133442457D01*
X71555647Y-133300000D01*
X71551762Y-133272977D01*
X71550500Y-133255331D01*
X71550500Y-133010764D01*
X71570185Y-132943725D01*
X71622989Y-132897970D01*
X71631167Y-132894582D01*
X71767328Y-132843797D01*
X71767327Y-132843797D01*
X71767331Y-132843796D01*
X71882546Y-132757546D01*
X71912512Y-132717517D01*
X71925485Y-132700188D01*
X71981419Y-132658318D01*
X72024751Y-132650500D01*
X72185859Y-132650500D01*
X72252898Y-132670185D01*
X72298653Y-132722989D01*
X72302030Y-132731140D01*
X72306204Y-132742331D01*
X72306205Y-132742332D01*
X72306206Y-132742335D01*
X72392452Y-132857544D01*
X72392455Y-132857547D01*
X72507664Y-132943793D01*
X72507671Y-132943797D01*
X72642517Y-132994091D01*
X72642516Y-132994091D01*
X72649444Y-132994835D01*
X72702127Y-133000500D01*
X74097872Y-133000499D01*
X74157483Y-132994091D01*
X74292331Y-132943796D01*
X74407546Y-132857546D01*
X74493796Y-132742331D01*
X74544091Y-132607483D01*
X74550500Y-132547873D01*
X74550499Y-132360794D01*
X74570183Y-132293757D01*
X74622987Y-132248002D01*
X74692145Y-132238058D01*
X74755701Y-132267083D01*
X74762180Y-132273115D01*
X74763181Y-132274116D01*
X74796666Y-132335439D01*
X74799500Y-132361797D01*
X74799500Y-132905331D01*
X74798238Y-132922977D01*
X74794353Y-132949999D01*
X74799500Y-132985799D01*
X74805136Y-133025001D01*
X74814834Y-133092453D01*
X74814835Y-133092458D01*
X74858127Y-133187252D01*
X74874623Y-133223373D01*
X74968872Y-133332143D01*
X74968874Y-133332144D01*
X74968873Y-133332144D01*
X75029622Y-133371185D01*
X75075376Y-133423989D01*
X75085320Y-133493147D01*
X75056295Y-133556703D01*
X74997517Y-133594477D01*
X74962582Y-133599500D01*
X74077129Y-133599500D01*
X74077123Y-133599501D01*
X74017516Y-133605908D01*
X73882671Y-133656202D01*
X73882664Y-133656206D01*
X73767455Y-133742452D01*
X73767452Y-133742455D01*
X73681206Y-133857664D01*
X73681202Y-133857671D01*
X73630910Y-133992513D01*
X73630909Y-133992517D01*
X73624500Y-134052127D01*
X73624500Y-134052134D01*
X73624500Y-134052135D01*
X73624500Y-134647870D01*
X73624501Y-134647876D01*
X73630908Y-134707483D01*
X73681202Y-134842328D01*
X73681206Y-134842335D01*
X73767452Y-134957544D01*
X73767455Y-134957547D01*
X73882664Y-135043793D01*
X73882671Y-135043797D01*
X74017517Y-135094091D01*
X74017516Y-135094091D01*
X74024444Y-135094835D01*
X74077127Y-135100500D01*
X75122872Y-135100499D01*
X75182483Y-135094091D01*
X75317331Y-135043796D01*
X75432546Y-134957546D01*
X75478907Y-134895615D01*
X75534838Y-134853745D01*
X75604530Y-134848761D01*
X75665850Y-134882243D01*
X75665853Y-134882246D01*
X77221426Y-136437819D01*
X77254911Y-136499142D01*
X77249927Y-136568834D01*
X77208055Y-136624767D01*
X77142591Y-136649184D01*
X77133745Y-136649500D01*
X76571961Y-136649500D01*
X76428039Y-136649500D01*
X76428036Y-136649500D01*
X76428034Y-136649501D01*
X76401842Y-136657190D01*
X76384568Y-136660948D01*
X76357544Y-136664834D01*
X76357541Y-136664835D01*
X76332710Y-136676175D01*
X76316141Y-136682355D01*
X76303171Y-136686163D01*
X76289947Y-136690047D01*
X76289945Y-136690047D01*
X76289945Y-136690048D01*
X76266982Y-136704805D01*
X76251461Y-136713280D01*
X76226628Y-136724621D01*
X76226625Y-136724623D01*
X76206000Y-136742495D01*
X76191840Y-136753095D01*
X76168876Y-136767853D01*
X76168871Y-136767857D01*
X76150993Y-136788489D01*
X76138489Y-136800993D01*
X76117857Y-136818871D01*
X76117853Y-136818876D01*
X76103095Y-136841840D01*
X76092495Y-136856000D01*
X76074623Y-136876625D01*
X76074621Y-136876628D01*
X76063280Y-136901461D01*
X76054805Y-136916982D01*
X76040047Y-136939946D01*
X76032355Y-136966141D01*
X76026175Y-136982711D01*
X76014835Y-137007543D01*
X76010949Y-137034568D01*
X76007189Y-137051851D01*
X75999500Y-137078039D01*
X75999500Y-137105331D01*
X75998238Y-137122977D01*
X75994353Y-137149999D01*
X75998238Y-137177020D01*
X75999500Y-137194667D01*
X75999500Y-137221964D01*
X76007188Y-137248148D01*
X76010949Y-137265432D01*
X76014835Y-137292457D01*
X76014835Y-137292459D01*
X76026172Y-137317282D01*
X76032355Y-137333858D01*
X76040046Y-137360051D01*
X76040047Y-137360053D01*
X76054806Y-137383019D01*
X76063282Y-137398541D01*
X76074623Y-137423373D01*
X76086437Y-137437007D01*
X76092496Y-137444000D01*
X76103095Y-137458160D01*
X76117853Y-137481123D01*
X76117857Y-137481128D01*
X76138488Y-137499006D01*
X76150992Y-137511510D01*
X76157306Y-137518796D01*
X76168872Y-137532143D01*
X76191844Y-137546905D01*
X76205996Y-137557500D01*
X76226627Y-137575377D01*
X76247593Y-137584952D01*
X76251451Y-137586714D01*
X76266978Y-137595192D01*
X76289947Y-137609953D01*
X76316136Y-137617643D01*
X76332713Y-137623826D01*
X76357538Y-137635163D01*
X76357539Y-137635163D01*
X76357543Y-137635165D01*
X76384564Y-137639050D01*
X76401846Y-137642809D01*
X76428039Y-137650500D01*
X76464201Y-137650500D01*
X78241324Y-137650500D01*
X78308363Y-137670185D01*
X78329005Y-137686819D01*
X78431901Y-137789715D01*
X78434896Y-137792932D01*
X78440587Y-137799500D01*
X78468871Y-137832142D01*
X78468873Y-137832144D01*
X78475872Y-137836642D01*
X78521625Y-137889447D01*
X78531568Y-137958605D01*
X78502541Y-138022161D01*
X78490033Y-138034668D01*
X78490023Y-138034678D01*
X78481000Y-138042496D01*
X78466842Y-138053094D01*
X78443873Y-138067855D01*
X78443871Y-138067857D01*
X78425993Y-138088489D01*
X78413489Y-138100993D01*
X78392857Y-138118871D01*
X78392853Y-138118876D01*
X78378095Y-138141840D01*
X78367495Y-138156000D01*
X78349623Y-138176625D01*
X78349621Y-138176628D01*
X78338280Y-138201461D01*
X78329806Y-138216979D01*
X78315047Y-138239947D01*
X78311483Y-138252086D01*
X78307355Y-138266141D01*
X78301175Y-138282710D01*
X78289835Y-138307541D01*
X78289834Y-138307544D01*
X78285948Y-138334568D01*
X78282190Y-138351842D01*
X78274501Y-138378034D01*
X78274500Y-138378042D01*
X78274500Y-138400548D01*
X78254815Y-138467587D01*
X78202011Y-138513342D01*
X78160237Y-138524165D01*
X78155993Y-138524499D01*
X78097880Y-138533702D01*
X78062196Y-138539354D01*
X77949158Y-138596950D01*
X77949157Y-138596951D01*
X77949152Y-138596954D01*
X77859454Y-138686652D01*
X77859451Y-138686657D01*
X77859450Y-138686658D01*
X77847223Y-138710655D01*
X77801852Y-138799698D01*
X77787000Y-138893475D01*
X77787000Y-139256517D01*
X77794870Y-139306204D01*
X77801047Y-139345211D01*
X77803381Y-139359943D01*
X77801357Y-139360263D01*
X77802990Y-139417516D01*
X77766907Y-139477347D01*
X77704204Y-139508171D01*
X77634790Y-139500203D01*
X77626780Y-139496475D01*
X77612804Y-139489354D01*
X77612803Y-139489353D01*
X77612800Y-139489352D01*
X77612801Y-139489352D01*
X77519024Y-139474500D01*
X76280982Y-139474500D01*
X76187194Y-139489354D01*
X76144743Y-139510985D01*
X76088448Y-139524500D01*
X75783676Y-139524500D01*
X75716637Y-139504815D01*
X75695995Y-139488181D01*
X75658794Y-139450980D01*
X75618097Y-139410283D01*
X75615099Y-139407062D01*
X75581128Y-139367857D01*
X75561773Y-139355418D01*
X75537490Y-139339812D01*
X75533853Y-139337287D01*
X75492331Y-139306204D01*
X75492329Y-139306203D01*
X75487804Y-139304515D01*
X75464112Y-139292655D01*
X75460056Y-139290049D01*
X75460053Y-139290047D01*
X75410270Y-139275429D01*
X75406095Y-139274040D01*
X75357483Y-139255909D01*
X75352671Y-139255564D01*
X75326589Y-139250858D01*
X75321964Y-139249500D01*
X75321961Y-139249500D01*
X75270094Y-139249500D01*
X75265671Y-139249342D01*
X75248083Y-139248084D01*
X75213929Y-139245641D01*
X75213925Y-139245641D01*
X75209215Y-139246666D01*
X75182857Y-139249500D01*
X75178039Y-139249500D01*
X75128276Y-139264109D01*
X75123991Y-139265203D01*
X75073302Y-139276231D01*
X75073289Y-139276236D01*
X75069057Y-139278547D01*
X75044576Y-139288687D01*
X75039947Y-139290047D01*
X75039944Y-139290048D01*
X74996311Y-139318088D01*
X74992507Y-139320345D01*
X74946973Y-139345211D01*
X74943559Y-139348625D01*
X74922938Y-139365243D01*
X74918876Y-139367854D01*
X74918867Y-139367861D01*
X74884899Y-139407062D01*
X74881883Y-139410301D01*
X74845210Y-139446973D01*
X74845207Y-139446979D01*
X74842889Y-139451223D01*
X74827788Y-139472973D01*
X74824624Y-139476625D01*
X74824618Y-139476634D01*
X74803071Y-139523815D01*
X74801090Y-139527773D01*
X74776233Y-139573296D01*
X74775208Y-139578009D01*
X74766839Y-139603155D01*
X74764834Y-139607544D01*
X74757451Y-139658892D01*
X74756665Y-139663246D01*
X74745641Y-139713927D01*
X74745985Y-139718743D01*
X74745039Y-139745221D01*
X74744353Y-139749994D01*
X74744353Y-139750002D01*
X74751734Y-139801345D01*
X74752207Y-139805744D01*
X74755909Y-139857486D01*
X74757593Y-139862000D01*
X74764148Y-139887682D01*
X74764834Y-139892455D01*
X74764835Y-139892457D01*
X74786383Y-139939642D01*
X74788071Y-139943716D01*
X74806203Y-139992329D01*
X74809096Y-139996194D01*
X74822617Y-140018983D01*
X74824619Y-140023367D01*
X74824622Y-140023371D01*
X74824623Y-140023373D01*
X74858598Y-140062583D01*
X74861362Y-140066013D01*
X74870775Y-140078588D01*
X74870782Y-140078596D01*
X74881886Y-140089700D01*
X74884896Y-140092932D01*
X74912810Y-140125147D01*
X74918871Y-140132142D01*
X74918874Y-140132145D01*
X74922928Y-140134750D01*
X74943571Y-140151385D01*
X79250205Y-144458019D01*
X79283690Y-144519342D01*
X79278706Y-144589034D01*
X79236834Y-144644967D01*
X79171370Y-144669384D01*
X79162524Y-144669700D01*
X78378200Y-144669700D01*
X78378200Y-145249900D01*
X79707700Y-145249900D01*
X79707700Y-145214876D01*
X79727385Y-145147837D01*
X79780189Y-145102082D01*
X79849347Y-145092138D01*
X79912903Y-145121163D01*
X79919381Y-145127195D01*
X82198714Y-147406528D01*
X82215346Y-147427166D01*
X82217954Y-147431225D01*
X82217956Y-147431227D01*
X82217957Y-147431228D01*
X82257167Y-147465203D01*
X82260383Y-147468197D01*
X82271507Y-147479321D01*
X82271512Y-147479324D01*
X82271517Y-147479329D01*
X82284079Y-147488733D01*
X82287527Y-147491511D01*
X82318047Y-147517956D01*
X82326727Y-147525477D01*
X82331110Y-147527479D01*
X82353907Y-147541005D01*
X82357769Y-147543896D01*
X82406395Y-147562032D01*
X82410451Y-147563712D01*
X82424312Y-147570043D01*
X82457640Y-147585264D01*
X82457641Y-147585264D01*
X82457643Y-147585265D01*
X82462412Y-147585950D01*
X82488102Y-147592507D01*
X82492617Y-147594191D01*
X82544358Y-147597891D01*
X82548757Y-147598364D01*
X82564301Y-147600600D01*
X82580006Y-147600600D01*
X82584428Y-147600757D01*
X82636173Y-147604459D01*
X82640885Y-147603434D01*
X82667243Y-147600600D01*
X82758667Y-147600600D01*
X82825706Y-147620285D01*
X82827556Y-147621497D01*
X82894557Y-147666264D01*
X82894560Y-147666266D01*
X82894563Y-147666266D01*
X82894564Y-147666267D01*
X82967621Y-147680799D01*
X82967624Y-147680800D01*
X82967626Y-147680800D01*
X85175976Y-147680800D01*
X85175977Y-147680799D01*
X85249040Y-147666266D01*
X85331901Y-147610901D01*
X85387266Y-147528040D01*
X85401800Y-147454974D01*
X85401800Y-147320000D01*
X90334785Y-147320000D01*
X90353602Y-147523082D01*
X90409417Y-147719247D01*
X90409422Y-147719260D01*
X90500327Y-147901821D01*
X90623237Y-148064581D01*
X90773958Y-148201980D01*
X90773960Y-148201982D01*
X90873141Y-148263392D01*
X90947363Y-148309348D01*
X91137544Y-148383024D01*
X91338024Y-148420500D01*
X91338026Y-148420500D01*
X91541974Y-148420500D01*
X91541976Y-148420500D01*
X91742456Y-148383024D01*
X91932637Y-148309348D01*
X92106041Y-148201981D01*
X92256764Y-148064579D01*
X92379673Y-147901821D01*
X92470582Y-147719250D01*
X92526397Y-147523083D01*
X92545215Y-147320000D01*
X92544656Y-147313972D01*
X92526397Y-147116917D01*
X92520223Y-147095219D01*
X92470582Y-146920750D01*
X92469480Y-146918537D01*
X92395004Y-146768968D01*
X92379673Y-146738179D01*
X92283762Y-146611172D01*
X92256762Y-146575418D01*
X92106041Y-146438019D01*
X92106039Y-146438017D01*
X91932642Y-146330655D01*
X91932635Y-146330651D01*
X91784991Y-146273454D01*
X91742456Y-146256976D01*
X91541976Y-146219500D01*
X91338024Y-146219500D01*
X91137544Y-146256976D01*
X91137541Y-146256976D01*
X91137541Y-146256977D01*
X90947364Y-146330651D01*
X90947357Y-146330655D01*
X90773960Y-146438017D01*
X90773958Y-146438019D01*
X90623237Y-146575418D01*
X90500327Y-146738178D01*
X90409422Y-146920739D01*
X90409417Y-146920752D01*
X90353602Y-147116917D01*
X90334785Y-147319999D01*
X90334785Y-147320000D01*
X85401800Y-147320000D01*
X85401800Y-146745226D01*
X85401800Y-146745223D01*
X85401799Y-146745221D01*
X85387267Y-146672164D01*
X85387266Y-146672160D01*
X85381669Y-146663784D01*
X85331901Y-146589299D01*
X85276535Y-146552305D01*
X85249039Y-146533933D01*
X85249035Y-146533932D01*
X85175977Y-146519400D01*
X85175974Y-146519400D01*
X82967626Y-146519400D01*
X82967623Y-146519400D01*
X82894564Y-146533932D01*
X82894556Y-146533935D01*
X82887563Y-146538608D01*
X82820885Y-146559482D01*
X82753506Y-146540994D01*
X82730997Y-146523183D01*
X82062592Y-145854778D01*
X82741800Y-145854778D01*
X82756332Y-145927835D01*
X82756333Y-145927839D01*
X82762770Y-145937472D01*
X82811699Y-146010701D01*
X82894557Y-146066064D01*
X82894560Y-146066066D01*
X82894564Y-146066067D01*
X82967621Y-146080599D01*
X82967624Y-146080600D01*
X82967626Y-146080600D01*
X85175976Y-146080600D01*
X85175977Y-146080599D01*
X85249040Y-146066066D01*
X85277976Y-146046731D01*
X85316044Y-146021297D01*
X85382721Y-146000420D01*
X85384933Y-146000400D01*
X85968485Y-146000400D01*
X85969885Y-146000500D01*
X85978039Y-146000500D01*
X86029915Y-146000500D01*
X86034337Y-146000657D01*
X86086073Y-146004358D01*
X86089302Y-146003655D01*
X86090781Y-146003334D01*
X86117138Y-146000500D01*
X86121959Y-146000500D01*
X86121961Y-146000500D01*
X86148922Y-145992582D01*
X86166190Y-145988826D01*
X86192357Y-145985065D01*
X86196227Y-145983297D01*
X86221393Y-145974920D01*
X86226706Y-145973765D01*
X86230928Y-145971459D01*
X86255429Y-145961310D01*
X86260053Y-145959953D01*
X86283795Y-145944693D01*
X86299332Y-145936210D01*
X86317660Y-145927840D01*
X86323273Y-145925277D01*
X86326434Y-145922537D01*
X86348209Y-145907419D01*
X86353023Y-145904791D01*
X86356429Y-145901383D01*
X86377070Y-145884750D01*
X86381128Y-145882143D01*
X86399651Y-145860765D01*
X86412165Y-145848252D01*
X86432043Y-145831028D01*
X86434286Y-145827537D01*
X86450924Y-145806889D01*
X86454791Y-145803023D01*
X86457097Y-145798798D01*
X86472226Y-145777008D01*
X86475377Y-145773373D01*
X86487118Y-145747662D01*
X86495591Y-145732143D01*
X86509853Y-145709953D01*
X86511031Y-145705939D01*
X86521180Y-145681439D01*
X86523765Y-145676706D01*
X86524787Y-145672004D01*
X86533163Y-145646839D01*
X86535165Y-145642457D01*
X86539176Y-145614558D01*
X86542930Y-145597299D01*
X86550400Y-145571861D01*
X86550400Y-145567597D01*
X86553234Y-145541239D01*
X86554358Y-145536073D01*
X86554014Y-145531267D01*
X86554961Y-145504768D01*
X86555647Y-145500000D01*
X86551662Y-145472282D01*
X86550400Y-145454636D01*
X86550400Y-145427941D01*
X86550400Y-145427939D01*
X86549163Y-145423728D01*
X86544457Y-145397639D01*
X86544091Y-145392517D01*
X86542408Y-145388005D01*
X86535850Y-145362314D01*
X86535165Y-145357543D01*
X86523628Y-145332281D01*
X86517445Y-145315705D01*
X86509853Y-145289847D01*
X86507396Y-145286024D01*
X86495525Y-145262308D01*
X86493795Y-145257670D01*
X86493795Y-145257669D01*
X86490907Y-145253812D01*
X86477379Y-145231011D01*
X86475377Y-145226627D01*
X86465195Y-145214876D01*
X86457364Y-145205838D01*
X86446763Y-145191677D01*
X86432041Y-145168769D01*
X86411466Y-145150941D01*
X86398955Y-145138431D01*
X86389219Y-145127195D01*
X86381128Y-145117857D01*
X86381126Y-145117856D01*
X86381127Y-145117856D01*
X86358221Y-145103135D01*
X86344063Y-145092536D01*
X86323274Y-145074523D01*
X86323270Y-145074520D01*
X86318883Y-145072517D01*
X86296092Y-145058994D01*
X86292233Y-145056105D01*
X86292229Y-145056103D01*
X86287582Y-145054370D01*
X86263872Y-145042501D01*
X86260055Y-145040048D01*
X86260057Y-145040048D01*
X86234193Y-145032454D01*
X86217620Y-145026272D01*
X86192355Y-145014734D01*
X86187582Y-145014048D01*
X86161900Y-145007493D01*
X86157386Y-145005809D01*
X86154174Y-145005579D01*
X86152249Y-145005441D01*
X86126170Y-145000735D01*
X86121961Y-144999500D01*
X86121959Y-144999500D01*
X86089312Y-144999500D01*
X86086513Y-144999400D01*
X86085699Y-144999400D01*
X86069994Y-144999400D01*
X86065571Y-144999242D01*
X86047983Y-144997984D01*
X86013829Y-144995541D01*
X86013825Y-144995541D01*
X86009115Y-144996566D01*
X85982757Y-144999400D01*
X85384933Y-144999400D01*
X85317894Y-144979715D01*
X85316044Y-144978503D01*
X85249042Y-144933735D01*
X85249035Y-144933732D01*
X85175977Y-144919200D01*
X85175974Y-144919200D01*
X82967626Y-144919200D01*
X82967623Y-144919200D01*
X82894564Y-144933732D01*
X82894560Y-144933733D01*
X82811699Y-144989099D01*
X82756333Y-145071960D01*
X82756332Y-145071964D01*
X82741800Y-145145021D01*
X82741800Y-145854778D01*
X82062592Y-145854778D01*
X80987814Y-144780000D01*
X90334785Y-144780000D01*
X90353602Y-144983082D01*
X90409417Y-145179247D01*
X90409422Y-145179260D01*
X90500327Y-145361821D01*
X90623237Y-145524581D01*
X90773958Y-145661980D01*
X90773960Y-145661982D01*
X90873141Y-145723392D01*
X90947363Y-145769348D01*
X91137544Y-145843024D01*
X91338024Y-145880500D01*
X91338026Y-145880500D01*
X91541974Y-145880500D01*
X91541976Y-145880500D01*
X91742456Y-145843024D01*
X91932637Y-145769348D01*
X92106041Y-145661981D01*
X92256764Y-145524579D01*
X92379673Y-145361821D01*
X92470582Y-145179250D01*
X92526397Y-144983083D01*
X92545215Y-144780000D01*
X92526397Y-144576917D01*
X92470582Y-144380750D01*
X92379673Y-144198179D01*
X92256764Y-144035421D01*
X92256762Y-144035418D01*
X92106041Y-143898019D01*
X92106039Y-143898017D01*
X91932642Y-143790655D01*
X91932635Y-143790651D01*
X91837546Y-143753814D01*
X91742456Y-143716976D01*
X91541976Y-143679500D01*
X91338024Y-143679500D01*
X91137544Y-143716976D01*
X91137541Y-143716976D01*
X91137541Y-143716977D01*
X90947364Y-143790651D01*
X90947357Y-143790655D01*
X90773960Y-143898017D01*
X90773958Y-143898019D01*
X90623237Y-144035418D01*
X90500327Y-144198178D01*
X90409422Y-144380739D01*
X90409417Y-144380752D01*
X90353602Y-144576917D01*
X90334785Y-144779999D01*
X90334785Y-144780000D01*
X80987814Y-144780000D01*
X77914969Y-141707155D01*
X77881484Y-141645832D01*
X77886468Y-141576140D01*
X77928340Y-141520207D01*
X77993804Y-141495790D01*
X78052875Y-141507759D01*
X78052917Y-141507631D01*
X78054039Y-141507995D01*
X78058946Y-141508990D01*
X78062196Y-141510646D01*
X78062198Y-141510647D01*
X78155975Y-141525499D01*
X78155981Y-141525500D01*
X79394018Y-141525499D01*
X79487804Y-141510646D01*
X79600842Y-141453050D01*
X79690550Y-141363342D01*
X79748146Y-141250304D01*
X79748146Y-141250302D01*
X79748147Y-141250301D01*
X79762999Y-141156524D01*
X79763000Y-141156519D01*
X79762999Y-140925138D01*
X79782683Y-140858100D01*
X79835487Y-140812345D01*
X79904646Y-140802401D01*
X79968201Y-140831426D01*
X79968206Y-140831430D01*
X79988489Y-140849007D01*
X80000992Y-140861510D01*
X80018871Y-140882142D01*
X80018872Y-140882143D01*
X80041844Y-140896905D01*
X80055996Y-140907500D01*
X80076627Y-140925377D01*
X80099899Y-140936005D01*
X80101451Y-140936714D01*
X80116978Y-140945192D01*
X80139947Y-140959953D01*
X80166136Y-140967643D01*
X80182713Y-140973826D01*
X80207538Y-140985163D01*
X80207539Y-140985163D01*
X80207543Y-140985165D01*
X80234564Y-140989050D01*
X80251846Y-140992809D01*
X80278039Y-141000500D01*
X80314201Y-141000500D01*
X80942673Y-141000500D01*
X80969031Y-141003334D01*
X80973743Y-141004359D01*
X80979151Y-141003972D01*
X81047424Y-141018822D01*
X81096831Y-141068227D01*
X81112000Y-141127654D01*
X81112000Y-141181516D01*
X81122149Y-141245596D01*
X81126854Y-141275304D01*
X81184450Y-141388342D01*
X81184452Y-141388344D01*
X81184454Y-141388347D01*
X81274152Y-141478045D01*
X81274154Y-141478046D01*
X81274158Y-141478050D01*
X81387196Y-141535646D01*
X81387198Y-141535647D01*
X81480977Y-141550500D01*
X81485221Y-141550834D01*
X81550511Y-141575713D01*
X81591986Y-141631942D01*
X81599500Y-141674452D01*
X81599500Y-141832858D01*
X81596667Y-141859206D01*
X81595641Y-141863927D01*
X81595641Y-141863929D01*
X81595641Y-141863930D01*
X81599342Y-141915669D01*
X81599500Y-141920094D01*
X81599500Y-141935799D01*
X81601734Y-141951343D01*
X81602207Y-141955740D01*
X81605909Y-142007485D01*
X81607593Y-142012000D01*
X81614148Y-142037682D01*
X81614834Y-142042455D01*
X81614835Y-142042457D01*
X81636383Y-142089642D01*
X81638071Y-142093716D01*
X81656203Y-142142329D01*
X81659096Y-142146194D01*
X81672617Y-142168983D01*
X81674619Y-142173367D01*
X81674622Y-142173371D01*
X81674623Y-142173373D01*
X81708598Y-142212583D01*
X81711362Y-142216013D01*
X81720775Y-142228588D01*
X81720782Y-142228596D01*
X81731886Y-142239700D01*
X81734896Y-142242932D01*
X81762810Y-142275147D01*
X81768871Y-142282142D01*
X81768874Y-142282145D01*
X81772928Y-142284750D01*
X81793571Y-142301385D01*
X82011114Y-142518928D01*
X82027746Y-142539566D01*
X82030354Y-142543625D01*
X82030357Y-142543628D01*
X82069567Y-142577603D01*
X82072783Y-142580597D01*
X82083907Y-142591721D01*
X82083912Y-142591724D01*
X82083917Y-142591729D01*
X82096479Y-142601133D01*
X82099927Y-142603911D01*
X82130447Y-142630356D01*
X82139127Y-142637877D01*
X82143510Y-142639879D01*
X82166307Y-142653405D01*
X82170169Y-142656296D01*
X82218795Y-142674432D01*
X82222851Y-142676112D01*
X82244957Y-142686208D01*
X82270040Y-142697664D01*
X82270041Y-142697664D01*
X82270043Y-142697665D01*
X82274812Y-142698350D01*
X82300502Y-142704907D01*
X82305017Y-142706591D01*
X82356758Y-142710291D01*
X82361157Y-142710764D01*
X82376701Y-142713000D01*
X82392406Y-142713000D01*
X82396828Y-142713157D01*
X82448573Y-142716859D01*
X82453285Y-142715834D01*
X82479643Y-142713000D01*
X87178462Y-142713000D01*
X87245501Y-142732685D01*
X87277728Y-142762689D01*
X87367452Y-142882544D01*
X87367455Y-142882547D01*
X87482664Y-142968793D01*
X87482671Y-142968797D01*
X87617517Y-143019091D01*
X87617516Y-143019091D01*
X87624444Y-143019835D01*
X87677127Y-143025500D01*
X89022872Y-143025499D01*
X89082483Y-143019091D01*
X89217331Y-142968796D01*
X89332546Y-142882546D01*
X89418796Y-142767331D01*
X89469091Y-142632483D01*
X89475500Y-142572873D01*
X89475500Y-142240000D01*
X90334785Y-142240000D01*
X90353602Y-142443082D01*
X90409417Y-142639247D01*
X90409422Y-142639260D01*
X90500327Y-142821821D01*
X90623237Y-142984581D01*
X90773958Y-143121980D01*
X90773960Y-143121982D01*
X90873141Y-143183392D01*
X90947363Y-143229348D01*
X91137544Y-143303024D01*
X91338024Y-143340500D01*
X91338026Y-143340500D01*
X91541974Y-143340500D01*
X91541976Y-143340500D01*
X91742456Y-143303024D01*
X91932637Y-143229348D01*
X92106041Y-143121981D01*
X92256764Y-142984579D01*
X92379673Y-142821821D01*
X92470582Y-142639250D01*
X92526397Y-142443083D01*
X92545215Y-142240000D01*
X92538634Y-142168983D01*
X92526397Y-142036917D01*
X92497626Y-141935799D01*
X92470582Y-141840750D01*
X92466652Y-141832858D01*
X92426272Y-141751764D01*
X92379673Y-141658179D01*
X92298357Y-141550499D01*
X92256762Y-141495418D01*
X92106041Y-141358019D01*
X92106039Y-141358017D01*
X91932642Y-141250655D01*
X91932635Y-141250651D01*
X91837546Y-141213814D01*
X91742456Y-141176976D01*
X91541976Y-141139500D01*
X91338024Y-141139500D01*
X91137544Y-141176976D01*
X91137541Y-141176976D01*
X91137541Y-141176977D01*
X90947364Y-141250651D01*
X90947357Y-141250655D01*
X90773960Y-141358017D01*
X90773958Y-141358019D01*
X90623237Y-141495418D01*
X90500327Y-141658178D01*
X90409422Y-141840739D01*
X90409417Y-141840752D01*
X90353602Y-142036917D01*
X90334785Y-142239999D01*
X90334785Y-142240000D01*
X89475500Y-142240000D01*
X89475499Y-141852128D01*
X89469091Y-141792517D01*
X89436144Y-141704182D01*
X89418797Y-141657671D01*
X89418793Y-141657664D01*
X89332547Y-141542455D01*
X89332544Y-141542452D01*
X89217335Y-141456206D01*
X89217328Y-141456202D01*
X89082482Y-141405908D01*
X89082483Y-141405908D01*
X89022883Y-141399501D01*
X89022881Y-141399500D01*
X89022873Y-141399500D01*
X89022864Y-141399500D01*
X87677129Y-141399500D01*
X87677123Y-141399501D01*
X87617516Y-141405908D01*
X87482671Y-141456202D01*
X87482664Y-141456206D01*
X87367455Y-141542452D01*
X87367452Y-141542455D01*
X87277728Y-141662311D01*
X87221794Y-141704182D01*
X87178462Y-141712000D01*
X82983186Y-141712000D01*
X82916147Y-141692315D01*
X82870392Y-141639511D01*
X82860448Y-141570353D01*
X82889473Y-141506797D01*
X82918287Y-141484247D01*
X82917950Y-141483783D01*
X82925835Y-141478053D01*
X82925842Y-141478050D01*
X83015550Y-141388342D01*
X83073146Y-141275304D01*
X83073146Y-141275302D01*
X83073147Y-141275301D01*
X83087999Y-141181524D01*
X83088000Y-141181519D01*
X83087999Y-140818482D01*
X83073146Y-140724696D01*
X83073145Y-140724694D01*
X83071619Y-140715057D01*
X83073642Y-140714736D01*
X83072006Y-140657494D01*
X83108084Y-140597660D01*
X83170784Y-140566830D01*
X83240198Y-140574792D01*
X83248206Y-140578517D01*
X83262196Y-140585646D01*
X83262198Y-140585646D01*
X83262200Y-140585647D01*
X83355975Y-140600499D01*
X83355981Y-140600500D01*
X84594018Y-140600499D01*
X84687804Y-140585646D01*
X84730257Y-140564014D01*
X84786552Y-140550500D01*
X85082857Y-140550500D01*
X85109215Y-140553334D01*
X85113927Y-140554359D01*
X85165671Y-140550657D01*
X85170094Y-140550500D01*
X85185799Y-140550500D01*
X85201342Y-140548264D01*
X85205740Y-140547791D01*
X85257483Y-140544091D01*
X85261992Y-140542408D01*
X85287685Y-140535850D01*
X85292457Y-140535165D01*
X85339646Y-140513613D01*
X85343728Y-140511922D01*
X85372638Y-140501140D01*
X85392329Y-140493797D01*
X85392329Y-140493796D01*
X85392331Y-140493796D01*
X85396189Y-140490907D01*
X85418995Y-140477375D01*
X85423373Y-140475377D01*
X85462564Y-140441416D01*
X85466014Y-140438637D01*
X85468930Y-140436453D01*
X85478593Y-140429221D01*
X85489720Y-140418092D01*
X85492925Y-140415109D01*
X85532143Y-140381128D01*
X85534751Y-140377068D01*
X85551381Y-140356431D01*
X85806431Y-140101381D01*
X85827068Y-140084751D01*
X85831128Y-140082143D01*
X85834202Y-140078596D01*
X85845104Y-140066013D01*
X85865109Y-140042925D01*
X85868092Y-140039720D01*
X85879221Y-140028593D01*
X85888637Y-140016014D01*
X85891417Y-140012564D01*
X85908951Y-139992329D01*
X85925377Y-139973373D01*
X85927375Y-139968995D01*
X85940907Y-139946189D01*
X85943796Y-139942331D01*
X85961922Y-139893728D01*
X85963614Y-139889645D01*
X85985165Y-139842457D01*
X85985850Y-139837685D01*
X85992409Y-139811992D01*
X85994091Y-139807483D01*
X85997791Y-139755740D01*
X85998265Y-139751340D01*
X85998458Y-139750002D01*
X86000500Y-139735799D01*
X86000500Y-139720094D01*
X86000658Y-139715669D01*
X86001243Y-139707486D01*
X86004359Y-139663927D01*
X86003332Y-139659206D01*
X86000500Y-139632858D01*
X86000500Y-139463404D01*
X86020185Y-139396365D01*
X86072989Y-139350610D01*
X86142147Y-139340666D01*
X86205703Y-139369691D01*
X86237294Y-139411893D01*
X86239834Y-139417456D01*
X86239835Y-139417457D01*
X86261383Y-139464642D01*
X86263071Y-139468716D01*
X86281203Y-139517329D01*
X86284096Y-139521194D01*
X86297617Y-139543983D01*
X86299619Y-139548367D01*
X86299622Y-139548372D01*
X86333575Y-139587556D01*
X86336353Y-139591003D01*
X86343862Y-139601034D01*
X86346386Y-139604669D01*
X86355356Y-139618628D01*
X86369292Y-139630703D01*
X86381795Y-139643206D01*
X86393872Y-139657143D01*
X86407843Y-139666121D01*
X86411469Y-139668640D01*
X86421489Y-139676141D01*
X86424935Y-139678918D01*
X86446943Y-139697987D01*
X86464127Y-139712877D01*
X86468510Y-139714879D01*
X86491307Y-139728405D01*
X86495169Y-139731296D01*
X86543795Y-139749432D01*
X86547851Y-139751112D01*
X86569957Y-139761208D01*
X86595040Y-139772664D01*
X86595041Y-139772664D01*
X86595043Y-139772665D01*
X86599812Y-139773350D01*
X86625502Y-139779907D01*
X86630017Y-139781591D01*
X86681758Y-139785291D01*
X86686157Y-139785764D01*
X86701701Y-139788000D01*
X86717406Y-139788000D01*
X86721828Y-139788157D01*
X86773573Y-139791859D01*
X86778285Y-139790834D01*
X86804643Y-139788000D01*
X87178462Y-139788000D01*
X87245501Y-139807685D01*
X87277728Y-139837689D01*
X87367452Y-139957544D01*
X87367455Y-139957547D01*
X87482664Y-140043793D01*
X87482671Y-140043797D01*
X87617517Y-140094091D01*
X87617516Y-140094091D01*
X87624444Y-140094835D01*
X87677127Y-140100500D01*
X89022872Y-140100499D01*
X89082483Y-140094091D01*
X89217331Y-140043796D01*
X89332546Y-139957546D01*
X89418796Y-139842331D01*
X89469091Y-139707483D01*
X89469896Y-139700000D01*
X90334785Y-139700000D01*
X90353602Y-139903082D01*
X90409417Y-140099247D01*
X90409422Y-140099260D01*
X90500327Y-140281821D01*
X90623237Y-140444581D01*
X90773958Y-140581980D01*
X90773960Y-140581982D01*
X90871631Y-140642457D01*
X90947363Y-140689348D01*
X91137544Y-140763024D01*
X91338024Y-140800500D01*
X91338026Y-140800500D01*
X91541974Y-140800500D01*
X91541976Y-140800500D01*
X91742456Y-140763024D01*
X91932637Y-140689348D01*
X92106041Y-140581981D01*
X92240542Y-140459367D01*
X92256762Y-140444581D01*
X92256764Y-140444579D01*
X92379673Y-140281821D01*
X92470582Y-140099250D01*
X92526397Y-139903083D01*
X92545215Y-139700000D01*
X92545028Y-139697987D01*
X92526397Y-139496917D01*
X92512188Y-139446977D01*
X92470582Y-139300750D01*
X92466551Y-139292655D01*
X92425690Y-139210594D01*
X92379673Y-139118179D01*
X92320704Y-139040091D01*
X92256762Y-138955418D01*
X92106041Y-138818019D01*
X92106039Y-138818017D01*
X91932642Y-138710655D01*
X91932635Y-138710651D01*
X91799562Y-138659099D01*
X91742456Y-138636976D01*
X91541976Y-138599500D01*
X91338024Y-138599500D01*
X91137544Y-138636976D01*
X91137541Y-138636976D01*
X91137541Y-138636977D01*
X90947364Y-138710651D01*
X90947357Y-138710655D01*
X90773960Y-138818017D01*
X90773958Y-138818019D01*
X90623237Y-138955418D01*
X90500327Y-139118178D01*
X90409422Y-139300739D01*
X90409417Y-139300752D01*
X90353602Y-139496917D01*
X90334785Y-139699999D01*
X90334785Y-139700000D01*
X89469896Y-139700000D01*
X89475500Y-139647873D01*
X89475499Y-138927128D01*
X89469091Y-138867517D01*
X89460821Y-138845345D01*
X89418797Y-138732671D01*
X89418793Y-138732664D01*
X89332547Y-138617455D01*
X89332544Y-138617452D01*
X89217335Y-138531206D01*
X89217328Y-138531202D01*
X89082482Y-138480908D01*
X89082483Y-138480908D01*
X89022883Y-138474501D01*
X89022881Y-138474500D01*
X89022873Y-138474500D01*
X89022864Y-138474500D01*
X87677129Y-138474500D01*
X87677123Y-138474501D01*
X87617516Y-138480908D01*
X87482671Y-138531202D01*
X87482664Y-138531206D01*
X87367455Y-138617452D01*
X87367452Y-138617455D01*
X87277728Y-138737311D01*
X87221794Y-138779182D01*
X87178462Y-138787000D01*
X86871185Y-138787000D01*
X86841402Y-138781627D01*
X86841149Y-138782794D01*
X86832485Y-138780909D01*
X86829633Y-138780705D01*
X86827671Y-138780564D01*
X86801589Y-138775858D01*
X86796964Y-138774500D01*
X86796961Y-138774500D01*
X86745094Y-138774500D01*
X86740671Y-138774342D01*
X86721041Y-138772938D01*
X86688929Y-138770641D01*
X86688925Y-138770641D01*
X86684215Y-138771666D01*
X86657857Y-138774500D01*
X86653039Y-138774500D01*
X86603276Y-138789109D01*
X86598991Y-138790203D01*
X86548302Y-138801231D01*
X86548289Y-138801236D01*
X86544057Y-138803547D01*
X86519576Y-138813687D01*
X86514947Y-138815047D01*
X86514944Y-138815048D01*
X86471311Y-138843088D01*
X86467507Y-138845345D01*
X86421973Y-138870211D01*
X86418559Y-138873625D01*
X86397938Y-138890243D01*
X86393876Y-138892854D01*
X86393867Y-138892861D01*
X86359899Y-138932062D01*
X86356883Y-138935301D01*
X86320210Y-138971973D01*
X86320207Y-138971979D01*
X86317889Y-138976223D01*
X86302788Y-138997973D01*
X86299624Y-139001625D01*
X86299618Y-139001634D01*
X86278071Y-139048815D01*
X86276090Y-139052773D01*
X86251233Y-139098296D01*
X86250208Y-139103009D01*
X86241837Y-139128158D01*
X86237295Y-139138104D01*
X86191541Y-139190908D01*
X86124502Y-139210594D01*
X86057462Y-139190910D01*
X86011706Y-139138107D01*
X86000500Y-139086594D01*
X86000500Y-138344667D01*
X86001762Y-138327020D01*
X86004562Y-138307543D01*
X86005647Y-138300000D01*
X85985165Y-138157543D01*
X85929054Y-138034678D01*
X90339500Y-138034678D01*
X90354032Y-138107735D01*
X90354033Y-138107739D01*
X90354034Y-138107740D01*
X90409399Y-138190601D01*
X90448882Y-138216982D01*
X90492260Y-138245966D01*
X90492264Y-138245967D01*
X90565321Y-138260499D01*
X90565324Y-138260500D01*
X90565326Y-138260500D01*
X92314676Y-138260500D01*
X92314677Y-138260499D01*
X92387740Y-138245966D01*
X92470601Y-138190601D01*
X92525966Y-138107740D01*
X92540500Y-138034674D01*
X92540500Y-136285326D01*
X92540500Y-136285323D01*
X92540499Y-136285321D01*
X92525967Y-136212264D01*
X92525966Y-136212260D01*
X92522814Y-136207543D01*
X92470601Y-136129399D01*
X92392902Y-136077483D01*
X92387739Y-136074033D01*
X92387735Y-136074032D01*
X92314677Y-136059500D01*
X92314674Y-136059500D01*
X90565326Y-136059500D01*
X90565323Y-136059500D01*
X90492264Y-136074032D01*
X90492260Y-136074033D01*
X90409399Y-136129399D01*
X90354033Y-136212260D01*
X90354032Y-136212264D01*
X90339500Y-136285321D01*
X90339500Y-138034678D01*
X85929054Y-138034678D01*
X85925377Y-138026627D01*
X85831128Y-137917857D01*
X85710053Y-137840047D01*
X85710051Y-137840046D01*
X85710049Y-137840045D01*
X85710050Y-137840045D01*
X85571963Y-137799500D01*
X85571961Y-137799500D01*
X85428039Y-137799500D01*
X85428036Y-137799500D01*
X85289949Y-137840045D01*
X85168873Y-137917856D01*
X85074623Y-138026626D01*
X85074622Y-138026628D01*
X85014834Y-138157543D01*
X84994353Y-138300000D01*
X84998238Y-138327020D01*
X84999500Y-138344667D01*
X84999500Y-139425500D01*
X84979815Y-139492539D01*
X84927011Y-139538294D01*
X84875500Y-139549500D01*
X84786552Y-139549500D01*
X84730258Y-139535985D01*
X84687801Y-139514352D01*
X84594024Y-139499500D01*
X83355982Y-139499500D01*
X83262193Y-139514354D01*
X83248224Y-139521472D01*
X83179555Y-139534366D01*
X83114815Y-139508087D01*
X83074560Y-139450980D01*
X83071732Y-139384960D01*
X83071620Y-139384943D01*
X83071707Y-139384389D01*
X83071570Y-139381174D01*
X83073020Y-139376101D01*
X83087999Y-139281524D01*
X83088000Y-139281519D01*
X83087999Y-138918482D01*
X83073146Y-138824696D01*
X83015550Y-138711658D01*
X83015546Y-138711654D01*
X83015545Y-138711652D01*
X82925847Y-138621954D01*
X82925844Y-138621952D01*
X82925842Y-138621950D01*
X82848396Y-138582489D01*
X82812801Y-138564352D01*
X82719017Y-138549498D01*
X82714765Y-138549164D01*
X82649478Y-138524278D01*
X82608010Y-138468045D01*
X82600500Y-138425547D01*
X82600500Y-138094667D01*
X82601762Y-138077020D01*
X82605647Y-138050000D01*
X82585165Y-137907543D01*
X82525377Y-137776627D01*
X82507245Y-137755702D01*
X82478221Y-137692147D01*
X82488165Y-137622989D01*
X82533919Y-137570185D01*
X82600959Y-137550500D01*
X85722807Y-137550500D01*
X85749165Y-137553334D01*
X85753877Y-137554359D01*
X85805621Y-137550657D01*
X85810044Y-137550500D01*
X85825749Y-137550500D01*
X85841292Y-137548264D01*
X85845690Y-137547791D01*
X85897433Y-137544091D01*
X85901942Y-137542408D01*
X85927635Y-137535850D01*
X85932407Y-137535165D01*
X85979596Y-137513613D01*
X85983678Y-137511922D01*
X86018312Y-137499006D01*
X86032279Y-137493797D01*
X86032279Y-137493796D01*
X86032281Y-137493796D01*
X86036139Y-137490907D01*
X86058945Y-137477375D01*
X86063323Y-137475377D01*
X86102514Y-137441416D01*
X86105964Y-137438637D01*
X86108880Y-137436453D01*
X86118543Y-137429221D01*
X86129670Y-137418092D01*
X86132875Y-137415109D01*
X86172093Y-137381128D01*
X86174700Y-137377070D01*
X86191330Y-137356432D01*
X86260947Y-137286817D01*
X86322271Y-137253333D01*
X86348627Y-137250500D01*
X87171139Y-137250500D01*
X87238178Y-137270185D01*
X87275637Y-137310418D01*
X87275888Y-137310231D01*
X87277635Y-137312565D01*
X87279973Y-137315076D01*
X87281207Y-137317336D01*
X87367452Y-137432544D01*
X87367455Y-137432547D01*
X87482664Y-137518793D01*
X87482671Y-137518797D01*
X87617517Y-137569091D01*
X87617516Y-137569091D01*
X87624444Y-137569835D01*
X87677127Y-137575500D01*
X89022872Y-137575499D01*
X89082483Y-137569091D01*
X89217331Y-137518796D01*
X89332546Y-137432546D01*
X89418796Y-137317331D01*
X89469091Y-137182483D01*
X89475500Y-137122873D01*
X89475499Y-136402128D01*
X89469895Y-136349999D01*
X89469091Y-136342516D01*
X89418797Y-136207671D01*
X89418793Y-136207664D01*
X89332547Y-136092455D01*
X89332544Y-136092452D01*
X89217335Y-136006206D01*
X89217328Y-136006202D01*
X89082482Y-135955908D01*
X89082483Y-135955908D01*
X89022883Y-135949501D01*
X89022881Y-135949500D01*
X89022873Y-135949500D01*
X89022864Y-135949500D01*
X87677129Y-135949500D01*
X87677123Y-135949501D01*
X87617516Y-135955908D01*
X87482671Y-136006202D01*
X87482664Y-136006206D01*
X87367456Y-136092452D01*
X87367455Y-136092453D01*
X87367454Y-136092454D01*
X87287087Y-136199811D01*
X87231153Y-136241682D01*
X87187820Y-136249500D01*
X86157093Y-136249500D01*
X86130735Y-136246666D01*
X86126024Y-136245641D01*
X86126017Y-136245640D01*
X86092342Y-136248049D01*
X86024069Y-136233196D01*
X85974664Y-136183791D01*
X85970711Y-136175895D01*
X85963608Y-136160341D01*
X85961932Y-136156295D01*
X85943796Y-136107669D01*
X85940905Y-136103807D01*
X85927379Y-136081010D01*
X85925377Y-136076627D01*
X85917820Y-136067906D01*
X85891411Y-136037427D01*
X85888633Y-136033979D01*
X85879229Y-136021417D01*
X85879224Y-136021412D01*
X85879221Y-136021407D01*
X85868097Y-136010283D01*
X85865103Y-136007067D01*
X85831128Y-135967857D01*
X85831125Y-135967854D01*
X85827066Y-135965246D01*
X85806428Y-135948614D01*
X85656819Y-135799005D01*
X85623334Y-135737682D01*
X85620500Y-135711324D01*
X85620500Y-135328408D01*
X85640185Y-135261369D01*
X85692989Y-135215614D01*
X85744500Y-135204408D01*
X85863911Y-135204408D01*
X85930950Y-135224093D01*
X85932800Y-135225305D01*
X85947257Y-135234964D01*
X85947260Y-135234966D01*
X85947263Y-135234966D01*
X85947264Y-135234967D01*
X86044995Y-135254407D01*
X86044998Y-135254408D01*
X86045000Y-135254408D01*
X86665002Y-135254408D01*
X86713870Y-135244687D01*
X86762740Y-135234966D01*
X86845601Y-135179601D01*
X86900966Y-135096740D01*
X86920408Y-134999000D01*
X86920408Y-134599000D01*
X86920408Y-134598997D01*
X86900356Y-134498192D01*
X86900356Y-134449808D01*
X86920408Y-134349002D01*
X86920408Y-133948997D01*
X86900356Y-133848192D01*
X86900356Y-133799808D01*
X86920408Y-133699002D01*
X86920408Y-133298997D01*
X86900356Y-133198192D01*
X86900356Y-133149808D01*
X86920408Y-133049002D01*
X86920408Y-132648997D01*
X86904323Y-132568135D01*
X86900966Y-132551260D01*
X86845601Y-132468399D01*
X86762740Y-132413034D01*
X86762739Y-132413033D01*
X86762738Y-132413033D01*
X86665002Y-132393592D01*
X86665000Y-132393592D01*
X86122162Y-132393592D01*
X86055123Y-132373907D01*
X86009368Y-132321103D01*
X85999424Y-132251945D01*
X86028449Y-132188389D01*
X86034463Y-132181928D01*
X86062224Y-132154167D01*
X86114968Y-132122874D01*
X86119849Y-132121441D01*
X86238133Y-132086710D01*
X86359208Y-132008900D01*
X86453457Y-131900130D01*
X86513245Y-131769214D01*
X86533727Y-131626757D01*
X86513245Y-131484300D01*
X86453457Y-131353384D01*
X86359208Y-131244614D01*
X86238133Y-131166804D01*
X86238131Y-131166803D01*
X86238129Y-131166802D01*
X86238130Y-131166802D01*
X86100043Y-131126257D01*
X86100041Y-131126257D01*
X86044500Y-131126257D01*
X85977461Y-131106572D01*
X85931706Y-131053768D01*
X85920500Y-131002257D01*
X85920500Y-130778408D01*
X85940185Y-130711369D01*
X85992989Y-130665614D01*
X86044500Y-130654408D01*
X86163911Y-130654408D01*
X86230950Y-130674093D01*
X86232800Y-130675305D01*
X86237726Y-130678596D01*
X86247260Y-130684966D01*
X86247263Y-130684966D01*
X86247264Y-130684967D01*
X86344995Y-130704407D01*
X86344998Y-130704408D01*
X86345000Y-130704408D01*
X86965002Y-130704408D01*
X87013870Y-130694687D01*
X87062740Y-130684966D01*
X87145601Y-130629601D01*
X87200966Y-130546740D01*
X87215500Y-130473674D01*
X87220408Y-130449002D01*
X87220408Y-130048997D01*
X87200356Y-129948192D01*
X87200356Y-129899806D01*
X87205230Y-129875306D01*
X87237617Y-129813395D01*
X87298333Y-129778823D01*
X87326847Y-129775500D01*
X87871960Y-129775500D01*
X87871961Y-129775500D01*
X87898153Y-129767809D01*
X87915436Y-129764050D01*
X87919882Y-129763410D01*
X87942457Y-129760165D01*
X87967287Y-129748824D01*
X87983862Y-129742642D01*
X88010053Y-129734953D01*
X88033020Y-129720192D01*
X88048586Y-129711696D01*
X88049036Y-129711490D01*
X88118198Y-129701577D01*
X88181742Y-129730628D01*
X88219492Y-129789422D01*
X88224500Y-129824307D01*
X88224500Y-131632858D01*
X88221667Y-131659206D01*
X88220641Y-131663927D01*
X88220641Y-131663929D01*
X88220641Y-131663930D01*
X88224342Y-131715669D01*
X88224500Y-131720094D01*
X88224500Y-131735799D01*
X88226734Y-131751343D01*
X88227207Y-131755740D01*
X88230909Y-131807485D01*
X88232593Y-131812000D01*
X88239148Y-131837682D01*
X88239834Y-131842455D01*
X88239835Y-131842457D01*
X88261383Y-131889642D01*
X88263071Y-131893716D01*
X88281203Y-131942329D01*
X88284096Y-131946194D01*
X88297617Y-131968983D01*
X88299619Y-131973367D01*
X88299622Y-131973371D01*
X88299623Y-131973373D01*
X88333598Y-132012583D01*
X88336362Y-132016013D01*
X88345775Y-132028588D01*
X88345782Y-132028596D01*
X88356886Y-132039700D01*
X88359896Y-132042932D01*
X88387810Y-132075147D01*
X88393871Y-132082142D01*
X88393874Y-132082145D01*
X88397928Y-132084750D01*
X88418571Y-132101385D01*
X89131548Y-132814362D01*
X89165033Y-132875685D01*
X89160049Y-132945377D01*
X89118177Y-133001310D01*
X89052713Y-133025727D01*
X89030611Y-133025332D01*
X89022873Y-133024500D01*
X89022872Y-133024500D01*
X87677129Y-133024500D01*
X87677123Y-133024501D01*
X87617516Y-133030908D01*
X87482671Y-133081202D01*
X87482664Y-133081206D01*
X87367455Y-133167452D01*
X87367452Y-133167455D01*
X87281206Y-133282664D01*
X87281202Y-133282671D01*
X87233730Y-133409953D01*
X87230909Y-133417517D01*
X87224500Y-133477127D01*
X87224500Y-133477134D01*
X87224500Y-133477135D01*
X87224500Y-134197870D01*
X87224501Y-134197876D01*
X87230908Y-134257483D01*
X87281202Y-134392328D01*
X87281206Y-134392335D01*
X87367452Y-134507544D01*
X87367455Y-134507547D01*
X87482664Y-134593793D01*
X87482671Y-134593797D01*
X87617517Y-134644091D01*
X87617516Y-134644091D01*
X87624444Y-134644835D01*
X87677127Y-134650500D01*
X89022872Y-134650499D01*
X89082483Y-134644091D01*
X89217331Y-134593796D01*
X89332546Y-134507546D01*
X89375769Y-134449808D01*
X89422272Y-134387689D01*
X89478206Y-134345818D01*
X89521538Y-134338000D01*
X89703814Y-134338000D01*
X89733592Y-134343372D01*
X89733846Y-134342205D01*
X89742513Y-134344090D01*
X89742514Y-134344090D01*
X89742517Y-134344091D01*
X89747321Y-134344434D01*
X89773421Y-134349144D01*
X89774717Y-134349524D01*
X89778039Y-134350500D01*
X89814201Y-134350500D01*
X89829906Y-134350500D01*
X89834328Y-134350657D01*
X89886073Y-134354359D01*
X89890785Y-134353334D01*
X89917143Y-134350500D01*
X90300249Y-134350500D01*
X90367288Y-134370185D01*
X90399515Y-134400188D01*
X90436661Y-134449808D01*
X90442454Y-134457546D01*
X90442457Y-134457548D01*
X90557664Y-134543793D01*
X90557671Y-134543797D01*
X90692517Y-134594091D01*
X90692516Y-134594091D01*
X90699444Y-134594835D01*
X90752127Y-134600500D01*
X91797872Y-134600499D01*
X91857483Y-134594091D01*
X91992331Y-134543796D01*
X92107546Y-134457546D01*
X92193796Y-134342331D01*
X92244091Y-134207483D01*
X92250500Y-134147873D01*
X92250499Y-133552128D01*
X92244091Y-133492517D01*
X92225419Y-133442456D01*
X92193797Y-133357671D01*
X92193793Y-133357664D01*
X92107547Y-133242455D01*
X92107544Y-133242452D01*
X91992335Y-133156206D01*
X91992328Y-133156202D01*
X91857482Y-133105908D01*
X91857483Y-133105908D01*
X91797883Y-133099501D01*
X91797881Y-133099500D01*
X91797873Y-133099500D01*
X91797864Y-133099500D01*
X90752129Y-133099500D01*
X90752123Y-133099501D01*
X90692516Y-133105908D01*
X90557671Y-133156202D01*
X90557665Y-133156206D01*
X90548810Y-133162835D01*
X90483346Y-133187252D01*
X90415073Y-133172400D01*
X90365668Y-133122995D01*
X90350500Y-133063568D01*
X90350500Y-132892143D01*
X90353334Y-132865785D01*
X90354359Y-132861073D01*
X90350658Y-132809329D01*
X90350500Y-132804904D01*
X90350500Y-132789201D01*
X90348264Y-132773657D01*
X90347791Y-132769254D01*
X90346954Y-132757546D01*
X90345808Y-132741527D01*
X90360660Y-132673255D01*
X90410065Y-132623850D01*
X90478338Y-132608998D01*
X90543801Y-132633414D01*
X90557669Y-132643796D01*
X90557670Y-132643796D01*
X90557671Y-132643797D01*
X90692517Y-132694091D01*
X90692516Y-132694091D01*
X90699444Y-132694835D01*
X90752127Y-132700500D01*
X91797872Y-132700499D01*
X91857483Y-132694091D01*
X91992331Y-132643796D01*
X92107546Y-132557546D01*
X92193796Y-132442331D01*
X92244091Y-132307483D01*
X92250500Y-132247873D01*
X92250499Y-131652128D01*
X92244091Y-131592517D01*
X92228233Y-131550000D01*
X92193797Y-131457671D01*
X92193793Y-131457664D01*
X92107547Y-131342455D01*
X92107544Y-131342452D01*
X91992335Y-131256206D01*
X91992330Y-131256203D01*
X91856166Y-131205417D01*
X91800233Y-131163545D01*
X91775816Y-131098081D01*
X91775500Y-131089235D01*
X91775500Y-131067143D01*
X91778334Y-131040785D01*
X91779359Y-131036073D01*
X91775658Y-130984329D01*
X91775500Y-130979904D01*
X91775500Y-130964201D01*
X91773264Y-130948657D01*
X91772791Y-130944254D01*
X91772186Y-130935798D01*
X91769091Y-130892517D01*
X91767407Y-130888002D01*
X91760850Y-130862312D01*
X91760165Y-130857543D01*
X91738612Y-130810351D01*
X91736932Y-130806295D01*
X91718796Y-130757669D01*
X91715905Y-130753807D01*
X91702379Y-130731010D01*
X91700377Y-130726627D01*
X91687156Y-130711369D01*
X91666411Y-130687427D01*
X91663633Y-130683979D01*
X91654229Y-130671417D01*
X91654224Y-130671412D01*
X91654221Y-130671407D01*
X91643097Y-130660283D01*
X91640103Y-130657067D01*
X91606128Y-130617857D01*
X91606125Y-130617854D01*
X91602066Y-130615246D01*
X91581428Y-130598614D01*
X91343116Y-130360302D01*
X91309631Y-130298979D01*
X91314615Y-130229287D01*
X91356487Y-130173354D01*
X91363751Y-130168309D01*
X91381128Y-130157143D01*
X91386929Y-130150447D01*
X91399442Y-130137935D01*
X91406122Y-130132146D01*
X91406128Y-130132143D01*
X91440115Y-130092917D01*
X91443099Y-130089712D01*
X91454220Y-130078593D01*
X91463645Y-130066000D01*
X91466390Y-130062594D01*
X91500377Y-130023373D01*
X91502375Y-130018995D01*
X91515907Y-129996189D01*
X91518796Y-129992331D01*
X91536922Y-129943728D01*
X91538614Y-129939645D01*
X91547152Y-129920950D01*
X91560165Y-129892457D01*
X91560850Y-129887685D01*
X91567409Y-129861992D01*
X91568763Y-129858361D01*
X91569091Y-129857483D01*
X91572791Y-129805740D01*
X91573265Y-129801340D01*
X91575500Y-129785799D01*
X91575500Y-129770094D01*
X91575658Y-129765669D01*
X91576230Y-129757669D01*
X91579359Y-129713927D01*
X91578332Y-129709206D01*
X91575500Y-129682858D01*
X91575500Y-129449499D01*
X91595185Y-129382460D01*
X91647989Y-129336705D01*
X91699500Y-129325499D01*
X91922871Y-129325499D01*
X91922872Y-129325499D01*
X91982483Y-129319091D01*
X92117331Y-129268796D01*
X92232546Y-129182546D01*
X92318796Y-129067331D01*
X92369091Y-128932483D01*
X92375500Y-128872873D01*
X92375499Y-127877128D01*
X92369091Y-127817517D01*
X92347388Y-127759329D01*
X92318797Y-127682671D01*
X92318793Y-127682664D01*
X92232547Y-127567455D01*
X92232544Y-127567452D01*
X92117335Y-127481206D01*
X92117328Y-127481202D01*
X91982482Y-127430908D01*
X91982483Y-127430908D01*
X91922883Y-127424501D01*
X91922881Y-127424500D01*
X91922873Y-127424500D01*
X91922864Y-127424500D01*
X90227129Y-127424500D01*
X90227123Y-127424501D01*
X90167514Y-127430909D01*
X90092832Y-127458763D01*
X90023140Y-127463747D01*
X89961817Y-127430261D01*
X89928333Y-127368937D01*
X89925500Y-127342581D01*
X89925500Y-126742143D01*
X89928334Y-126715785D01*
X89929359Y-126711073D01*
X89925658Y-126659329D01*
X89925500Y-126654904D01*
X89925500Y-126639201D01*
X89923264Y-126623657D01*
X89922791Y-126619254D01*
X89919091Y-126567517D01*
X89917407Y-126563002D01*
X89910850Y-126537312D01*
X89910165Y-126532543D01*
X89909982Y-126532143D01*
X89896976Y-126503664D01*
X89888612Y-126485351D01*
X89886932Y-126481295D01*
X89868796Y-126432669D01*
X89865905Y-126428807D01*
X89852379Y-126406010D01*
X89850377Y-126401627D01*
X89842856Y-126392947D01*
X89816411Y-126362427D01*
X89813633Y-126358979D01*
X89804229Y-126346417D01*
X89804224Y-126346412D01*
X89804221Y-126346407D01*
X89793097Y-126335283D01*
X89790103Y-126332067D01*
X89756128Y-126292857D01*
X89756125Y-126292854D01*
X89752066Y-126290246D01*
X89731428Y-126273614D01*
X88051385Y-124593571D01*
X88034750Y-124572928D01*
X88032145Y-124568874D01*
X88032142Y-124568871D01*
X88025147Y-124562810D01*
X87992932Y-124534896D01*
X87989700Y-124531886D01*
X87978596Y-124520782D01*
X87978588Y-124520775D01*
X87966013Y-124511362D01*
X87962583Y-124508598D01*
X87923373Y-124474623D01*
X87923371Y-124474622D01*
X87923367Y-124474619D01*
X87918983Y-124472617D01*
X87896194Y-124459096D01*
X87892331Y-124456204D01*
X87892329Y-124456203D01*
X87843716Y-124438071D01*
X87839642Y-124436383D01*
X87792457Y-124414835D01*
X87792455Y-124414834D01*
X87787682Y-124414148D01*
X87762000Y-124407593D01*
X87757485Y-124405909D01*
X87705740Y-124402207D01*
X87701343Y-124401734D01*
X87685799Y-124399500D01*
X87670094Y-124399500D01*
X87665671Y-124399342D01*
X87648083Y-124398084D01*
X87613929Y-124395641D01*
X87613925Y-124395641D01*
X87609215Y-124396666D01*
X87582857Y-124399500D01*
X87399499Y-124399500D01*
X87332460Y-124379815D01*
X87286705Y-124327011D01*
X87275499Y-124275500D01*
X87275499Y-124227129D01*
X87275498Y-124227121D01*
X87273954Y-124212752D01*
X87286361Y-124143993D01*
X87333973Y-124092857D01*
X87397244Y-124075500D01*
X89650501Y-124075500D01*
X89717540Y-124095185D01*
X89763295Y-124147989D01*
X89774501Y-124199500D01*
X89774501Y-124472876D01*
X89780908Y-124532483D01*
X89831202Y-124667328D01*
X89831206Y-124667335D01*
X89917452Y-124782544D01*
X89917455Y-124782547D01*
X90032664Y-124868793D01*
X90032671Y-124868797D01*
X90167517Y-124919091D01*
X90167516Y-124919091D01*
X90174444Y-124919835D01*
X90227127Y-124925500D01*
X91922872Y-124925499D01*
X91982483Y-124919091D01*
X92117331Y-124868796D01*
X92232546Y-124782546D01*
X92318796Y-124667331D01*
X92369091Y-124532483D01*
X92375500Y-124472873D01*
X92375499Y-123477128D01*
X92369091Y-123417517D01*
X92365814Y-123408732D01*
X92318797Y-123282671D01*
X92318793Y-123282664D01*
X92232547Y-123167455D01*
X92232544Y-123167452D01*
X92117335Y-123081206D01*
X92117328Y-123081202D01*
X91982482Y-123030908D01*
X91982483Y-123030908D01*
X91922883Y-123024501D01*
X91922881Y-123024500D01*
X91922873Y-123024500D01*
X91922865Y-123024500D01*
X91783559Y-123024500D01*
X91716520Y-123004815D01*
X91670765Y-122952011D01*
X91660821Y-122882853D01*
X91670765Y-122848988D01*
X91685165Y-122817457D01*
X91705647Y-122675000D01*
X91701762Y-122647977D01*
X91700500Y-122630331D01*
X91700500Y-119974499D01*
X91720185Y-119907460D01*
X91772989Y-119861705D01*
X91824500Y-119850499D01*
X92660371Y-119850499D01*
X92660372Y-119850499D01*
X92719983Y-119844091D01*
X92854831Y-119793796D01*
X92970046Y-119707546D01*
X93056296Y-119592331D01*
X93106591Y-119457483D01*
X93113000Y-119397873D01*
X93112999Y-118202128D01*
X93106591Y-118142517D01*
X93102372Y-118131206D01*
X93056297Y-118007671D01*
X93056293Y-118007664D01*
X92970047Y-117892455D01*
X92970044Y-117892452D01*
X92854835Y-117806206D01*
X92854828Y-117806202D01*
X92719982Y-117755908D01*
X92719983Y-117755908D01*
X92660383Y-117749501D01*
X92660381Y-117749500D01*
X92660373Y-117749500D01*
X92660364Y-117749500D01*
X89739629Y-117749500D01*
X89739623Y-117749501D01*
X89680016Y-117755908D01*
X89545171Y-117806202D01*
X89545164Y-117806206D01*
X89429955Y-117892452D01*
X89429952Y-117892455D01*
X89343706Y-118007664D01*
X89343702Y-118007671D01*
X89293408Y-118142517D01*
X89287001Y-118202116D01*
X89287001Y-118202123D01*
X89287000Y-118202135D01*
X89287000Y-119397870D01*
X89287001Y-119397876D01*
X89293408Y-119457483D01*
X89343702Y-119592328D01*
X89343706Y-119592335D01*
X89429952Y-119707544D01*
X89429955Y-119707547D01*
X89545164Y-119793793D01*
X89545171Y-119793797D01*
X89680017Y-119844091D01*
X89680016Y-119844091D01*
X89686944Y-119844835D01*
X89739627Y-119850500D01*
X90575500Y-119850499D01*
X90642539Y-119870183D01*
X90688294Y-119922987D01*
X90699500Y-119974499D01*
X90699500Y-122630331D01*
X90698238Y-122647977D01*
X90694353Y-122674999D01*
X90714834Y-122817456D01*
X90729235Y-122848988D01*
X90739179Y-122918147D01*
X90710154Y-122981702D01*
X90651376Y-123019477D01*
X90616441Y-123024500D01*
X90227129Y-123024500D01*
X90227123Y-123024501D01*
X90167516Y-123030908D01*
X90071604Y-123066682D01*
X90028271Y-123074500D01*
X83894976Y-123074500D01*
X83827937Y-123054815D01*
X83782182Y-123002011D01*
X83772238Y-122932853D01*
X83782183Y-122898987D01*
X83782938Y-122897333D01*
X83785165Y-122892457D01*
X83805647Y-122750000D01*
X83805647Y-122749999D01*
X83801762Y-122722977D01*
X83800500Y-122705331D01*
X83800500Y-122115955D01*
X83820185Y-122048916D01*
X83827495Y-122039844D01*
X83827231Y-122039646D01*
X83833393Y-122031415D01*
X83918796Y-121917331D01*
X83969091Y-121782483D01*
X83975500Y-121722873D01*
X83975499Y-120377128D01*
X83969091Y-120317517D01*
X83949142Y-120264032D01*
X83918797Y-120182671D01*
X83918793Y-120182664D01*
X83832547Y-120067455D01*
X83832544Y-120067452D01*
X83717335Y-119981206D01*
X83717328Y-119981202D01*
X83592464Y-119934631D01*
X83536530Y-119892760D01*
X83512113Y-119827295D01*
X83526965Y-119759022D01*
X83576370Y-119709617D01*
X83622546Y-119695159D01*
X83632483Y-119694091D01*
X83767331Y-119643796D01*
X83882546Y-119557546D01*
X83968796Y-119442331D01*
X83968796Y-119442329D01*
X83968798Y-119442327D01*
X83977912Y-119417889D01*
X84019781Y-119361954D01*
X84085244Y-119337534D01*
X84153518Y-119352384D01*
X84202925Y-119401787D01*
X84217384Y-119447960D01*
X84218407Y-119457480D01*
X84268702Y-119592328D01*
X84268706Y-119592335D01*
X84354952Y-119707544D01*
X84354955Y-119707547D01*
X84470164Y-119793793D01*
X84470171Y-119793797D01*
X84605017Y-119844091D01*
X84605016Y-119844091D01*
X84611944Y-119844835D01*
X84664627Y-119850500D01*
X87585372Y-119850499D01*
X87644983Y-119844091D01*
X87779831Y-119793796D01*
X87895046Y-119707546D01*
X87981296Y-119592331D01*
X88031591Y-119457483D01*
X88038000Y-119397873D01*
X88037999Y-118202128D01*
X88031591Y-118142517D01*
X88027372Y-118131206D01*
X87981297Y-118007671D01*
X87981293Y-118007664D01*
X87895047Y-117892455D01*
X87895044Y-117892452D01*
X87779835Y-117806206D01*
X87779828Y-117806202D01*
X87644982Y-117755908D01*
X87644983Y-117755908D01*
X87585383Y-117749501D01*
X87585381Y-117749500D01*
X87585373Y-117749500D01*
X87585365Y-117749500D01*
X86749500Y-117749500D01*
X86682461Y-117729815D01*
X86636706Y-117677011D01*
X86625500Y-117625500D01*
X86625500Y-117042143D01*
X86628334Y-117015785D01*
X86629359Y-117011073D01*
X86625658Y-116959329D01*
X86625500Y-116954904D01*
X86625500Y-116939201D01*
X86623264Y-116923657D01*
X86622791Y-116919254D01*
X86619091Y-116867517D01*
X86617407Y-116863002D01*
X86610850Y-116837312D01*
X86610165Y-116832543D01*
X86588612Y-116785351D01*
X86586932Y-116781295D01*
X86568796Y-116732669D01*
X86565905Y-116728807D01*
X86552379Y-116706010D01*
X86550377Y-116701627D01*
X86550375Y-116701625D01*
X86550375Y-116701624D01*
X86550374Y-116701623D01*
X86516403Y-116662418D01*
X86513625Y-116658970D01*
X86504224Y-116646412D01*
X86504222Y-116646410D01*
X86504220Y-116646407D01*
X86493117Y-116635304D01*
X86490100Y-116632063D01*
X86456128Y-116592857D01*
X86452071Y-116590250D01*
X86431427Y-116573614D01*
X85513885Y-115656071D01*
X85497250Y-115635428D01*
X85494645Y-115631374D01*
X85494642Y-115631371D01*
X85460892Y-115602127D01*
X85455432Y-115597396D01*
X85452200Y-115594386D01*
X85441096Y-115583282D01*
X85441088Y-115583275D01*
X85428513Y-115573862D01*
X85425083Y-115571098D01*
X85385873Y-115537123D01*
X85385871Y-115537122D01*
X85385867Y-115537119D01*
X85381483Y-115535117D01*
X85358694Y-115521596D01*
X85354831Y-115518704D01*
X85354829Y-115518703D01*
X85306216Y-115500571D01*
X85302142Y-115498883D01*
X85254957Y-115477335D01*
X85254955Y-115477334D01*
X85250182Y-115476648D01*
X85224500Y-115470093D01*
X85219985Y-115468409D01*
X85168240Y-115464707D01*
X85163843Y-115464234D01*
X85148299Y-115462000D01*
X85132594Y-115462000D01*
X85128171Y-115461842D01*
X85110583Y-115460584D01*
X85076429Y-115458141D01*
X85076425Y-115458141D01*
X85071715Y-115459166D01*
X85045357Y-115462000D01*
X84071538Y-115462000D01*
X84004499Y-115442315D01*
X83972272Y-115412311D01*
X83882547Y-115292455D01*
X83882544Y-115292452D01*
X83767335Y-115206206D01*
X83767328Y-115206202D01*
X83725715Y-115190682D01*
X83669781Y-115148811D01*
X83645364Y-115083347D01*
X83660215Y-115015074D01*
X83709620Y-114965668D01*
X83769048Y-114950500D01*
X93275500Y-114950500D01*
X93342539Y-114970185D01*
X93388294Y-115022989D01*
X93399500Y-115074500D01*
X93399500Y-151625500D01*
X93379815Y-151692539D01*
X93327011Y-151738294D01*
X93275500Y-151749500D01*
X69324500Y-151749500D01*
X69257461Y-151729815D01*
X69211706Y-151677011D01*
X69200500Y-151625500D01*
X69200500Y-149860000D01*
X70014785Y-149860000D01*
X70033602Y-150063082D01*
X70089417Y-150259247D01*
X70089422Y-150259260D01*
X70180327Y-150441821D01*
X70303237Y-150604581D01*
X70453958Y-150741980D01*
X70453960Y-150741982D01*
X70553141Y-150803392D01*
X70627363Y-150849348D01*
X70817544Y-150923024D01*
X71018024Y-150960500D01*
X71018026Y-150960500D01*
X71221974Y-150960500D01*
X71221976Y-150960500D01*
X71422456Y-150923024D01*
X71612637Y-150849348D01*
X71786041Y-150741981D01*
X71936764Y-150604579D01*
X72059673Y-150441821D01*
X72150582Y-150259250D01*
X72206397Y-150063083D01*
X72225215Y-149860000D01*
X90334785Y-149860000D01*
X90353602Y-150063082D01*
X90409417Y-150259247D01*
X90409422Y-150259260D01*
X90500327Y-150441821D01*
X90623237Y-150604581D01*
X90773958Y-150741980D01*
X90773960Y-150741982D01*
X90873141Y-150803392D01*
X90947363Y-150849348D01*
X91137544Y-150923024D01*
X91338024Y-150960500D01*
X91338026Y-150960500D01*
X91541974Y-150960500D01*
X91541976Y-150960500D01*
X91742456Y-150923024D01*
X91932637Y-150849348D01*
X92106041Y-150741981D01*
X92256764Y-150604579D01*
X92379673Y-150441821D01*
X92470582Y-150259250D01*
X92526397Y-150063083D01*
X92545215Y-149860000D01*
X92526397Y-149656917D01*
X92470582Y-149460750D01*
X92379673Y-149278179D01*
X92256764Y-149115421D01*
X92256762Y-149115418D01*
X92106041Y-148978019D01*
X92106039Y-148978017D01*
X91932642Y-148870655D01*
X91932635Y-148870651D01*
X91837546Y-148833814D01*
X91742456Y-148796976D01*
X91541976Y-148759500D01*
X91338024Y-148759500D01*
X91137544Y-148796976D01*
X91137541Y-148796976D01*
X91137541Y-148796977D01*
X90947364Y-148870651D01*
X90947357Y-148870655D01*
X90773960Y-148978017D01*
X90773958Y-148978019D01*
X90623237Y-149115418D01*
X90500327Y-149278178D01*
X90409422Y-149460739D01*
X90409417Y-149460752D01*
X90353602Y-149656917D01*
X90334785Y-149859999D01*
X90334785Y-149860000D01*
X72225215Y-149860000D01*
X72206397Y-149656917D01*
X72150582Y-149460750D01*
X72059673Y-149278179D01*
X71936764Y-149115421D01*
X71936762Y-149115418D01*
X71786041Y-148978019D01*
X71786039Y-148978017D01*
X71612642Y-148870655D01*
X71612635Y-148870651D01*
X71517546Y-148833814D01*
X71422456Y-148796976D01*
X71221976Y-148759500D01*
X71018024Y-148759500D01*
X70817544Y-148796976D01*
X70817541Y-148796976D01*
X70817541Y-148796977D01*
X70627364Y-148870651D01*
X70627357Y-148870655D01*
X70453960Y-148978017D01*
X70453958Y-148978019D01*
X70303237Y-149115418D01*
X70180327Y-149278178D01*
X70089422Y-149460739D01*
X70089417Y-149460752D01*
X70033602Y-149656917D01*
X70014785Y-149859999D01*
X70014785Y-149860000D01*
X69200500Y-149860000D01*
X69200500Y-147320000D01*
X70014785Y-147320000D01*
X70033602Y-147523082D01*
X70089417Y-147719247D01*
X70089422Y-147719260D01*
X70180327Y-147901821D01*
X70303237Y-148064581D01*
X70453958Y-148201980D01*
X70453960Y-148201982D01*
X70553141Y-148263392D01*
X70627363Y-148309348D01*
X70817544Y-148383024D01*
X71018024Y-148420500D01*
X71018026Y-148420500D01*
X71221974Y-148420500D01*
X71221976Y-148420500D01*
X71422456Y-148383024D01*
X71612637Y-148309348D01*
X71786041Y-148201981D01*
X71936764Y-148064579D01*
X72059673Y-147901821D01*
X72150582Y-147719250D01*
X72206397Y-147523083D01*
X72225215Y-147320000D01*
X72224656Y-147313972D01*
X72206397Y-147116917D01*
X72201583Y-147099999D01*
X75594353Y-147099999D01*
X75598338Y-147127716D01*
X75599600Y-147145363D01*
X75599600Y-147172061D01*
X75600835Y-147176270D01*
X75605542Y-147202351D01*
X75605909Y-147207486D01*
X75607593Y-147212000D01*
X75614148Y-147237682D01*
X75614834Y-147242455D01*
X75626372Y-147267720D01*
X75632554Y-147284293D01*
X75640148Y-147310156D01*
X75642601Y-147313972D01*
X75654470Y-147337682D01*
X75656203Y-147342329D01*
X75656205Y-147342333D01*
X75659094Y-147346192D01*
X75672617Y-147368983D01*
X75674620Y-147373370D01*
X75674623Y-147373374D01*
X75692636Y-147394163D01*
X75703235Y-147408321D01*
X75717956Y-147431227D01*
X75738531Y-147449055D01*
X75751041Y-147461566D01*
X75768869Y-147482141D01*
X75791777Y-147496863D01*
X75805938Y-147507464D01*
X75816022Y-147516201D01*
X75826727Y-147525477D01*
X75831111Y-147527479D01*
X75853912Y-147541007D01*
X75857769Y-147543895D01*
X75862408Y-147545625D01*
X75886124Y-147557496D01*
X75889947Y-147559953D01*
X75915805Y-147567545D01*
X75932381Y-147573728D01*
X75957643Y-147585265D01*
X75962414Y-147585950D01*
X75988105Y-147592508D01*
X75992617Y-147594191D01*
X75997739Y-147594557D01*
X76023828Y-147599263D01*
X76028039Y-147600500D01*
X76060688Y-147600500D01*
X76063487Y-147600600D01*
X76064301Y-147600600D01*
X76080015Y-147600600D01*
X76084437Y-147600757D01*
X76136173Y-147604458D01*
X76139402Y-147603755D01*
X76140881Y-147603434D01*
X76167238Y-147600600D01*
X76815067Y-147600600D01*
X76882106Y-147620285D01*
X76883956Y-147621497D01*
X76950957Y-147666264D01*
X76950960Y-147666266D01*
X76950963Y-147666266D01*
X76950964Y-147666267D01*
X77024021Y-147680799D01*
X77024024Y-147680800D01*
X77024026Y-147680800D01*
X79232376Y-147680800D01*
X79232377Y-147680799D01*
X79305440Y-147666266D01*
X79388301Y-147610901D01*
X79443666Y-147528040D01*
X79458200Y-147454974D01*
X79458200Y-146745226D01*
X79458200Y-146745223D01*
X79458199Y-146745221D01*
X79443667Y-146672164D01*
X79443666Y-146672160D01*
X79438069Y-146663784D01*
X79388301Y-146589299D01*
X79388299Y-146589298D01*
X79388299Y-146589297D01*
X79308427Y-146535929D01*
X79263621Y-146482317D01*
X79254914Y-146412992D01*
X79285068Y-146349965D01*
X79333985Y-146316645D01*
X79449784Y-146273455D01*
X79449793Y-146273450D01*
X79564887Y-146187290D01*
X79564890Y-146187287D01*
X79651050Y-146072193D01*
X79651054Y-146072186D01*
X79701296Y-145937479D01*
X79701298Y-145937472D01*
X79707699Y-145877944D01*
X79707700Y-145877927D01*
X79707700Y-145749900D01*
X76548700Y-145749900D01*
X76548700Y-145877944D01*
X76555101Y-145937472D01*
X76555103Y-145937479D01*
X76605345Y-146072186D01*
X76605349Y-146072193D01*
X76691509Y-146187287D01*
X76691512Y-146187290D01*
X76806606Y-146273450D01*
X76806613Y-146273454D01*
X76922415Y-146316645D01*
X76978349Y-146358516D01*
X77002766Y-146423980D01*
X76987915Y-146492253D01*
X76947972Y-146535930D01*
X76883957Y-146578703D01*
X76817280Y-146599580D01*
X76815067Y-146599600D01*
X76181515Y-146599600D01*
X76180115Y-146599500D01*
X76171961Y-146599500D01*
X76120094Y-146599500D01*
X76115671Y-146599342D01*
X76097495Y-146598042D01*
X76063929Y-146595641D01*
X76063925Y-146595641D01*
X76059215Y-146596666D01*
X76032857Y-146599500D01*
X76028039Y-146599500D01*
X76001088Y-146607413D01*
X75983805Y-146611172D01*
X75957649Y-146614933D01*
X75957640Y-146614936D01*
X75953755Y-146616710D01*
X75928622Y-146625074D01*
X75923297Y-146626232D01*
X75923289Y-146626235D01*
X75919056Y-146628547D01*
X75894574Y-146638688D01*
X75889949Y-146640045D01*
X75889944Y-146640048D01*
X75866197Y-146655309D01*
X75850677Y-146663784D01*
X75826725Y-146674723D01*
X75826722Y-146674725D01*
X75823556Y-146677469D01*
X75801804Y-146692572D01*
X75796981Y-146695205D01*
X75796970Y-146695214D01*
X75793561Y-146698623D01*
X75772938Y-146715242D01*
X75768880Y-146717850D01*
X75768872Y-146717857D01*
X75750342Y-146739240D01*
X75737841Y-146751740D01*
X75717960Y-146768968D01*
X75717953Y-146768977D01*
X75715702Y-146772479D01*
X75699084Y-146793101D01*
X75695208Y-146796977D01*
X75695204Y-146796982D01*
X75692886Y-146801227D01*
X75677792Y-146822968D01*
X75674624Y-146826625D01*
X75662880Y-146852339D01*
X75654406Y-146867858D01*
X75640146Y-146890048D01*
X75640144Y-146890053D01*
X75638965Y-146894068D01*
X75628830Y-146918537D01*
X75626237Y-146923286D01*
X75626232Y-146923299D01*
X75625207Y-146928012D01*
X75616839Y-146953154D01*
X75614835Y-146957542D01*
X75610824Y-146985431D01*
X75607066Y-147002705D01*
X75599601Y-147028134D01*
X75599600Y-147028142D01*
X75599600Y-147032398D01*
X75596767Y-147058747D01*
X75595641Y-147063927D01*
X75595641Y-147063929D01*
X75595641Y-147063930D01*
X75595985Y-147068743D01*
X75595039Y-147095219D01*
X75594353Y-147099993D01*
X75594353Y-147099999D01*
X72201583Y-147099999D01*
X72200223Y-147095219D01*
X72150582Y-146920750D01*
X72149480Y-146918537D01*
X72075004Y-146768968D01*
X72059673Y-146738179D01*
X71963762Y-146611172D01*
X71936762Y-146575418D01*
X71786041Y-146438019D01*
X71786039Y-146438017D01*
X71612642Y-146330655D01*
X71612635Y-146330651D01*
X71464991Y-146273454D01*
X71422456Y-146256976D01*
X71221976Y-146219500D01*
X71018024Y-146219500D01*
X70817544Y-146256976D01*
X70817541Y-146256976D01*
X70817541Y-146256977D01*
X70627364Y-146330651D01*
X70627357Y-146330655D01*
X70453960Y-146438017D01*
X70453958Y-146438019D01*
X70303237Y-146575418D01*
X70180327Y-146738178D01*
X70089422Y-146920739D01*
X70089417Y-146920752D01*
X70033602Y-147116917D01*
X70014785Y-147319999D01*
X70014785Y-147320000D01*
X69200500Y-147320000D01*
X69200500Y-144780000D01*
X70014785Y-144780000D01*
X70033602Y-144983082D01*
X70089417Y-145179247D01*
X70089422Y-145179260D01*
X70180327Y-145361821D01*
X70303237Y-145524581D01*
X70453958Y-145661980D01*
X70453960Y-145661982D01*
X70553141Y-145723392D01*
X70627363Y-145769348D01*
X70817544Y-145843024D01*
X71018024Y-145880500D01*
X71018026Y-145880500D01*
X71221974Y-145880500D01*
X71221976Y-145880500D01*
X71422456Y-145843024D01*
X71612637Y-145769348D01*
X71786041Y-145661981D01*
X71936764Y-145524579D01*
X72059673Y-145361821D01*
X72115403Y-145249900D01*
X76548700Y-145249900D01*
X77878200Y-145249900D01*
X77878200Y-144669700D01*
X77000855Y-144669700D01*
X76941327Y-144676101D01*
X76941320Y-144676103D01*
X76806613Y-144726345D01*
X76806606Y-144726349D01*
X76691512Y-144812509D01*
X76691509Y-144812512D01*
X76605349Y-144927606D01*
X76605345Y-144927613D01*
X76555103Y-145062320D01*
X76555101Y-145062327D01*
X76548700Y-145121855D01*
X76548700Y-145249900D01*
X72115403Y-145249900D01*
X72150582Y-145179250D01*
X72206397Y-144983083D01*
X72225215Y-144780000D01*
X72206397Y-144576917D01*
X72150582Y-144380750D01*
X72059673Y-144198179D01*
X71936764Y-144035421D01*
X71936762Y-144035418D01*
X71786041Y-143898019D01*
X71786039Y-143898017D01*
X71612642Y-143790655D01*
X71612635Y-143790651D01*
X71517546Y-143753814D01*
X71422456Y-143716976D01*
X71221976Y-143679500D01*
X71018024Y-143679500D01*
X70817544Y-143716976D01*
X70817541Y-143716976D01*
X70817541Y-143716977D01*
X70627364Y-143790651D01*
X70627357Y-143790655D01*
X70453960Y-143898017D01*
X70453958Y-143898019D01*
X70303237Y-144035418D01*
X70180327Y-144198178D01*
X70089422Y-144380739D01*
X70089417Y-144380752D01*
X70033602Y-144576917D01*
X70014785Y-144779999D01*
X70014785Y-144780000D01*
X69200500Y-144780000D01*
X69200500Y-142240000D01*
X70014785Y-142240000D01*
X70033602Y-142443082D01*
X70089417Y-142639247D01*
X70089422Y-142639260D01*
X70180327Y-142821821D01*
X70303237Y-142984581D01*
X70453958Y-143121980D01*
X70453960Y-143121982D01*
X70553141Y-143183392D01*
X70627363Y-143229348D01*
X70817544Y-143303024D01*
X71018024Y-143340500D01*
X71018026Y-143340500D01*
X71221974Y-143340500D01*
X71221976Y-143340500D01*
X71422456Y-143303024D01*
X71612637Y-143229348D01*
X71786041Y-143121981D01*
X71936764Y-142984579D01*
X72059673Y-142821821D01*
X72150582Y-142639250D01*
X72206397Y-142443083D01*
X72225215Y-142240000D01*
X72218634Y-142168983D01*
X72206397Y-142036917D01*
X72177626Y-141935799D01*
X72150582Y-141840750D01*
X72146652Y-141832858D01*
X72106272Y-141751764D01*
X72059673Y-141658179D01*
X71978357Y-141550499D01*
X71936762Y-141495418D01*
X71786041Y-141358019D01*
X71786039Y-141358017D01*
X71612642Y-141250655D01*
X71612635Y-141250651D01*
X71517546Y-141213814D01*
X71422456Y-141176976D01*
X71221976Y-141139500D01*
X71018024Y-141139500D01*
X70817544Y-141176976D01*
X70817541Y-141176976D01*
X70817541Y-141176977D01*
X70627364Y-141250651D01*
X70627357Y-141250655D01*
X70453960Y-141358017D01*
X70453958Y-141358019D01*
X70303237Y-141495418D01*
X70180327Y-141658178D01*
X70089422Y-141840739D01*
X70089417Y-141840752D01*
X70033602Y-142036917D01*
X70014785Y-142239999D01*
X70014785Y-142240000D01*
X69200500Y-142240000D01*
X69200500Y-138057844D01*
X69770000Y-138057844D01*
X69776401Y-138117372D01*
X69776403Y-138117379D01*
X69826645Y-138252086D01*
X69826649Y-138252093D01*
X69912809Y-138367187D01*
X69912812Y-138367190D01*
X70027906Y-138453350D01*
X70027913Y-138453354D01*
X70162620Y-138503596D01*
X70162627Y-138503598D01*
X70222155Y-138509999D01*
X70222172Y-138510000D01*
X70515612Y-138510000D01*
X70582651Y-138529685D01*
X70628406Y-138582489D01*
X70638350Y-138651647D01*
X70609325Y-138715203D01*
X70580889Y-138739427D01*
X70453960Y-138818017D01*
X70453958Y-138818019D01*
X70303237Y-138955418D01*
X70180327Y-139118178D01*
X70089422Y-139300739D01*
X70089417Y-139300752D01*
X70033602Y-139496917D01*
X70014785Y-139699999D01*
X70014785Y-139700000D01*
X70033602Y-139903082D01*
X70089417Y-140099247D01*
X70089422Y-140099260D01*
X70180327Y-140281821D01*
X70303237Y-140444581D01*
X70453958Y-140581980D01*
X70453960Y-140581982D01*
X70551631Y-140642457D01*
X70627363Y-140689348D01*
X70817544Y-140763024D01*
X71018024Y-140800500D01*
X71018026Y-140800500D01*
X71221974Y-140800500D01*
X71221976Y-140800500D01*
X71422456Y-140763024D01*
X71612637Y-140689348D01*
X71786041Y-140581981D01*
X71920542Y-140459367D01*
X71936762Y-140444581D01*
X71936764Y-140444579D01*
X72059673Y-140281821D01*
X72150582Y-140099250D01*
X72206397Y-139903083D01*
X72225215Y-139700000D01*
X72225028Y-139697987D01*
X72206397Y-139496917D01*
X72192188Y-139446977D01*
X72150582Y-139300750D01*
X72146551Y-139292655D01*
X72105690Y-139210594D01*
X72059673Y-139118179D01*
X72000704Y-139040091D01*
X71936762Y-138955418D01*
X71786041Y-138818019D01*
X71786039Y-138818017D01*
X71659111Y-138739427D01*
X71612475Y-138687399D01*
X71601371Y-138618417D01*
X71629324Y-138554383D01*
X71687459Y-138515627D01*
X71724388Y-138510000D01*
X72017828Y-138510000D01*
X72017844Y-138509999D01*
X72077372Y-138503598D01*
X72077379Y-138503596D01*
X72212086Y-138453354D01*
X72212093Y-138453350D01*
X72327187Y-138367190D01*
X72327190Y-138367187D01*
X72413350Y-138252093D01*
X72413354Y-138252086D01*
X72463596Y-138117379D01*
X72463598Y-138117372D01*
X72469999Y-138057844D01*
X72470000Y-138057827D01*
X72470000Y-137410000D01*
X71553686Y-137410000D01*
X71579493Y-137369844D01*
X71620000Y-137231889D01*
X71620000Y-137088111D01*
X71579493Y-136950156D01*
X71553686Y-136910000D01*
X72470000Y-136910000D01*
X72470000Y-136547870D01*
X73624500Y-136547870D01*
X73624501Y-136547876D01*
X73630908Y-136607483D01*
X73681202Y-136742328D01*
X73681206Y-136742335D01*
X73767452Y-136857544D01*
X73767455Y-136857547D01*
X73882664Y-136943793D01*
X73882671Y-136943797D01*
X74018833Y-136994582D01*
X74074767Y-137036453D01*
X74099184Y-137101917D01*
X74099500Y-137110764D01*
X74099500Y-137405331D01*
X74098238Y-137422977D01*
X74094353Y-137449999D01*
X74094353Y-137450000D01*
X74099500Y-137485798D01*
X74099500Y-137485799D01*
X74112379Y-137575377D01*
X74114835Y-137592457D01*
X74174623Y-137723373D01*
X74268872Y-137832143D01*
X74389947Y-137909953D01*
X74389950Y-137909954D01*
X74389949Y-137909954D01*
X74528036Y-137950499D01*
X74528038Y-137950500D01*
X74528039Y-137950500D01*
X74671962Y-137950500D01*
X74671962Y-137950499D01*
X74810053Y-137909953D01*
X74931128Y-137832143D01*
X75025377Y-137723373D01*
X75085165Y-137592457D01*
X75087621Y-137575377D01*
X75100500Y-137485799D01*
X75100500Y-137485798D01*
X75105647Y-137450000D01*
X75105647Y-137449999D01*
X75101762Y-137422977D01*
X75100500Y-137405331D01*
X75100500Y-137110764D01*
X75120185Y-137043725D01*
X75172989Y-136997970D01*
X75181167Y-136994582D01*
X75260142Y-136965125D01*
X75317331Y-136943796D01*
X75432546Y-136857546D01*
X75518796Y-136742331D01*
X75569091Y-136607483D01*
X75575500Y-136547873D01*
X75575499Y-135952128D01*
X75569091Y-135892517D01*
X75559441Y-135866645D01*
X75518797Y-135757671D01*
X75518793Y-135757664D01*
X75432547Y-135642455D01*
X75432544Y-135642452D01*
X75317335Y-135556206D01*
X75317328Y-135556202D01*
X75182482Y-135505908D01*
X75182483Y-135505908D01*
X75122883Y-135499501D01*
X75122881Y-135499500D01*
X75122873Y-135499500D01*
X75122864Y-135499500D01*
X74077129Y-135499500D01*
X74077123Y-135499501D01*
X74017516Y-135505908D01*
X73882671Y-135556202D01*
X73882664Y-135556206D01*
X73767455Y-135642452D01*
X73767452Y-135642455D01*
X73681206Y-135757664D01*
X73681202Y-135757671D01*
X73631830Y-135890047D01*
X73630909Y-135892517D01*
X73624500Y-135952127D01*
X73624500Y-135952134D01*
X73624500Y-135952135D01*
X73624500Y-136547870D01*
X72470000Y-136547870D01*
X72470000Y-136262172D01*
X72469999Y-136262155D01*
X72463598Y-136202627D01*
X72463596Y-136202620D01*
X72413354Y-136067913D01*
X72413350Y-136067906D01*
X72327190Y-135952812D01*
X72327187Y-135952809D01*
X72212093Y-135866649D01*
X72212086Y-135866645D01*
X72077379Y-135816403D01*
X72077372Y-135816401D01*
X72017844Y-135810000D01*
X71370000Y-135810000D01*
X71370000Y-136724498D01*
X71262315Y-136675320D01*
X71155763Y-136660000D01*
X71084237Y-136660000D01*
X70977685Y-136675320D01*
X70870000Y-136724498D01*
X70870000Y-135810000D01*
X70222155Y-135810000D01*
X70162627Y-135816401D01*
X70162620Y-135816403D01*
X70027913Y-135866645D01*
X70027906Y-135866649D01*
X69912812Y-135952809D01*
X69912809Y-135952812D01*
X69826649Y-136067906D01*
X69826645Y-136067913D01*
X69776403Y-136202620D01*
X69776401Y-136202627D01*
X69770000Y-136262155D01*
X69770000Y-136910000D01*
X70686314Y-136910000D01*
X70660507Y-136950156D01*
X70620000Y-137088111D01*
X70620000Y-137231889D01*
X70660507Y-137369844D01*
X70686314Y-137410000D01*
X69770000Y-137410000D01*
X69770000Y-138057844D01*
X69200500Y-138057844D01*
X69200500Y-117714678D01*
X70019500Y-117714678D01*
X70034032Y-117787735D01*
X70034033Y-117787739D01*
X70046370Y-117806202D01*
X70089399Y-117870601D01*
X70172260Y-117925966D01*
X70172264Y-117925967D01*
X70245321Y-117940499D01*
X70245324Y-117940500D01*
X70245326Y-117940500D01*
X71994676Y-117940500D01*
X71994677Y-117940499D01*
X72067740Y-117925966D01*
X72150601Y-117870601D01*
X72205966Y-117787740D01*
X72220500Y-117714674D01*
X72220500Y-116840000D01*
X72554785Y-116840000D01*
X72573602Y-117043082D01*
X72629417Y-117239247D01*
X72629422Y-117239260D01*
X72720327Y-117421821D01*
X72843237Y-117584581D01*
X72993958Y-117721980D01*
X72993960Y-117721982D01*
X73093141Y-117783392D01*
X73167363Y-117829348D01*
X73357544Y-117903024D01*
X73558024Y-117940500D01*
X73558026Y-117940500D01*
X73761974Y-117940500D01*
X73761976Y-117940500D01*
X73962456Y-117903024D01*
X74152637Y-117829348D01*
X74326041Y-117721981D01*
X74476764Y-117584579D01*
X74599673Y-117421821D01*
X74690582Y-117239250D01*
X74746397Y-117043083D01*
X74765215Y-116840000D01*
X75094785Y-116840000D01*
X75113602Y-117043082D01*
X75169417Y-117239247D01*
X75169422Y-117239260D01*
X75260327Y-117421821D01*
X75383237Y-117584581D01*
X75533958Y-117721980D01*
X75533960Y-117721982D01*
X75633141Y-117783392D01*
X75707363Y-117829348D01*
X75897544Y-117903024D01*
X76098024Y-117940500D01*
X76098026Y-117940500D01*
X76301974Y-117940500D01*
X76301976Y-117940500D01*
X76502456Y-117903024D01*
X76692637Y-117829348D01*
X76866041Y-117721981D01*
X77016764Y-117584579D01*
X77139673Y-117421821D01*
X77230582Y-117239250D01*
X77286397Y-117043083D01*
X77305215Y-116840000D01*
X77298644Y-116769091D01*
X77286397Y-116636917D01*
X77271068Y-116583041D01*
X77230582Y-116440750D01*
X77139673Y-116258179D01*
X77016764Y-116095421D01*
X77016762Y-116095418D01*
X76866041Y-115958019D01*
X76866039Y-115958017D01*
X76692642Y-115850655D01*
X76692635Y-115850651D01*
X76586150Y-115809399D01*
X76502456Y-115776976D01*
X76301976Y-115739500D01*
X76098024Y-115739500D01*
X75897544Y-115776976D01*
X75897541Y-115776976D01*
X75897541Y-115776977D01*
X75707364Y-115850651D01*
X75707357Y-115850655D01*
X75533960Y-115958017D01*
X75533958Y-115958019D01*
X75383237Y-116095418D01*
X75260327Y-116258178D01*
X75169422Y-116440739D01*
X75169417Y-116440752D01*
X75113602Y-116636917D01*
X75094785Y-116839999D01*
X75094785Y-116840000D01*
X74765215Y-116840000D01*
X74758644Y-116769091D01*
X74746397Y-116636917D01*
X74731068Y-116583041D01*
X74690582Y-116440750D01*
X74599673Y-116258179D01*
X74476764Y-116095421D01*
X74476762Y-116095418D01*
X74326041Y-115958019D01*
X74326039Y-115958017D01*
X74152642Y-115850655D01*
X74152635Y-115850651D01*
X74046150Y-115809399D01*
X73962456Y-115776976D01*
X73761976Y-115739500D01*
X73558024Y-115739500D01*
X73357544Y-115776976D01*
X73357541Y-115776976D01*
X73357541Y-115776977D01*
X73167364Y-115850651D01*
X73167357Y-115850655D01*
X72993960Y-115958017D01*
X72993958Y-115958019D01*
X72843237Y-116095418D01*
X72720327Y-116258178D01*
X72629422Y-116440739D01*
X72629417Y-116440752D01*
X72573602Y-116636917D01*
X72554785Y-116839999D01*
X72554785Y-116840000D01*
X72220500Y-116840000D01*
X72220500Y-115965326D01*
X72220500Y-115965323D01*
X72220499Y-115965321D01*
X72205967Y-115892264D01*
X72205966Y-115892260D01*
X72150601Y-115809399D01*
X72067740Y-115754034D01*
X72067739Y-115754033D01*
X72067735Y-115754032D01*
X71994677Y-115739500D01*
X71994674Y-115739500D01*
X70245326Y-115739500D01*
X70245323Y-115739500D01*
X70172264Y-115754032D01*
X70172260Y-115754033D01*
X70089399Y-115809399D01*
X70034033Y-115892260D01*
X70034032Y-115892264D01*
X70019500Y-115965321D01*
X70019500Y-117714678D01*
X69200500Y-117714678D01*
X69200500Y-115074500D01*
X69220185Y-115007461D01*
X69272989Y-114961706D01*
X69324500Y-114950500D01*
X82030952Y-114950500D01*
X82097991Y-114970185D01*
G37*
%TD.AperFunction*%
%TD*%
M02*
