%TF.GenerationSoftware,KiCad,Pcbnew,7.0.9*%
%TF.CreationDate,2024-04-10T11:27:04+02:00*%
%TF.ProjectId,Test_1_PD,54657374-5f31-45f5-9044-2e6b69636164,rev?*%
%TF.SameCoordinates,Original*%
%TF.FileFunction,Copper,L3,Inr*%
%TF.FilePolarity,Positive*%
%FSLAX46Y46*%
G04 Gerber Fmt 4.6, Leading zero omitted, Abs format (unit mm)*
G04 Created by KiCad (PCBNEW 7.0.9) date 2024-04-10 11:27:04*
%MOMM*%
%LPD*%
G01*
G04 APERTURE LIST*
%TA.AperFunction,ComponentPad*%
%ADD10R,1.700000X1.700000*%
%TD*%
%TA.AperFunction,ComponentPad*%
%ADD11O,1.700000X1.700000*%
%TD*%
%TA.AperFunction,ViaPad*%
%ADD12C,0.500000*%
%TD*%
%TA.AperFunction,Conductor*%
%ADD13C,0.500000*%
%TD*%
%TA.AperFunction,Conductor*%
%ADD14C,0.300000*%
%TD*%
G04 APERTURE END LIST*
D10*
%TO.N,unconnected-(J1-Pin_1-Pad1)*%
%TO.C,J1*%
X71120000Y-116840000D03*
D11*
%TO.N,unconnected-(J1-Pin_2-Pad2)*%
X73660000Y-116840000D03*
%TO.N,GND*%
X76200000Y-116840000D03*
%TO.N,Net-(IC1-OUT)*%
X78740000Y-116840000D03*
%TD*%
D10*
%TO.N,/PODL+*%
%TO.C,J2*%
X71120000Y-137160000D03*
D11*
%TO.N,unconnected-(J2-Pin_2-Pad2)*%
X71120000Y-139700000D03*
%TO.N,unconnected-(J2-Pin_3-Pad3)*%
X71120000Y-142240000D03*
%TO.N,unconnected-(J2-Pin_4-Pad4)*%
X71120000Y-144780000D03*
%TO.N,unconnected-(J2-Pin_5-Pad5)*%
X71120000Y-147320000D03*
%TO.N,/PODL-*%
X71120000Y-149860000D03*
%TD*%
D10*
%TO.N,GND*%
%TO.C,J3*%
X91440000Y-137160000D03*
D11*
%TO.N,unconnected-(J3-Pin_2-Pad2)*%
X91440000Y-139700000D03*
%TO.N,unconnected-(J3-Pin_3-Pad3)*%
X91440000Y-142240000D03*
%TO.N,unconnected-(J3-Pin_4-Pad4)*%
X91440000Y-144780000D03*
%TO.N,unconnected-(J3-Pin_5-Pad5)*%
X91440000Y-147320000D03*
%TO.N,GND*%
X91440000Y-149860000D03*
%TD*%
D12*
%TO.N,Net-(D1-K)*%
X75300000Y-132950000D03*
X76500000Y-129200000D03*
%TO.N,Net-(D1-A)*%
X77750000Y-130900000D03*
X83300000Y-122750000D03*
X82950000Y-131550000D03*
X87800000Y-129275000D03*
X75250000Y-139750000D03*
%TO.N,Net-(D2-A)*%
X80350000Y-140500000D03*
X76450000Y-131350000D03*
X76100000Y-147100000D03*
X85500000Y-138300000D03*
X76500000Y-137150000D03*
X78800000Y-137450000D03*
X85500000Y-136350000D03*
%TO.N,GND*%
X78575000Y-133000000D03*
X89850000Y-133850000D03*
X86725000Y-139275000D03*
X79200000Y-133600000D03*
X79825000Y-135275000D03*
X78575000Y-132425000D03*
X79200000Y-133025000D03*
X78575000Y-133575000D03*
X79825000Y-133575000D03*
X79200000Y-135300000D03*
X78575000Y-134700000D03*
X86028080Y-131626757D03*
X79825000Y-134150000D03*
X79200000Y-134725000D03*
X79825000Y-134700000D03*
X78575000Y-134150000D03*
X91050000Y-129775000D03*
X71050000Y-133300000D03*
X79200000Y-134175000D03*
X79825000Y-133000000D03*
X79200000Y-132450000D03*
X91200000Y-122675000D03*
X74600000Y-137450000D03*
X78575000Y-135275000D03*
X79825000Y-132425000D03*
%TO.N,Net-(IC1-CLASSC)*%
X82136102Y-133323487D03*
X79400000Y-136550000D03*
%TO.N,Net-(IC1-SCCP)*%
X82100000Y-138050000D03*
X82100000Y-136350000D03*
%TO.N,Net-(IC1-LGATE1)*%
X82484975Y-130604975D03*
X81874265Y-134274265D03*
%TO.N,Net-(IC1-OUT)*%
X81400000Y-127600000D03*
X78750000Y-119450000D03*
%TO.N,Net-(IC1-GATE)*%
X81108170Y-131055108D03*
X82250000Y-126150000D03*
%TO.N,/PODL-*%
X86050000Y-145500000D03*
%TD*%
D13*
%TO.N,Net-(D1-K)*%
X75300000Y-130400000D02*
X76500000Y-129200000D01*
X75300000Y-132950000D02*
X75300000Y-130400000D01*
%TO.N,Net-(D1-A)*%
X82950000Y-131550000D02*
X82550000Y-131950000D01*
X77500000Y-137500000D02*
X75250000Y-139750000D01*
X77750000Y-130900000D02*
X77500000Y-131150000D01*
X82550000Y-131950000D02*
X80647918Y-131950000D01*
X80647918Y-131950000D02*
X79597918Y-130900000D01*
X77500000Y-131150000D02*
X77500000Y-137500000D01*
X83300000Y-122725000D02*
X83300000Y-122750000D01*
X83300000Y-125298000D02*
X83823000Y-125298000D01*
X79597918Y-130900000D02*
X77750000Y-130900000D01*
X83823000Y-125298000D02*
X87800000Y-129275000D01*
X83300000Y-122750000D02*
X83300000Y-125298000D01*
%TO.N,Net-(D2-A)*%
X85500000Y-138300000D02*
X85500000Y-136350000D01*
X76450000Y-137100000D02*
X76500000Y-137150000D01*
X76100000Y-144750000D02*
X80350000Y-140500000D01*
X81747918Y-135500000D02*
X84650000Y-135500000D01*
X76100000Y-147100000D02*
X76100000Y-144750000D01*
X84650000Y-135500000D02*
X85500000Y-136350000D01*
X76450000Y-131350000D02*
X76450000Y-137100000D01*
X79797918Y-137450000D02*
X81747918Y-135500000D01*
X78800000Y-137450000D02*
X79797918Y-137450000D01*
D14*
%TO.N,Net-(IC1-CLASSC)*%
X80450000Y-134850000D02*
X80450000Y-135500000D01*
X81976513Y-133323487D02*
X80450000Y-134850000D01*
X80450000Y-135500000D02*
X79400000Y-136550000D01*
X82136102Y-133323487D02*
X81976513Y-133323487D01*
D13*
%TO.N,Net-(IC1-SCCP)*%
X82100000Y-138050000D02*
X82100000Y-136350000D01*
D14*
%TO.N,Net-(IC1-LGATE1)*%
X83550000Y-131301471D02*
X82821684Y-130573155D01*
X82156945Y-134242445D02*
X83550000Y-132849390D01*
X83550000Y-132849390D02*
X83550000Y-131301471D01*
X82821684Y-130573155D02*
X82453155Y-130573155D01*
X81842445Y-134242445D02*
X82156945Y-134242445D01*
D13*
%TO.N,Net-(IC1-OUT)*%
X78750000Y-124950000D02*
X81400000Y-127600000D01*
X78750000Y-119450000D02*
X78750000Y-124950000D01*
%TO.N,Net-(IC1-GATE)*%
X82250000Y-129800000D02*
X82250000Y-129850000D01*
X81108170Y-130991830D02*
X81108170Y-131055108D01*
X82250000Y-129850000D02*
X81108170Y-130991830D01*
X82250000Y-126150000D02*
X82250000Y-129800000D01*
%TD*%
%TA.AperFunction,Conductor*%
%TO.N,/PODL-*%
G36*
X93342539Y-114970185D02*
G01*
X93388294Y-115022989D01*
X93399500Y-115074500D01*
X93399500Y-151625500D01*
X93379815Y-151692539D01*
X93327011Y-151738294D01*
X93275500Y-151749500D01*
X69324500Y-151749500D01*
X69257461Y-151729815D01*
X69211706Y-151677011D01*
X69200500Y-151625500D01*
X69200500Y-150110000D01*
X69789364Y-150110000D01*
X69846567Y-150323486D01*
X69846570Y-150323492D01*
X69946399Y-150537578D01*
X70081894Y-150731082D01*
X70248917Y-150898105D01*
X70442421Y-151033600D01*
X70656507Y-151133429D01*
X70656516Y-151133433D01*
X70870000Y-151190634D01*
X70870000Y-150295501D01*
X70977685Y-150344680D01*
X71084237Y-150360000D01*
X71155763Y-150360000D01*
X71262315Y-150344680D01*
X71370000Y-150295501D01*
X71370000Y-151190633D01*
X71583483Y-151133433D01*
X71583492Y-151133429D01*
X71797578Y-151033600D01*
X71991082Y-150898105D01*
X72158105Y-150731082D01*
X72293600Y-150537578D01*
X72393429Y-150323492D01*
X72393432Y-150323486D01*
X72450636Y-150110000D01*
X71553686Y-150110000D01*
X71579493Y-150069844D01*
X71620000Y-149931889D01*
X71620000Y-149860000D01*
X90334785Y-149860000D01*
X90353602Y-150063082D01*
X90409417Y-150259247D01*
X90409422Y-150259260D01*
X90500327Y-150441821D01*
X90623237Y-150604581D01*
X90773958Y-150741980D01*
X90773960Y-150741982D01*
X90873141Y-150803392D01*
X90947363Y-150849348D01*
X91137544Y-150923024D01*
X91338024Y-150960500D01*
X91338026Y-150960500D01*
X91541974Y-150960500D01*
X91541976Y-150960500D01*
X91742456Y-150923024D01*
X91932637Y-150849348D01*
X92106041Y-150741981D01*
X92256764Y-150604579D01*
X92379673Y-150441821D01*
X92470582Y-150259250D01*
X92526397Y-150063083D01*
X92545215Y-149860000D01*
X92526397Y-149656917D01*
X92470582Y-149460750D01*
X92379673Y-149278179D01*
X92256764Y-149115421D01*
X92256762Y-149115418D01*
X92106041Y-148978019D01*
X92106039Y-148978017D01*
X91932642Y-148870655D01*
X91932635Y-148870651D01*
X91806769Y-148821891D01*
X91742456Y-148796976D01*
X91541976Y-148759500D01*
X91338024Y-148759500D01*
X91137544Y-148796976D01*
X91137541Y-148796976D01*
X91137541Y-148796977D01*
X90947364Y-148870651D01*
X90947357Y-148870655D01*
X90773960Y-148978017D01*
X90773958Y-148978019D01*
X90623237Y-149115418D01*
X90500327Y-149278178D01*
X90409422Y-149460739D01*
X90409417Y-149460752D01*
X90353602Y-149656917D01*
X90334785Y-149859999D01*
X90334785Y-149860000D01*
X71620000Y-149860000D01*
X71620000Y-149788111D01*
X71579493Y-149650156D01*
X71553686Y-149610000D01*
X72450636Y-149610000D01*
X72450635Y-149609999D01*
X72393432Y-149396513D01*
X72393429Y-149396507D01*
X72293600Y-149182422D01*
X72293599Y-149182420D01*
X72158113Y-148988926D01*
X72158108Y-148988920D01*
X71991082Y-148821894D01*
X71797578Y-148686399D01*
X71583492Y-148586570D01*
X71583477Y-148586564D01*
X71544414Y-148576097D01*
X71484754Y-148539732D01*
X71454226Y-148476885D01*
X71462521Y-148407509D01*
X71507007Y-148353632D01*
X71531710Y-148340698D01*
X71612637Y-148309348D01*
X71786041Y-148201981D01*
X71936764Y-148064579D01*
X72059673Y-147901821D01*
X72150582Y-147719250D01*
X72206397Y-147523083D01*
X72225215Y-147320000D01*
X72206397Y-147116917D01*
X72201583Y-147099999D01*
X75594353Y-147099999D01*
X75599500Y-147135798D01*
X75614834Y-147242456D01*
X75650248Y-147320000D01*
X75674623Y-147373373D01*
X75768872Y-147482143D01*
X75889947Y-147559953D01*
X75889950Y-147559954D01*
X75889949Y-147559954D01*
X76028036Y-147600499D01*
X76028038Y-147600500D01*
X76028039Y-147600500D01*
X76171962Y-147600500D01*
X76171962Y-147600499D01*
X76310053Y-147559953D01*
X76431128Y-147482143D01*
X76525377Y-147373373D01*
X76549752Y-147320000D01*
X90334785Y-147320000D01*
X90353602Y-147523082D01*
X90409417Y-147719247D01*
X90409422Y-147719260D01*
X90500327Y-147901821D01*
X90623237Y-148064581D01*
X90773958Y-148201980D01*
X90773960Y-148201982D01*
X90873141Y-148263392D01*
X90947363Y-148309348D01*
X91137544Y-148383024D01*
X91338024Y-148420500D01*
X91338026Y-148420500D01*
X91541974Y-148420500D01*
X91541976Y-148420500D01*
X91742456Y-148383024D01*
X91932637Y-148309348D01*
X92106041Y-148201981D01*
X92256764Y-148064579D01*
X92379673Y-147901821D01*
X92470582Y-147719250D01*
X92526397Y-147523083D01*
X92545215Y-147320000D01*
X92526397Y-147116917D01*
X92470582Y-146920750D01*
X92379673Y-146738179D01*
X92256764Y-146575421D01*
X92256762Y-146575418D01*
X92106041Y-146438019D01*
X92106039Y-146438017D01*
X91932642Y-146330655D01*
X91932635Y-146330651D01*
X91837546Y-146293814D01*
X91742456Y-146256976D01*
X91541976Y-146219500D01*
X91338024Y-146219500D01*
X91137544Y-146256976D01*
X91137541Y-146256976D01*
X91137541Y-146256977D01*
X90947364Y-146330651D01*
X90947357Y-146330655D01*
X90773960Y-146438017D01*
X90773958Y-146438019D01*
X90623237Y-146575418D01*
X90500327Y-146738178D01*
X90409422Y-146920739D01*
X90409417Y-146920752D01*
X90353602Y-147116917D01*
X90334785Y-147319999D01*
X90334785Y-147320000D01*
X76549752Y-147320000D01*
X76585165Y-147242457D01*
X76600500Y-147135799D01*
X76600500Y-147135798D01*
X76605647Y-147100000D01*
X76601762Y-147072977D01*
X76600500Y-147055331D01*
X76600500Y-145008675D01*
X76620185Y-144941636D01*
X76636814Y-144920999D01*
X76777813Y-144780000D01*
X90334785Y-144780000D01*
X90353602Y-144983082D01*
X90409417Y-145179247D01*
X90409422Y-145179260D01*
X90500327Y-145361821D01*
X90623237Y-145524581D01*
X90773958Y-145661980D01*
X90773960Y-145661982D01*
X90873141Y-145723392D01*
X90947363Y-145769348D01*
X91137544Y-145843024D01*
X91338024Y-145880500D01*
X91338026Y-145880500D01*
X91541974Y-145880500D01*
X91541976Y-145880500D01*
X91742456Y-145843024D01*
X91932637Y-145769348D01*
X92106041Y-145661981D01*
X92256764Y-145524579D01*
X92379673Y-145361821D01*
X92470582Y-145179250D01*
X92526397Y-144983083D01*
X92545215Y-144780000D01*
X92526397Y-144576917D01*
X92470582Y-144380750D01*
X92462860Y-144365243D01*
X92426272Y-144291764D01*
X92379673Y-144198179D01*
X92256764Y-144035421D01*
X92256762Y-144035418D01*
X92106041Y-143898019D01*
X92106039Y-143898017D01*
X91932642Y-143790655D01*
X91932635Y-143790651D01*
X91837546Y-143753814D01*
X91742456Y-143716976D01*
X91541976Y-143679500D01*
X91338024Y-143679500D01*
X91137544Y-143716976D01*
X91137541Y-143716976D01*
X91137541Y-143716977D01*
X90947364Y-143790651D01*
X90947357Y-143790655D01*
X90773960Y-143898017D01*
X90773958Y-143898019D01*
X90623237Y-144035418D01*
X90500327Y-144198178D01*
X90409422Y-144380739D01*
X90409417Y-144380752D01*
X90353602Y-144576917D01*
X90334785Y-144779999D01*
X90334785Y-144780000D01*
X76777813Y-144780000D01*
X79317812Y-142240000D01*
X90334785Y-142240000D01*
X90353602Y-142443082D01*
X90409417Y-142639247D01*
X90409422Y-142639260D01*
X90500327Y-142821821D01*
X90623237Y-142984581D01*
X90773958Y-143121980D01*
X90773960Y-143121982D01*
X90873141Y-143183392D01*
X90947363Y-143229348D01*
X91137544Y-143303024D01*
X91338024Y-143340500D01*
X91338026Y-143340500D01*
X91541974Y-143340500D01*
X91541976Y-143340500D01*
X91742456Y-143303024D01*
X91932637Y-143229348D01*
X92106041Y-143121981D01*
X92256764Y-142984579D01*
X92379673Y-142821821D01*
X92470582Y-142639250D01*
X92526397Y-142443083D01*
X92545215Y-142240000D01*
X92526397Y-142036917D01*
X92470582Y-141840750D01*
X92379673Y-141658179D01*
X92256764Y-141495421D01*
X92256762Y-141495418D01*
X92106041Y-141358019D01*
X92106039Y-141358017D01*
X91932642Y-141250655D01*
X91932635Y-141250651D01*
X91837546Y-141213814D01*
X91742456Y-141176976D01*
X91541976Y-141139500D01*
X91338024Y-141139500D01*
X91137544Y-141176976D01*
X91137541Y-141176976D01*
X91137541Y-141176977D01*
X90947364Y-141250651D01*
X90947357Y-141250655D01*
X90773960Y-141358017D01*
X90773958Y-141358019D01*
X90623237Y-141495418D01*
X90500327Y-141658178D01*
X90409422Y-141840739D01*
X90409417Y-141840752D01*
X90353602Y-142036917D01*
X90334785Y-142239999D01*
X90334785Y-142240000D01*
X79317812Y-142240000D01*
X80656431Y-140901381D01*
X80677068Y-140884751D01*
X80681128Y-140882143D01*
X80715109Y-140842925D01*
X80718092Y-140839720D01*
X80729221Y-140828593D01*
X80738637Y-140816014D01*
X80741417Y-140812564D01*
X80775377Y-140773373D01*
X80777375Y-140768995D01*
X80790907Y-140746189D01*
X80793796Y-140742331D01*
X80811922Y-140693728D01*
X80813614Y-140689645D01*
X80813750Y-140689348D01*
X80835165Y-140642457D01*
X80835850Y-140637685D01*
X80842409Y-140611992D01*
X80844091Y-140607483D01*
X80847791Y-140555736D01*
X80848260Y-140551369D01*
X80855647Y-140500000D01*
X80854961Y-140495234D01*
X80854015Y-140468729D01*
X80854359Y-140463927D01*
X80843330Y-140413234D01*
X80842547Y-140408895D01*
X80835165Y-140357543D01*
X80833162Y-140353158D01*
X80824788Y-140327995D01*
X80823765Y-140323291D01*
X80798904Y-140277763D01*
X80796921Y-140273802D01*
X80775378Y-140226629D01*
X80775376Y-140226626D01*
X80772218Y-140222981D01*
X80757103Y-140201210D01*
X80754791Y-140196977D01*
X80718111Y-140160297D01*
X80715100Y-140157063D01*
X80681128Y-140117857D01*
X80681125Y-140117854D01*
X80677066Y-140115246D01*
X80656428Y-140098614D01*
X80653023Y-140095209D01*
X80607493Y-140070347D01*
X80603688Y-140068089D01*
X80585194Y-140056204D01*
X80560053Y-140040047D01*
X80555420Y-140038686D01*
X80530939Y-140028545D01*
X80526706Y-140026234D01*
X80526704Y-140026233D01*
X80526703Y-140026233D01*
X80495368Y-140019416D01*
X80476008Y-140015204D01*
X80471727Y-140014111D01*
X80421961Y-139999500D01*
X80417143Y-139999500D01*
X80390785Y-139996666D01*
X80386074Y-139995641D01*
X80386070Y-139995641D01*
X80347552Y-139998396D01*
X80334328Y-139999342D01*
X80329906Y-139999500D01*
X80278036Y-139999500D01*
X80273412Y-140000858D01*
X80247330Y-140005564D01*
X80242517Y-140005909D01*
X80242514Y-140005909D01*
X80242514Y-140005910D01*
X80193916Y-140024035D01*
X80189717Y-140025432D01*
X80139947Y-140040046D01*
X80139942Y-140040049D01*
X80135882Y-140042658D01*
X80112194Y-140054516D01*
X80107669Y-140056204D01*
X80066147Y-140087285D01*
X80062513Y-140089809D01*
X80018877Y-140117853D01*
X80018871Y-140117858D01*
X79984898Y-140157063D01*
X79981882Y-140160303D01*
X75793568Y-144348616D01*
X75772938Y-144365243D01*
X75768876Y-144367854D01*
X75768867Y-144367861D01*
X75734905Y-144407055D01*
X75731892Y-144410291D01*
X75720781Y-144421402D01*
X75711354Y-144433996D01*
X75708587Y-144437428D01*
X75695375Y-144452676D01*
X75674623Y-144476626D01*
X75674617Y-144476636D01*
X75672615Y-144481020D01*
X75659100Y-144503799D01*
X75656206Y-144507664D01*
X75656200Y-144507675D01*
X75638078Y-144556264D01*
X75636385Y-144560353D01*
X75614835Y-144607543D01*
X75614833Y-144607550D01*
X75614146Y-144612327D01*
X75607598Y-144637986D01*
X75605910Y-144642513D01*
X75605909Y-144642517D01*
X75602207Y-144694260D01*
X75601734Y-144698656D01*
X75599500Y-144714199D01*
X75599500Y-144729904D01*
X75599342Y-144734329D01*
X75595641Y-144786069D01*
X75595641Y-144786073D01*
X75596666Y-144790785D01*
X75599500Y-144817143D01*
X75599500Y-147055331D01*
X75598238Y-147072977D01*
X75594353Y-147099999D01*
X72201583Y-147099999D01*
X72150582Y-146920750D01*
X72059673Y-146738179D01*
X71936764Y-146575421D01*
X71936762Y-146575418D01*
X71786041Y-146438019D01*
X71786039Y-146438017D01*
X71612642Y-146330655D01*
X71612635Y-146330651D01*
X71517546Y-146293814D01*
X71422456Y-146256976D01*
X71221976Y-146219500D01*
X71018024Y-146219500D01*
X70817544Y-146256976D01*
X70817541Y-146256976D01*
X70817541Y-146256977D01*
X70627364Y-146330651D01*
X70627357Y-146330655D01*
X70453960Y-146438017D01*
X70453958Y-146438019D01*
X70303237Y-146575418D01*
X70180327Y-146738178D01*
X70089422Y-146920739D01*
X70089417Y-146920752D01*
X70033602Y-147116917D01*
X70014785Y-147319999D01*
X70014785Y-147320000D01*
X70033602Y-147523082D01*
X70089417Y-147719247D01*
X70089422Y-147719260D01*
X70180327Y-147901821D01*
X70303237Y-148064581D01*
X70453958Y-148201980D01*
X70453960Y-148201982D01*
X70553141Y-148263392D01*
X70627363Y-148309348D01*
X70708283Y-148340696D01*
X70763685Y-148383269D01*
X70787276Y-148449035D01*
X70771565Y-148517116D01*
X70721542Y-148565895D01*
X70695586Y-148576097D01*
X70656519Y-148586565D01*
X70656507Y-148586570D01*
X70442422Y-148686399D01*
X70442420Y-148686400D01*
X70248926Y-148821886D01*
X70248920Y-148821891D01*
X70081891Y-148988920D01*
X70081886Y-148988926D01*
X69946400Y-149182420D01*
X69946399Y-149182422D01*
X69846570Y-149396507D01*
X69846567Y-149396513D01*
X69789364Y-149609999D01*
X69789364Y-149610000D01*
X70686314Y-149610000D01*
X70660507Y-149650156D01*
X70620000Y-149788111D01*
X70620000Y-149931889D01*
X70660507Y-150069844D01*
X70686314Y-150110000D01*
X69789364Y-150110000D01*
X69200500Y-150110000D01*
X69200500Y-144780000D01*
X70014785Y-144780000D01*
X70033602Y-144983082D01*
X70089417Y-145179247D01*
X70089422Y-145179260D01*
X70180327Y-145361821D01*
X70303237Y-145524581D01*
X70453958Y-145661980D01*
X70453960Y-145661982D01*
X70553141Y-145723392D01*
X70627363Y-145769348D01*
X70817544Y-145843024D01*
X71018024Y-145880500D01*
X71018026Y-145880500D01*
X71221974Y-145880500D01*
X71221976Y-145880500D01*
X71422456Y-145843024D01*
X71612637Y-145769348D01*
X71786041Y-145661981D01*
X71936764Y-145524579D01*
X72059673Y-145361821D01*
X72150582Y-145179250D01*
X72206397Y-144983083D01*
X72225215Y-144780000D01*
X72206397Y-144576917D01*
X72150582Y-144380750D01*
X72142860Y-144365243D01*
X72106272Y-144291764D01*
X72059673Y-144198179D01*
X71936764Y-144035421D01*
X71936762Y-144035418D01*
X71786041Y-143898019D01*
X71786039Y-143898017D01*
X71612642Y-143790655D01*
X71612635Y-143790651D01*
X71517546Y-143753814D01*
X71422456Y-143716976D01*
X71221976Y-143679500D01*
X71018024Y-143679500D01*
X70817544Y-143716976D01*
X70817541Y-143716976D01*
X70817541Y-143716977D01*
X70627364Y-143790651D01*
X70627357Y-143790655D01*
X70453960Y-143898017D01*
X70453958Y-143898019D01*
X70303237Y-144035418D01*
X70180327Y-144198178D01*
X70089422Y-144380739D01*
X70089417Y-144380752D01*
X70033602Y-144576917D01*
X70014785Y-144779999D01*
X70014785Y-144780000D01*
X69200500Y-144780000D01*
X69200500Y-142240000D01*
X70014785Y-142240000D01*
X70033602Y-142443082D01*
X70089417Y-142639247D01*
X70089422Y-142639260D01*
X70180327Y-142821821D01*
X70303237Y-142984581D01*
X70453958Y-143121980D01*
X70453960Y-143121982D01*
X70553141Y-143183392D01*
X70627363Y-143229348D01*
X70817544Y-143303024D01*
X71018024Y-143340500D01*
X71018026Y-143340500D01*
X71221974Y-143340500D01*
X71221976Y-143340500D01*
X71422456Y-143303024D01*
X71612637Y-143229348D01*
X71786041Y-143121981D01*
X71936764Y-142984579D01*
X72059673Y-142821821D01*
X72150582Y-142639250D01*
X72206397Y-142443083D01*
X72225215Y-142240000D01*
X72206397Y-142036917D01*
X72150582Y-141840750D01*
X72059673Y-141658179D01*
X71936764Y-141495421D01*
X71936762Y-141495418D01*
X71786041Y-141358019D01*
X71786039Y-141358017D01*
X71612642Y-141250655D01*
X71612635Y-141250651D01*
X71517546Y-141213814D01*
X71422456Y-141176976D01*
X71221976Y-141139500D01*
X71018024Y-141139500D01*
X70817544Y-141176976D01*
X70817541Y-141176976D01*
X70817541Y-141176977D01*
X70627364Y-141250651D01*
X70627357Y-141250655D01*
X70453960Y-141358017D01*
X70453958Y-141358019D01*
X70303237Y-141495418D01*
X70180327Y-141658178D01*
X70089422Y-141840739D01*
X70089417Y-141840752D01*
X70033602Y-142036917D01*
X70014785Y-142239999D01*
X70014785Y-142240000D01*
X69200500Y-142240000D01*
X69200500Y-139700000D01*
X70014785Y-139700000D01*
X70033602Y-139903082D01*
X70089417Y-140099247D01*
X70089422Y-140099260D01*
X70180327Y-140281821D01*
X70303237Y-140444581D01*
X70453958Y-140581980D01*
X70453960Y-140581982D01*
X70522610Y-140624488D01*
X70627363Y-140689348D01*
X70817544Y-140763024D01*
X71018024Y-140800500D01*
X71018026Y-140800500D01*
X71221974Y-140800500D01*
X71221976Y-140800500D01*
X71422456Y-140763024D01*
X71612637Y-140689348D01*
X71786041Y-140581981D01*
X71936764Y-140444579D01*
X72059673Y-140281821D01*
X72150582Y-140099250D01*
X72206397Y-139903083D01*
X72220582Y-139750003D01*
X74744353Y-139750003D01*
X74745039Y-139754777D01*
X74745985Y-139781255D01*
X74745641Y-139786068D01*
X74745641Y-139786073D01*
X74756666Y-139836753D01*
X74757452Y-139841110D01*
X74764834Y-139892453D01*
X74764836Y-139892461D01*
X74766837Y-139896842D01*
X74775208Y-139921990D01*
X74776233Y-139926705D01*
X74776234Y-139926707D01*
X74801095Y-139972236D01*
X74803076Y-139976193D01*
X74824622Y-140023371D01*
X74824624Y-140023374D01*
X74827781Y-140027018D01*
X74842890Y-140048778D01*
X74845206Y-140053019D01*
X74845207Y-140053020D01*
X74845209Y-140053023D01*
X74881901Y-140089715D01*
X74884896Y-140092932D01*
X74890379Y-140099260D01*
X74918871Y-140132142D01*
X74918874Y-140132145D01*
X74922928Y-140134750D01*
X74943571Y-140151385D01*
X74946977Y-140154791D01*
X74961474Y-140162707D01*
X74992503Y-140179651D01*
X74996308Y-140181909D01*
X75024676Y-140200139D01*
X75039947Y-140209953D01*
X75044566Y-140211309D01*
X75069064Y-140221456D01*
X75073294Y-140223766D01*
X75123998Y-140234796D01*
X75128262Y-140235884D01*
X75156205Y-140244089D01*
X75178038Y-140250500D01*
X75178039Y-140250500D01*
X75182857Y-140250500D01*
X75209215Y-140253334D01*
X75213927Y-140254359D01*
X75265671Y-140250657D01*
X75270094Y-140250500D01*
X75321960Y-140250500D01*
X75321961Y-140250500D01*
X75326573Y-140249145D01*
X75352678Y-140244434D01*
X75357483Y-140244091D01*
X75406105Y-140225954D01*
X75410261Y-140224571D01*
X75460053Y-140209953D01*
X75464110Y-140207345D01*
X75487821Y-140195478D01*
X75492328Y-140193797D01*
X75492327Y-140193797D01*
X75492331Y-140193796D01*
X75533860Y-140162706D01*
X75537481Y-140160192D01*
X75581128Y-140132143D01*
X75615115Y-140092917D01*
X75618098Y-140089714D01*
X76432812Y-139275000D01*
X86219353Y-139275000D01*
X86239834Y-139417456D01*
X86299622Y-139548371D01*
X86299623Y-139548373D01*
X86393872Y-139657143D01*
X86514947Y-139734953D01*
X86514950Y-139734954D01*
X86514949Y-139734954D01*
X86653036Y-139775499D01*
X86653038Y-139775500D01*
X86653039Y-139775500D01*
X86796962Y-139775500D01*
X86796962Y-139775499D01*
X86935053Y-139734953D01*
X86989441Y-139700000D01*
X90334785Y-139700000D01*
X90353602Y-139903082D01*
X90409417Y-140099247D01*
X90409422Y-140099260D01*
X90500327Y-140281821D01*
X90623237Y-140444581D01*
X90773958Y-140581980D01*
X90773960Y-140581982D01*
X90842610Y-140624488D01*
X90947363Y-140689348D01*
X91137544Y-140763024D01*
X91338024Y-140800500D01*
X91338026Y-140800500D01*
X91541974Y-140800500D01*
X91541976Y-140800500D01*
X91742456Y-140763024D01*
X91932637Y-140689348D01*
X92106041Y-140581981D01*
X92256764Y-140444579D01*
X92379673Y-140281821D01*
X92470582Y-140099250D01*
X92526397Y-139903083D01*
X92545215Y-139700000D01*
X92539888Y-139642516D01*
X92526397Y-139496917D01*
X92520624Y-139476626D01*
X92470582Y-139300750D01*
X92379673Y-139118179D01*
X92256764Y-138955421D01*
X92256762Y-138955418D01*
X92106041Y-138818019D01*
X92106039Y-138818017D01*
X91932642Y-138710655D01*
X91932635Y-138710651D01*
X91837546Y-138673814D01*
X91742456Y-138636976D01*
X91541976Y-138599500D01*
X91338024Y-138599500D01*
X91137544Y-138636976D01*
X91137541Y-138636976D01*
X91137541Y-138636977D01*
X90947364Y-138710651D01*
X90947357Y-138710655D01*
X90773960Y-138818017D01*
X90773958Y-138818019D01*
X90623237Y-138955418D01*
X90500327Y-139118178D01*
X90409422Y-139300739D01*
X90409417Y-139300752D01*
X90353602Y-139496917D01*
X90334785Y-139699999D01*
X90334785Y-139700000D01*
X86989441Y-139700000D01*
X87056128Y-139657143D01*
X87150377Y-139548373D01*
X87210165Y-139417457D01*
X87230647Y-139275000D01*
X87210165Y-139132543D01*
X87150377Y-139001627D01*
X87056128Y-138892857D01*
X86935053Y-138815047D01*
X86935051Y-138815046D01*
X86935049Y-138815045D01*
X86935050Y-138815045D01*
X86796963Y-138774500D01*
X86796961Y-138774500D01*
X86653039Y-138774500D01*
X86653036Y-138774500D01*
X86514949Y-138815045D01*
X86393873Y-138892856D01*
X86299623Y-139001626D01*
X86299622Y-139001628D01*
X86239834Y-139132543D01*
X86219353Y-139275000D01*
X76432812Y-139275000D01*
X77806431Y-137901381D01*
X77827068Y-137884751D01*
X77831128Y-137882143D01*
X77865109Y-137842925D01*
X77868092Y-137839720D01*
X77879221Y-137828593D01*
X77887069Y-137818108D01*
X77888637Y-137816014D01*
X77891417Y-137812564D01*
X77903165Y-137799006D01*
X77925377Y-137773373D01*
X77927375Y-137768995D01*
X77940907Y-137746189D01*
X77943796Y-137742331D01*
X77961922Y-137693728D01*
X77963614Y-137689645D01*
X77966640Y-137683019D01*
X77985165Y-137642457D01*
X77985850Y-137637685D01*
X77992409Y-137611992D01*
X77994091Y-137607483D01*
X77997791Y-137555740D01*
X77998265Y-137551340D01*
X78000500Y-137535799D01*
X78000500Y-137520094D01*
X78000658Y-137515669D01*
X78002160Y-137494667D01*
X78004359Y-137463927D01*
X78003332Y-137459206D01*
X78000500Y-137432858D01*
X78000500Y-135708733D01*
X78020185Y-135641694D01*
X78072989Y-135595939D01*
X78142147Y-135585995D01*
X78205703Y-135615020D01*
X78218208Y-135627525D01*
X78243872Y-135657143D01*
X78364947Y-135734953D01*
X78364950Y-135734954D01*
X78364949Y-135734954D01*
X78503036Y-135775499D01*
X78503038Y-135775500D01*
X78503039Y-135775500D01*
X78646962Y-135775500D01*
X78646962Y-135775499D01*
X78785053Y-135734953D01*
X78801009Y-135724698D01*
X78868046Y-135705013D01*
X78935086Y-135724696D01*
X78935088Y-135724698D01*
X78989944Y-135759952D01*
X78989949Y-135759954D01*
X79128036Y-135800499D01*
X79128038Y-135800500D01*
X79280830Y-135800500D01*
X79280830Y-135803323D01*
X79335727Y-135811207D01*
X79388538Y-135856953D01*
X79408234Y-135923989D01*
X79388561Y-135991032D01*
X79371915Y-136011691D01*
X79359009Y-136024597D01*
X79306263Y-136055893D01*
X79189949Y-136090045D01*
X79068873Y-136167856D01*
X78974623Y-136276626D01*
X78974622Y-136276628D01*
X78914834Y-136407543D01*
X78894353Y-136550000D01*
X78914834Y-136692457D01*
X78914835Y-136692458D01*
X78952069Y-136773989D01*
X78962013Y-136843147D01*
X78932988Y-136906703D01*
X78874210Y-136944477D01*
X78839275Y-136949500D01*
X78728039Y-136949500D01*
X78728036Y-136949500D01*
X78728034Y-136949501D01*
X78701842Y-136957190D01*
X78684568Y-136960948D01*
X78657544Y-136964834D01*
X78657541Y-136964835D01*
X78632710Y-136976175D01*
X78616141Y-136982355D01*
X78603171Y-136986163D01*
X78589947Y-136990047D01*
X78589945Y-136990047D01*
X78589945Y-136990048D01*
X78566982Y-137004805D01*
X78551461Y-137013280D01*
X78526628Y-137024621D01*
X78526625Y-137024623D01*
X78506000Y-137042495D01*
X78491840Y-137053095D01*
X78468876Y-137067853D01*
X78468871Y-137067857D01*
X78450993Y-137088489D01*
X78438489Y-137100993D01*
X78417857Y-137118871D01*
X78417853Y-137118876D01*
X78403095Y-137141840D01*
X78392495Y-137156000D01*
X78374623Y-137176625D01*
X78374621Y-137176628D01*
X78363280Y-137201461D01*
X78354805Y-137216982D01*
X78340047Y-137239946D01*
X78332355Y-137266141D01*
X78326175Y-137282711D01*
X78314835Y-137307543D01*
X78310949Y-137334568D01*
X78307189Y-137351851D01*
X78299500Y-137378039D01*
X78299500Y-137405331D01*
X78298238Y-137422977D01*
X78295368Y-137442942D01*
X78294353Y-137450000D01*
X78296356Y-137463930D01*
X78298238Y-137477020D01*
X78299500Y-137494667D01*
X78299500Y-137521964D01*
X78307188Y-137548148D01*
X78310949Y-137565432D01*
X78314835Y-137592457D01*
X78314835Y-137592459D01*
X78326172Y-137617282D01*
X78332355Y-137633858D01*
X78340046Y-137660051D01*
X78340047Y-137660053D01*
X78354806Y-137683019D01*
X78363282Y-137698541D01*
X78374623Y-137723373D01*
X78386437Y-137737007D01*
X78392496Y-137744000D01*
X78403095Y-137758160D01*
X78417853Y-137781123D01*
X78417857Y-137781128D01*
X78438488Y-137799006D01*
X78450992Y-137811510D01*
X78465793Y-137828590D01*
X78468872Y-137832143D01*
X78491844Y-137846905D01*
X78505996Y-137857500D01*
X78526627Y-137875377D01*
X78543135Y-137882916D01*
X78551451Y-137886714D01*
X78566978Y-137895192D01*
X78589947Y-137909953D01*
X78616136Y-137917643D01*
X78632713Y-137923826D01*
X78657538Y-137935163D01*
X78657539Y-137935163D01*
X78657543Y-137935165D01*
X78684564Y-137939050D01*
X78701846Y-137942809D01*
X78728039Y-137950500D01*
X78764201Y-137950500D01*
X79730775Y-137950500D01*
X79757133Y-137953334D01*
X79761845Y-137954359D01*
X79813589Y-137950657D01*
X79818012Y-137950500D01*
X79833717Y-137950500D01*
X79849260Y-137948264D01*
X79853658Y-137947791D01*
X79905401Y-137944091D01*
X79909910Y-137942408D01*
X79935603Y-137935850D01*
X79940375Y-137935165D01*
X79987564Y-137913613D01*
X79991646Y-137911922D01*
X80020556Y-137901140D01*
X80040247Y-137893797D01*
X80040247Y-137893796D01*
X80040249Y-137893796D01*
X80044107Y-137890907D01*
X80066913Y-137877375D01*
X80071291Y-137875377D01*
X80110482Y-137841416D01*
X80113932Y-137838637D01*
X80116848Y-137836453D01*
X80126511Y-137829221D01*
X80137638Y-137818092D01*
X80140843Y-137815109D01*
X80180061Y-137781128D01*
X80182669Y-137777068D01*
X80199299Y-137756431D01*
X81387819Y-136567912D01*
X81449142Y-136534427D01*
X81518834Y-136539411D01*
X81574767Y-136581283D01*
X81599184Y-136646747D01*
X81599500Y-136655593D01*
X81599500Y-138005331D01*
X81598238Y-138022977D01*
X81594353Y-138049999D01*
X81599500Y-138085798D01*
X81614834Y-138192456D01*
X81663948Y-138299999D01*
X81674623Y-138323373D01*
X81768872Y-138432143D01*
X81889947Y-138509953D01*
X81889950Y-138509954D01*
X81889949Y-138509954D01*
X82028036Y-138550499D01*
X82028038Y-138550500D01*
X82028039Y-138550500D01*
X82171962Y-138550500D01*
X82171962Y-138550499D01*
X82310053Y-138509953D01*
X82431128Y-138432143D01*
X82525377Y-138323373D01*
X82585165Y-138192457D01*
X82600500Y-138085799D01*
X82600500Y-138085798D01*
X82605647Y-138050000D01*
X82601762Y-138022977D01*
X82600500Y-138005331D01*
X82600500Y-136394667D01*
X82601762Y-136377020D01*
X82605647Y-136350000D01*
X82585165Y-136207543D01*
X82570764Y-136176011D01*
X82560821Y-136106853D01*
X82589846Y-136043298D01*
X82648624Y-136005523D01*
X82683559Y-136000500D01*
X84391324Y-136000500D01*
X84458363Y-136020185D01*
X84479005Y-136036819D01*
X84963181Y-136520995D01*
X84996666Y-136582318D01*
X84999500Y-136608676D01*
X84999500Y-138255331D01*
X84998238Y-138272977D01*
X84994353Y-138299999D01*
X84999500Y-138335798D01*
X85014834Y-138442456D01*
X85045660Y-138509954D01*
X85074623Y-138573373D01*
X85168872Y-138682143D01*
X85289947Y-138759953D01*
X85289950Y-138759954D01*
X85289949Y-138759954D01*
X85428036Y-138800499D01*
X85428038Y-138800500D01*
X85428039Y-138800500D01*
X85571962Y-138800500D01*
X85571962Y-138800499D01*
X85710053Y-138759953D01*
X85831128Y-138682143D01*
X85925377Y-138573373D01*
X85985165Y-138442457D01*
X86000500Y-138335799D01*
X86000500Y-138335798D01*
X86005647Y-138300000D01*
X86001762Y-138272977D01*
X86000500Y-138255331D01*
X86000500Y-138034678D01*
X90339500Y-138034678D01*
X90354032Y-138107735D01*
X90354033Y-138107739D01*
X90354034Y-138107740D01*
X90409399Y-138190601D01*
X90492260Y-138245966D01*
X90492264Y-138245967D01*
X90565321Y-138260499D01*
X90565324Y-138260500D01*
X90565326Y-138260500D01*
X92314676Y-138260500D01*
X92314677Y-138260499D01*
X92387740Y-138245966D01*
X92470601Y-138190601D01*
X92525966Y-138107740D01*
X92540500Y-138034674D01*
X92540500Y-136285326D01*
X92540500Y-136285323D01*
X92540499Y-136285321D01*
X92525967Y-136212264D01*
X92525966Y-136212260D01*
X92496297Y-136167857D01*
X92470601Y-136129399D01*
X92387740Y-136074034D01*
X92387739Y-136074033D01*
X92387735Y-136074032D01*
X92314677Y-136059500D01*
X92314674Y-136059500D01*
X90565326Y-136059500D01*
X90565323Y-136059500D01*
X90492264Y-136074032D01*
X90492260Y-136074033D01*
X90409399Y-136129399D01*
X90354033Y-136212260D01*
X90354032Y-136212264D01*
X90339500Y-136285321D01*
X90339500Y-138034678D01*
X86000500Y-138034678D01*
X86000500Y-136417144D01*
X86003334Y-136390783D01*
X86004359Y-136386073D01*
X86004015Y-136381266D01*
X86004962Y-136354762D01*
X86005647Y-136350000D01*
X85998261Y-136298635D01*
X85997791Y-136294262D01*
X85994091Y-136242517D01*
X85992407Y-136238002D01*
X85985850Y-136212312D01*
X85985165Y-136207543D01*
X85963612Y-136160351D01*
X85961932Y-136156295D01*
X85943796Y-136107669D01*
X85940905Y-136103807D01*
X85927379Y-136081010D01*
X85925377Y-136076627D01*
X85917856Y-136067947D01*
X85891411Y-136037427D01*
X85888633Y-136033979D01*
X85879229Y-136021417D01*
X85879224Y-136021412D01*
X85879221Y-136021407D01*
X85868097Y-136010283D01*
X85865103Y-136007067D01*
X85831128Y-135967857D01*
X85831125Y-135967854D01*
X85827066Y-135965246D01*
X85806428Y-135948614D01*
X85051385Y-135193571D01*
X85034750Y-135172928D01*
X85032145Y-135168874D01*
X85032142Y-135168871D01*
X85025147Y-135162810D01*
X84992932Y-135134896D01*
X84989700Y-135131886D01*
X84978596Y-135120782D01*
X84978588Y-135120775D01*
X84972200Y-135115993D01*
X84966008Y-135111358D01*
X84962581Y-135108597D01*
X84923373Y-135074623D01*
X84923371Y-135074622D01*
X84923367Y-135074619D01*
X84918983Y-135072617D01*
X84896194Y-135059096D01*
X84892331Y-135056204D01*
X84892329Y-135056203D01*
X84843716Y-135038071D01*
X84839642Y-135036383D01*
X84792457Y-135014835D01*
X84792455Y-135014834D01*
X84787682Y-135014148D01*
X84762000Y-135007593D01*
X84757485Y-135005909D01*
X84705740Y-135002207D01*
X84701343Y-135001734D01*
X84685799Y-134999500D01*
X84670094Y-134999500D01*
X84665671Y-134999342D01*
X84648083Y-134998084D01*
X84613929Y-134995641D01*
X84613925Y-134995641D01*
X84609215Y-134996666D01*
X84582857Y-134999500D01*
X82043289Y-134999500D01*
X81976250Y-134979815D01*
X81930495Y-134927011D01*
X81920551Y-134857853D01*
X81949576Y-134794297D01*
X82008354Y-134756523D01*
X82008355Y-134756523D01*
X82084315Y-134734219D01*
X82084315Y-134734218D01*
X82084318Y-134734218D01*
X82205393Y-134656408D01*
X82205393Y-134656407D01*
X82212854Y-134651613D01*
X82214305Y-134653871D01*
X82263207Y-134631106D01*
X82282249Y-134628091D01*
X82301989Y-134618031D01*
X82319956Y-134610589D01*
X82341035Y-134603741D01*
X82358971Y-134590708D01*
X82375533Y-134580559D01*
X82395287Y-134570495D01*
X82410779Y-134555002D01*
X82410786Y-134554997D01*
X82769787Y-134195996D01*
X83115783Y-133850000D01*
X89344353Y-133850000D01*
X89364834Y-133992456D01*
X89424622Y-134123371D01*
X89424623Y-134123373D01*
X89518872Y-134232143D01*
X89639947Y-134309953D01*
X89639950Y-134309954D01*
X89639949Y-134309954D01*
X89778036Y-134350499D01*
X89778038Y-134350500D01*
X89778039Y-134350500D01*
X89921962Y-134350500D01*
X89921962Y-134350499D01*
X90060053Y-134309953D01*
X90181128Y-134232143D01*
X90275377Y-134123373D01*
X90335165Y-133992457D01*
X90355647Y-133850000D01*
X90335165Y-133707543D01*
X90275377Y-133576627D01*
X90181128Y-133467857D01*
X90060053Y-133390047D01*
X90060051Y-133390046D01*
X90060049Y-133390045D01*
X90060050Y-133390045D01*
X89921963Y-133349500D01*
X89921961Y-133349500D01*
X89778039Y-133349500D01*
X89778036Y-133349500D01*
X89639949Y-133390045D01*
X89518873Y-133467856D01*
X89424623Y-133576626D01*
X89424622Y-133576628D01*
X89364834Y-133707543D01*
X89344353Y-133850000D01*
X83115783Y-133850000D01*
X83855483Y-133110299D01*
X83878050Y-133087732D01*
X83888109Y-133067987D01*
X83898271Y-133051404D01*
X83911296Y-133033480D01*
X83918141Y-133012412D01*
X83925586Y-132994435D01*
X83935646Y-132974694D01*
X83939112Y-132952805D01*
X83943652Y-132933891D01*
X83950499Y-132912823D01*
X83950499Y-132883466D01*
X83950500Y-132883441D01*
X83950500Y-131626757D01*
X85522433Y-131626757D01*
X85542914Y-131769213D01*
X85589428Y-131871063D01*
X85602703Y-131900130D01*
X85696952Y-132008900D01*
X85818027Y-132086710D01*
X85818030Y-132086711D01*
X85818029Y-132086711D01*
X85956116Y-132127256D01*
X85956118Y-132127257D01*
X85956119Y-132127257D01*
X86100042Y-132127257D01*
X86100042Y-132127256D01*
X86238133Y-132086710D01*
X86359208Y-132008900D01*
X86453457Y-131900130D01*
X86513245Y-131769214D01*
X86533727Y-131626757D01*
X86513245Y-131484300D01*
X86453457Y-131353384D01*
X86359208Y-131244614D01*
X86238133Y-131166804D01*
X86238131Y-131166803D01*
X86238129Y-131166802D01*
X86238130Y-131166802D01*
X86100043Y-131126257D01*
X86100041Y-131126257D01*
X85956119Y-131126257D01*
X85956116Y-131126257D01*
X85818029Y-131166802D01*
X85696953Y-131244613D01*
X85602703Y-131353383D01*
X85602702Y-131353385D01*
X85542914Y-131484300D01*
X85522433Y-131626757D01*
X83950500Y-131626757D01*
X83950500Y-131267630D01*
X83950499Y-131267600D01*
X83950499Y-131238039D01*
X83950499Y-131238038D01*
X83943653Y-131216972D01*
X83939111Y-131198051D01*
X83939034Y-131197565D01*
X83935646Y-131176167D01*
X83925586Y-131156423D01*
X83918140Y-131138445D01*
X83911297Y-131117384D01*
X83911296Y-131117383D01*
X83911296Y-131117381D01*
X83898269Y-131099452D01*
X83888104Y-131082863D01*
X83888036Y-131082730D01*
X83878050Y-131063129D01*
X83788342Y-130973421D01*
X83613015Y-130798094D01*
X83080971Y-130266048D01*
X83080940Y-130266019D01*
X83060026Y-130245105D01*
X83060025Y-130245104D01*
X83040284Y-130235045D01*
X83023698Y-130224881D01*
X83005774Y-130211859D01*
X83005775Y-130211859D01*
X82984702Y-130205012D01*
X82966729Y-130197567D01*
X82946991Y-130187510D01*
X82946988Y-130187509D01*
X82925102Y-130184042D01*
X82906191Y-130179501D01*
X82885123Y-130172656D01*
X82885118Y-130172655D01*
X82885117Y-130172655D01*
X82885113Y-130172655D01*
X82845819Y-130172655D01*
X82778780Y-130152970D01*
X82733025Y-130100166D01*
X82723081Y-130031008D01*
X82733026Y-129997140D01*
X82735165Y-129992457D01*
X82735851Y-129987683D01*
X82742407Y-129961996D01*
X82744091Y-129957483D01*
X82744091Y-129957478D01*
X82744092Y-129957477D01*
X82746953Y-129917456D01*
X82747791Y-129905727D01*
X82748258Y-129901385D01*
X82750500Y-129885799D01*
X82750500Y-129870083D01*
X82750658Y-129865658D01*
X82754358Y-129813927D01*
X82754357Y-129813923D01*
X82753334Y-129809219D01*
X82750500Y-129782862D01*
X82750500Y-126194667D01*
X82751762Y-126177020D01*
X82755647Y-126150000D01*
X82735165Y-126007543D01*
X82675377Y-125876627D01*
X82581128Y-125767857D01*
X82460053Y-125690047D01*
X82460051Y-125690046D01*
X82460049Y-125690045D01*
X82460050Y-125690045D01*
X82321963Y-125649500D01*
X82321961Y-125649500D01*
X82178039Y-125649500D01*
X82178036Y-125649500D01*
X82039949Y-125690045D01*
X81918873Y-125767856D01*
X81824623Y-125876626D01*
X81824622Y-125876628D01*
X81764834Y-126007543D01*
X81744353Y-126150000D01*
X81748238Y-126177020D01*
X81749500Y-126194667D01*
X81749500Y-126942324D01*
X81729815Y-127009363D01*
X81677011Y-127055118D01*
X81607853Y-127065062D01*
X81544297Y-127036037D01*
X81537819Y-127030005D01*
X79286819Y-124779005D01*
X79253334Y-124717682D01*
X79250500Y-124691324D01*
X79250500Y-122749999D01*
X82794353Y-122749999D01*
X82798238Y-122777020D01*
X82799500Y-122794667D01*
X82799500Y-125369963D01*
X82807190Y-125396154D01*
X82810947Y-125413423D01*
X82814835Y-125440457D01*
X82826173Y-125465283D01*
X82832355Y-125481858D01*
X82840046Y-125508051D01*
X82840047Y-125508053D01*
X82854806Y-125531019D01*
X82863282Y-125546541D01*
X82874623Y-125571373D01*
X82886437Y-125585007D01*
X82892496Y-125592000D01*
X82903095Y-125606160D01*
X82917853Y-125629123D01*
X82917857Y-125629128D01*
X82938488Y-125647006D01*
X82950992Y-125659510D01*
X82968871Y-125680142D01*
X82968872Y-125680143D01*
X82991844Y-125694905D01*
X83005996Y-125705500D01*
X83026627Y-125723377D01*
X83049899Y-125734005D01*
X83051451Y-125734714D01*
X83066978Y-125743192D01*
X83089947Y-125757953D01*
X83116136Y-125765643D01*
X83132713Y-125771826D01*
X83157538Y-125783163D01*
X83157539Y-125783163D01*
X83157543Y-125783165D01*
X83184564Y-125787050D01*
X83201846Y-125790809D01*
X83228039Y-125798500D01*
X83264201Y-125798500D01*
X83564324Y-125798500D01*
X83631363Y-125818185D01*
X83652005Y-125834819D01*
X87431894Y-129614707D01*
X87434889Y-129617924D01*
X87468872Y-129657143D01*
X87512519Y-129685193D01*
X87516149Y-129687714D01*
X87557669Y-129718796D01*
X87562183Y-129720479D01*
X87585888Y-129732344D01*
X87589947Y-129734953D01*
X87639737Y-129749571D01*
X87643894Y-129750955D01*
X87692517Y-129769091D01*
X87697320Y-129769434D01*
X87723421Y-129774144D01*
X87724717Y-129774524D01*
X87728039Y-129775500D01*
X87779906Y-129775500D01*
X87784328Y-129775657D01*
X87836073Y-129779359D01*
X87840785Y-129778334D01*
X87867143Y-129775500D01*
X87871961Y-129775500D01*
X87873664Y-129775000D01*
X90544353Y-129775000D01*
X90564834Y-129917456D01*
X90621557Y-130041660D01*
X90624623Y-130048373D01*
X90718872Y-130157143D01*
X90839947Y-130234953D01*
X90839950Y-130234954D01*
X90839949Y-130234954D01*
X90978036Y-130275499D01*
X90978038Y-130275500D01*
X90978039Y-130275500D01*
X91121962Y-130275500D01*
X91121962Y-130275499D01*
X91260053Y-130234953D01*
X91381128Y-130157143D01*
X91475377Y-130048373D01*
X91535165Y-129917457D01*
X91555647Y-129775000D01*
X91535165Y-129632543D01*
X91475377Y-129501627D01*
X91381128Y-129392857D01*
X91260053Y-129315047D01*
X91260051Y-129315046D01*
X91260049Y-129315045D01*
X91260050Y-129315045D01*
X91121963Y-129274500D01*
X91121961Y-129274500D01*
X90978039Y-129274500D01*
X90978036Y-129274500D01*
X90839949Y-129315045D01*
X90718873Y-129392856D01*
X90624623Y-129501626D01*
X90624622Y-129501628D01*
X90564834Y-129632543D01*
X90544353Y-129775000D01*
X87873664Y-129775000D01*
X87921743Y-129760882D01*
X87926000Y-129759796D01*
X87976706Y-129748766D01*
X87980928Y-129746460D01*
X88005435Y-129736309D01*
X88006792Y-129735910D01*
X88010053Y-129734953D01*
X88053700Y-129706902D01*
X88057487Y-129704655D01*
X88103023Y-129679791D01*
X88106429Y-129676383D01*
X88127070Y-129659750D01*
X88131128Y-129657143D01*
X88165116Y-129617916D01*
X88168098Y-129614714D01*
X88204791Y-129578023D01*
X88207099Y-129573795D01*
X88222225Y-129552010D01*
X88225377Y-129548373D01*
X88246935Y-129501165D01*
X88248896Y-129497248D01*
X88273766Y-129451706D01*
X88274789Y-129447001D01*
X88283164Y-129421837D01*
X88285165Y-129417457D01*
X88292548Y-129366100D01*
X88293331Y-129361763D01*
X88304359Y-129311075D01*
X88304015Y-129306267D01*
X88304962Y-129279762D01*
X88305647Y-129275000D01*
X88298261Y-129223635D01*
X88297791Y-129219262D01*
X88294091Y-129167517D01*
X88292407Y-129163002D01*
X88285850Y-129137312D01*
X88285165Y-129132543D01*
X88276349Y-129113240D01*
X88263616Y-129085359D01*
X88261932Y-129081295D01*
X88243796Y-129032669D01*
X88240905Y-129028807D01*
X88227379Y-129006010D01*
X88225377Y-129001627D01*
X88225375Y-129001625D01*
X88225375Y-129001624D01*
X88225374Y-129001623D01*
X88191403Y-128962418D01*
X88188625Y-128958970D01*
X88179224Y-128946412D01*
X88179222Y-128946410D01*
X88179220Y-128946407D01*
X88168117Y-128935304D01*
X88165100Y-128932063D01*
X88131128Y-128892857D01*
X88127071Y-128890250D01*
X88106427Y-128873614D01*
X84224385Y-124991571D01*
X84207750Y-124970928D01*
X84205145Y-124966874D01*
X84205142Y-124966871D01*
X84198147Y-124960810D01*
X84165932Y-124932896D01*
X84162700Y-124929886D01*
X84151596Y-124918782D01*
X84151588Y-124918775D01*
X84139013Y-124909362D01*
X84135583Y-124906598D01*
X84096373Y-124872623D01*
X84096371Y-124872622D01*
X84096367Y-124872619D01*
X84091983Y-124870617D01*
X84069194Y-124857096D01*
X84065331Y-124854204D01*
X84065329Y-124854203D01*
X84016716Y-124836071D01*
X84012642Y-124834383D01*
X83965457Y-124812835D01*
X83965455Y-124812834D01*
X83960682Y-124812148D01*
X83935000Y-124805593D01*
X83930485Y-124803909D01*
X83915651Y-124802848D01*
X83850187Y-124778429D01*
X83808317Y-124722494D01*
X83800500Y-124679164D01*
X83800500Y-122794667D01*
X83801762Y-122777020D01*
X83805647Y-122749999D01*
X83801762Y-122722977D01*
X83800500Y-122705331D01*
X83800500Y-122689204D01*
X83800500Y-122689201D01*
X83798458Y-122675000D01*
X90694353Y-122675000D01*
X90714834Y-122817456D01*
X90774622Y-122948371D01*
X90774623Y-122948373D01*
X90868872Y-123057143D01*
X90989947Y-123134953D01*
X90989950Y-123134954D01*
X90989949Y-123134954D01*
X91128036Y-123175499D01*
X91128038Y-123175500D01*
X91128039Y-123175500D01*
X91271962Y-123175500D01*
X91271962Y-123175499D01*
X91410053Y-123134953D01*
X91531128Y-123057143D01*
X91625377Y-122948373D01*
X91685165Y-122817457D01*
X91705647Y-122675000D01*
X91685165Y-122532543D01*
X91625377Y-122401627D01*
X91531128Y-122292857D01*
X91410053Y-122215047D01*
X91410051Y-122215046D01*
X91410049Y-122215045D01*
X91410050Y-122215045D01*
X91271963Y-122174500D01*
X91271961Y-122174500D01*
X91128039Y-122174500D01*
X91128036Y-122174500D01*
X90989949Y-122215045D01*
X90868873Y-122292856D01*
X90774623Y-122401626D01*
X90774622Y-122401628D01*
X90714834Y-122532543D01*
X90694353Y-122675000D01*
X83798458Y-122675000D01*
X83785165Y-122582543D01*
X83725377Y-122451627D01*
X83631128Y-122342857D01*
X83510053Y-122265047D01*
X83510051Y-122265046D01*
X83510049Y-122265045D01*
X83510050Y-122265045D01*
X83371963Y-122224500D01*
X83371961Y-122224500D01*
X83228039Y-122224500D01*
X83228036Y-122224500D01*
X83089949Y-122265045D01*
X82968873Y-122342856D01*
X82874623Y-122451626D01*
X82874622Y-122451628D01*
X82814834Y-122582543D01*
X82799500Y-122689202D01*
X82799500Y-122705331D01*
X82798238Y-122722977D01*
X82794353Y-122749999D01*
X79250500Y-122749999D01*
X79250500Y-119494667D01*
X79251762Y-119477020D01*
X79255647Y-119450000D01*
X79235165Y-119307543D01*
X79175377Y-119176627D01*
X79081128Y-119067857D01*
X78960053Y-118990047D01*
X78960051Y-118990046D01*
X78960049Y-118990045D01*
X78960050Y-118990045D01*
X78821963Y-118949500D01*
X78821961Y-118949500D01*
X78678039Y-118949500D01*
X78678036Y-118949500D01*
X78539949Y-118990045D01*
X78418873Y-119067856D01*
X78324623Y-119176626D01*
X78324622Y-119176628D01*
X78264834Y-119307543D01*
X78244353Y-119450000D01*
X78248238Y-119477020D01*
X78249500Y-119494667D01*
X78249500Y-124882858D01*
X78246667Y-124909206D01*
X78245641Y-124913927D01*
X78245641Y-124913929D01*
X78245641Y-124913930D01*
X78249342Y-124965669D01*
X78249500Y-124970094D01*
X78249500Y-124985799D01*
X78251734Y-125001343D01*
X78252207Y-125005740D01*
X78255909Y-125057485D01*
X78257593Y-125062000D01*
X78264148Y-125087682D01*
X78264834Y-125092455D01*
X78264835Y-125092457D01*
X78286383Y-125139642D01*
X78288071Y-125143716D01*
X78306203Y-125192329D01*
X78309096Y-125196194D01*
X78322617Y-125218983D01*
X78324619Y-125223367D01*
X78324622Y-125223371D01*
X78324623Y-125223373D01*
X78358598Y-125262583D01*
X78361362Y-125266013D01*
X78370775Y-125278588D01*
X78370782Y-125278596D01*
X78381886Y-125289700D01*
X78384896Y-125292932D01*
X78412810Y-125325147D01*
X78418871Y-125332142D01*
X78418874Y-125332145D01*
X78422928Y-125334750D01*
X78443571Y-125351385D01*
X81031901Y-127939715D01*
X81034896Y-127942932D01*
X81050500Y-127960940D01*
X81068871Y-127982142D01*
X81068872Y-127982143D01*
X81112511Y-128010188D01*
X81116134Y-128012703D01*
X81157669Y-128043796D01*
X81162183Y-128045479D01*
X81185888Y-128057344D01*
X81189947Y-128059953D01*
X81239737Y-128074571D01*
X81243894Y-128075955D01*
X81292517Y-128094091D01*
X81297320Y-128094434D01*
X81323421Y-128099144D01*
X81324717Y-128099524D01*
X81328039Y-128100500D01*
X81379906Y-128100500D01*
X81384328Y-128100657D01*
X81436073Y-128104359D01*
X81440785Y-128103334D01*
X81467143Y-128100500D01*
X81471961Y-128100500D01*
X81521743Y-128085882D01*
X81526000Y-128084796D01*
X81576706Y-128073766D01*
X81576710Y-128073763D01*
X81582163Y-128071730D01*
X81651855Y-128066744D01*
X81713179Y-128100227D01*
X81746665Y-128161550D01*
X81749500Y-128187911D01*
X81749500Y-129591323D01*
X81729815Y-129658362D01*
X81713181Y-129679004D01*
X80801738Y-130590446D01*
X80781108Y-130607073D01*
X80777046Y-130609684D01*
X80777037Y-130609691D01*
X80743075Y-130648885D01*
X80740062Y-130652121D01*
X80728951Y-130663232D01*
X80719524Y-130675826D01*
X80716757Y-130679258D01*
X80703545Y-130694506D01*
X80682793Y-130718456D01*
X80682787Y-130718466D01*
X80680785Y-130722850D01*
X80667270Y-130745629D01*
X80664376Y-130749494D01*
X80664370Y-130749505D01*
X80646248Y-130798094D01*
X80644555Y-130802183D01*
X80623005Y-130849373D01*
X80623003Y-130849380D01*
X80622316Y-130854157D01*
X80615768Y-130879816D01*
X80614080Y-130884343D01*
X80614079Y-130884346D01*
X80611822Y-130915895D01*
X80587403Y-130981358D01*
X80531468Y-131023228D01*
X80461776Y-131028210D01*
X80400457Y-130994726D01*
X80313406Y-130907675D01*
X79999302Y-130593570D01*
X79982668Y-130572928D01*
X79980063Y-130568874D01*
X79980060Y-130568871D01*
X79952728Y-130545188D01*
X79940850Y-130534896D01*
X79937618Y-130531886D01*
X79926514Y-130520782D01*
X79926506Y-130520775D01*
X79913931Y-130511362D01*
X79910501Y-130508598D01*
X79871291Y-130474623D01*
X79871289Y-130474622D01*
X79871285Y-130474619D01*
X79866901Y-130472617D01*
X79844112Y-130459096D01*
X79840249Y-130456204D01*
X79840247Y-130456203D01*
X79791634Y-130438071D01*
X79787560Y-130436383D01*
X79740375Y-130414835D01*
X79740373Y-130414834D01*
X79735600Y-130414148D01*
X79709918Y-130407593D01*
X79705403Y-130405909D01*
X79653658Y-130402207D01*
X79649261Y-130401734D01*
X79633717Y-130399500D01*
X79618012Y-130399500D01*
X79613589Y-130399342D01*
X79596001Y-130398084D01*
X79561847Y-130395641D01*
X79561843Y-130395641D01*
X79557133Y-130396666D01*
X79530775Y-130399500D01*
X77817138Y-130399500D01*
X77790781Y-130396666D01*
X77786076Y-130395642D01*
X77786068Y-130395642D01*
X77741357Y-130398840D01*
X77734337Y-130399342D01*
X77729915Y-130399500D01*
X77678039Y-130399500D01*
X77673406Y-130400860D01*
X77647329Y-130405564D01*
X77642517Y-130405909D01*
X77642514Y-130405910D01*
X77637996Y-130407595D01*
X77612320Y-130414148D01*
X77607540Y-130414835D01*
X77582711Y-130426174D01*
X77566142Y-130432354D01*
X77539951Y-130440045D01*
X77539941Y-130440049D01*
X77535874Y-130442663D01*
X77512194Y-130454516D01*
X77507671Y-130456203D01*
X77507663Y-130456207D01*
X77503796Y-130459102D01*
X77481025Y-130472613D01*
X77476629Y-130474620D01*
X77476625Y-130474623D01*
X77456000Y-130492495D01*
X77441840Y-130503095D01*
X77418876Y-130517853D01*
X77418869Y-130517858D01*
X77400991Y-130538490D01*
X77388491Y-130550990D01*
X77367860Y-130568868D01*
X77367850Y-130568880D01*
X77365242Y-130572938D01*
X77348614Y-130593570D01*
X77193568Y-130748616D01*
X77172938Y-130765243D01*
X77168876Y-130767854D01*
X77168867Y-130767861D01*
X77134905Y-130807055D01*
X77131892Y-130810291D01*
X77120781Y-130821402D01*
X77111354Y-130833996D01*
X77108587Y-130837428D01*
X77098238Y-130849373D01*
X77074623Y-130876626D01*
X77074617Y-130876636D01*
X77072615Y-130881020D01*
X77059100Y-130903799D01*
X77056206Y-130907664D01*
X77056200Y-130907675D01*
X77038078Y-130956264D01*
X77036385Y-130960352D01*
X77026197Y-130982663D01*
X76980444Y-131035468D01*
X76913405Y-131055155D01*
X76846365Y-131035473D01*
X76819688Y-131012358D01*
X76811634Y-131003063D01*
X76781128Y-130967857D01*
X76660053Y-130890047D01*
X76660051Y-130890046D01*
X76660049Y-130890045D01*
X76660050Y-130890045D01*
X76521963Y-130849500D01*
X76521961Y-130849500D01*
X76378039Y-130849500D01*
X76378036Y-130849500D01*
X76239949Y-130890045D01*
X76118873Y-130967856D01*
X76118872Y-130967856D01*
X76118872Y-130967857D01*
X76043229Y-131055155D01*
X76018815Y-131083330D01*
X76016187Y-131081053D01*
X75975971Y-131115876D01*
X75906809Y-131125795D01*
X75843264Y-131096747D01*
X75805510Y-131037956D01*
X75800500Y-131003063D01*
X75800500Y-130658674D01*
X75820185Y-130591635D01*
X75836814Y-130570997D01*
X76806428Y-129601383D01*
X76827069Y-129584750D01*
X76831128Y-129582143D01*
X76865129Y-129542902D01*
X76868100Y-129539711D01*
X76879220Y-129528593D01*
X76888645Y-129516000D01*
X76891390Y-129512594D01*
X76925377Y-129473373D01*
X76927375Y-129468995D01*
X76940907Y-129446189D01*
X76943796Y-129442331D01*
X76946916Y-129433967D01*
X76961919Y-129393738D01*
X76963614Y-129389645D01*
X76975360Y-129363925D01*
X76985165Y-129342457D01*
X76985850Y-129337685D01*
X76992409Y-129311992D01*
X76992752Y-129311073D01*
X76994091Y-129307483D01*
X76997791Y-129255736D01*
X76998260Y-129251369D01*
X77005647Y-129200000D01*
X77004961Y-129195234D01*
X77004015Y-129168729D01*
X77004359Y-129163927D01*
X76993330Y-129113234D01*
X76992547Y-129108895D01*
X76985165Y-129057543D01*
X76983162Y-129053158D01*
X76974788Y-129027995D01*
X76973765Y-129023291D01*
X76948904Y-128977763D01*
X76946921Y-128973802D01*
X76925378Y-128926629D01*
X76925376Y-128926626D01*
X76922218Y-128922981D01*
X76907103Y-128901210D01*
X76904791Y-128896977D01*
X76868111Y-128860297D01*
X76865103Y-128857067D01*
X76831128Y-128817857D01*
X76831125Y-128817854D01*
X76827066Y-128815246D01*
X76806428Y-128798614D01*
X76803023Y-128795209D01*
X76757493Y-128770347D01*
X76753688Y-128768089D01*
X76710053Y-128740047D01*
X76705420Y-128738686D01*
X76680939Y-128728545D01*
X76676706Y-128726234D01*
X76676704Y-128726233D01*
X76676703Y-128726233D01*
X76645368Y-128719416D01*
X76626008Y-128715204D01*
X76621727Y-128714111D01*
X76571961Y-128699500D01*
X76567143Y-128699500D01*
X76540785Y-128696666D01*
X76536074Y-128695641D01*
X76536070Y-128695641D01*
X76497552Y-128698396D01*
X76484328Y-128699342D01*
X76479906Y-128699500D01*
X76428036Y-128699500D01*
X76423412Y-128700858D01*
X76397330Y-128705564D01*
X76392517Y-128705909D01*
X76392514Y-128705909D01*
X76392514Y-128705910D01*
X76343916Y-128724035D01*
X76339717Y-128725432D01*
X76289947Y-128740046D01*
X76289942Y-128740049D01*
X76285882Y-128742658D01*
X76262194Y-128754516D01*
X76257673Y-128756202D01*
X76257670Y-128756203D01*
X76257669Y-128756204D01*
X76257667Y-128756205D01*
X76257666Y-128756206D01*
X76216154Y-128787280D01*
X76212521Y-128789803D01*
X76168871Y-128817857D01*
X76134891Y-128857071D01*
X76131875Y-128860310D01*
X74993568Y-129998616D01*
X74972938Y-130015243D01*
X74968876Y-130017854D01*
X74968867Y-130017861D01*
X74934905Y-130057055D01*
X74931892Y-130060291D01*
X74920781Y-130071402D01*
X74911354Y-130083996D01*
X74908587Y-130087428D01*
X74904340Y-130092331D01*
X74874623Y-130126626D01*
X74874617Y-130126636D01*
X74872615Y-130131020D01*
X74859100Y-130153799D01*
X74856206Y-130157664D01*
X74856200Y-130157675D01*
X74838078Y-130206264D01*
X74836385Y-130210353D01*
X74814835Y-130257543D01*
X74814833Y-130257550D01*
X74814146Y-130262327D01*
X74807598Y-130287986D01*
X74805910Y-130292513D01*
X74805909Y-130292517D01*
X74802207Y-130344260D01*
X74801734Y-130348656D01*
X74799500Y-130364199D01*
X74799500Y-130379904D01*
X74799342Y-130384329D01*
X74795641Y-130436069D01*
X74795641Y-130436073D01*
X74796666Y-130440785D01*
X74799500Y-130467143D01*
X74799500Y-132905331D01*
X74798238Y-132922977D01*
X74795597Y-132941349D01*
X74794353Y-132950000D01*
X74798803Y-132980949D01*
X74799500Y-132985798D01*
X74814834Y-133092456D01*
X74822983Y-133110299D01*
X74874623Y-133223373D01*
X74968872Y-133332143D01*
X75089947Y-133409953D01*
X75089950Y-133409954D01*
X75089949Y-133409954D01*
X75228036Y-133450499D01*
X75228038Y-133450500D01*
X75228039Y-133450500D01*
X75371962Y-133450500D01*
X75371962Y-133450499D01*
X75510053Y-133409953D01*
X75631128Y-133332143D01*
X75725377Y-133223373D01*
X75725378Y-133223371D01*
X75731185Y-133216670D01*
X75733818Y-133218952D01*
X75773974Y-133184148D01*
X75843131Y-133174196D01*
X75906690Y-133203212D01*
X75944473Y-133261986D01*
X75949500Y-133296936D01*
X75949500Y-137032858D01*
X75946667Y-137059206D01*
X75945641Y-137063927D01*
X75945641Y-137063929D01*
X75945641Y-137063930D01*
X75949342Y-137115669D01*
X75949500Y-137120094D01*
X75949500Y-137135799D01*
X75951734Y-137151343D01*
X75952207Y-137155740D01*
X75955909Y-137207485D01*
X75957593Y-137212000D01*
X75964148Y-137237682D01*
X75964834Y-137242455D01*
X75964835Y-137242457D01*
X75986383Y-137289642D01*
X75988071Y-137293716D01*
X76006203Y-137342329D01*
X76009096Y-137346194D01*
X76022617Y-137368983D01*
X76024619Y-137373367D01*
X76024622Y-137373371D01*
X76024623Y-137373373D01*
X76058598Y-137412583D01*
X76061362Y-137416013D01*
X76070775Y-137428588D01*
X76070782Y-137428596D01*
X76081886Y-137439700D01*
X76084896Y-137442932D01*
X76112810Y-137475147D01*
X76118871Y-137482142D01*
X76118873Y-137482144D01*
X76118937Y-137482185D01*
X76145611Y-137505298D01*
X76168872Y-137532143D01*
X76198743Y-137551340D01*
X76212511Y-137560188D01*
X76216134Y-137562703D01*
X76257669Y-137593796D01*
X76262183Y-137595479D01*
X76285888Y-137607344D01*
X76289947Y-137609953D01*
X76339737Y-137624571D01*
X76343902Y-137625958D01*
X76392517Y-137644091D01*
X76392519Y-137644091D01*
X76397884Y-137646092D01*
X76453817Y-137687964D01*
X76478233Y-137753428D01*
X76463381Y-137821701D01*
X76442230Y-137849954D01*
X74943568Y-139348616D01*
X74922938Y-139365243D01*
X74918876Y-139367854D01*
X74918867Y-139367861D01*
X74884905Y-139407055D01*
X74881892Y-139410291D01*
X74870781Y-139421402D01*
X74861354Y-139433996D01*
X74858587Y-139437428D01*
X74845375Y-139452676D01*
X74824623Y-139476626D01*
X74824617Y-139476636D01*
X74822615Y-139481020D01*
X74809100Y-139503799D01*
X74806206Y-139507664D01*
X74806200Y-139507675D01*
X74788078Y-139556264D01*
X74786385Y-139560353D01*
X74764835Y-139607543D01*
X74764833Y-139607550D01*
X74764146Y-139612327D01*
X74757598Y-139637986D01*
X74755910Y-139642513D01*
X74755909Y-139642516D01*
X74752207Y-139694256D01*
X74751734Y-139698655D01*
X74744353Y-139749997D01*
X74744353Y-139750003D01*
X72220582Y-139750003D01*
X72225215Y-139700000D01*
X72219888Y-139642516D01*
X72206397Y-139496917D01*
X72200624Y-139476626D01*
X72150582Y-139300750D01*
X72059673Y-139118179D01*
X71936764Y-138955421D01*
X71936762Y-138955418D01*
X71786041Y-138818019D01*
X71786039Y-138818017D01*
X71612642Y-138710655D01*
X71612635Y-138710651D01*
X71517546Y-138673814D01*
X71422456Y-138636976D01*
X71221976Y-138599500D01*
X71018024Y-138599500D01*
X70817544Y-138636976D01*
X70817541Y-138636976D01*
X70817541Y-138636977D01*
X70627364Y-138710651D01*
X70627357Y-138710655D01*
X70453960Y-138818017D01*
X70453958Y-138818019D01*
X70303237Y-138955418D01*
X70180327Y-139118178D01*
X70089422Y-139300739D01*
X70089417Y-139300752D01*
X70033602Y-139496917D01*
X70014785Y-139699999D01*
X70014785Y-139700000D01*
X69200500Y-139700000D01*
X69200500Y-138034678D01*
X70019500Y-138034678D01*
X70034032Y-138107735D01*
X70034033Y-138107739D01*
X70034034Y-138107740D01*
X70089399Y-138190601D01*
X70172260Y-138245966D01*
X70172264Y-138245967D01*
X70245321Y-138260499D01*
X70245324Y-138260500D01*
X70245326Y-138260500D01*
X71994676Y-138260500D01*
X71994677Y-138260499D01*
X72067740Y-138245966D01*
X72150601Y-138190601D01*
X72205966Y-138107740D01*
X72220500Y-138034674D01*
X72220500Y-137450000D01*
X74094353Y-137450000D01*
X74114834Y-137592456D01*
X74160137Y-137691653D01*
X74174623Y-137723373D01*
X74268872Y-137832143D01*
X74389947Y-137909953D01*
X74389950Y-137909954D01*
X74389949Y-137909954D01*
X74484609Y-137937748D01*
X74520427Y-137948265D01*
X74528036Y-137950499D01*
X74528038Y-137950500D01*
X74528039Y-137950500D01*
X74671962Y-137950500D01*
X74671962Y-137950499D01*
X74800708Y-137912697D01*
X74810050Y-137909954D01*
X74810050Y-137909953D01*
X74810053Y-137909953D01*
X74931128Y-137832143D01*
X75025377Y-137723373D01*
X75085165Y-137592457D01*
X75105647Y-137450000D01*
X75085165Y-137307543D01*
X75025377Y-137176627D01*
X74931128Y-137067857D01*
X74810053Y-136990047D01*
X74810051Y-136990046D01*
X74810049Y-136990045D01*
X74810050Y-136990045D01*
X74671963Y-136949500D01*
X74671961Y-136949500D01*
X74528039Y-136949500D01*
X74528036Y-136949500D01*
X74389949Y-136990045D01*
X74268873Y-137067856D01*
X74174623Y-137176626D01*
X74174622Y-137176628D01*
X74114834Y-137307543D01*
X74094353Y-137450000D01*
X72220500Y-137450000D01*
X72220500Y-136285326D01*
X72220500Y-136285323D01*
X72220499Y-136285321D01*
X72205967Y-136212264D01*
X72205966Y-136212260D01*
X72176297Y-136167857D01*
X72150601Y-136129399D01*
X72067740Y-136074034D01*
X72067739Y-136074033D01*
X72067735Y-136074032D01*
X71994677Y-136059500D01*
X71994674Y-136059500D01*
X70245326Y-136059500D01*
X70245323Y-136059500D01*
X70172264Y-136074032D01*
X70172260Y-136074033D01*
X70089399Y-136129399D01*
X70034033Y-136212260D01*
X70034032Y-136212264D01*
X70019500Y-136285321D01*
X70019500Y-138034678D01*
X69200500Y-138034678D01*
X69200500Y-133300000D01*
X70544353Y-133300000D01*
X70564834Y-133442456D01*
X70624622Y-133573371D01*
X70624623Y-133573373D01*
X70718872Y-133682143D01*
X70839947Y-133759953D01*
X70839950Y-133759954D01*
X70839949Y-133759954D01*
X70978036Y-133800499D01*
X70978038Y-133800500D01*
X70978039Y-133800500D01*
X71121962Y-133800500D01*
X71121962Y-133800499D01*
X71260053Y-133759953D01*
X71381128Y-133682143D01*
X71475377Y-133573373D01*
X71535165Y-133442457D01*
X71555647Y-133300000D01*
X71535165Y-133157543D01*
X71475377Y-133026627D01*
X71381128Y-132917857D01*
X71260053Y-132840047D01*
X71260051Y-132840046D01*
X71260049Y-132840045D01*
X71260050Y-132840045D01*
X71121963Y-132799500D01*
X71121961Y-132799500D01*
X70978039Y-132799500D01*
X70978036Y-132799500D01*
X70839949Y-132840045D01*
X70718873Y-132917856D01*
X70624623Y-133026626D01*
X70624622Y-133026628D01*
X70564834Y-133157543D01*
X70544353Y-133300000D01*
X69200500Y-133300000D01*
X69200500Y-117714678D01*
X70019500Y-117714678D01*
X70034032Y-117787735D01*
X70034033Y-117787739D01*
X70034034Y-117787740D01*
X70089399Y-117870601D01*
X70172260Y-117925966D01*
X70172264Y-117925967D01*
X70245321Y-117940499D01*
X70245324Y-117940500D01*
X70245326Y-117940500D01*
X71994676Y-117940500D01*
X71994677Y-117940499D01*
X72067740Y-117925966D01*
X72150601Y-117870601D01*
X72205966Y-117787740D01*
X72220500Y-117714674D01*
X72220500Y-116840000D01*
X72554785Y-116840000D01*
X72573602Y-117043082D01*
X72629417Y-117239247D01*
X72629422Y-117239260D01*
X72720327Y-117421821D01*
X72843237Y-117584581D01*
X72993958Y-117721980D01*
X72993960Y-117721982D01*
X73093141Y-117783392D01*
X73167363Y-117829348D01*
X73357544Y-117903024D01*
X73558024Y-117940500D01*
X73558026Y-117940500D01*
X73761974Y-117940500D01*
X73761976Y-117940500D01*
X73962456Y-117903024D01*
X74152637Y-117829348D01*
X74326041Y-117721981D01*
X74476764Y-117584579D01*
X74599673Y-117421821D01*
X74690582Y-117239250D01*
X74746397Y-117043083D01*
X74765215Y-116840000D01*
X75094785Y-116840000D01*
X75113602Y-117043082D01*
X75169417Y-117239247D01*
X75169422Y-117239260D01*
X75260327Y-117421821D01*
X75383237Y-117584581D01*
X75533958Y-117721980D01*
X75533960Y-117721982D01*
X75633141Y-117783392D01*
X75707363Y-117829348D01*
X75897544Y-117903024D01*
X76098024Y-117940500D01*
X76098026Y-117940500D01*
X76301974Y-117940500D01*
X76301976Y-117940500D01*
X76502456Y-117903024D01*
X76692637Y-117829348D01*
X76866041Y-117721981D01*
X77016764Y-117584579D01*
X77139673Y-117421821D01*
X77230582Y-117239250D01*
X77286397Y-117043083D01*
X77305215Y-116840000D01*
X77634785Y-116840000D01*
X77653602Y-117043082D01*
X77709417Y-117239247D01*
X77709422Y-117239260D01*
X77800327Y-117421821D01*
X77923237Y-117584581D01*
X78073958Y-117721980D01*
X78073960Y-117721982D01*
X78173141Y-117783392D01*
X78247363Y-117829348D01*
X78437544Y-117903024D01*
X78638024Y-117940500D01*
X78638026Y-117940500D01*
X78841974Y-117940500D01*
X78841976Y-117940500D01*
X79042456Y-117903024D01*
X79232637Y-117829348D01*
X79406041Y-117721981D01*
X79556764Y-117584579D01*
X79679673Y-117421821D01*
X79770582Y-117239250D01*
X79826397Y-117043083D01*
X79845215Y-116840000D01*
X79826397Y-116636917D01*
X79770582Y-116440750D01*
X79679673Y-116258179D01*
X79556764Y-116095421D01*
X79556762Y-116095418D01*
X79406041Y-115958019D01*
X79406039Y-115958017D01*
X79232642Y-115850655D01*
X79232635Y-115850651D01*
X79126150Y-115809399D01*
X79042456Y-115776976D01*
X78841976Y-115739500D01*
X78638024Y-115739500D01*
X78437544Y-115776976D01*
X78437541Y-115776976D01*
X78437541Y-115776977D01*
X78247364Y-115850651D01*
X78247357Y-115850655D01*
X78073960Y-115958017D01*
X78073958Y-115958019D01*
X77923237Y-116095418D01*
X77800327Y-116258178D01*
X77709422Y-116440739D01*
X77709417Y-116440752D01*
X77653602Y-116636917D01*
X77634785Y-116839999D01*
X77634785Y-116840000D01*
X77305215Y-116840000D01*
X77286397Y-116636917D01*
X77230582Y-116440750D01*
X77139673Y-116258179D01*
X77016764Y-116095421D01*
X77016762Y-116095418D01*
X76866041Y-115958019D01*
X76866039Y-115958017D01*
X76692642Y-115850655D01*
X76692635Y-115850651D01*
X76586150Y-115809399D01*
X76502456Y-115776976D01*
X76301976Y-115739500D01*
X76098024Y-115739500D01*
X75897544Y-115776976D01*
X75897541Y-115776976D01*
X75897541Y-115776977D01*
X75707364Y-115850651D01*
X75707357Y-115850655D01*
X75533960Y-115958017D01*
X75533958Y-115958019D01*
X75383237Y-116095418D01*
X75260327Y-116258178D01*
X75169422Y-116440739D01*
X75169417Y-116440752D01*
X75113602Y-116636917D01*
X75094785Y-116839999D01*
X75094785Y-116840000D01*
X74765215Y-116840000D01*
X74746397Y-116636917D01*
X74690582Y-116440750D01*
X74599673Y-116258179D01*
X74476764Y-116095421D01*
X74476762Y-116095418D01*
X74326041Y-115958019D01*
X74326039Y-115958017D01*
X74152642Y-115850655D01*
X74152635Y-115850651D01*
X74046150Y-115809399D01*
X73962456Y-115776976D01*
X73761976Y-115739500D01*
X73558024Y-115739500D01*
X73357544Y-115776976D01*
X73357541Y-115776976D01*
X73357541Y-115776977D01*
X73167364Y-115850651D01*
X73167357Y-115850655D01*
X72993960Y-115958017D01*
X72993958Y-115958019D01*
X72843237Y-116095418D01*
X72720327Y-116258178D01*
X72629422Y-116440739D01*
X72629417Y-116440752D01*
X72573602Y-116636917D01*
X72554785Y-116839999D01*
X72554785Y-116840000D01*
X72220500Y-116840000D01*
X72220500Y-115965326D01*
X72220500Y-115965323D01*
X72220499Y-115965321D01*
X72205967Y-115892264D01*
X72205966Y-115892260D01*
X72150601Y-115809399D01*
X72067740Y-115754034D01*
X72067739Y-115754033D01*
X72067735Y-115754032D01*
X71994677Y-115739500D01*
X71994674Y-115739500D01*
X70245326Y-115739500D01*
X70245323Y-115739500D01*
X70172264Y-115754032D01*
X70172260Y-115754033D01*
X70089399Y-115809399D01*
X70034033Y-115892260D01*
X70034032Y-115892264D01*
X70019500Y-115965321D01*
X70019500Y-117714678D01*
X69200500Y-117714678D01*
X69200500Y-115074500D01*
X69220185Y-115007461D01*
X69272989Y-114961706D01*
X69324500Y-114950500D01*
X93275500Y-114950500D01*
X93342539Y-114970185D01*
G37*
%TD.AperFunction*%
%TD*%
M02*
