M48
; DRILL file {KiCad 7.0.9} date Wed Apr 10 11:27:07 2024
; FORMAT={-:-/ absolute / metric / decimal}
; #@! TF.CreationDate,2024-04-10T11:27:07+02:00
; #@! TF.GenerationSoftware,Kicad,Pcbnew,7.0.9
; #@! TF.FileFunction,Plated,1,4,PTH
FMAT,2
METRIC
; #@! TA.AperFunction,Plated,PTH,ViaDrill
T1C0.200
; #@! TA.AperFunction,Plated,PTH,ComponentDrill
T2C1.000
%
G90
G05
T1
X71.05Y-133.3
X74.6Y-137.45
X75.25Y-139.75
X75.3Y-132.95
X76.1Y-147.1
X76.45Y-131.35
X76.5Y-129.2
X76.5Y-137.15
X77.75Y-130.9
X78.575Y-132.425
X78.575Y-133.0
X78.575Y-133.575
X78.575Y-134.15
X78.575Y-134.7
X78.575Y-135.275
X78.75Y-119.45
X78.8Y-137.45
X79.2Y-132.45
X79.2Y-133.025
X79.2Y-133.6
X79.2Y-134.175
X79.2Y-134.725
X79.2Y-135.3
X79.4Y-136.55
X79.825Y-132.425
X79.825Y-133.0
X79.825Y-133.575
X79.825Y-134.15
X79.825Y-134.7
X79.825Y-135.275
X80.35Y-140.5
X81.108Y-131.055
X81.4Y-127.6
X81.874Y-134.274
X82.1Y-136.35
X82.1Y-138.05
X82.136Y-133.323
X82.25Y-126.15
X82.485Y-130.605
X82.95Y-131.55
X83.3Y-122.75
X85.5Y-136.35
X85.5Y-138.3
X86.028Y-131.627
X86.05Y-145.5
X86.725Y-139.275
X87.8Y-129.275
X89.85Y-133.85
X91.05Y-129.775
X91.2Y-122.675
T2
X71.12Y-116.84
X71.12Y-137.16
X71.12Y-139.7
X71.12Y-142.24
X71.12Y-144.78
X71.12Y-147.32
X71.12Y-149.86
X73.66Y-116.84
X76.2Y-116.84
X78.74Y-116.84
X91.44Y-137.16
X91.44Y-139.7
X91.44Y-142.24
X91.44Y-144.78
X91.44Y-147.32
X91.44Y-149.86
T0
M30
